<?xml version="1.0" encoding="UTF-8" standalone="no"?>
<!-- Created with Inkscape (http://www.inkscape.org/) -->
<svg
   xmlns:dc="http://purl.org/dc/elements/1.1/"
   xmlns:cc="http://web.resource.org/cc/"
   xmlns:rdf="http://www.w3.org/1999/02/22-rdf-syntax-ns#"
   xmlns:svg="http://www.w3.org/2000/svg"
   xmlns="http://www.w3.org/2000/svg"
   xmlns:xlink="http://www.w3.org/1999/xlink"
   xmlns:sodipodi="http://sodipodi.sourceforge.net/DTD/sodipodi-0.dtd"
   xmlns:inkscape="http://www.inkscape.org/namespaces/inkscape"
   width="689.35437"
   height="849.55383"
   id="svg2"
   sodipodi:version="0.32"
   inkscape:version="0.45"
   version="1.0"
   sodipodi:docname="lastfm.svg"
   sodipodi:docbase="/home/leo/Desktop/amarok/src/context/applets/lastfmevents"
   inkscape:output_extension="org.inkscape.output.svg.inkscape"
   sodipodi:modified="true">
  <defs
     id="defs4">
    <linearGradient
       inkscape:collect="always"
       id="linearGradient4304">
      <stop
         style="stop-color:#bf0000;stop-opacity:1;"
         offset="0"
         id="stop4306" />
      <stop
         style="stop-color:#bf0000;stop-opacity:0;"
         offset="1"
         id="stop4308" />
    </linearGradient>
    <linearGradient
       id="linearGradient3311">
      <stop
         style="stop-color:#8c0000;stop-opacity:1;"
         offset="0"
         id="stop3313" />
      <stop
         style="stop-color:#8c0000;stop-opacity:0;"
         offset="1"
         id="stop3315" />
    </linearGradient>
    <linearGradient
       inkscape:collect="always"
       xlink:href="#linearGradient4304"
       id="linearGradient6275"
       gradientUnits="userSpaceOnUse"
       gradientTransform="matrix(1.0021277,0,0,-0.9982268,-674.35373,948.0581)"
       x1="1041.6458"
       y1="76.25"
       x2="1041.6371"
       y2="112.37453" />
    <linearGradient
       inkscape:collect="always"
       xlink:href="#linearGradient4304"
       id="linearGradient6280"
       gradientUnits="userSpaceOnUse"
       gradientTransform="matrix(1.002127,0,0,0.9982268,-674.35368,-8.3979796)"
       x1="1041.6458"
       y1="76.25"
       x2="1041.6371"
       y2="112.37453" />
  </defs>
  <sodipodi:namedview
     id="base"
     pagecolor="#ffffff"
     bordercolor="#666666"
     borderopacity="1.0"
     gridtolerance="10000"
     guidetolerance="10"
     objecttolerance="10"
     inkscape:pageopacity="0.0"
     inkscape:pageshadow="2"
     inkscape:zoom="0.7"
     inkscape:cx="367.97001"
     inkscape:cy="446.23123"
     inkscape:document-units="px"
     inkscape:current-layer="layer1"
     inkscape:window-width="1668"
     inkscape:window-height="991"
     inkscape:window-x="0"
     inkscape:window-y="30"
     showgrid="false" />
  <metadata
     id="metadata7">
    <rdf:RDF>
      <cc:Work
         rdf:about="">
        <dc:format>image/svg+xml</dc:format>
        <dc:type
           rdf:resource="http://purl.org/dc/dcmitype/StillImage" />
      </cc:Work>
    </rdf:RDF>
  </metadata>
  <g
     inkscape:label="Layer 1"
     inkscape:groupmode="layer"
     id="layer1"
     transform="translate(-29.160886,-43.818059)">
    <rect
       style="opacity:0.5;fill:#000000;fill-opacity:1;fill-rule:evenodd;stroke:#ffffff;stroke-width:0.84212315;stroke-miterlimit:4;stroke-dasharray:none;stroke-dashoffset:0;stroke-opacity:1"
       id="rect2202"
       width="688.51227"
       height="848.71173"
       x="29.581947"
       y="44.23912"
       rx="15.932516"
       ry="17.071787"
       inkscape:export-filename="/home/beast/Work/amarok applets/last.fm/last.fm.png"
       inkscape:export-xdpi="90"
       inkscape:export-ydpi="90" />
    <rect
       style="fill:#d3d7cf;fill-opacity:1;fill-rule:nonzero;stroke:none;stroke-width:13.11699963;stroke-linecap:round;stroke-linejoin:round;stroke-miterlimit:4;stroke-dasharray:none;stroke-opacity:1"
       id="friendevents"
       width="645.8399"
       height="249.5567"
       x="49.621147"
       y="96.242218"
       inkscape:export-filename="/home/beast/Work/amarok applets/last.fm/last.fm.png"
       inkscape:export-xdpi="90"
       inkscape:export-ydpi="90" />
    <path
       style="fill:url(#linearGradient6280);fill-opacity:1;fill-rule:evenodd;stroke:none;stroke-width:1;stroke-miterlimit:4;stroke-dasharray:none;stroke-dashoffset:0;stroke-opacity:1"
       d="M 59.548217,67.716815 C 54.039603,67.716815 49.620886,72.168906 49.620886,77.699083 L 49.620886,95.043269 C 49.620886,95.529266 49.648621,96.01116 49.714825,96.47822 L 49.714825,96.103885 L 695.39836,96.103885 C 695.4341,95.757461 695.46089,95.399536 695.46089,95.043269 L 695.46089,77.699083 C 695.46089,72.168906 691.04208,67.716815 685.53367,67.716815 L 59.548217,67.716815 z "
       id="rect3320"
       inkscape:export-filename="/home/beast/Work/amarok applets/last.fm/last.fm.png"
       inkscape:export-xdpi="90"
       inkscape:export-ydpi="90" />
    <path
       style="fill:#ffffff;fill-opacity:1"
       d="M 61.877448,75.018635 L 61.877448,82.7945 C 61.877448,87.069089 62.006865,90.681399 62.176382,90.826833 C 62.345901,90.972277 62.883984,91.038338 63.372114,90.978392 C 64.229488,90.873096 64.264248,90.604263 64.377615,82.946048 L 64.499907,75.018635 L 63.181884,75.018635 L 61.877448,75.018635 z M 103.59221,75.053612 C 103.21945,75.050164 102.68361,75.21611 101.89373,75.566559 C 100.31092,76.268812 98.966869,77.722156 98.60546,79.133895 C 98.412504,79.887662 98.06263,80.241402 97.491258,80.241402 C 96.8904,80.241402 96.662396,80.502965 96.662396,81.174038 C 96.662396,81.857975 96.894298,82.106681 97.532028,82.106681 C 98.350497,82.106681 98.40165,82.359269 98.40166,86.338523 C 98.40166,88.663898 98.531066,90.681399 98.70058,90.826833 C 98.870105,90.972277 99.408194,91.038338 99.896323,90.978392 C 100.72374,90.876765 100.8014,90.579677 100.91541,86.513386 L 101.0377,82.15331 L 102.65465,82.036728 C 103.93703,81.945455 104.27161,81.765758 104.27161,81.174038 C 104.27161,80.581152 103.93675,80.403361 102.64107,80.311356 C 100.47205,80.157332 100.51829,79.393937 102.80413,77.583385 C 103.96061,76.667353 104.50539,75.96065 104.33954,75.589872 C 104.17888,75.230642 103.96497,75.05705 103.59221,75.053612 z M 88.006926,78.003074 C 87.207543,78.040718 87.096535,78.243952 87.096539,79.075605 C 87.096539,79.712229 86.819869,80.248712 86.417146,80.381298 C 85.614035,80.645712 85.753427,82.342176 86.566612,82.199939 C 86.948511,82.133145 87.095378,82.874112 87.096539,84.811328 C 87.098448,87.987086 88.030214,89.672871 90.248926,90.500412 C 92.39595,91.30122 93.183904,91.201414 93.183904,90.127362 C 93.183904,89.448971 92.887493,89.146394 92.083285,88.973217 C 90.373117,88.604962 89.705407,87.443016 89.705411,84.846305 L 89.705411,82.52636 L 91.335948,82.409789 C 92.749344,82.309424 92.966493,82.168997 92.966503,81.360571 C 92.966503,80.552137 92.749334,80.41171 91.335948,80.311356 C 89.852158,80.205993 89.705407,80.096874 89.705411,79.09892 C 89.705411,78.129132 89.554517,78.003074 88.400976,78.003074 C 88.257379,78.003074 88.121125,77.99769 88.006926,78.003074 z M 82.028263,79.856691 C 79.497684,79.925045 77.141484,82.571699 79.161221,84.683084 C 79.579728,85.120588 80.901635,85.7763 82.096203,86.140336 C 84.603997,86.90456 85.043431,87.74258 83.414225,88.658457 C 81.63177,89.660486 80.723096,89.008645 78.468241,85.079457 C 76.090058,80.935356 74.65694,79.866138 71.484075,79.868353 C 67.505235,79.871117 64.744463,82.359568 65.029835,85.685672 C 65.221042,87.914264 66.429428,89.56875 68.494742,90.44212 C 70.24495,91.18225 72.320638,91.223553 74.174472,90.558703 C 76.244542,89.816301 76.763981,89.121519 76.212653,87.877371 L 75.764252,86.85147 L 74.799515,87.597579 C 73.010268,88.995193 71.969445,89.274475 70.329104,88.810006 C 68.452247,88.27857 67.529998,87.174424 67.530003,85.46417 C 67.530003,84.734759 67.822766,83.771077 68.182222,83.330761 C 69.065859,82.248378 71.436688,81.601353 72.842861,82.060043 C 73.9225,82.412225 75.791425,84.135893 75.791429,84.776351 C 75.791429,84.958176 76.413103,86.20608 77.177393,87.55095 C 78.619085,90.087811 79.97302,91.059997 82.055438,91.059997 C 84.493751,91.059997 86.661721,89.337166 86.661726,87.399391 C 86.661726,86.238813 85.003434,84.761598 83.156056,84.28672 C 80.851753,83.694392 80.196396,83.013864 81.158638,82.188287 C 81.761419,81.671123 82.041602,81.634692 82.74842,82.013414 C 84.734536,83.077595 85.990495,82.163315 84.460493,80.766011 C 83.733396,80.101978 82.87179,79.833906 82.028263,79.856691 z M 116.07948,79.891668 C 115.1234,79.881305 114.20697,80.131639 113.45701,80.637777 L 112.31563,81.407201 L 111.16067,80.637777 C 108.70151,78.978138 104.99312,80.297489 104.06779,83.155898 C 103.56287,84.715643 103.44966,90.424729 103.91833,90.826833 C 104.08785,90.972277 104.62593,91.038338 105.11405,90.978392 C 105.92359,90.87897 106.02996,90.545491 106.22828,87.107947 C 106.36673,84.707535 106.66344,83.116078 107.04354,82.724548 C 107.75688,81.989754 109.84636,81.911865 110.50845,82.596313 C 110.768,82.864636 111.03765,84.837166 111.10631,86.979703 L 111.22861,90.873471 L 112.42433,90.990053 L 113.62006,91.106625 L 113.62006,87.28281 C 113.62006,84.252513 113.76926,83.324134 114.34022,82.782839 C 115.17547,81.990996 117.21462,81.88751 117.90024,82.596313 C 118.15981,82.864636 118.42944,84.837166 118.4981,86.979703 C 118.62239,90.857678 118.6253,90.873471 119.70744,90.873471 L 120.79446,90.873471 L 120.79446,86.921422 C 120.79446,82.537694 120.31064,81.27549 118.32146,80.39296 C 117.5842,80.065846 116.82308,79.899718 116.07948,79.891668 z M 120.57706,81.593725 C 120.58313,81.648915 120.60447,81.699049 120.63141,81.745284 L 120.57706,81.593725 z M 95.154153,83.657191 C 94.901144,83.646868 94.602403,83.673225 94.243751,83.750449 C 93.076821,84.001737 92.771522,85.331862 93.700247,86.128674 C 94.769122,87.045747 96.227585,86.43518 96.227585,85.067805 C 96.227585,84.121611 95.91314,83.688133 95.154153,83.657191 z "
       id="path9211"
       inkscape:export-filename="/home/beast/Work/amarok applets/last.fm/last.fm.png"
       inkscape:export-xdpi="90"
       inkscape:export-ydpi="90" />
    <rect
       inkscape:export-ydpi="90"
       inkscape:export-xdpi="90"
       inkscape:export-filename="/home/beast/Work/amarok applets/last.fm/last.fm.png"
       y="594.0899"
       x="49.620888"
       height="249.5567"
       width="645.8399"
       id="userevents"
       style="fill:#d3d7cf;fill-opacity:1;fill-rule:nonzero;stroke:none;stroke-width:13.11699963;stroke-linecap:round;stroke-linejoin:round;stroke-miterlimit:4;stroke-dasharray:none;stroke-opacity:1"
       inkscape:label="#rect4313" />
    <path
       id="path4315"
       d="M 59.548213,871.9433 C 54.039598,871.9433 49.620886,867.49121 49.620886,861.96103 L 49.620886,844.61684 C 49.620886,844.13085 49.648615,843.64895 49.714835,843.18189 L 49.714835,843.55623 L 695.39835,843.55623 C 695.43422,843.90265 695.46088,844.26058 695.46088,844.61684 L 695.46088,861.96103 C 695.46088,867.49121 691.04221,871.9433 685.53361,871.9433 L 59.548213,871.9433 z "
       style="fill:url(#linearGradient6275);fill-opacity:1;fill-rule:evenodd;stroke:none;stroke-width:1;stroke-miterlimit:4;stroke-dasharray:none;stroke-dashoffset:0;stroke-opacity:1"
       inkscape:export-filename="/home/beast/Work/amarok applets/last.fm/last.fm.png"
       inkscape:export-xdpi="90"
       inkscape:export-ydpi="90" />
    <rect
       style="fill:#babdb6;fill-opacity:1;fill-rule:nonzero;stroke:none;stroke-width:13.11699963;stroke-linecap:round;stroke-linejoin:round;stroke-miterlimit:4;stroke-dasharray:none;stroke-opacity:1"
       id="sysevents"
       width="645.8399"
       height="249.5567"
       x="49.620888"
       y="345.32001"
       inkscape:export-filename="/home/beast/Work/amarok applets/last.fm/last.fm.png"
       inkscape:export-xdpi="90"
       inkscape:export-ydpi="90"
       inkscape:label="#rect4319" />
    <text
       xml:space="preserve"
       style="font-size:47.44190979px;font-style:normal;font-variant:normal;font-weight:bold;font-stretch:normal;text-align:start;line-height:125%;writing-mode:lr-tb;text-anchor:start;opacity:0.25;fill:#fff9f9;fill-opacity:1;stroke:#858585;stroke-width:0.9038685px;stroke-linecap:butt;stroke-linejoin:miter;stroke-opacity:1;font-family:Bitstream Vera Sans"
       x="228.8495"
       y="142.41852"
       id="text6287"
       transform="scale(0.918558,1.0886629)"
       sodipodi:linespacing="125%"
       inkscape:export-filename="/home/beast/Work/amarok applets/last.fm/last.fm.png"
       inkscape:export-xdpi="90"
       inkscape:export-ydpi="90"><tspan
         sodipodi:role="line"
         id="tspan6289"
         x="228.8495"
         y="142.41852"
         style="font-size:47.44190979px;font-style:normal;font-variant:normal;font-weight:bold;font-stretch:normal;text-align:start;line-height:125%;writing-mode:lr-tb;text-anchor:start;stroke-width:0.9038685;font-family:Bitstream Vera Sans;fill:#fff9f9;fill-opacity:1">friend events</tspan></text>
    <text
       transform="scale(0.9114485,1.0971547)"
       id="text6291"
       y="362.65222"
       x="130.38631"
       style="font-size:47.41197586px;font-style:normal;font-variant:normal;font-weight:bold;font-stretch:normal;text-align:start;line-height:125%;writing-mode:lr-tb;text-anchor:start;opacity:0.25;fill:#fff9f9;fill-opacity:1;stroke:#858585;stroke-width:0.90329826px;stroke-linecap:butt;stroke-linejoin:miter;stroke-opacity:1;font-family:Bitstream Vera Sans"
       xml:space="preserve"
       sodipodi:linespacing="125%"
       inkscape:export-filename="/home/beast/Work/amarok applets/last.fm/last.fm.png"
       inkscape:export-xdpi="90"
       inkscape:export-ydpi="90"><tspan
         sodipodi:role="line"
         id="tspan6295"
         x="130.38631"
         y="362.65222"
         style="font-size:47.41197586px;font-style:normal;font-variant:normal;font-weight:bold;font-stretch:normal;text-align:start;line-height:125%;writing-mode:lr-tb;text-anchor:start;stroke-width:0.90329826;font-family:Bitstream Vera Sans;fill:#fff9f9;fill-opacity:1">recommended events</tspan></text>
    <text
       sodipodi:linespacing="125%"
       xml:space="preserve"
       style="font-size:45.49414825px;font-style:normal;font-variant:normal;font-weight:bold;font-stretch:normal;text-align:start;line-height:125%;writing-mode:lr-tb;text-anchor:start;opacity:0.25;fill:#fff9f9;fill-opacity:1;stroke:#858585;stroke-width:0.86675942px;stroke-linecap:butt;stroke-linejoin:miter;stroke-opacity:1;font-family:Bitstream Vera Sans"
       x="208.52887"
       y="567.60333"
       id="text6297"
       transform="scale(0.8804904,1.1357307)"
       inkscape:export-filename="/home/beast/Work/amarok applets/last.fm/last.fm.png"
       inkscape:export-xdpi="90"
       inkscape:export-ydpi="90"><tspan
         sodipodi:role="line"
         id="tspan6301"
         x="208.52887"
         y="567.60333"
         style="font-size:45.49414825px;font-style:normal;font-variant:normal;font-weight:bold;font-stretch:normal;text-align:start;line-height:125%;writing-mode:lr-tb;text-anchor:start;stroke-width:0.86675942;font-family:Bitstream Vera Sans;fill:#fff9f9;fill-opacity:1">upcoming events</tspan></text>
  </g>
</svg>
