<?xml version="1.0" encoding="UTF-8" standalone="no"?>
<!-- Created with Inkscape (http://www.inkscape.org/) -->
<svg
   xmlns:dc="http://purl.org/dc/elements/1.1/"
   xmlns:cc="http://web.resource.org/cc/"
   xmlns:rdf="http://www.w3.org/1999/02/22-rdf-syntax-ns#"
   xmlns:svg="http://www.w3.org/2000/svg"
   xmlns="http://www.w3.org/2000/svg"
   xmlns:xlink="http://www.w3.org/1999/xlink"
   xmlns:sodipodi="http://sodipodi.sourceforge.net/DTD/sodipodi-0.dtd"
   xmlns:inkscape="http://www.inkscape.org/namespaces/inkscape"
   version="1.0"
   width="506.50198"
   height="161.99736"
   id="svg2581"
   sodipodi:version="0.32"
   inkscape:version="0.45"
   sodipodi:docname="amarok-currenttrack.svg"
   inkscape:output_extension="org.inkscape.output.svg.inkscape"
   sodipodi:docbase="/home/leo/Desktop/amarok/src/context/applets/currenttrack"
   sodipodi:modified="true">
  <metadata
     id="metadata138">
    <rdf:RDF>
      <cc:Work
         rdf:about="">
        <dc:format>image/svg+xml</dc:format>
        <dc:type
           rdf:resource="http://purl.org/dc/dcmitype/StillImage" />
      </cc:Work>
    </rdf:RDF>
  </metadata>
  <sodipodi:namedview
     inkscape:window-height="566"
     inkscape:window-width="722"
     inkscape:pageshadow="2"
     inkscape:pageopacity="0.0"
     guidetolerance="10.0"
     gridtolerance="10.0"
     objecttolerance="10.0"
     borderopacity="1.0"
     bordercolor="#666666"
     pagecolor="#ffffff"
     id="base"
     inkscape:zoom="0.88230945"
     inkscape:cx="196.65417"
     inkscape:cy="98.199395"
     inkscape:window-x="22"
     inkscape:window-y="258"
     inkscape:current-layer="svg2581" />
  <defs
     id="defs2583">
    <linearGradient
       x1="133.57143"
       y1="417.00504"
       x2="137.14287"
       y2="558.43359"
       id="linearGradient14887"
       xlink:href="#linearGradient9189"
       gradientUnits="userSpaceOnUse"
       gradientTransform="matrix(0.9000481,0,0,0.8943323,6.1335412,-343.64774)" />
    <radialGradient
       cx="63.912209"
       cy="115.70919"
       r="63.912209"
       fx="63.975182"
       fy="116.88514"
       id="radialGradient3743"
       xlink:href="#linearGradient3291"
       gradientUnits="userSpaceOnUse"
       gradientTransform="matrix(1,0,0,0.197802,0,92.82166)" />
    <radialGradient
       cx="23.190451"
       cy="59.379417"
       r="2.1082227"
       fx="22.471308"
       fy="59.354759"
       id="radialGradient3716"
       xlink:href="#linearGradient12948"
       gradientUnits="userSpaceOnUse"
       gradientTransform="matrix(1,0,0,0.941176,0,3.492906)" />
    <linearGradient
       id="linearGradient9189">
      <stop
         id="stop9191"
         style="stop-color:#ffffff;stop-opacity:1"
         offset="0" />
      <stop
         id="stop9193"
         style="stop-color:#ffffff;stop-opacity:0"
         offset="1" />
    </linearGradient>
    <linearGradient
       x1="133.57143"
       y1="417.00504"
       x2="137.14287"
       y2="558.43359"
       id="linearGradient9195"
       xlink:href="#linearGradient9189"
       gradientUnits="userSpaceOnUse"
       gradientTransform="matrix(1.0312634,0,0,1.0485214,-1.2922465,-24.287002)" />
    <linearGradient
       id="linearGradient1563">
      <stop
         id="stop1565"
         style="stop-color:#ffffff;stop-opacity:1"
         offset="0" />
      <stop
         id="stop1567"
         style="stop-color:#ffffff;stop-opacity:0"
         offset="1" />
    </linearGradient>
    <linearGradient
       id="linearGradient12948">
      <stop
         id="stop12950"
         style="stop-color:#ffffff;stop-opacity:1"
         offset="0" />
      <stop
         id="stop12952"
         style="stop-color:#c0c0c0;stop-opacity:0"
         offset="1" />
    </linearGradient>
    <linearGradient
       id="linearGradient3638">
      <stop
         id="stop3640"
         style="stop-color:#ffffff;stop-opacity:0"
         offset="0" />
      <stop
         id="stop3661"
         style="stop-color:#ffffff;stop-opacity:1"
         offset="0.06868132" />
      <stop
         id="stop3659"
         style="stop-color:#ffffff;stop-opacity:1"
         offset="0.5" />
      <stop
         id="stop3642"
         style="stop-color:#ffffff;stop-opacity:0"
         offset="1" />
    </linearGradient>
    <linearGradient
       id="linearGradient3273">
      <stop
         id="stop3275"
         style="stop-color:#ffffff;stop-opacity:0.55035973"
         offset="0" />
      <stop
         id="stop3277"
         style="stop-color:#ffffff;stop-opacity:0"
         offset="1" />
    </linearGradient>
    <linearGradient
       id="linearGradient3290">
      <stop
         id="stop3292"
         style="stop-color:#ffff00;stop-opacity:1"
         offset="0" />
      <stop
         id="stop3294"
         style="stop-color:#ffb66d;stop-opacity:1"
         offset="1" />
    </linearGradient>
    <linearGradient
       id="linearGradient3078">
      <stop
         id="stop3080"
         style="stop-color:#ffffff;stop-opacity:1"
         offset="0" />
      <stop
         id="stop3082"
         style="stop-color:#c0c0c0;stop-opacity:0"
         offset="1" />
    </linearGradient>
    <linearGradient
       id="linearGradient3291">
      <stop
         id="stop3293"
         style="stop-color:#000000;stop-opacity:1"
         offset="0" />
      <stop
         id="stop3295"
         style="stop-color:#000000;stop-opacity:0"
         offset="1" />
    </linearGradient>
    <linearGradient
       id="linearGradient3069">
      <stop
         id="stop3071"
         style="stop-color:#ffffff;stop-opacity:0.55035973"
         offset="0" />
      <stop
         id="stop3073"
         style="stop-color:#ffffff;stop-opacity:0"
         offset="1" />
    </linearGradient>
    <linearGradient
       id="linearGradient3063">
      <stop
         id="stop3065"
         style="stop-color:#ffffff;stop-opacity:1"
         offset="0" />
      <stop
         id="stop3067"
         style="stop-color:#ffffff;stop-opacity:0"
         offset="1" />
    </linearGradient>
    <linearGradient
       id="linearGradient3053">
      <stop
         id="stop3055"
         style="stop-color:#ffffff;stop-opacity:0"
         offset="0" />
      <stop
         id="stop3057"
         style="stop-color:#ffffff;stop-opacity:1"
         offset="0.06868132" />
      <stop
         id="stop3059"
         style="stop-color:#ffffff;stop-opacity:1"
         offset="0.5" />
      <stop
         id="stop3061"
         style="stop-color:#ffffff;stop-opacity:0"
         offset="1" />
    </linearGradient>
    <linearGradient
       id="linearGradient3765">
      <stop
         id="stop3767"
         style="stop-color:#ffffff;stop-opacity:1"
         offset="0" />
      <stop
         id="stop3769"
         style="stop-color:#ffffff;stop-opacity:0"
         offset="1" />
    </linearGradient>
    <linearGradient
       id="linearGradient3041">
      <stop
         id="stop3043"
         style="stop-color:#ffff00;stop-opacity:1"
         offset="0" />
      <stop
         id="stop3045"
         style="stop-color:#ffb66d;stop-opacity:1"
         offset="1" />
    </linearGradient>
    <linearGradient
       x1="133.57143"
       y1="417.00504"
       x2="137.14287"
       y2="558.43359"
       id="linearGradient2293"
       xlink:href="#linearGradient9189"
       gradientUnits="userSpaceOnUse"
       gradientTransform="matrix(1.0312634,0,0,1.0485214,-23.296179,-407.85845)" />
    <radialGradient
       cx="63.912209"
       cy="115.70919"
       r="63.912209"
       fx="63.975182"
       fy="116.88514"
       id="radialGradient2409"
       xlink:href="#linearGradient3291"
       gradientUnits="userSpaceOnUse"
       gradientTransform="matrix(1,0,0,0.197802,0,92.82166)" />
    <radialGradient
       cx="23.190451"
       cy="59.379417"
       r="2.1082227"
       fx="22.471308"
       fy="59.354759"
       id="radialGradient2417"
       xlink:href="#linearGradient12948"
       gradientUnits="userSpaceOnUse"
       gradientTransform="matrix(1,0,0,0.941176,0,3.492906)" />
    <radialGradient
       cx="23.662739"
       cy="95.898506"
       r="2.7939141"
       fx="24.26058"
       fy="96.778763"
       id="radialGradient2435"
       xlink:href="#linearGradient3765"
       gradientUnits="userSpaceOnUse"
       gradientTransform="matrix(0.2995432,2.6141331e-2,-9.8852342e-2,1.132725,238.08044,-0.5301945)" />
    <linearGradient
       x1="98.291809"
       y1="-44.01474"
       x2="44.242641"
       y2="101.45739"
       id="linearGradient2443"
       xlink:href="#linearGradient1563"
       gradientUnits="userSpaceOnUse"
       gradientTransform="matrix(0.2018293,0,0,0.2018309,230.91282,89.359767)" />
    <linearGradient
       x1="98.291809"
       y1="-44.01474"
       x2="44.242641"
       y2="101.45739"
       id="linearGradient2446"
       xlink:href="#linearGradient1563"
       gradientUnits="userSpaceOnUse"
       gradientTransform="matrix(0.2018293,0,0,0.2018309,230.91282,89.359767)" />
    <linearGradient
       x1="98.291809"
       y1="-126.7503"
       x2="44.242641"
       y2="101.45739"
       id="linearGradient2449"
       xlink:href="#linearGradient1563"
       gradientUnits="userSpaceOnUse"
       gradientTransform="matrix(0.2018293,0,0,0.2018309,230.91282,89.359767)" />
    <linearGradient
       x1="57.287113"
       y1="1.1597457"
       x2="144.2531"
       y2="16.876789"
       id="linearGradient2453"
       xlink:href="#linearGradient3638"
       gradientUnits="userSpaceOnUse"
       gradientTransform="matrix(0.2018293,0,0,0.2018309,230.9128,89.35973)" />
    <linearGradient
       x1="57.287113"
       y1="1.1597457"
       x2="144.2531"
       y2="16.876789"
       id="linearGradient2456"
       xlink:href="#linearGradient3638"
       gradientUnits="userSpaceOnUse"
       gradientTransform="matrix(0.2018293,0,0,0.2018309,230.9128,89.35973)" />
    <linearGradient
       x1="57.287113"
       y1="1.1597457"
       x2="144.2531"
       y2="16.876789"
       id="linearGradient2459"
       xlink:href="#linearGradient3638"
       gradientUnits="userSpaceOnUse"
       gradientTransform="matrix(0.2018293,0,0,0.2018309,230.9128,89.35973)" />
    <linearGradient
       x1="84.634949"
       y1="116.10083"
       x2="89.72541"
       y2="-15.33666"
       id="linearGradient2463"
       xlink:href="#linearGradient3290"
       gradientUnits="userSpaceOnUse"
       gradientTransform="matrix(0.2018293,0,0,0.2018309,230.9128,89.35973)" />
    <linearGradient
       x1="80.100487"
       y1="44.807674"
       x2="77.714729"
       y2="101.4734"
       id="linearGradient2465"
       xlink:href="#linearGradient3273"
       gradientUnits="userSpaceOnUse"
       gradientTransform="matrix(0.1937485,0,0,0.19375,231.38824,90.02084)"
       spreadMethod="reflect" />
    <radialGradient
       cx="23.662739"
       cy="95.898506"
       r="2.7939141"
       fx="24.26058"
       fy="96.778763"
       id="radialGradient2486"
       xlink:href="#linearGradient3765"
       gradientUnits="userSpaceOnUse"
       gradientTransform="matrix(0.1593126,1.390321e-2,-5.2574808e-2,0.6024373,271.1753,53.707467)" />
    <linearGradient
       x1="98.291809"
       y1="-44.01474"
       x2="44.242641"
       y2="101.45739"
       id="linearGradient2494"
       xlink:href="#linearGradient1563"
       gradientUnits="userSpaceOnUse"
       gradientTransform="matrix(0.1073433,0,0,0.1073433,267.36319,101.51525)" />
    <linearGradient
       x1="98.291809"
       y1="-44.01474"
       x2="44.242641"
       y2="101.45739"
       id="linearGradient2497"
       xlink:href="#linearGradient1563"
       gradientUnits="userSpaceOnUse"
       gradientTransform="matrix(0.1073433,0,0,0.1073433,267.36319,101.51525)" />
    <linearGradient
       x1="98.291809"
       y1="-126.7503"
       x2="44.242641"
       y2="101.45739"
       id="linearGradient2500"
       xlink:href="#linearGradient1563"
       gradientUnits="userSpaceOnUse"
       gradientTransform="matrix(0.1073433,0,0,0.1073433,267.36319,101.51525)" />
    <linearGradient
       x1="57.287113"
       y1="1.1597457"
       x2="144.2531"
       y2="16.876789"
       id="linearGradient2504"
       xlink:href="#linearGradient3638"
       gradientUnits="userSpaceOnUse"
       gradientTransform="matrix(0.1073433,0,0,0.1073433,267.36318,101.51523)" />
    <linearGradient
       x1="57.287113"
       y1="1.1597457"
       x2="144.2531"
       y2="16.876789"
       id="linearGradient2507"
       xlink:href="#linearGradient3638"
       gradientUnits="userSpaceOnUse"
       gradientTransform="matrix(0.1073433,0,0,0.1073433,267.36318,101.51523)" />
    <linearGradient
       x1="57.287113"
       y1="1.1597457"
       x2="144.2531"
       y2="16.876789"
       id="linearGradient2510"
       xlink:href="#linearGradient3638"
       gradientUnits="userSpaceOnUse"
       gradientTransform="matrix(0.1073433,0,0,0.1073433,267.36318,101.51523)" />
    <linearGradient
       x1="84.634949"
       y1="116.10083"
       x2="89.72541"
       y2="-15.33666"
       id="linearGradient2514"
       xlink:href="#linearGradient3290"
       gradientUnits="userSpaceOnUse"
       gradientTransform="matrix(0.1073433,0,0,0.1073433,267.36318,101.51523)" />
    <linearGradient
       x1="80.100487"
       y1="44.807674"
       x2="77.714729"
       y2="101.4734"
       id="linearGradient2516"
       xlink:href="#linearGradient3273"
       gradientUnits="userSpaceOnUse"
       gradientTransform="matrix(0.1030455,0,0,0.1030455,267.61604,101.86684)"
       spreadMethod="reflect" />
    <linearGradient
       inkscape:collect="always"
       xlink:href="#linearGradient3290"
       id="linearGradient2341"
       gradientUnits="userSpaceOnUse"
       gradientTransform="matrix(0.2018293,0,0,0.2018309,230.9128,89.35973)"
       x1="84.634949"
       y1="116.10083"
       x2="89.72541"
       y2="-15.33666" />
  </defs>
  <g
     id="half-star"
     transform="matrix(0.9743404,0,0,0.9525436,-25.930674,-13.218184)">
    <path
       style="fill:url(#linearGradient2514);fill-opacity:1;fill-rule:nonzero;stroke:url(#linearGradient2516);stroke-width:0.73025638;stroke-linecap:round;stroke-linejoin:round;stroke-miterlimit:4;stroke-dasharray:none;stroke-dashoffset:4;stroke-opacity:1"
       id="path3978"
       d="M 274.32093,102.60578 C 274.2956,102.62276 274.15938,102.69141 274.00164,102.87946 C 273.81469,103.10232 273.60401,103.43853 273.39347,103.79475 C 273.18293,104.15098 272.97204,104.53076 272.76706,104.85904 C 272.56208,105.18734 272.3876,105.46142 272.11631,105.65271 C 271.84503,105.844 271.52435,105.91655 271.14629,105.99936 C 270.76823,106.08219 270.34227,106.15179 269.93603,106.23046 C 269.52979,106.30915 269.14139,106.39681 268.86869,106.49807 C 268.63434,106.58507 268.52564,106.68933 268.50379,106.70484 C 268.50391,106.70505 268.50366,106.70759 268.50379,106.70788 C 268.51138,106.72903 268.53004,106.88127 268.66495,107.09711 C 268.81914,107.34378 269.07542,107.65039 269.34915,107.96071 C 269.62288,108.27103 269.91522,108.5857 270.1641,108.88209 C 270.41298,109.17848 270.62247,109.4316 270.72057,109.74873 C 270.81867,110.06585 270.78904,110.39139 270.75098,110.77653 C 270.71292,111.16168 270.64965,111.58828 270.59894,111.99895 C 270.59568,112.02536 270.59246,112.05172 270.58932,112.07798 C 270.54363,112.46017 270.51167,112.82474 270.52291,113.0967 C 270.53343,113.35102 270.60216,113.4884 270.60806,113.51026 C 270.63052,113.50956 270.78072,113.53537 271.02769,113.47377 C 271.30994,113.40335 271.67882,113.25809 272.05854,113.09366 C 272.43825,112.92922 272.83094,112.74615 273.18973,112.60104 C 273.54853,112.45593 273.85218,112.33482 274.18409,112.33953 C 274.51601,112.34422 274.81479,112.47319 275.16932,112.62841 C 275.52386,112.78362 275.91345,112.97934 276.28835,113.15448 C 276.66326,113.32961 277.02691,113.48357 277.30703,113.56195 C 277.55216,113.63053 277.704,113.60939 277.72668,113.6106 C 277.73311,113.58887 277.80627,113.454 277.82398,113.20009 C 277.84423,112.90989 277.82047,112.51429 277.78141,112.10235 C 277.74235,111.69039 277.6869,111.25992 277.65977,110.87384 C 277.63264,110.48777 277.61355,110.1633 277.72059,109.84907 C 277.82763,109.53486 278.04422,109.28686 278.3014,108.99764 C 278.55857,108.70841 278.8613,108.40302 279.14371,108.10059 C 279.42612,107.79815 279.68504,107.49744 279.84614,107.25523 C 279.9846,107.04709 280.01358,106.8972 280.02251,106.87209 C 280.02265,106.8718 280.02238,106.86925 280.02251,106.86905 C 280.00091,106.85298 279.89245,106.74676 279.66065,106.65315 C 279.39092,106.54421 279.00933,106.4453 278.60548,106.35514 C 278.20163,106.26498 277.77687,106.18104 277.4013,106.08755 C 277.02575,105.99405 276.70615,105.91547 276.4404,105.71656 C 276.17464,105.51767 276.00958,105.23558 275.81399,104.90162 C 275.61839,104.56766 275.41834,104.18417 275.21798,103.82212 C 275.01761,103.46007 274.8147,103.1197 274.63414,102.89162 C 274.47614,102.69206 274.33863,102.62017 274.32093,102.60578 z " />
    <path
       style="opacity:0.38139535;fill:url(#radialGradient3743);fill-opacity:1;fill-rule:nonzero;stroke:none;stroke-width:0;stroke-linecap:round;stroke-linejoin:round;stroke-miterlimit:4;stroke-dasharray:none;stroke-dashoffset:4;stroke-opacity:1"
       id="path3980"
       transform="matrix(-0.1046708,0,0,4.4726404e-2,280.96084,109.58407)"
       d="M 127.82442,115.70919 C 127.82442,122.69116 99.209949,128.35117 63.91221,128.35117 C 28.614471,128.35117 -1.1622574e-08,122.69116 3.4646878e-18,115.70919 C -1.1622599e-08,108.72722 28.614471,103.06721 63.91221,103.06721 C 99.209949,103.06721 127.82442,108.72722 127.82442,115.70919 L 127.82442,115.70919 z " />
    <path
       style="fill:none;fill-opacity:1;fill-rule:evenodd;stroke:url(#linearGradient2510);stroke-width:0.0543936;stroke-linecap:butt;stroke-linejoin:miter;stroke-miterlimit:4;stroke-dasharray:none;stroke-opacity:0.5813008"
       id="path3982"
       d="M 273.2957,102.66808 C 273.43026,102.43503 273.93483,101.66102 274.34141,101.66697 C 275.08004,101.67811 276.32756,104.8568 276.91096,105.21434 C 277.62908,105.65445 280.23621,105.96614 280.71058,106.34239" />
    <path
       style="fill:none;fill-opacity:1;fill-rule:evenodd;stroke:url(#linearGradient2507);stroke-width:0.10734329;stroke-linecap:round;stroke-linejoin:round;stroke-miterlimit:4;stroke-dasharray:none;stroke-opacity:0.43089432"
       id="path3984"
       d="M 273.29242,102.72553 C 273.42698,102.49248 273.93653,101.68409 274.34305,101.69324 C 275.07376,101.70966 276.30181,104.89476 276.90275,105.2406 C 277.63273,105.66073 280.24315,105.99853 280.71752,106.37478" />
    <path
       style="fill:none;fill-opacity:1;fill-rule:evenodd;stroke:url(#linearGradient2504);stroke-width:0.21468657;stroke-linecap:round;stroke-linejoin:round;stroke-miterlimit:4;stroke-dasharray:none;stroke-opacity:0.43089432"
       id="path3986"
       d="M 273.28915,102.83686 C 273.42371,102.60381 273.95631,101.73382 274.34305,101.74562 C 275.01493,101.76634 276.31818,104.99953 276.89292,105.29299 C 277.64305,105.67601 280.36103,106.09676 280.75026,106.46319" />
    <path
       style="opacity:0.70232556;fill:url(#radialGradient3716);fill-opacity:1;fill-rule:nonzero;stroke:none;stroke-width:0.89999998;stroke-linecap:round;stroke-linejoin:round;stroke-miterlimit:4;stroke-dasharray:none;stroke-dashoffset:4;stroke-opacity:1"
       id="path3988"
       transform="matrix(-0.1870925,-0.114158,-5.0507912e-2,0.1335649,287.88228,101.11816)"
       d="M 25.298673,59.379417 C 25.29918,60.475603 24.355148,61.364491 23.190451,61.364491 C 22.025753,61.364491 21.081721,60.475603 21.082228,59.379417 C 21.081721,58.283231 22.025753,57.394343 23.190451,57.394343 C 24.355148,57.394343 25.29918,58.283231 25.298673,59.379417 z " />
    <path
       style="fill:url(#linearGradient2500);fill-opacity:1;fill-rule:nonzero;stroke:none;stroke-width:6.80299997;stroke-linecap:round;stroke-linejoin:round;stroke-miterlimit:4;stroke-dasharray:none;stroke-dashoffset:4;stroke-opacity:1"
       id="path3990"
       d="M 274.32038,102.60545 C 274.29505,102.62243 274.15945,102.69248 274.00171,102.88051 C 273.81475,103.10339 273.60508,103.44006 273.39454,103.79629 C 273.18401,104.15252 272.97224,104.53137 272.76726,104.85966 C 272.56228,105.18795 272.38778,105.46003 272.11649,105.65131 C 271.84519,105.84261 271.52511,105.91736 271.14704,106.00018 C 270.76899,106.08301 270.34232,106.15296 269.93608,106.23164 C 269.52984,106.31032 269.14206,106.39539 268.86936,106.49665 C 268.635,106.58366 268.52555,106.68912 268.50372,106.70462 C 268.50371,106.7049 268.50373,106.70763 268.50372,106.70797 C 268.5113,106.72912 268.52982,106.88126 268.66473,107.0971 C 268.81892,107.34377 269.07531,107.64888 269.34905,107.9592 C 269.55541,108.19315 269.77206,108.43108 269.97298,108.66028 C 272.42848,108.91845 275.04168,109.82903 277.64132,110.26708 C 277.64991,110.12272 277.67538,109.98409 277.72182,109.84777 C 277.82886,109.53355 278.04497,109.28831 278.30215,108.99908 C 278.55932,108.70987 278.86171,108.40253 279.14412,108.10009 C 279.42653,107.79765 279.6841,107.49696 279.8452,107.25475 C 279.98366,107.04662 280.01406,106.89746 280.02299,106.87235 C 280.02299,106.87207 280.02301,106.86935 280.02299,106.86899 C 280.00139,106.85293 279.8925,106.74792 279.66071,106.65431 C 279.39098,106.54537 279.0079,106.44591 278.60405,106.35576 C 278.2002,106.26561 277.77535,106.1809 277.39979,106.08739 C 277.02423,105.9939 276.70616,105.91396 276.44041,105.71505 C 276.17465,105.51616 276.00872,105.23723 275.81312,104.90327 C 275.61753,104.5693 275.41974,104.18517 275.21938,103.82312 C 275.01902,103.46107 274.81627,103.11865 274.6357,102.89059 C 274.4777,102.69102 274.33808,102.61984 274.32038,102.60545 z " />
    <path
       style="opacity:0.41393445;fill:url(#linearGradient2497);fill-opacity:1;fill-rule:nonzero;stroke:none;stroke-width:6.80299997;stroke-linecap:round;stroke-linejoin:round;stroke-miterlimit:4;stroke-dasharray:none;stroke-dashoffset:4;stroke-opacity:1"
       id="path3992"
       d="M 274.32038,102.60545 C 274.29505,102.62243 274.15945,102.69248 274.00171,102.88051 C 273.81475,103.10339 273.60508,103.44006 273.39454,103.79629 C 273.18401,104.15252 272.97224,104.53137 272.76726,104.85966 C 272.56228,105.18795 272.38778,105.46003 272.11649,105.65131 C 271.84519,105.84261 271.52511,105.91736 271.14704,106.00018 C 270.76899,106.08301 270.34232,106.15296 269.93608,106.23164 C 269.52984,106.31032 269.14206,106.39539 268.86936,106.49665 C 268.635,106.58366 268.52555,106.68912 268.50372,106.70462 C 268.50371,106.7049 268.50373,106.70763 268.50372,106.70797 C 268.5113,106.72912 268.52982,106.88126 268.66473,107.0971 C 268.81892,107.34377 269.07531,107.64888 269.34905,107.9592 C 269.55541,108.19315 269.77206,108.43108 269.97298,108.66028 C 270.12756,108.67653 270.28346,108.69616 270.43925,108.71731 C 271.90691,107.59343 273.88256,106.15124 275.793,104.86972 C 275.60408,104.54413 275.41275,104.17253 275.21938,103.82312 C 275.01902,103.46107 274.81627,103.11865 274.6357,102.89059 C 274.4777,102.69102 274.33808,102.61984 274.32038,102.60545 z M 278.02708,106.22828 C 276.68012,107.24537 275.49899,108.37608 274.47469,109.57605 C 275.52482,109.83483 276.58415,110.08895 277.64132,110.26708 C 277.64991,110.12272 277.67538,109.98409 277.72182,109.84777 C 277.82886,109.53355 278.04497,109.28831 278.30215,108.99908 C 278.55932,108.70987 278.86171,108.40253 279.14412,108.10009 C 279.42653,107.79765 279.6841,107.49696 279.8452,107.25475 C 279.98366,107.04662 280.01406,106.89746 280.02299,106.87235 C 280.02299,106.87207 280.02301,106.86935 280.02299,106.86899 C 280.00139,106.85293 279.8925,106.74792 279.66071,106.65431 C 279.39098,106.54537 279.0079,106.44591 278.60405,106.35576 C 278.4141,106.31335 278.21899,106.26976 278.02708,106.22828 z " />
    <path
       style="opacity:0.34836067;fill:url(#linearGradient2494);fill-opacity:1;fill-rule:nonzero;stroke:none;stroke-width:6.80299997;stroke-linecap:round;stroke-linejoin:round;stroke-miterlimit:4;stroke-dasharray:none;stroke-dashoffset:4;stroke-opacity:1"
       id="path3994"
       d="M 274.32038,102.60545 C 274.29505,102.62243 274.15945,102.69248 274.00171,102.88051 C 273.81475,103.10339 273.60508,103.44006 273.39454,103.79629 C 273.18401,104.15252 272.97224,104.53137 272.76726,104.85966 C 272.56228,105.18795 272.38778,105.46003 272.11649,105.65131 C 271.84519,105.84261 271.52511,105.91736 271.14704,106.00018 C 270.76899,106.08301 270.34232,106.15296 269.93608,106.23164 C 269.52984,106.31032 269.14206,106.39539 268.86936,106.49665 C 268.635,106.58366 268.52555,106.68912 268.50372,106.70462 C 268.50371,106.7049 268.50373,106.70763 268.50372,106.70797 C 268.5113,106.72912 268.52982,106.88126 268.66473,107.0971 C 268.81892,107.34377 273.88256,106.15124 275.793,104.86972 C 275.60408,104.54413 275.41275,104.17253 275.21938,103.82312 C 275.01902,103.46107 274.81627,103.11865 274.6357,102.89059 C 274.4777,102.69102 274.33808,102.61984 274.32038,102.60545 z M 278.02708,106.22828 C 274.71302,108.75956 276.58415,110.08895 277.64132,110.26708 C 277.64991,110.12272 277.67538,109.98409 277.72182,109.84777 C 277.82886,109.53355 278.04497,109.28831 278.30215,108.99908 C 278.55932,108.70987 278.86171,108.40253 279.14412,108.10009 C 279.42653,107.79765 279.6841,107.49696 279.8452,107.25475 C 279.98366,107.04662 280.01406,106.89746 280.02299,106.87235 C 280.02299,106.87207 280.02301,106.86935 280.02299,106.86899 C 280.00139,106.85293 279.8925,106.74792 279.66071,106.65431 C 279.39098,106.54537 279.0079,106.44591 278.60405,106.35576 C 278.4141,106.31335 278.21899,106.26976 278.02708,106.22828 z " />
    <path
       style="opacity:0.17000002;fill:#2e3436;fill-opacity:1;fill-rule:nonzero;stroke:none;stroke-width:14.80892944;stroke-linecap:round;stroke-linejoin:round;stroke-miterlimit:4;stroke-dasharray:none;stroke-dashoffset:4;stroke-opacity:1"
       id="path4002"
       d="M 280.92215,106.44717 C 281.05775,107.31333 278.64016,109.12467 278.36268,109.93917 C 278.0789,110.77223 278.93098,113.79955 278.21173,114.3067 C 277.49249,114.81385 274.92545,112.9975 274.04548,112.98504 C 273.16551,112.97257 270.55025,114.71662 269.84567,114.1893 C 269.81231,114.16433 269.78475,114.13094 269.75845,114.09538 C 269.80078,114.2358 269.86213,114.34603 269.95301,114.41404 C 270.6576,114.94137 273.27285,113.19732 274.15282,113.20979 C 275.03278,113.22226 277.59983,115.04196 278.31908,114.53481 C 279.03832,114.02766 278.18624,111.00033 278.47003,110.16728 C 278.75381,109.33423 281.27615,107.45564 281.01608,106.61489 C 280.99795,106.55626 280.96652,106.49921 280.92215,106.44717 z M 267.52436,106.86647 C 267.85517,107.72384 269.36126,109.04116 269.81547,109.81506 C 269.60632,109.15369 268.04977,107.81439 267.52436,106.86647 z " />
    <path
       style="opacity:0.17000002;fill:#2e3436;fill-opacity:1;fill-rule:nonzero;stroke:none;stroke-width:14.80892944;stroke-linecap:round;stroke-linejoin:round;stroke-miterlimit:4;stroke-dasharray:none;stroke-dashoffset:4;stroke-opacity:1"
       id="path4004"
       d="M 281.00937,106.60147 C 281.07903,107.48025 278.72044,109.25592 278.44654,110.05994 C 278.16277,110.89299 279.01484,113.92032 278.29559,114.42747 C 277.57636,114.93462 275.01266,113.11492 274.13269,113.10244 C 273.25272,113.08998 270.63411,114.83738 269.92954,114.31005 C 269.82284,114.2302 269.75609,114.09148 269.71485,113.91423 C 269.75159,114.14454 269.8254,114.32191 269.95301,114.4174 C 270.6576,114.94472 273.27285,113.19732 274.15282,113.20979 C 275.03278,113.22226 277.59985,115.04196 278.31908,114.53481 C 279.03832,114.02766 278.18624,111.00033 278.47003,110.16728 C 278.75381,109.33423 281.27614,107.45564 281.01608,106.61489 C 281.01464,106.61021 281.01099,106.6061 281.00937,106.60147 z M 267.46399,106.64172 C 267.5759,107.55873 269.68673,109.27243 269.92617,110.04651 C 269.92909,110.05594 269.93026,110.06675 269.93289,110.07671 C 269.92558,110.02633 269.9153,109.97991 269.9027,109.93917 C 269.67236,109.19454 267.71268,107.57971 267.46399,106.64172 z " />
    <path
       style="opacity:0.55327866;fill:url(#radialGradient2486);fill-opacity:1;fill-rule:evenodd;stroke:none;stroke-width:1px;stroke-linecap:butt;stroke-linejoin:miter;stroke-opacity:1"
       id="path4006"
       d="M 270.05625,110.12615 C 270.10415,111.25641 269.73061,112.88856 269.75021,113.48022 L 270.00729,113.5047 C 270.21853,112.43126 270.37065,111.3381 270.38676,110.1996 L 270.05625,110.12615 z " />
    <path
       style="opacity:0.62000002;fill:#2e3436;fill-opacity:1;fill-rule:nonzero;stroke:none;stroke-width:14.80892944;stroke-linecap:round;stroke-linejoin:round;stroke-miterlimit:4;stroke-dasharray:none;stroke-dashoffset:4;stroke-opacity:1"
       id="path4008"
       d="M 267.45929,106.56793 C 267.45886,107.46393 269.68218,109.25124 269.92819,110.04651 C 269.95256,110.12534 269.96612,110.222 269.97179,110.335 C 269.96714,110.20954 269.95465,110.09855 269.92819,110.01298 C 269.68496,109.22669 267.508,107.47346 267.45929,106.56793 z M 281.03486,106.75242 C 280.9709,107.65454 278.73809,109.35275 278.47203,110.13374 C 278.43431,110.24446 278.4156,110.39598 278.41166,110.57317 C 278.41693,110.40967 278.43656,110.27141 278.47203,110.16728 C 278.74137,109.37665 281.025,107.64549 281.03486,106.75242 z M 274.15483,113.17624 C 273.27485,113.16378 270.6596,114.91118 269.95501,114.38386 C 269.80089,114.26851 269.72342,114.03342 269.69672,113.72974 C 269.7208,114.04933 269.7954,114.29794 269.95501,114.4174 C 270.6596,114.94472 273.27485,113.19732 274.15483,113.20979 C 275.0348,113.22226 277.60185,115.04196 278.32108,114.53481 C 278.50606,114.40438 278.58305,114.10666 278.60622,113.72302 C 278.58053,114.0912 278.5009,114.37447 278.32108,114.50127 C 277.60185,115.00842 275.0348,113.18872 274.15483,113.17624 z " />
  </g>
  <g
     id="star"
     transform="matrix(0.9743404,0,0,0.9525436,-25.930674,-13.218184)">
    <path
       style="fill:#e3ad00;fill-opacity:1;fill-rule:nonzero;stroke:none;stroke-width:14.80892944;stroke-linecap:round;stroke-linejoin:round;stroke-miterlimit:4;stroke-dasharray:none;stroke-dashoffset:4;stroke-opacity:1"
       id="path4234"
       transform="matrix(0.1031923,3.789616e-2,-3.7895868e-2,0.1031931,239.33379,98.256993)"
       d="M 153.09403,94.713757 C 144.53658,107.09689 92.616372,93.013297 78.414631,98.001518 C 64.21289,102.98974 32.50348,146.4474 18.082028,142.13539 C 3.6605746,137.82337 1.0106378,84.092245 -8.1220219,72.127031 C -17.254681,60.161818 -68.384124,43.433534 -68.739625,28.385431 C -69.095125,13.337327 -18.812666,-5.7867426 -10.255219,-18.169872 C -1.697772,-30.553002 -1.5880954,-84.349316 12.613645,-89.337536 C 26.815387,-94.325757 60.541592,-52.41396 74.963045,-48.101941 C 89.384498,-43.789923 140.58172,-60.30959 149.71438,-48.344376 C 158.84704,-36.379162 129.40853,8.6478227 129.76403,23.695927 C 130.11953,38.74403 161.65148,82.330628 153.09403,94.713757 z " />
    <path
       style="fill:url(#linearGradient2341);fill-opacity:1;fill-rule:nonzero;stroke:url(#linearGradient2465);stroke-width:1.37304986;stroke-linecap:round;stroke-linejoin:round;stroke-miterlimit:4;stroke-dasharray:none;stroke-dashoffset:4;stroke-opacity:1"
       id="path4236"
       d="M 243.99492,91.410222 C 243.9473,91.442149 243.69117,91.571227 243.39459,91.924805 C 243.04308,92.343835 242.64695,92.97599 242.25109,93.645768 C 241.85523,94.315564 241.45871,95.029641 241.0733,95.646885 C 240.68789,96.264167 240.35983,96.779502 239.84975,97.139173 C 239.33968,97.498844 238.73673,97.635255 238.02589,97.790957 C 237.31506,97.946697 236.51416,98.077562 235.75033,98.22548 C 234.98651,98.373436 234.25623,98.538257 233.7435,98.72865 C 233.30287,98.892231 233.09849,99.088264 233.0574,99.117427 C 233.05763,99.117822 233.05716,99.122597 233.0574,99.123143 C 233.07168,99.16291 233.10676,99.449157 233.36042,99.854987 C 233.65033,100.31879 234.1322,100.89528 234.64687,101.47876 C 235.16154,102.06224 235.71121,102.65389 236.17916,103.21117 C 236.64711,103.76846 237.04099,104.24438 237.22544,104.84066 C 237.40989,105.43692 237.35418,106.04901 237.28262,106.77317 C 237.21106,107.49734 237.0921,108.29945 236.99675,109.07161 C 236.99062,109.12127 236.98457,109.17083 236.97866,109.2202 C 236.89276,109.93881 236.83267,110.62429 236.8538,111.13564 C 236.87358,111.61382 237.00281,111.87213 237.0139,111.91323 C 237.05613,111.91191 237.33854,111.96044 237.8029,111.84462 C 238.33359,111.71221 239.02717,111.43909 239.74113,111.12992 C 240.45506,110.82074 241.19341,110.47652 241.86801,110.20368 C 242.54264,109.93084 243.11357,109.70312 243.73763,109.71198 C 244.36172,109.7208 244.92349,109.96329 245.59008,110.25514 C 246.2567,110.54697 246.98921,110.91497 247.69411,111.24428 C 248.39902,111.57357 249.08277,111.86305 249.60945,112.01042 C 250.07035,112.13937 250.35585,112.09962 250.39849,112.10189 C 250.41058,112.06104 250.54814,111.80745 250.58144,111.33004 C 250.61951,110.78439 250.57484,110.04057 250.50139,109.26603 C 250.42795,108.49144 250.3237,107.68206 250.27268,106.95614 C 250.22167,106.23023 250.18578,105.62015 250.38704,105.02932 C 250.5883,104.43854 250.99554,103.97224 251.47909,103.42843 C 251.96263,102.88461 252.53183,102.31041 253.06282,101.74177 C 253.59382,101.17311 254.08064,100.6077 254.38355,100.15229 C 254.64388,99.760938 254.69837,99.479109 254.71516,99.431896 C 254.71543,99.431351 254.71492,99.426557 254.71516,99.426181 C 254.67455,99.395965 254.47062,99.196246 254.03478,99.020237 C 253.52763,98.815404 252.81016,98.62943 252.05083,98.459908 C 251.2915,98.290386 250.49286,98.132559 249.7867,97.956775 C 249.08059,97.780973 248.47967,97.633224 247.98,97.259226 C 247.48031,96.885266 247.16996,96.35487 246.80221,95.726946 C 246.43444,95.099022 246.0583,94.37797 245.68158,93.69723 C 245.30484,93.01649 244.92332,92.376514 244.58383,91.947669 C 244.28675,91.572449 244.0282,91.437279 243.99492,91.410222 z " />
    <path
       style="opacity:0.38139535;fill:url(#radialGradient2409);fill-opacity:1;fill-rule:nonzero;stroke:none;stroke-width:0;stroke-linecap:round;stroke-linejoin:round;stroke-miterlimit:4;stroke-dasharray:none;stroke-dashoffset:4;stroke-opacity:1"
       id="path4238"
       transform="matrix(-0.1968044,0,0,8.4096244e-2,256.47943,104.53106)"
       d="M 127.82442,115.70919 C 127.82442,122.69116 99.209949,128.35117 63.91221,128.35117 C 28.614471,128.35117 -1.1622574e-08,122.69116 3.4646878e-18,115.70919 C -1.1622599e-08,108.72722 28.614471,103.06721 63.91221,103.06721 C 99.209949,103.06721 127.82442,108.72722 127.82442,115.70919 L 127.82442,115.70919 z " />
    <path
       style="fill:none;fill-opacity:1;fill-rule:evenodd;stroke:url(#linearGradient2459);stroke-width:0.10227247;stroke-linecap:butt;stroke-linejoin:miter;stroke-miterlimit:4;stroke-dasharray:none;stroke-opacity:0.5813008"
       id="path4240"
       d="M 242.06726,91.527361 C 242.32026,91.089172 243.26897,89.633849 244.03343,89.645037 C 245.42222,89.665983 247.76783,95.642673 248.86476,96.314933 C 250.21498,97.142445 255.11697,97.728496 256.00889,98.435935" />
    <path
       style="fill:none;fill-opacity:1;fill-rule:evenodd;stroke:url(#linearGradient2456);stroke-width:0.20183004;stroke-linecap:round;stroke-linejoin:round;stroke-miterlimit:4;stroke-dasharray:none;stroke-opacity:0.43089432"
       id="path4242"
       d="M 242.06109,91.635381 C 242.3141,91.197191 243.27216,89.677226 244.03651,89.694431 C 245.41041,89.725304 247.71942,95.714047 248.84932,96.364308 C 250.22184,97.154252 255.13001,97.789397 256.02194,98.496836" />
    <path
       style="fill:none;fill-opacity:1;fill-rule:evenodd;stroke:url(#linearGradient2453);stroke-width:0.40366009;stroke-linecap:round;stroke-linejoin:round;stroke-miterlimit:4;stroke-dasharray:none;stroke-opacity:0.43089432"
       id="path4244"
       d="M 242.05495,91.844707 C 242.30795,91.406518 243.30936,89.770731 244.03651,89.792917 C 245.2998,89.831876 247.7502,95.91104 248.83084,96.462814 C 250.24125,97.182982 255.35165,97.974092 256.08349,98.663068" />
    <path
       style="opacity:0.70232556;fill:url(#radialGradient2417);fill-opacity:1;fill-rule:nonzero;stroke:none;stroke-width:0.89999998;stroke-linecap:round;stroke-linejoin:round;stroke-miterlimit:4;stroke-dasharray:none;stroke-dashoffset:4;stroke-opacity:1"
       id="path4246"
       transform="matrix(-0.3517755,-0.2146441,-9.4966118e-2,0.2511337,269.49328,88.613144)"
       d="M 25.298673,59.379417 C 25.29918,60.475603 24.355148,61.364491 23.190451,61.364491 C 22.025753,61.364491 21.081721,60.475603 21.082228,59.379417 C 21.081721,58.283231 22.025753,57.394343 23.190451,57.394343 C 24.355148,57.394343 25.29918,58.283231 25.298673,59.379417 z " />
    <path
       style="fill:url(#linearGradient2449);fill-opacity:1;fill-rule:nonzero;stroke:none;stroke-width:6.80299997;stroke-linecap:round;stroke-linejoin:round;stroke-miterlimit:4;stroke-dasharray:none;stroke-dashoffset:4;stroke-opacity:1"
       id="path4248"
       d="M 243.99389,91.409602 C 243.94626,91.441528 243.6913,91.573239 243.39472,91.92678 C 243.04319,92.345847 242.64896,92.978866 242.2531,93.648663 C 241.85726,94.31846 241.45908,95.030788 241.07368,95.648051 C 240.68827,96.265314 240.36017,96.776889 239.85008,97.136541 C 239.33998,97.49623 238.73816,97.636778 238.0273,97.792499 C 237.31648,97.948239 236.51425,98.079762 235.75043,98.227699 C 234.98661,98.375636 234.25749,98.535587 233.74476,98.72598 C 233.30411,98.88958 233.09832,99.087869 233.05727,99.117013 C 233.05725,99.11754 233.05729,99.122673 233.05727,99.123312 C 233.07152,99.163079 233.10635,99.449138 233.36001,99.854969 C 233.64992,100.31877 234.13199,100.89245 234.64668,101.47592 C 235.03468,101.9158 235.44203,102.36317 235.81981,102.79412 C 240.43669,103.27954 245.35009,104.99164 250.23799,105.81528 C 250.25415,105.54385 250.30203,105.28319 250.38935,105.02688 C 250.59061,104.43607 250.99695,103.97496 251.4805,103.43114 C 251.96404,102.88736 252.5326,102.30949 253.06359,101.74083 C 253.59459,101.17217 254.07888,100.6068 254.38178,100.15139 C 254.64212,99.760054 254.69927,99.479598 254.71606,99.432385 C 254.71606,99.431859 254.7161,99.426745 254.71606,99.426068 C 254.67545,99.395871 254.47071,99.198427 254.0349,99.022418 C 253.52774,98.817585 252.80747,98.630577 252.04814,98.461074 C 251.28881,98.29157 250.49,98.132295 249.78386,97.956474 C 249.07773,97.780691 248.47969,97.630385 247.98002,97.256387 C 247.48033,96.882427 247.16834,96.357972 246.80057,95.730048 C 246.43282,95.102105 246.06093,94.37985 245.68421,93.69911 C 245.30749,93.01837 244.92627,92.374539 244.58676,91.945732 C 244.28968,91.570494 244.02717,91.436658 243.99389,91.409602 z " />
    <path
       style="opacity:0.41393445;fill:url(#linearGradient2446);fill-opacity:1;fill-rule:nonzero;stroke:none;stroke-width:6.80299997;stroke-linecap:round;stroke-linejoin:round;stroke-miterlimit:4;stroke-dasharray:none;stroke-dashoffset:4;stroke-opacity:1"
       id="path4250"
       d="M 243.99389,91.409602 C 243.94626,91.441528 243.6913,91.573239 243.39472,91.92678 C 243.04319,92.345847 242.64896,92.978866 242.2531,93.648663 C 241.85726,94.31846 241.45908,95.030788 241.07368,95.648051 C 240.68827,96.265314 240.36017,96.776889 239.85008,97.136541 C 239.33998,97.49623 238.73816,97.636778 238.0273,97.792499 C 237.31648,97.948239 236.51425,98.079762 235.75043,98.227699 C 234.98661,98.375636 234.25749,98.535587 233.74476,98.72598 C 233.30411,98.88958 233.09832,99.087869 233.05727,99.117013 C 233.05725,99.11754 233.05729,99.122673 233.05727,99.123312 C 233.07152,99.163079 233.10635,99.449138 233.36001,99.854969 C 233.64992,100.31877 234.13199,100.89245 234.64668,101.47592 C 235.03468,101.9158 235.44203,102.36317 235.81981,102.79412 C 236.11045,102.82467 236.40358,102.86158 236.6965,102.90135 C 239.45603,100.78819 243.17069,98.076528 246.76274,95.666966 C 246.40753,95.05478 246.04779,94.356084 245.68421,93.69911 C 245.30749,93.01837 244.92627,92.374539 244.58676,91.945732 C 244.28968,91.570494 244.02717,91.436658 243.99389,91.409602 z M 250.96331,98.221381 C 248.43072,100.13375 246.20994,102.25975 244.28403,104.51598 C 246.2585,105.00255 248.25028,105.48036 250.23799,105.81528 C 250.25415,105.54385 250.30203,105.28319 250.38935,105.02688 C 250.59061,104.43607 250.99695,103.97496 251.4805,103.43114 C 251.96404,102.88736 252.5326,102.30949 253.06359,101.74083 C 253.59459,101.17217 254.07888,100.6068 254.38178,100.15139 C 254.64212,99.760054 254.69927,99.479598 254.71606,99.432385 C 254.71606,99.431859 254.7161,99.426745 254.71606,99.426068 C 254.67545,99.395871 254.47071,99.198427 254.0349,99.022418 C 253.52774,98.817585 252.80747,98.630577 252.04814,98.461074 C 251.69099,98.381333 251.32414,98.299373 250.96331,98.221381 z " />
    <path
       style="opacity:0.34836067;fill:url(#linearGradient2443);fill-opacity:1;fill-rule:nonzero;stroke:none;stroke-width:6.80299997;stroke-linecap:round;stroke-linejoin:round;stroke-miterlimit:4;stroke-dasharray:none;stroke-dashoffset:4;stroke-opacity:1"
       id="path4252"
       d="M 243.99389,91.409602 C 243.94626,91.441528 243.6913,91.573239 243.39472,91.92678 C 243.04319,92.345847 242.64896,92.978866 242.2531,93.648663 C 241.85726,94.31846 241.45908,95.030788 241.07368,95.648051 C 240.68827,96.265314 240.36017,96.776889 239.85008,97.136541 C 239.33998,97.49623 238.73816,97.636778 238.0273,97.792499 C 237.31648,97.948239 236.51425,98.079762 235.75043,98.227699 C 234.98661,98.375636 234.25749,98.535587 233.74476,98.72598 C 233.30411,98.88958 233.09832,99.087869 233.05727,99.117013 C 233.05725,99.11754 233.05729,99.122673 233.05727,99.123312 C 233.07152,99.163079 233.10635,99.449138 233.36001,99.854969 C 233.64992,100.31877 243.17069,98.076528 246.76274,95.666966 C 246.40753,95.05478 246.04779,94.356084 245.68421,93.69911 C 245.30749,93.01837 244.92627,92.374539 244.58676,91.945732 C 244.28968,91.570494 244.02717,91.436658 243.99389,91.409602 z M 250.96331,98.221381 C 244.73214,102.98079 248.25028,105.48036 250.23799,105.81528 C 250.25415,105.54385 250.30203,105.28319 250.38935,105.02688 C 250.59061,104.43607 250.99695,103.97496 251.4805,103.43114 C 251.96404,102.88736 252.5326,102.30949 253.06359,101.74083 C 253.59459,101.17217 254.07888,100.6068 254.38178,100.15139 C 254.64212,99.760054 254.69927,99.479598 254.71606,99.432385 C 254.71606,99.431859 254.7161,99.426745 254.71606,99.426068 C 254.67545,99.395871 254.47071,99.198427 254.0349,99.022418 C 253.52774,98.817585 252.80747,98.630577 252.04814,98.461074 C 251.69099,98.381333 251.32414,98.299373 250.96331,98.221381 z " />
    <path
       style="opacity:0.17000002;fill:#2e3436;fill-opacity:1;fill-rule:nonzero;stroke:none;stroke-width:14.80892944;stroke-linecap:round;stroke-linejoin:round;stroke-miterlimit:4;stroke-dasharray:none;stroke-dashoffset:4;stroke-opacity:1"
       id="path4260"
       d="M 256.40669,98.632946 C 256.66164,100.26153 252.11604,103.66728 251.59431,105.19873 C 251.06074,106.76508 252.66284,112.45716 251.31049,113.41073 C 249.95816,114.36429 245.13155,110.94912 243.47701,110.92569 C 241.82248,110.90225 236.9052,114.18147 235.58044,113.18999 C 235.51771,113.14304 235.46589,113.08026 235.41644,113.01339 C 235.49603,113.27742 235.61139,113.48468 235.78226,113.61255 C 237.10705,114.60406 242.0243,111.32483 243.67884,111.34828 C 245.33336,111.37172 250.15998,114.79319 251.51233,113.83963 C 252.86467,112.88606 251.26257,107.19397 251.79615,105.62763 C 252.32972,104.0613 257.07228,100.52911 256.58329,98.948299 C 256.54921,98.838061 256.49011,98.730794 256.40669,98.632946 z M 231.21586,99.42133 C 231.83785,101.03339 234.66964,103.51026 235.52365,104.96538 C 235.13041,103.72185 232.20375,101.20364 231.21586,99.42133 z " />
    <path
       style="opacity:0.17000002;fill:#2e3436;fill-opacity:1;fill-rule:nonzero;stroke:none;stroke-width:14.80892944;stroke-linecap:round;stroke-linejoin:round;stroke-miterlimit:4;stroke-dasharray:none;stroke-dashoffset:4;stroke-opacity:1"
       id="path4262"
       d="M 256.57068,98.923067 C 256.70165,100.57538 252.26698,103.91406 251.75199,105.42581 C 251.21844,106.99214 252.82052,112.68424 251.46817,113.6378 C 250.11586,114.59136 245.29553,111.1699 243.64099,111.14643 C 241.98645,111.123 237.06288,114.40853 235.73813,113.41702 C 235.53751,113.26689 235.41201,113.00606 235.33447,112.67279 C 235.40355,113.10583 235.54233,113.43932 235.78226,113.61887 C 237.10705,114.61035 242.0243,111.32483 243.67884,111.34828 C 245.33336,111.37172 250.16002,114.79319 251.51233,113.83963 C 252.86467,112.88606 251.26257,107.19397 251.79615,105.62763 C 252.32972,104.0613 257.07227,100.52911 256.58329,98.948299 C 256.58059,98.9395 256.57372,98.931772 256.57068,98.923067 z M 231.10235,98.998746 C 231.31276,100.72294 235.28159,103.9451 235.7318,105.40056 C 235.73729,105.41829 235.73949,105.43861 235.74443,105.45734 C 235.73069,105.36262 235.71136,105.27533 235.68767,105.19873 C 235.25458,103.79865 231.56994,100.76239 231.10235,98.998746 z " />
    <path
       style="opacity:0.55327866;fill:url(#radialGradient2435);fill-opacity:1;fill-rule:evenodd;stroke:none;stroke-width:1px;stroke-linecap:butt;stroke-linejoin:miter;stroke-opacity:1"
       id="path4264"
       d="M 235.97637,105.5503 C 236.06644,107.67546 235.3641,110.74429 235.40095,111.85675 L 235.88432,111.90278 C 236.2815,109.88445 236.56752,107.82905 236.59781,105.6884 L 235.97637,105.5503 z " />
    <path
       style="opacity:0.62000002;fill:#2e3436;fill-opacity:1;fill-rule:nonzero;stroke:none;stroke-width:14.80892944;stroke-linecap:round;stroke-linejoin:round;stroke-miterlimit:4;stroke-dasharray:none;stroke-dashoffset:4;stroke-opacity:1"
       id="path4266"
       d="M 231.09351,98.860004 C 231.0927,100.5447 235.27304,103.90526 235.73559,105.40056 C 235.78141,105.54878 235.80691,105.73052 235.81757,105.94299 C 235.80883,105.70709 235.78534,105.49841 235.73559,105.33751 C 235.27827,103.8591 231.1851,100.56261 231.09351,98.860004 z M 256.61861,99.206888 C 256.49835,100.90309 252.30017,104.09613 251.79991,105.56457 C 251.72899,105.77275 251.69381,106.05765 251.68641,106.3908 C 251.69631,106.08339 251.73322,105.82342 251.79991,105.62763 C 252.30633,104.14106 256.60007,100.88607 256.61861,99.206888 z M 243.68262,111.28519 C 242.02806,111.26177 237.11081,114.54729 235.78602,113.55581 C 235.49624,113.33892 235.35058,112.89689 235.30038,112.3259 C 235.34565,112.92681 235.48592,113.39426 235.78602,113.61887 C 237.11081,114.61035 242.02806,111.32483 243.68262,111.34828 C 245.33716,111.37172 250.16378,114.79319 251.51609,113.83963 C 251.8639,113.59439 252.00866,113.0346 252.05222,112.31327 C 252.00392,113.00553 251.8542,113.53815 251.51609,113.77656 C 250.16378,114.73013 245.33716,111.30866 243.68262,111.28519 z " />
  </g>
  <g
     id="background">
    <g
       id="g2493">
      <g
         id="g5316"
         transform="matrix(0.9743404,0,0,0.9525436,-32.573897,-22.59866)">
        <rect
           style="opacity:0.75;fill:#000000;fill-opacity:1;fill-rule:evenodd;stroke:#fff9f9;stroke-width:0.11415055;stroke-miterlimit:4;stroke-dasharray:none;stroke-dashoffset:0;stroke-opacity:1"
           id="rect8365"
           y="23.790155"
           x="33.495888"
           ry="11.106991"
           rx="11.731662"
           height="169.93695"
           width="519.71259" />
        <text
           sodipodi:linespacing="125%"
           style="font-size:10.00003052px;font-style:normal;font-variant:normal;font-weight:bold;font-stretch:normal;text-align:start;line-height:125%;writing-mode:lr-tb;text-anchor:start;fill:#888a85;fill-opacity:1;stroke:none;stroke-width:1px;stroke-linecap:butt;stroke-linejoin:miter;stroke-opacity:1;font-family:Bitstream Vera Sans"
           xml:space="preserve"
           id="text4314"
           transform="scale(1.0290189,0.9717994)"
           y="145.93126"
           x="218.61919"><tspan
             id="tspan4316"
             y="145.93126"
             x="218.61919">Score: </tspan></text>
        <text
           sodipodi:linespacing="125%"
           style="font-size:10.00003052px;font-style:normal;font-variant:normal;font-weight:bold;font-stretch:normal;text-align:start;line-height:125%;writing-mode:lr-tb;text-anchor:start;fill:#888a85;fill-opacity:1;stroke:none;stroke-width:1px;stroke-linecap:butt;stroke-linejoin:miter;stroke-opacity:1;font-family:Bitstream Vera Sans"
           xml:space="preserve"
           id="text5426"
           transform="scale(1.0320399,0.9689547)"
           y="167.17984"
           x="218.02644"><tspan
             id="tspan5436"
             y="167.17984"
             x="218.02644">Times Played: </tspan></text>
        <text
           sodipodi:linespacing="125%"
           style="font-size:10.00003052px;font-style:normal;font-variant:normal;font-weight:bold;font-stretch:normal;text-align:start;line-height:125%;writing-mode:lr-tb;text-anchor:start;fill:#888a85;fill-opacity:1;stroke:none;stroke-width:1px;stroke-linecap:butt;stroke-linejoin:miter;stroke-opacity:1;font-family:Bitstream Vera Sans"
           xml:space="preserve"
           id="text5430"
           transform="scale(1.1686796,0.8556665)"
           y="211.65349"
           x="191.20662"><tspan
             id="tspan5434"
             y="211.65349"
             x="191.20662">Played Last: </tspan></text>
        <text
           sodipodi:linespacing="125%"
           style="font-size:10.00003052px;font-style:normal;font-variant:normal;font-weight:bold;font-stretch:normal;text-align:start;line-height:125%;writing-mode:lr-tb;text-anchor:start;fill:#888a85;fill-opacity:1;stroke:none;stroke-width:1px;stroke-linecap:butt;stroke-linejoin:miter;stroke-opacity:1;font-family:Bitstream Vera Sans"
           xml:space="preserve"
           id="text5438"
           transform="scale(1.0290189,0.9717994)"
           y="48.173851"
           x="218.61919"><tspan
             id="tspan5450"
             y="48.173851"
             x="218.61919">Artist: </tspan></text>
        <text
           sodipodi:linespacing="125%"
           style="font-size:10.00003052px;font-style:normal;font-variant:normal;font-weight:bold;font-stretch:normal;text-align:start;line-height:125%;writing-mode:lr-tb;text-anchor:start;fill:#888a85;fill-opacity:1;stroke:none;stroke-width:1px;stroke-linecap:butt;stroke-linejoin:miter;stroke-opacity:1;font-family:Bitstream Vera Sans"
           xml:space="preserve"
           id="text5442"
           transform="scale(1.0290189,0.9717994)"
           y="68.754372"
           x="218.61919"><tspan
             id="tspan5452"
             y="68.754372"
             x="218.61919">Track: </tspan></text>
        <text
           sodipodi:linespacing="125%"
           style="font-size:10.00003052px;font-style:normal;font-variant:normal;font-weight:bold;font-stretch:normal;text-align:start;line-height:125%;writing-mode:lr-tb;text-anchor:start;fill:#888a85;fill-opacity:1;stroke:none;stroke-width:1px;stroke-linecap:butt;stroke-linejoin:miter;stroke-opacity:1;font-family:Bitstream Vera Sans"
           xml:space="preserve"
           id="text5446"
           transform="scale(1.0290189,0.9717994)"
           y="89.334869"
           x="218.61919"><tspan
             id="tspan5454"
             y="89.334869"
             x="218.61919">Album: </tspan></text>
      </g>
      <rect
         style="opacity:0;fill:#000000;fill-opacity:1;fill-rule:evenodd;stroke:none;stroke-width:1;stroke-miterlimit:4;stroke-dasharray:none;stroke-dashoffset:0;stroke-opacity:1"
         id="track"
         y="32.721859"
         x="224.09988"
         height="8.8462725"
         width="277.68701" />
      <rect
         style="opacity:0;fill:#000000;fill-opacity:1;fill-rule:evenodd;stroke:none;stroke-width:1;stroke-miterlimit:4;stroke-dasharray:none;stroke-dashoffset:0;stroke-opacity:1"
         id="artist"
         y="13.670986"
         x="224.09988"
         height="8.8462725"
         width="277.68701" />
      <rect
         style="opacity:0;fill:#000000;fill-opacity:1;fill-rule:evenodd;stroke:none;stroke-width:1;stroke-miterlimit:4;stroke-dasharray:none;stroke-dashoffset:0;stroke-opacity:1"
         id="album"
         y="52.451874"
         x="228.97159"
         height="8.8462725"
         width="272.81531" />
      <rect
         style="opacity:0;fill:#000000;fill-opacity:1;fill-rule:evenodd;stroke:none;stroke-width:1;stroke-miterlimit:4;stroke-dasharray:none;stroke-dashoffset:0;stroke-opacity:1"
         id="numplayed"
         y="123.89265"
         x="267.94522"
         height="8.8462725"
         width="233.84169" />
      <rect
         style="opacity:0;fill:#000000;fill-opacity:1;fill-rule:evenodd;stroke:none;stroke-width:1;stroke-miterlimit:4;stroke-dasharray:none;stroke-dashoffset:0;stroke-opacity:1"
         id="score"
         y="104.84178"
         x="224.09988"
         height="8.8462725"
         width="277.68698" />
      <rect
         style="opacity:0;fill:#000000;fill-opacity:1;fill-rule:evenodd;stroke:none;stroke-width:1;stroke-miterlimit:4;stroke-dasharray:none;stroke-dashoffset:0;stroke-opacity:1"
         id="playedlast"
         y="142.94353"
         x="267.94522"
         height="8.8462725"
         width="233.84169" />
    </g>
    <g
       style="opacity:0"
       id="albumart"
       transform="matrix(1.0165641,0,0,1.0351728,-37.627411,-23.759385)">
      <rect
         style="opacity:0.75;fill:#2e3436;fill-opacity:1;fill-rule:evenodd;stroke:#fff9f9;stroke-width:0.90441966;stroke-miterlimit:4;stroke-dasharray:none;stroke-dashoffset:0;stroke-opacity:1"
         id="rect6163"
         y="29.238886"
         x="43.876125"
         height="144.10231"
         width="163.47882" />
      <rect
         style="opacity:0.75;fill:#2e3436;fill-opacity:1;fill-rule:evenodd;stroke:#fff9f9;stroke-width:0.29116574;stroke-miterlimit:4;stroke-dasharray:none;stroke-dashoffset:0;stroke-opacity:1"
         id="rect7219"
         y="28.933218"
         x="43.56852"
         height="144.71361"
         width="16.871887" />
      <g
         style="opacity:0.5"
         id="g6239"
         transform="matrix(0.9000481,0,0,0.8999852,6.1335412,-346.23374)">
        <rect
           style="opacity:0.75;fill:#2e3436;fill-opacity:1;fill-rule:evenodd;stroke:#fff9f9;stroke-width:0.30938008;stroke-miterlimit:4;stroke-dasharray:none;stroke-dashoffset:0;stroke-opacity:1"
           id="rect6165"
           y="417.72528"
           x="42.338238"
           height="159.45242"
           width="17.288054" />
        <rect
           style="opacity:0.75;fill:#2e3436;fill-opacity:1;fill-rule:evenodd;stroke:#fff9f9;stroke-width:0.11728111;stroke-miterlimit:4;stroke-dasharray:none;stroke-dashoffset:0;stroke-opacity:1"
           id="rect6167"
           y="417.63211"
           x="42.239185"
           height="159.28152"
           width="2.4870424" />
        <rect
           style="opacity:0.75;fill:#2e3436;fill-opacity:1;fill-rule:evenodd;stroke:#fff9f9;stroke-width:0.11728111;stroke-miterlimit:4;stroke-dasharray:none;stroke-dashoffset:0;stroke-opacity:1"
           id="rect6169"
           y="417.63211"
           x="44.757221"
           height="159.28152"
           width="2.4870424" />
        <rect
           style="opacity:0.75;fill:#2e3436;fill-opacity:1;fill-rule:evenodd;stroke:#fff9f9;stroke-width:0.11728111;stroke-miterlimit:4;stroke-dasharray:none;stroke-dashoffset:0;stroke-opacity:1"
           id="rect6171"
           y="417.63211"
           x="47.275299"
           height="159.28152"
           width="2.4870424" />
        <g
           id="g6178"
           transform="matrix(1.0491991,0,0,0.990034,18.646399,359.10462)">
          <rect
             style="opacity:0.75;fill:#2e3436;fill-opacity:1;fill-rule:evenodd;stroke:#fff9f9;stroke-width:0.11507317;stroke-miterlimit:4;stroke-dasharray:none;stroke-dashoffset:0;stroke-opacity:1"
             id="rect6180"
             y="59.062572"
             x="29.557537"
             height="160.88492"
             width="2.37042" />
          <rect
             style="opacity:0.75;fill:#2e3436;fill-opacity:1;fill-rule:evenodd;stroke:#fff9f9;stroke-width:0.11507317;stroke-miterlimit:4;stroke-dasharray:none;stroke-dashoffset:0;stroke-opacity:1"
             id="rect6182"
             y="59.062572"
             x="31.9575"
             height="160.88492"
             width="2.37042" />
          <rect
             style="opacity:0.75;fill:#2e3436;fill-opacity:1;fill-rule:evenodd;stroke:#fff9f9;stroke-width:0.11507317;stroke-miterlimit:4;stroke-dasharray:none;stroke-dashoffset:0;stroke-opacity:1"
             id="rect6184"
             y="59.062572"
             x="34.357498"
             height="160.88492"
             width="2.37042" />
        </g>
        <rect
           style="opacity:0.75;fill:#2e3436;fill-opacity:1;fill-rule:evenodd;stroke:#fff9f9;stroke-width:0.11728111;stroke-miterlimit:4;stroke-dasharray:none;stroke-dashoffset:0;stroke-opacity:1"
           id="rect6189"
           y="417.63211"
           x="57.137772"
           height="159.28152"
           width="2.4870424" />
      </g>
      <rect
         style="opacity:0.5;fill:url(#linearGradient14887);fill-opacity:1;fill-rule:evenodd;stroke:none;stroke-width:1;stroke-miterlimit:4;stroke-dasharray:none;stroke-dashoffset:0;stroke-opacity:1"
         id="rect8190"
         y="29.293341"
         x="60.457874"
         height="144.37079"
         width="147.54359" />
    </g>
  </g>
</svg>
