<?xml version="1.0" encoding="UTF-8" standalone="no"?>
<!-- Created with Inkscape (http://www.inkscape.org/) -->

<svg
   xmlns:dc="http://purl.org/dc/elements/1.1/"
   xmlns:cc="http://creativecommons.org/ns#"
   xmlns:rdf="http://www.w3.org/1999/02/22-rdf-syntax-ns#"
   xmlns:svg="http://www.w3.org/2000/svg"
   xmlns="http://www.w3.org/2000/svg"
   xmlns:sodipodi="http://sodipodi.sourceforge.net/DTD/sodipodi-0.dtd"
   xmlns:inkscape="http://www.inkscape.org/namespaces/inkscape"
   width="290"
   height="290"
   id="svg3115"
   version="1.1"
   inkscape:version="0.48.2 r9819"
   sodipodi:docname="Neues Dokument 5">
  <defs
     id="defs3117" />
  <sodipodi:namedview
     id="base"
     pagecolor="#ffffff"
     bordercolor="#666666"
     borderopacity="1.0"
     inkscape:pageopacity="0.0"
     inkscape:pageshadow="2"
     inkscape:zoom="0.35"
     inkscape:cx="250.57143"
     inkscape:cy="11.99996"
     inkscape:document-units="px"
     inkscape:current-layer="layer1"
     showgrid="false"
     fit-margin-top="0"
     fit-margin-left="0"
     fit-margin-right="0"
     fit-margin-bottom="0"
     inkscape:window-width="1280"
     inkscape:window-height="976"
     inkscape:window-x="-3"
     inkscape:window-y="-3"
     inkscape:window-maximized="1" />
  <metadata
     id="metadata3120">
    <rdf:RDF>
      <cc:Work
         rdf:about="">
        <dc:format>image/svg+xml</dc:format>
        <dc:type
           rdf:resource="http://purl.org/dc/dcmitype/StillImage" />
        <dc:title></dc:title>
      </cc:Work>
    </rdf:RDF>
  </metadata>
  <g
     inkscape:label="Ebene 1"
     inkscape:groupmode="layer"
     id="layer1"
     transform="translate(-99.428571,-254.36214)">
    <g
       transform="matrix(4.53125,0,0,4.53125,99.428571,-4224.154)"
       id="g3040"
       inkscape:export-filename="/home/fabi/ama-rok-zon/64.png"
       inkscape:export-xdpi="90"
       inkscape:export-ydpi="90"
       style="opacity:0.36000001">
      <rect
         inkscape:export-ydpi="22.5"
         inkscape:export-xdpi="22.5"
         inkscape:export-filename="/home/fabi/ama-rok-zon/16.png"
         ry="0"
         rx="0"
         y="988.36218"
         x="0"
         height="64"
         width="64"
         id="rect4370"
         style="opacity:0;fill:#ff9900;fill-opacity:1;stroke:none" />
      <path
         inkscape:connector-curvature="0"
         style="font-size:37.0059166px;font-style:normal;font-variant:normal;font-weight:normal;font-stretch:normal;line-height:125%;letter-spacing:0px;word-spacing:0px;fill:#666666;fill-opacity:0.70588235;stroke:none;font-family:OfficinaSansBold;-inkscape-font-specification:OfficinaSansBold"
         d="m 4.375,1021.3622 c -1.3157497,0 -2.375,1.115 -2.375,2.5 0,1.385 1.0592503,2.5 2.375,2.5 l 14.25,0 c 1.31575,0 2.375,-1.115 2.375,-2.5 0,-1.385 -1.05925,-2.5 -2.375,-2.5 l -14.25,0 z m 0,8 c -1.3157497,0 -2.375,1.115 -2.375,2.5 0,1.385 1.0592503,2.5 2.375,2.5 l 6.96875,0 c 0.742295,-2.0589 2.622817,-3.8292 5.15625,-5 l -12.125,0 z m 42,0 c -1.31575,0 -2.375,1.115 -2.375,2.5 0,1.385 1.05925,2.5 2.375,2.5 l 14.25,0 c 1.31575,0 2.375,-1.115 2.375,-2.5 0,-1.385 -1.05925,-2.5 -2.375,-2.5 l -14.25,0 z m -42,8 c -1.3157497,0 -2.375,1.115 -2.375,2.5 0,1.385 1.0592503,2.5 2.375,2.5 l 10.375,0 c -1.975905,-1.3173 -3.314851,-3.051 -3.65625,-5 l -6.71875,0 z m 32.03125,0 c -0.341399,1.949 -1.680345,3.6827 -3.65625,5 l 6.875,0 c 1.31575,0 2.375,-1.115 2.375,-2.5 0,-1.385 -1.05925,-2.5 -2.375,-2.5 l -3.21875,0 z m 9.96875,0 c -1.31575,0 -2.375,1.115 -2.375,2.5 0,1.385 1.05925,2.5 2.375,2.5 l 14.25,0 c 1.31575,0 2.375,-1.115 2.375,-2.5 0,-1.385 -1.05925,-2.5 -2.375,-2.5 l -14.25,0 z m -42,8 c -1.3157497,0 -2.375,1.115 -2.375,2.5 0,1.385 1.0592503,2.5 2.375,2.5 l 14.25,0 c 1.31575,0 2.375,-1.115 2.375,-2.5 0,-1.385 -1.05925,-2.5 -2.375,-2.5 l -14.25,0 z m 21,0 c -1.31575,0 -2.375,1.115 -2.375,2.5 0,1.385 1.05925,2.5 2.375,2.5 l 14.25,0 c 1.31575,0 2.375,-1.115 2.375,-2.5 0,-1.385 -1.05925,-2.5 -2.375,-2.5 l -14.25,0 z m 21,0 c -1.31575,0 -2.375,1.115 -2.375,2.5 0,1.385 1.05925,2.5 2.375,2.5 l 14.25,0 c 1.31575,0 2.375,-1.115 2.375,-2.5 0,-1.385 -1.05925,-2.5 -2.375,-2.5 l -14.25,0 z"
         id="rect3155-7" />
      <path
         inkscape:connector-curvature="0"
         d="m 24.423905,1002.3937 0,12.545 c -2.6e-5,0.3454 -0.17272,0.5181 -0.518083,0.5181 l -3.663586,0 c -0.34541,0 -0.518104,-0.1727 -0.518082,-0.5181 l 0,-11.3978 c -2.2e-5,-2.0723 -0.518104,-3.1085 -1.554249,-3.1085 -1.085526,0 -2.171032,0.5057 -3.256521,1.5172 l 0,12.9891 c -1.6e-5,0.3454 -0.17271,0.5181 -0.518082,0.5181 l -3.663586,0 c -0.345401,0 -0.518095,-0.1727 -0.518083,-0.5181 l 0,-11.3978 c -1.2e-5,-2.0723 -0.5180944,-3.1085 -1.5542484,-3.1085 -1.0855164,0 -2.1710222,0.5057 -3.2565207,1.5172 l 0,12.9891 c -7.3e-6,0.3454 -0.1727015,0.5181 -0.5180828,0.5181 l -3.6635858,0 c -0.34539135,0 -0.51808546,-0.1727 -0.51808279,-0.5181 l 0,-11.1758 c -2.67e-6,-2.097 -0.1233556,-3.6019 -0.37005917,-4.5147 C 0.11101577,998.3354 -1.8678535e-6,997.916 9.3460083e-8,997.98999 -1.8678535e-6,997.81732 0.13568636,997.68163 0.40706518,997.58293 l 2.81244962,-0.92515 c 0.2220301,-0.074 0.4070595,-0.111 0.5550888,-0.11102 0.3947236,2e-5 0.789453,0.85116 1.1841893,2.55341 0.9374754,-0.81411 1.6529224,-1.35686 2.1463432,-1.62826 1.0854967,-0.61675 2.2573496,-0.92513 3.5155619,-0.92515 0.838788,2e-5 1.615911,0.24673 2.331373,0.74012 0.740103,0.46876 1.221179,1.07319 1.443231,1.81329 0.937466,-0.81411 1.652913,-1.35686 2.146343,-1.62826 1.085487,-0.61675 2.282011,-0.92513 3.589574,-0.92515 2.861766,2e-5 4.29266,1.949 4.292686,5.84694"
         id="path4313"
         style="font-size:37.0059166px;font-style:normal;font-variant:normal;font-weight:normal;font-stretch:normal;line-height:125%;letter-spacing:0px;word-spacing:0px;fill:#000000;fill-opacity:1;stroke:none;font-family:OfficinaSansBold;-inkscape-font-specification:OfficinaSansBold" />
      <path
         inkscape:connector-curvature="0"
         d="M 51.491996,996.06569 49.45667,994.2524 c -0.123355,-0.074 -0.185032,-0.19735 -0.185029,-0.37006 -3e-6,-0.5674 0.567421,-1.28285 1.702272,-2.14635 1.406219,-1.08548 3.046813,-1.62823 4.921787,-1.62826 2.146332,3e-5 3.885608,0.60446 5.217834,1.81329 1.356868,1.18422 2.035309,2.76313 2.035325,4.73676 -1.6e-5,2.49175 -1.159534,4.32972 -3.478556,5.51392 2.886446,1.0361 4.329675,3.1331 4.329692,6.291 -1.7e-5,2.319 -0.814146,4.1693 -2.44239,5.5509 -1.628274,1.3815 -3.626591,2.0723 -5.994959,2.0723 -1.430902,0 -2.960479,-0.2344 -4.588733,-0.7031 -1.628263,-0.4688 -2.442393,-0.9128 -2.442391,-1.3322 -2e-6,-0.074 0.02467,-0.1974 0.07401,-0.3701 l 0.740118,-2.6274 c 0.07401,-0.2467 0.209698,-0.3701 0.407066,-0.3701 -0.04935,0 0.542749,0.2591 1.776284,0.7771 1.233524,0.4935 2.442383,0.7402 3.626579,0.7402 2.689086,0 4.033633,-1.3322 4.033645,-3.9967 -1.2e-5,-2.467 -1.529589,-3.7006 -4.588733,-3.7006 l -1.147184,0 c -0.493418,0 -0.740124,-0.2467 -0.740118,-0.7401 l 0,-2.4794 c -6e-6,-0.518 0.2467,-0.7771 0.740118,-0.7771 l 1.221195,0 c 2.689086,0 4.033633,-1.15951 4.033645,-3.47856 -1.2e-5,-0.88812 -0.283723,-1.6159 -0.851136,-2.18335 -0.567434,-0.5674 -1.307552,-0.85111 -2.220355,-0.85113 -0.937491,2e-5 -1.813297,0.38241 -2.62742,1.14718 -0.789465,0.74014 -1.184194,1.1102 -1.184189,1.11018 -0.07402,2e-5 -0.185035,-0.0617 -0.333053,-0.18503"
         id="path4317"
         style="font-size:37.0059166px;font-style:normal;font-variant:normal;font-weight:normal;font-stretch:normal;line-height:125%;letter-spacing:0px;word-spacing:0px;fill:#000000;fill-opacity:1;stroke:none;font-family:OfficinaSansBold;-inkscape-font-specification:OfficinaSansBold" />
      <path
         sodipodi:nodetypes="cccccsccccssscsscccscccscccs"
         inkscape:connector-curvature="0"
         d="m 32.6875,996.54968 c -0.14803,2e-5 -0.34047,0.0198 -0.5625,0.0937 l -2.90625,1.03125 c -0.271379,0.0987 -0.406252,0.23358 -0.40625,0.40625 -2e-6,-0.074 0.09046,0.36845 0.3125,1.28125 0.246704,0.91277 0.375,2.40297 0.375,4.49997 l 0,4.125 0,14.625 0,9.2501 c -2.147457,-2.1299 -4.186857,-1.9846 -7,-2 -5.86669,0 -9.5,2.8943 -9.5,6.5 0,3.6054 3.63331,6.5 9.5,6.5 6.33497,0 12,-2.956 12,-6.625 l 0,-21.1251 c 1.233522,0.6415 2.324027,0.9687 3.65625,0.9687 4.539377,0 6.812482,-3.3586 6.8125,-10.0937 -1.8e-5,-6.29099 -2.13825,-9.43745 -6.40625,-9.43747 -1.825635,2e-5 -3.386545,0.6234 -4.71875,1.90625 -0.419407,-1.28285 -0.810868,-1.90623 -1.15625,-1.90625 z m 4.59375,3.68752 c 1.110166,0 1.868417,0.5132 2.3125,1.5 0.444058,0.9622 0.687486,2.4392 0.6875,4.4375 -1.4e-5,2.2697 -0.243442,3.8305 -0.6875,4.7187 -0.468754,0.9868 -1.30431,1.5 -2.5625,1.5 -0.962163,0 -1.692458,-0.25 -2.53125,-0.7187 l 0,-3.3125 0,-6.7188 c 1.011486,-0.9375 1.819087,-1.4062 2.78125,-1.4062 z"
         id="path4315"
         style="font-size:37.0059166px;font-style:normal;font-variant:normal;font-weight:normal;font-stretch:normal;line-height:125%;letter-spacing:0px;word-spacing:0px;fill:#ffaa00;fill-opacity:1;stroke:none;font-family:OfficinaSansBold;-inkscape-font-specification:OfficinaSansBold" />
    </g>
  </g>
</svg>
