<?xml version="1.0" encoding="UTF-8" standalone="no"?>
<!-- Created with Inkscape (http://www.inkscape.org/) -->

<svg
   xmlns:dc="http://purl.org/dc/elements/1.1/"
   xmlns:cc="http://creativecommons.org/ns#"
   xmlns:rdf="http://www.w3.org/1999/02/22-rdf-syntax-ns#"
   xmlns:svg="http://www.w3.org/2000/svg"
   xmlns="http://www.w3.org/2000/svg"
   xmlns:sodipodi="http://sodipodi.sourceforge.net/DTD/sodipodi-0.dtd"
   xmlns:inkscape="http://www.inkscape.org/namespaces/inkscape"
   width="244.00342"
   height="280.28595"
   id="svg4496"
   version="1.1"
   inkscape:version="0.48.2 r9819"
   sodipodi:docname="theme.svg">
  <defs
     id="defs3">
    <style
       type="text/css"
       id="current-color-scheme">
      .ColorScheme-Text {
        color:#000000;
      }
      .ColorScheme-Background{
        color:#7f7f7f;
      }
      .ColorScheme-ViewText {
        color:#000000;
      }
      .ColorScheme-ViewBackground{
        color:#ffffff;
      }
      .ColorScheme-ViewHover {
        color:#000000;
      }
      .ColorScheme-ViewFocus{
        color:#5a5a5a;
      }
      .ColorScheme-ButtonText {
        color:#000000;
      }
      .ColorScheme-ButtonBackground{
        color:#7f7f7f;
      }
      .ColorScheme-ButtonHover {
        color:#000000;
      }
      .ColorScheme-ButtonFocus{
        color:#5a5a5a;
      }
      <rect
   id="hint-apply-color-scheme"
   width="1"
   height="1"
   x="-1"
   y="-1"
   fill="none"
   stroke="none" />
</style>
  </defs>
  <defs
     id="defs4498" />
  <sodipodi:namedview
     id="base"
     pagecolor="#ffffff"
     bordercolor="#666666"
     borderopacity="1.0"
     inkscape:pageopacity="0.0"
     inkscape:pageshadow="2"
     inkscape:zoom="0.7"
     inkscape:cx="354.81392"
     inkscape:cy="-3.5640002"
     inkscape:document-units="px"
     inkscape:current-layer="layer1"
     showgrid="false"
     fit-margin-top="0"
     fit-margin-left="0"
     fit-margin-right="0"
     fit-margin-bottom="0"
     inkscape:window-width="1216"
     inkscape:window-height="847"
     inkscape:window-x="515"
     inkscape:window-y="427"
     inkscape:window-maximized="0" />
  <metadata
     id="metadata4501">
    <rdf:RDF>
      <cc:Work
         rdf:about="">
        <dc:format>image/svg+xml</dc:format>
        <dc:type
           rdf:resource="http://purl.org/dc/dcmitype/StillImage" />
        <dc:title />
      </cc:Work>
    </rdf:RDF>
  </metadata>
  <g
     inkscape:label="Layer 1"
     inkscape:groupmode="layer"
     id="layer1"
     transform="translate(-474.14285,-620.71933)">
    <path
       class="ColorScheme-Text"
       style="font-size:medium;font-style:normal;font-variant:normal;font-weight:normal;font-stretch:normal;text-indent:0;text-align:start;text-decoration:none;line-height:normal;letter-spacing:normal;word-spacing:normal;text-transform:none;direction:ltr;block-progression:tb;writing-mode:lr-tb;text-anchor:start;baseline-shift:baseline;color:#000000;fill:#800000;fill-opacity:1;stroke:none;stroke-width:3;marker:none;visibility:visible;display:inline;overflow:visible;enable-background:accumulate;font-family:Sans;-inkscape-font-specification:Sans"
       d="m 607.5,620.71933 c -7.99036,0 -14.5,6.50964 -14.5,14.5 0,7.99036 6.50964,14.5 14.5,14.5 7.99036,0 14.5,-6.50964 14.5,-14.5 0,-7.99036 -6.50964,-14.5 -14.5,-14.5 z m 0,3 c 6.36904,0 11.5,5.13096 11.5,11.5 0,6.36904 -5.13096,11.5 -11.5,11.5 -6.36904,0 -11.5,-5.13096 -11.5,-11.5 0,-6.36904 5.13096,-11.5 11.5,-11.5 z"
       id="path15573"
       inkscape:connector-curvature="0" />
    <g
       style="fill:#800000;display:inline"
       transform="translate(525.5,394.21933)"
       id="wikipedia">
      <path
         class="ColorScheme-Text"
         style="font-size:medium;font-style:normal;font-variant:normal;font-weight:normal;font-stretch:normal;text-indent:0;text-align:start;text-decoration:none;line-height:normal;letter-spacing:normal;word-spacing:normal;text-transform:none;direction:ltr;block-progression:tb;writing-mode:lr-tb;text-anchor:start;baseline-shift:baseline;color:#000000;fill:#800000;fill-opacity:1;stroke:none;stroke-width:3;marker:none;visibility:visible;display:inline;overflow:visible;enable-background:accumulate;font-family:Sans;-inkscape-font-specification:Sans"
         d="m 37,226.5 c -7.99036,0 -14.5,6.50964 -14.5,14.5 0,7.99036 6.50964,14.5 14.5,14.5 7.99036,0 14.5,-6.50964 14.5,-14.5 0,-7.99036 -6.50964,-14.5 -14.5,-14.5 z m 0,3 c 6.36904,0 11.5,5.13096 11.5,11.5 0,6.36904 -5.13096,11.5 -11.5,11.5 -6.36904,0 -11.5,-5.13096 -11.5,-11.5 0,-6.36904 5.13096,-11.5 11.5,-11.5 z"
         id="path15577"
         inkscape:connector-curvature="0" />
      <text
         class="ColorScheme-Text"
         xml:space="preserve"
         style="font-size:17.32460976px;font-style:normal;font-variant:normal;font-weight:bold;font-stretch:normal;line-height:125%;letter-spacing:0px;word-spacing:0px;fill:#800000;fill-opacity:1;stroke:none;font-family:Liberation Serif;-inkscape-font-specification:Liberation Serif Bold"
         x="27.946089"
         y="247.63483"
         id="text15579"
         sodipodi:linespacing="125%"><tspan
           sodipodi:role="line"
           id="tspan15581"
           x="27.946089"
           y="247.63483">W</tspan></text>
    </g>
    <g
       style="fill:#800000;display:inline"
       id="more"
       transform="translate(283.5,474.21933)">
      <path
         class="ColorScheme-Text"
         style="font-size:medium;font-style:normal;font-variant:normal;font-weight:normal;font-stretch:normal;text-indent:0;text-align:start;text-decoration:none;line-height:normal;letter-spacing:normal;word-spacing:normal;text-transform:none;direction:ltr;block-progression:tb;writing-mode:lr-tb;text-anchor:start;baseline-shift:baseline;color:#000000;fill:#800000;fill-opacity:1;stroke:none;stroke-width:3;marker:none;visibility:visible;display:inline;overflow:visible;enable-background:accumulate;font-family:Sans;-inkscape-font-specification:Sans"
         d="m 370,146.5 c -7.99036,0 -14.5,6.50964 -14.5,14.5 0,7.99036 6.50964,14.5 14.5,14.5 7.99036,0 14.5,-6.50964 14.5,-14.5 0,-7.99036 -6.50964,-14.5 -14.5,-14.5 z m 0,3 c 6.36904,0 11.5,5.13096 11.5,11.5 0,6.36904 -5.13096,11.5 -11.5,11.5 -6.36904,0 -11.5,-5.13096 -11.5,-11.5 0,-6.36904 5.13096,-11.5 11.5,-11.5 z"
         id="path15623"
         inkscape:connector-curvature="0" />
      <path
         sodipodi:type="arc"
         style="color:#000000;fill:#b3b3b3;fill-opacity:1;stroke:#800000;stroke-width:3;stroke-linecap:round;stroke-linejoin:round;stroke-miterlimit:4;stroke-opacity:1;stroke-dasharray:none"
         sodipodi:cx="364.5"
         sodipodi:cy="164.75"
         sodipodi:rx="0.5"
         sodipodi:ry="0.5"
         class="ColorScheme-Text"
         d="m 365,164.75 c 0,0.27614 -0.22386,0.5 -0.5,0.5 -0.27614,0 -0.5,-0.22386 -0.5,-0.5 0,-0.27614 0.22386,-0.5 0.5,-0.5 0.27614,0 0.5,0.22386 0.5,0.5 z"
         transform="translate(1,0)"
         id="path18" />
      <path
         d="m 365,164.75 c 0,0.27614 -0.22386,0.5 -0.5,0.5 -0.27614,0 -0.5,-0.22386 -0.5,-0.5 0,-0.27614 0.22386,-0.5 0.5,-0.5 0.27614,0 0.5,0.22386 0.5,0.5 z"
         sodipodi:ry="0.5"
         sodipodi:rx="0.5"
         sodipodi:cy="164.75"
         sodipodi:cx="364.5"
         style="color:#000000;fill:#b3b3b3;fill-opacity:1;stroke:#800000;stroke-width:3;stroke-linecap:round;stroke-linejoin:round;stroke-miterlimit:4;stroke-opacity:1;stroke-dasharray:none"
         sodipodi:type="arc"
         class="ColorScheme-Text"
         transform="translate(11,0)"
         id="path20" />
      <path
         transform="translate(6,0)"
         sodipodi:type="arc"
         style="color:#000000;fill:#b3b3b3;fill-opacity:1;stroke:#800000;stroke-width:3;stroke-linecap:round;stroke-linejoin:round;stroke-miterlimit:4;stroke-opacity:1;stroke-dasharray:none"
         class="ColorScheme-Text"
         sodipodi:cx="364.5"
         sodipodi:cy="164.75"
         sodipodi:rx="0.5"
         sodipodi:ry="0.5"
         d="m 365,164.75 c 0,0.27614 -0.22386,0.5 -0.5,0.5 -0.27614,0 -0.5,-0.22386 -0.5,-0.5 0,-0.27614 0.22386,-0.5 0.5,-0.5 0.27614,0 0.5,0.22386 0.5,0.5 z"
         id="path22" />
    </g>
    <g
       transform="translate(1892.5,-349.78067)"
       style="fill:#800000;display:inline"
       id="text">
      <path
         class="ColorScheme-Text"
         style="font-size:medium;font-style:normal;font-variant:normal;font-weight:normal;font-stretch:normal;text-indent:0;text-align:start;text-decoration:none;line-height:normal;letter-spacing:normal;word-spacing:normal;text-transform:none;direction:ltr;block-progression:tb;writing-mode:lr-tb;text-anchor:start;baseline-shift:baseline;color:#000000;fill:#800000;fill-opacity:1;stroke:none;stroke-width:3;marker:none;visibility:visible;display:inline;overflow:visible;enable-background:accumulate;font-family:Sans;-inkscape-font-specification:Sans"
         d="m -1374,970.5 c -7.9904,0 -14.5,6.50964 -14.5,14.5 0,7.99036 6.5096,14.5 14.5,14.5 7.9904,0 14.5,-6.50964 14.5,-14.5 0,-7.99036 -6.5096,-14.5 -14.5,-14.5 z m 0,3 c 6.369,0 11.5,5.13096 11.5,11.5 0,6.36904 -5.131,11.5 -11.5,11.5 -6.369,0 -11.5,-5.13096 -11.5,-11.5 0,-6.36904 5.131,-11.5 11.5,-11.5 z"
         id="path15503"
         inkscape:connector-curvature="0" />
      <text
         sodipodi:linespacing="125%"
         id="text5185"
         y="981.66174"
         x="-1382.5002"
         class="ColorScheme-Text"
         style="font-size:3.47490501px;font-style:normal;font-variant:normal;font-weight:normal;font-stretch:normal;line-height:125%;letter-spacing:0px;word-spacing:0px;fill:#800000;fill-opacity:1;stroke:none;font-family:Liberation Sans;-inkscape-font-specification:Liberation Sans"
         xml:space="preserve"><tspan
           id="tspan5191"
           y="981.66174"
           x="-1382.5002"
           sodipodi:role="line">Amarok is</tspan><tspan
           y="986.00537"
           x="-1382.5002"
           sodipodi:role="line"
           id="tspan4546">pretty darn</tspan><tspan
           y="990.349"
           x="-1382.5002"
           sodipodi:role="line"
           id="tspan4548">awesome!</tspan></text>
    </g>
    <g
       transform="matrix(0.28563468,0,0,0.28563468,474.14285,634.99905)"
       id="logo"
       style="opacity:0.1;display:inline"
       inkscape:export-filename="/home/ruphy/git/kde/amarok-ui/images/logo.png"
       inkscape:export-xdpi="90"
       inkscape:export-ydpi="90"
       inkscape:label="#g8826">
      <path
         style="fill:#dddddd;fill-opacity:1;stroke:#0057ae;stroke-width:81.84814453;stroke-miterlimit:4;stroke-opacity:1;stroke-dasharray:none"
         d="m 813.31393,504.16148 c 0,213.1796 -173.01533,386.19493 -386.19493,386.19493 -213.1796,0 -386.194928,-173.01533 -386.194928,-386.19493 0,-213.1796 173.015328,-386.19493 386.194928,-386.19493 213.1796,0 386.19493,173.01533 386.19493,386.19493 z"
         id="circle22"
         inkscape:connector-curvature="0" />
      <g
         id="g7521"
         transform="matrix(1.0007211,0,0,1.0007211,0,77.042475)">
        <path
           id="path43"
           d="m 642.57609,234.13404 c -15.46661,0 -45.49938,32.25602 -56.75241,37.34876 -11.25812,5.09273 -100.36683,62.80739 -108.81016,72.99286 -8.43928,10.18445 -19.69537,14.42942 -31.88836,13.58063 -12.19198,-0.8488 -50.73999,-1.19722 -63.86989,5.59309 -13.13294,6.79032 -73.07287,62.30805 -88.08166,69.09938 -15.00676,6.78828 -34.58665,10.26853 -43.96588,11.1163 -9.37923,0.84981 -40.45221,32.17095 -48.89453,38.1145 -8.44131,5.93849 -70.15782,29.73498 -79.53604,34.8257 -9.38023,5.09375 55.15005,85.69735 66.40614,87.39493 11.25405,1.69859 -11.05655,10.02037 -32.71183,10.02037 -2.38431,0 30.9484,87.40912 144.60113,143.82527 98.25395,48.76994 177.41422,19.15347 216.13036,7.32511 27.376,-8.36331 32.3401,-12.09272 33.28106,-25.67335 0.93894,-13.57962 2.6345,-24.31104 4.51135,-39.58824 1.87686,-15.27517 8.43827,-143.4424 32.82932,-177.39195 24.38396,-33.95056 94.08903,-74.70664 118.475,-78.94857 24.38802,-4.24394 19.69942,-12.73082 19.69942,-20.36993 0,-7.6391 -3.75271,-24.6149 -10.31816,-27.16126 -6.56646,-2. 54535 -32.18614,12.74501 -40.62744,14.44258 -8.44232,1.69758 -48.774,4.24396 -54.40254,-4.24292 -5.62755,-8.48891 45.5014,-95.06444 52.06685,-105.24889 6.56344,-10.18548 9.37821,-23.76611 -2.81276,-38.19452 -12.19805,-14.43145 -20.64036,-28.85985 -25.32897,-28.85985 z"
           style="opacity:0.22000002;fill:#323232"
           inkscape:connector-curvature="0" />
        <path
           id="path58"
           d="m 609.66271,189.23022 c -15.00372,0 -44.133,34.57552 -55.05079,40.03391 -10.91778,5.4594 -97.3515,67.32481 -105.53959,78.2436 -8.18807,10.91677 -19.10687,15.46661 -30.9332,14.55704 -11.82634,-0.90854 -49.21562,-1.28331 -61.95252,5.99522 -12.73894,7.27953 -70.879,66.79001 -85.43604,74.06954 -14.55603,7.2765 -33.54744,11.00489 -42.6461,11.91547 -9.09664,0.90854 -39.23677,34.48233 -47.42485,40.85229 -8.18808,6.36998 -72.89056,34.36788 -81.988203,39.82425 -9.098659,5.45939 66.374733,81.91426 77.292513,83.73237 10.91779,1.82216 -7.51959,43.24674 -28.52561,43.24674 -2.31341,0 18.77162,68.64357 129.01196,129.11729 95.30448,52.27956 196.42286,29.13233 233.97521,16.45517 26.55557,-8.96799 7.91765,-13.92399 8.82924,-28.48002 0.90754,-14.55806 1.67225,-33.69938 3.49239,-50.07453 1.82115,-16.37618 8.18707,-153.75955 31.84378,-190.15114 23.65369,-36.38957 91.26312,-80.07691 114.91881,-84.62573 23.65673,-4.54883 19.10588,-13.64749 19.10588,-21.83456 0,-8.18707 -3.63825,-26.38438 -10.00823,-29.11409 -6.36795,- 2.72868 -31.21782,13.66167 -39.40591,15.48079 -8.18808,1.81913 -47.3104,4.54984 -52.7708,-4.54781 -5.45839,-9.09967 44.13502,-101.90032 50.50398,-112.81811 6.36998,-10.91879 9.09765,-25.47684 -2.7307,-40.94144 -11.82331,-15.46963 -20.0124,-30.93625 -24.56122,-30.93625 z"
           style="fill:#00316e;fill-opacity:1"
           inkscape:connector-curvature="0" />
        <path
           id="path60"
           d="m 428.17672,360.73231 c 0,0 -36.04418,-5.54651 -56.84155,15.25187 -20.79838,20.79737 -38.82554,66.54997 -37.43486,80.41521 1.3846,13.86526 42.98035,-47.14023 61.00244,-51.29808 18.02614,-4.16088 37.43587,-34.66566 33.27397,-44.369 z"
           style="fill:#ffffff"
           inkscape:connector-curvature="0" />
      </g>
    </g>
  </g>
</svg>
