<?xml version="1.0" encoding="UTF-8" standalone="no"?>
<!-- Created with Inkscape (http://www.inkscape.org/) -->

<svg
   xmlns:dc="http://purl.org/dc/elements/1.1/"
   xmlns:cc="http://creativecommons.org/ns#"
   xmlns:rdf="http://www.w3.org/1999/02/22-rdf-syntax-ns#"
   xmlns:svg="http://www.w3.org/2000/svg"
   xmlns="http://www.w3.org/2000/svg"
   xmlns:sodipodi="http://sodipodi.sourceforge.net/DTD/sodipodi-0.dtd"
   xmlns:inkscape="http://www.inkscape.org/namespaces/inkscape"
   width="244.00342"
   height="280.28595"
   id="svg4496"
   version="1.1"
   inkscape:version="0.48.2 r9819"
   sodipodi:docname="theme.svg">
  <defs
     id="defs3">
    <style
       type="text/css"
       id="current-color-scheme">
      .ColorScheme-Text {
        color:#800000;
      }
      .ColorScheme-Background{
        color:#7f7f7f;
      }
      .ColorScheme-ViewText {
        color:#000000;
      }
      .ColorScheme-ViewBackground{
        color:#ffffff;
      }
      .ColorScheme-ViewHover {
        color:#000000;
      }
      .ColorScheme-ViewFocus{
        color:#5a5a5a;
      }
      .ColorScheme-ButtonText {
        color:#000000;
      }
      .ColorScheme-ButtonBackground{
        color:#7f7f7f;
      }
      .ColorScheme-ButtonHover {
        color:#000000;
      }
      .ColorScheme-ButtonFocus{
        color:#5a5a5a;
      }
      <rect
   id="hint-apply-color-scheme"
   width="1"
   height="1"
   x="-1"
   y="-1"
   fill="none"
   stroke="none" />
</style>
  </defs>
  <defs
     id="defs4498" />
  <sodipodi:namedview
     id="base"
     pagecolor="#ffffff"
     bordercolor="#666666"
     borderopacity="1.0"
     inkscape:pageopacity="0.0"
     inkscape:pageshadow="2"
     inkscape:zoom="3.959798"
     inkscape:cx="-18.785822"
     inkscape:cy="212.1488"
     inkscape:document-units="px"
     inkscape:current-layer="layer1"
     showgrid="false"
     fit-margin-top="0"
     fit-margin-left="0"
     fit-margin-right="0"
     fit-margin-bottom="0"
     inkscape:window-width="1216"
     inkscape:window-height="847"
     inkscape:window-x="1280"
     inkscape:window-y="427"
     inkscape:window-maximized="0" />
  <metadata
     id="metadata4501">
    <rdf:RDF>
      <cc:Work
         rdf:about="">
        <dc:format>image/svg+xml</dc:format>
        <dc:type
           rdf:resource="http://purl.org/dc/dcmitype/StillImage" />
        <dc:title />
      </cc:Work>
    </rdf:RDF>
  </metadata>
  <g
     inkscape:label="Layer 1"
     inkscape:groupmode="layer"
     id="layer1"
     transform="translate(-474.14285,-620.71933)">
    <path
       class="ColorScheme-Text"
       style="font-size:medium;font-style:normal;font-variant:normal;font-weight:normal;font-stretch:normal;text-indent:0;text-align:start;text-decoration:none;line-height:normal;letter-spacing:normal;word-spacing:normal;text-transform:none;direction:ltr;block-progression:tb;writing-mode:lr-tb;text-anchor:start;baseline-shift:baseline;color:#000000;fill:#800000;fill-opacity:1;stroke:none;stroke-width:3;marker:none;visibility:visible;display:inline;overflow:visible;enable-background:accumulate;font-family:Sans;-inkscape-font-specification:Sans"
       d="m 607.5,620.71933 c -7.99036,0 -14.5,6.50964 -14.5,14.5 0,7.99036 6.50964,14.5 14.5,14.5 7.99036,0 14.5,-6.50964 14.5,-14.5 0,-7.99036 -6.50964,-14.5 -14.5,-14.5 z m 0,3 c 6.36904,0 11.5,5.13096 11.5,11.5 0,6.36904 -5.13096,11.5 -11.5,11.5 -6.36904,0 -11.5,-5.13096 -11.5,-11.5 0,-6.36904 5.13096,-11.5 11.5,-11.5 z"
       id="path15573"
       inkscape:connector-curvature="0" />
    <g
       style="fill:#800000;display:inline"
       transform="translate(525.5,394.21933)"
       id="wikipedia">
      <path
         class="ColorScheme-Text"
         style="font-size:medium;font-style:normal;font-variant:normal;font-weight:normal;font-stretch:normal;text-indent:0;text-align:start;text-decoration:none;line-height:normal;letter-spacing:normal;word-spacing:normal;text-transform:none;direction:ltr;block-progression:tb;writing-mode:lr-tb;text-anchor:start;baseline-shift:baseline;color:#000000;fill:#800000;fill-opacity:1;stroke:none;stroke-width:3;marker:none;visibility:visible;display:inline;overflow:visible;enable-background:accumulate;font-family:Sans;-inkscape-font-specification:Sans"
         d="m 37,226.5 c -7.99036,0 -14.5,6.50964 -14.5,14.5 0,7.99036 6.50964,14.5 14.5,14.5 7.99036,0 14.5,-6.50964 14.5,-14.5 0,-7.99036 -6.50964,-14.5 -14.5,-14.5 z m 0,3 c 6.36904,0 11.5,5.13096 11.5,11.5 0,6.36904 -5.13096,11.5 -11.5,11.5 -6.36904,0 -11.5,-5.13096 -11.5,-11.5 0,-6.36904 5.13096,-11.5 11.5,-11.5 z"
         id="path15577"
         inkscape:connector-curvature="0" />
      <text
         class="ColorScheme-Text"
         xml:space="preserve"
         style="font-size:17.32460976px;font-style:normal;font-variant:normal;font-weight:bold;font-stretch:normal;line-height:125%;letter-spacing:0px;word-spacing:0px;fill:#800000;fill-opacity:1;stroke:none;font-family:Liberation Serif;-inkscape-font-specification:Liberation Serif Bold"
         x="27.946089"
         y="247.63483"
         id="text15579"
         sodipodi:linespacing="125%"><tspan
           sodipodi:role="line"
           id="tspan15581"
           x="27.946089"
           y="247.63483">W</tspan></text>
    </g>
    <g
       style="fill:#800000;display:inline"
       id="more"
       transform="translate(283.5,474.21933)">
      <path
         class="ColorScheme-Text"
         style="font-size:medium;font-style:normal;font-variant:normal;font-weight:normal;font-stretch:normal;text-indent:0;text-align:start;text-decoration:none;line-height:normal;letter-spacing:normal;word-spacing:normal;text-transform:none;direction:ltr;block-progression:tb;writing-mode:lr-tb;text-anchor:start;baseline-shift:baseline;color:#000000;fill:#800000;fill-opacity:1;stroke:none;stroke-width:3;marker:none;visibility:visible;display:inline;overflow:visible;enable-background:accumulate;font-family:Sans;-inkscape-font-specification:Sans"
         d="m 370,146.5 c -7.99036,0 -14.5,6.50964 -14.5,14.5 0,7.99036 6.50964,14.5 14.5,14.5 7.99036,0 14.5,-6.50964 14.5,-14.5 0,-7.99036 -6.50964,-14.5 -14.5,-14.5 z m 0,3 c 6.36904,0 11.5,5.13096 11.5,11.5 0,6.36904 -5.13096,11.5 -11.5,11.5 -6.36904,0 -11.5,-5.13096 -11.5,-11.5 0,-6.36904 5.13096,-11.5 11.5,-11.5 z"
         id="path15623"
         inkscape:connector-curvature="0" />
      <path
         sodipodi:type="arc"
         style="color:#000000;fill:#b3b3b3;fill-opacity:1;stroke:#800000;stroke-width:3;stroke-linecap:round;stroke-linejoin:round;stroke-miterlimit:4;stroke-opacity:1;stroke-dasharray:none"
         sodipodi:cx="364.5"
         sodipodi:cy="164.75"
         sodipodi:rx="0.5"
         sodipodi:ry="0.5"
         class="ColorScheme-Text"
         d="m 365,164.75 c 0,0.27614 -0.22386,0.5 -0.5,0.5 -0.27614,0 -0.5,-0.22386 -0.5,-0.5 0,-0.27614 0.22386,-0.5 0.5,-0.5 0.27614,0 0.5,0.22386 0.5,0.5 z"
         transform="translate(1,0)"
         id="path18" />
      <path
         d="m 365,164.75 c 0,0.27614 -0.22386,0.5 -0.5,0.5 -0.27614,0 -0.5,-0.22386 -0.5,-0.5 0,-0.27614 0.22386,-0.5 0.5,-0.5 0.27614,0 0.5,0.22386 0.5,0.5 z"
         sodipodi:ry="0.5"
         sodipodi:rx="0.5"
         sodipodi:cy="164.75"
         sodipodi:cx="364.5"
         style="color:#000000;fill:#b3b3b3;fill-opacity:1;stroke:#800000;stroke-width:3;stroke-linecap:round;stroke-linejoin:round;stroke-miterlimit:4;stroke-opacity:1;stroke-dasharray:none"
         sodipodi:type="arc"
         class="ColorScheme-Text"
         transform="translate(11,0)"
         id="path20" />
      <path
         transform="translate(6,0)"
         sodipodi:type="arc"
         style="color:#000000;fill:#b3b3b3;fill-opacity:1;stroke:#800000;stroke-width:3;stroke-linecap:round;stroke-linejoin:round;stroke-miterlimit:4;stroke-opacity:1;stroke-dasharray:none"
         class="ColorScheme-Text"
         sodipodi:cx="364.5"
         sodipodi:cy="164.75"
         sodipodi:rx="0.5"
         sodipodi:ry="0.5"
         d="m 365,164.75 c 0,0.27614 -0.22386,0.5 -0.5,0.5 -0.27614,0 -0.5,-0.22386 -0.5,-0.5 0,-0.27614 0.22386,-0.5 0.5,-0.5 0.27614,0 0.5,0.22386 0.5,0.5 z"
         id="path22" />
    </g>
    <g
       transform="translate(1892.5,-349.78067)"
       style="fill:#800000;display:inline"
       id="text">
      <path
         class="ColorScheme-Text"
         style="font-size:medium;font-style:normal;font-variant:normal;font-weight:normal;font-stretch:normal;text-indent:0;text-align:start;text-decoration:none;line-height:normal;letter-spacing:normal;word-spacing:normal;text-transform:none;direction:ltr;block-progression:tb;writing-mode:lr-tb;text-anchor:start;baseline-shift:baseline;color:#000000;fill:#800000;fill-opacity:1;stroke:none;stroke-width:3;marker:none;visibility:visible;display:inline;overflow:visible;enable-background:accumulate;font-family:Sans;-inkscape-font-specification:Sans"
         d="m -1374,970.5 c -7.9904,0 -14.5,6.50964 -14.5,14.5 0,7.99036 6.5096,14.5 14.5,14.5 7.9904,0 14.5,-6.50964 14.5,-14.5 0,-7.99036 -6.5096,-14.5 -14.5,-14.5 z m 0,3 c 6.369,0 11.5,5.13096 11.5,11.5 0,6.36904 -5.131,11.5 -11.5,11.5 -6.369,0 -11.5,-5.13096 -11.5,-11.5 0,-6.36904 5.131,-11.5 11.5,-11.5 z"
         id="path15503"
         inkscape:connector-curvature="0" />
      <g
         style="font-size:3.47490501px;font-style:normal;font-variant:normal;font-weight:normal;font-stretch:normal;line-height:125%;letter-spacing:0px;word-spacing:0px;color:#000000;fill:#800000;fill-opacity:1;stroke:none;font-family:Liberation Sans;-inkscape-font-specification:Liberation Sans"
         id="text5185">
        <path
           d="m -1380.5202,981.66174 -0.2731,-0.69905 -1.0893,0 -0.2749,0.69905 -0.336,0 0.9757,-2.39069 0.3682,0 0.9603,2.39069 -0.3309,0 m -0.677,-1.74084 c -0.018,-0.0453 -0.036,-0.0911 -0.053,-0.13744 -0.016,-0.0464 -0.03,-0.0882 -0.042,-0.12556 -0.012,-0.0385 -0.023,-0.0701 -0.032,-0.095 -0.01,-0.026 -0.013,-0.0419 -0.014,-0.0475 -0,0.006 -0.01,0.0215 -0.015,0.0475 -0.01,0.026 -0.019,0.0582 -0.032,0.0967 -0.012,0.0385 -0.027,0.0809 -0.044,0.12726 -0.016,0.0464 -0.032,0.0922 -0.049,0.13743 l -0.3054,0.78559 0.8942,0 -0.3072,-0.78898"
           style=""
           id="path3008" />
        <path
           d="m -1378.876,981.66174 0,-1.16395 c 0,-0.0894 -0.01,-0.16402 -0.017,-0.22397 -0.011,-0.0599 -0.031,-0.10803 -0.058,-0.14422 -0.026,-0.0373 -0.06,-0.0634 -0.1035,-0.078 -0.043,-0.0158 -0.096,-0.0238 -0.1578,-0.0238 -0.064,0 -0.1227,0.013 -0.1747,0.039 -0.052,0.0249 -0.097,0.0616 -0.1341,0.11028 -0.036,0.0475 -0.064,0.1069 -0.085,0.17816 -0.019,0.0701 -0.029,0.15101 -0.029,0.24263 l 0,1.06385 -0.3037,0 0,-1.44391 c 0,-0.0385 -5e-4,-0.0786 -0,-0.12047 0,-0.043 -5e-4,-0.0831 -0,-0.12047 -0,-0.0385 -0,-0.0713 -0,-0.0984 -0,-0.0272 -0,-0.0447 -0,-0.0526 l 0.2885,0 c 0,0.006 0,0.0209 0,0.0458 0,0.0249 0,0.0537 0,0.0865 0,0.0317 0,0.0645 0.01,0.0984 0,0.0328 0,0.0605 0,0.0831 l 0.01,0 c 0.027,-0.0532 0.057,-0.10124 0.088,-0.14423 0.032,-0.043 0.068,-0.0792 0.1103,-0.10859 0.043,-0.0305 0.092,-0.0537 0.1459,-0.0696 0.055,-0.017 0.1193,-0.0254 0.1917,-0.0254 0.1391,0 0.2489,0.0277 0.3292,0.0831 0.081,0.0554 0.138,0.14365 0.1697,0.26469 l 0,0 c 0.027,-0.0532 0.058,-0.10124 0.092,-0.14423 0.034,-0.043 0.073,-0.0792 0.1187,-0.10859 0.045,-0.0305 0.096,-0.0537 0.1527,-0.0696 0.057,-0.017 0.1211,-0.0254 0.1935,-0.0254 0.093,0 0.1725,0.0124 0.2392,0.0373 0.068,0.0249 0.1233,0.0634 0.1663,0.11538 0.043,0.052 0.075,0.11934 0.095,0.20191 0.02,0.0815 0.031,0.17873 0.031,0.29184 l 0,1.22334 -0.302,0 0,-1.16395 c 0,-0.0894 -0.01,-0.16402 -0.017,-0.22397 -0.011,-0.0599 -0.031,-0.10803 -0.058,-0.14422 -0.026,-0.0373 -0.061,-0.0634 -0.1035,-0.078 -0.043,-0.0158 -0.096,-0.0238 -0.1578,-0.0238 -0.064,0 -0.1228,0.0125 -0.1748,0.0373 -0.052,0.0238 -0.097,0.0594 -0.134,0.10689 -0.036,0.0475 -0.064,0.1069 -0.085,0.17816 -0.019,0.0713 -0.029,0.15384 -0.029,0.24772 l 0,1.06385 -0.302,0"
           style=""
           id="path3010" />
        <path
           d="m -1376.5787,981.69568 c -0.1843,0 -0.3229,-0.0486 -0.4157,-0.14592 -0.093,-0.0973 -0.1391,-0.23076 -0.1391,-0.40043 0,-0.12103 0.023,-0.22001 0.068,-0.29693 0.046,-0.078 0.1063,-0.13913 0.1798,-0.18324 0.075,-0.0441 0.1595,-0.0747 0.2545,-0.0916 0.095,-0.017 0.1918,-0.0266 0.2902,-0.0288 l 0.4123,-0.007 0,-0.10011 c 0,-0.0758 -0.01,-0.14026 -0.024,-0.19342 -0.016,-0.0532 -0.04,-0.0961 -0.073,-0.12896 -0.033,-0.0328 -0.074,-0.0566 -0.1239,-0.0713 -0.049,-0.0158 -0.1063,-0.0237 -0.173,-0.0237 -0.059,0 -0.112,0.005 -0.1595,0.0136 -0.047,0.008 -0.089,0.0232 -0.1239,0.0458 -0.035,0.0215 -0.063,0.0515 -0.085,0.0899 -0.022,0.0373 -0.036,0.0848 -0.043,0.14253 l -0.3189,-0.0289 c 0.011,-0.0724 0.033,-0.13856 0.064,-0.19852 0.032,-0.0611 0.076,-0.11368 0.1341,-0.15779 0.059,-0.0441 0.1318,-0.078 0.2189,-0.10181 0.088,-0.0249 0.1945,-0.0373 0.3189,-0.0373 0.2308,0 0.4044,0.0532 0.5209,0.15949 0.1165,0.1052 0.1748,0.2579 0.1748,0.45812 l 0,0.79067 c 0,0.0905 0.012,0.15893 0.036,0.20531 0.024,0.0452 0.069,0.0679 0.1358,0.0679 0.017,0 0.034,-0.001 0.051,-0.003 0.017,-0.002 0.033,-0.005 0.049,-0.008 l 0,0.19003 c -0.038,0.009 -0.077,0.0158 -0.1154,0.0204 -0.037,0.005 -0.078,0.007 -0.1205,0.007 -0.058,0 -0.1074,-0.007 -0.1493,-0.0221 -0.041,-0.0158 -0.074,-0.039 -0.1001,-0.0696 -0.026,-0.0317 -0.046,-0.0701 -0.059,-0.11538 -0.014,-0.0464 -0.022,-0.10011 -0.025,-0.16119 l -0.01,0 c -0.033,0.0588 -0.069,0.11198 -0.1086,0.15949 -0.039,0.0475 -0.084,0.0882 -0.1357,0.12217 -0.052,0.0328 -0.1115,0.0583 -0.1782,0.0764 -0.066,0.0181 -0.1414,0.0272 -0.2274,0.0272 m 0.07,-0.22906 c 0.097,0 0.1821,-0.0175 0.2545,-0.0526 0.073,-0.0362 0.1341,-0.082 0.1816,-0.13743 0.049,-0.0554 0.085,-0.11595 0.1086,-0.18155 0.024,-0.0656 0.036,-0.12839 0.036,-0.18834 l 0,-0.15101 -0.3343,0.007 c -0.075,0.001 -0.1459,0.007 -0.2137,0.017 -0.067,0.009 -0.1256,0.0277 -0.1765,0.056 -0.051,0.0283 -0.092,0.0679 -0.1222,0.11877 -0.029,0.0509 -0.044,0.11764 -0.044,0.20021 0,0.0995 0.027,0.17646 0.08,0.23076 0.054,0.0543 0.1312,0.0814 0.2307,0.0814"
           style=""
           id="path3012" />
        <path
           d="m -1375.1059,981.66174 0,-1.40828 c 0,-0.0385 -6e-4,-0.0775 -0,-0.11708 0,-0.0407 -6e-4,-0.0797 -0,-0.11707 -0,-0.0373 -0,-0.0724 -0,-0.1052 -0,-0.0328 -0,-0.0622 -0,-0.0882 l 0.2885,0 c 0,0.026 0,0.056 0,0.0899 0,0.0328 0,0.0667 0.01,0.1018 0,0.0351 0,0.069 0,0.1018 0,0.0317 0,0.0588 0,0.0815 l 0.01,0 c 0.021,-0.0701 0.044,-0.13065 0.068,-0.18155 0.025,-0.052 0.054,-0.0945 0.086,-0.12726 0.033,-0.0339 0.072,-0.0588 0.1171,-0.0747 0.045,-0.017 0.1001,-0.0254 0.1646,-0.0254 0.025,0 0.049,0.002 0.071,0.007 0.023,0.003 0.04,0.007 0.053,0.0102 l 0,0.27996 c -0.02,-0.006 -0.044,-0.01 -0.071,-0.0119 -0.027,-0.003 -0.058,-0.005 -0.092,-0.005 -0.07,0 -0.1301,0.0158 -0.1799,0.0475 -0.049,0.0317 -0.089,0.0758 -0.1205,0.13235 -0.03,0.0554 -0.053,0.12217 -0.068,0.20021 -0.015,0.0769 -0.022,0.16119 -0.022,0.25282 l 0,0.95695 -0.3054,0"
           style=""
           id="path3014" />
        <path
           d="m -1372.3996,980.74211 c 0,0.32125 -0.071,0.56049 -0.2121,0.71772 -0.1414,0.15723 -0.3467,0.23585 -0.6159,0.23585 -0.1278,0 -0.2421,-0.0192 -0.3427,-0.0577 -0.1007,-0.0385 -0.1861,-0.0973 -0.2563,-0.17646 -0.069,-0.0792 -0.1221,-0.17816 -0.1594,-0.29693 -0.036,-0.1199 -0.054,-0.26073 -0.054,-0.42249 0,-0.63344 0.2743,-0.95016 0.8229,-0.95016 0.1425,0 0.2652,0.0198 0.3682,0.0594 0.104,0.0396 0.1889,0.099 0.2545,0.17816 0.067,0.0792 0.1159,0.17816 0.1476,0.29693 0.032,0.11877 0.048,0.25733 0.048,0.41569 m -0.3207,0 c 0,-0.14252 -0.011,-0.26016 -0.034,-0.35292 -0.021,-0.0928 -0.054,-0.16684 -0.097,-0.22227 -0.042,-0.0554 -0.093,-0.0939 -0.1544,-0.11537 -0.061,-0.0226 -0.1301,-0.0339 -0.207,-0.0339 -0.078,0 -0.1488,0.0119 -0.2121,0.0356 -0.062,0.0226 -0.1154,0.0622 -0.1595,0.11877 -0.044,0.0554 -0.078,0.12952 -0.1018,0.22228 -0.023,0.0928 -0.034,0.20869 -0.034,0.34782 0,0.14253 0.013,0.26074 0.037,0.35462 0.025,0.0928 0.059,0.16685 0.1018,0.22227 0.044,0.0554 0.096,0.0945 0.1544,0.11708 0.06,0.0226 0.125,0.0339 0.1951,0.0339 0.078,0 0.1487,-0.0107 0.2121,-0.0322 0.063,-0.0226 0.1171,-0.0616 0.1612,-0.11707 0.044,-0.0554 0.078,-0.13008 0.1018,-0.22397 0.024,-0.0939 0.036,-0.21209 0.036,-0.35462"
           style=""
           id="path3016" />
        <path
           d="m -1370.8675,981.66174 -0.621,-0.83818 -0.2239,0.18494 0,0.65324 -0.3054,0 0,-2.51795 0.3054,0 0,1.57287 0.8059,-0.89078 0.358,0 -0.7448,0.78898 0.7839,1.04688 -0.3581,0"
           style=""
           id="path3018" />
        <path
           d="m -1369.3183,979.43563 0,-0.29184 0.3054,0 0,0.29184 -0.3054,0 m 0,2.22611 0,-1.83586 0.3054,0 0,1.83586 -0.3054,0"
           style=""
           id="path3020" />
        <path
           d="m -1367.1652,981.15442 c 0,0.086 -0.017,0.16289 -0.051,0.23076 -0.033,0.0667 -0.081,0.12329 -0.1442,0.16967 -0.063,0.0453 -0.1414,0.0803 -0.2342,0.1052 -0.092,0.0238 -0.1968,0.0356 -0.3156,0.0356 -0.1063,0 -0.2024,-0.008 -0.2884,-0.0255 -0.085,-0.0158 -0.1595,-0.0419 -0.224,-0.078 -0.064,-0.0362 -0.1187,-0.0837 -0.1629,-0.14253 -0.043,-0.06 -0.075,-0.13291 -0.095,-0.21888 l 0.2698,-0.0526 c 0.026,0.0984 0.08,0.17081 0.1612,0.21719 0.081,0.0452 0.1946,0.0679 0.3393,0.0679 0.066,0 0.1256,-0.005 0.1799,-0.0136 0.055,-0.009 0.1029,-0.0243 0.1425,-0.0458 0.04,-0.0226 0.07,-0.052 0.092,-0.0882 0.023,-0.0373 0.034,-0.0831 0.034,-0.13744 0,-0.0554 -0.013,-0.10067 -0.039,-0.13573 -0.026,-0.0362 -0.062,-0.0662 -0.1086,-0.0899 -0.046,-0.0237 -0.103,-0.0441 -0.1697,-0.0611 -0.066,-0.0181 -0.138,-0.0379 -0.2172,-0.0594 -0.073,-0.0192 -0.1465,-0.0407 -0.2189,-0.0645 -0.072,-0.0238 -0.138,-0.0549 -0.1968,-0.0933 -0.058,-0.0396 -0.1046,-0.0882 -0.1408,-0.14592 -0.036,-0.0577 -0.054,-0.13008 -0.054,-0.21718 0,-0.16741 0.059,-0.29467 0.1781,-0.38177 0.1199,-0.0882 0.2941,-0.13234 0.5226,-0.13234 0.2025,0 0.3631,0.0356 0.4819,0.10689 0.1199,0.0713 0.1957,0.18551 0.2274,0.34274 l -0.2749,0.0339 c -0.01,-0.0475 -0.029,-0.0871 -0.056,-0.11877 -0.027,-0.0328 -0.06,-0.0588 -0.098,-0.078 -0.038,-0.0204 -0.082,-0.0345 -0.1306,-0.0424 -0.048,-0.009 -0.097,-0.0136 -0.1494,-0.0136 -0.138,0 -0.2398,0.0209 -0.3054,0.0628 -0.066,0.0419 -0.098,0.1052 -0.098,0.19003 0,0.0498 0.012,0.0911 0.036,0.12387 0.025,0.0317 0.059,0.0588 0.1019,0.0814 0.044,0.0215 0.097,0.0407 0.1577,0.0577 0.061,0.0158 0.1284,0.0328 0.202,0.0509 0.049,0.0124 0.098,0.026 0.1493,0.0407 0.051,0.0136 0.1001,0.0305 0.1476,0.0509 0.049,0.0192 0.094,0.0424 0.1357,0.0696 0.043,0.026 0.08,0.0577 0.112,0.095 0.032,0.0373 0.057,0.0809 0.075,0.13064 0.019,0.0498 0.029,0.10746 0.029,0.17307"
           style=""
           id="path3022" />
        <path
           d="m -1380.7136,985.07896 c 0,0.13913 -0.011,0.26752 -0.034,0.38516 -0.023,0.11764 -0.061,0.21888 -0.1137,0.30371 -0.052,0.0848 -0.1216,0.15158 -0.2087,0.20022 -0.086,0.0475 -0.1923,0.0713 -0.319,0.0713 -0.1312,0 -0.246,-0.0249 -0.3444,-0.0747 -0.098,-0.0498 -0.1737,-0.13121 -0.2257,-0.24433 l -0.01,0 c 0,0.002 0,0.0124 0,0.0305 0,0.0181 0,0.0407 0,0.0679 0,0.0272 0,0.0577 0,0.0916 0,0.0328 0,0.0656 0,0.0984 l 0,0.71772 -0.3054,0 0,-2.182 c 0,-0.0441 -6e-4,-0.0865 -0,-0.12726 0,-0.0407 -6e-4,-0.0775 -0,-0.11028 -0,-0.0339 -0,-0.0628 -0,-0.0865 -0,-0.0238 -0,-0.0407 -0,-0.0509 l 0.2953,0 c 0,0.003 0,0.0153 0,0.0356 0,0.0204 0,0.0453 0.01,0.0747 0,0.0283 0,0.0588 0.01,0.0916 0,0.0328 0,0.0639 0,0.0933 l 0.01,0 c 0.028,-0.0588 0.061,-0.10859 0.097,-0.14931 0.036,-0.0418 0.077,-0.0758 0.1239,-0.1018 0.046,-0.0272 0.098,-0.0464 0.1544,-0.0577 0.058,-0.0124 0.1222,-0.0187 0.1934,-0.0187 0.1267,1e-5 0.233,0.0226 0.319,0.0679 0.087,0.0453 0.1567,0.10916 0.2087,0.19173 0.053,0.0815 0.091,0.18042 0.1137,0.29693 0.023,0.11538 0.034,0.24377 0.034,0.38516 m -0.3207,0.007 c 0,-0.11312 -0.01,-0.21379 -0.02,-0.30202 -0.014,-0.0882 -0.037,-0.16289 -0.071,-0.22397 -0.033,-0.0611 -0.077,-0.10746 -0.1323,-0.13913 -0.055,-0.0317 -0.125,-0.0475 -0.2087,-0.0475 -0.068,0 -0.1318,0.01 -0.1918,0.0288 -0.06,0.0192 -0.1125,0.056 -0.1578,0.11029 -0.044,0.0543 -0.079,0.12952 -0.1052,0.22567 -0.026,0.095 -0.039,0.21888 -0.039,0.37158 0,0.13008 0.011,0.24037 0.032,0.33086 0.021,0.0894 0.053,0.16176 0.093,0.21718 0.042,0.0554 0.093,0.0956 0.1544,0.12047 0.061,0.0238 0.1312,0.0356 0.2104,0.0356 0.085,0 0.1549,-0.0164 0.2104,-0.0492 0.056,-0.0328 0.1012,-0.0803 0.134,-0.14253 0.034,-0.0622 0.058,-0.138 0.071,-0.22736 0.014,-0.0905 0.02,-0.19343 0.02,-0.3088"
           style=""
           id="path3024" />
        <path
           d="m -1380.325,986.00537 0,-1.40828 c 0,-0.0385 -6e-4,-0.0775 -0,-0.11708 0,-0.0407 -6e-4,-0.0797 -0,-0.11707 -0,-0.0373 -0,-0.0724 -0,-0.1052 -0,-0.0328 -0,-0.0622 -0,-0.0882 l 0.2884,0 c 0,0.026 0,0.056 0,0.0899 0,0.0328 0,0.0667 0.01,0.1018 0,0.0351 0,0.069 0,0.10181 0,0.0317 0,0.0588 0,0.0814 l 0.01,0 c 0.022,-0.0701 0.044,-0.13065 0.068,-0.18155 0.025,-0.052 0.054,-0.0944 0.086,-0.12726 0.033,-0.0339 0.072,-0.0588 0.1171,-0.0747 0.045,-0.017 0.1001,-0.0254 0.1645,-0.0254 0.025,0 0.049,0.002 0.071,0.007 0.023,0.003 0.04,0.007 0.053,0.0102 l 0,0.27996 c -0.02,-0.006 -0.044,-0.01 -0.071,-0.0119 -0.027,-0.003 -0.058,-0.005 -0.092,-0.005 -0.07,0 -0.1301,0.0158 -0.1798,0.0475 -0.049,0.0317 -0.089,0.0758 -0.1205,0.13234 -0.031,0.0554 -0.053,0.12217 -0.068,0.20022 -0.015,0.0769 -0.022,0.16119 -0.022,0.25281 l 0,0.95695 -0.3054,0"
           style=""
           id="path3026" />
        <path
           d="m -1378.9371,985.15192 c 0,0.0961 0.01,0.18494 0.029,0.26639 0.02,0.0803 0.051,0.14987 0.092,0.20869 0.042,0.0577 0.095,0.10294 0.1595,0.13574 0.064,0.0317 0.1419,0.0475 0.2324,0.0475 0.1323,0 0.2381,-0.0266 0.3173,-0.0797 0.08,-0.0532 0.1346,-0.12046 0.1629,-0.20191 l 0.2681,0.0764 c -0.019,0.0509 -0.046,0.10237 -0.082,0.1544 -0.034,0.0509 -0.08,0.0973 -0.1374,0.13913 -0.058,0.0407 -0.1301,0.0747 -0.2172,0.1018 -0.086,0.026 -0.19,0.039 -0.3122,0.039 -0.2715,0 -0.4785,-0.0809 -0.621,-0.24263 -0.1414,-0.16176 -0.2121,-0.40213 -0.2121,-0.72111 0,-0.17194 0.022,-0.31729 0.065,-0.43606 0.043,-0.1199 0.1018,-0.21718 0.1764,-0.29184 0.075,-0.0747 0.1618,-0.12839 0.2613,-0.16119 0.1,-0.0339 0.2059,-0.0509 0.319,-0.0509 0.1539,0 0.2822,0.0249 0.3852,0.0747 0.104,0.0498 0.1872,0.11878 0.2494,0.207 0.063,0.0871 0.108,0.19004 0.134,0.30881 0.027,0.11877 0.041,0.24716 0.041,0.38516 l 0,0.0407 -1.3099,0 m 0.9943,-0.23415 c -0.017,-0.19343 -0.066,-0.33425 -0.1476,-0.42249 -0.082,-0.0894 -0.1986,-0.13404 -0.3513,-0.13404 -0.051,0 -0.1046,0.008 -0.1612,0.0255 -0.055,0.0158 -0.1068,0.0447 -0.1544,0.0865 -0.047,0.0419 -0.088,0.099 -0.1204,0.17137 -0.033,0.0713 -0.052,0.16232 -0.056,0.27317 l 0.9909,0"
           style=""
           id="path3028" />
        <path
           d="m -1376.5311,985.9918 c -0.046,0.0124 -0.094,0.0221 -0.1426,0.0289 -0.047,0.008 -0.1029,0.0119 -0.1662,0.0119 -0.2444,0 -0.3665,-0.13856 -0.3665,-0.4157 l 0,-1.22504 -0.2121,0 0,-0.22227 0.2239,0 0.09,-0.41061 0.2036,0 0,0.41061 0.3393,0 0,0.22227 -0.3393,0 0,1.15887 c 0,0.0882 0.014,0.15044 0.042,0.18664 0.029,0.0351 0.08,0.0526 0.151,0.0526 0.029,0 0.058,-0.002 0.085,-0.007 0.028,-0.005 0.059,-0.0102 0.092,-0.017 l 0,0.22566"
           style=""
           id="path3030" />
        <path
           d="m -1375.5674,985.9918 c -0.046,0.0124 -0.094,0.0221 -0.1425,0.0289 -0.047,0.008 -0.103,0.0119 -0.1663,0.0119 -0.2443,0 -0.3665,-0.13856 -0.3665,-0.4157 l 0,-1.22504 -0.2121,0 0,-0.22227 0.224,0 0.09,-0.41061 0.2036,0 0,0.41061 0.3394,0 0,0.22227 -0.3394,0 0,1.15887 c 0,0.0882 0.014,0.15044 0.042,0.18664 0.029,0.0351 0.08,0.0526 0.151,0.0526 0.029,0 0.058,-0.002 0.085,-0.007 0.028,-0.005 0.059,-0.0102 0.092,-0.017 l 0,0.22566"
           style=""
           id="path3032" />
        <path
           d="m -1374.5188,986.00537 c -0.043,0.11086 -0.087,0.2104 -0.1324,0.29863 -0.044,0.0894 -0.094,0.16515 -0.1493,0.22736 -0.055,0.0634 -0.1171,0.11142 -0.1849,0.14422 -0.068,0.0339 -0.1459,0.0509 -0.2342,0.0509 -0.038,-10e-6 -0.074,-0.001 -0.1069,-0.003 -0.033,-0.002 -0.067,-0.007 -0.1035,-0.0153 l 0,-0.22906 c 0.022,0.003 0.046,0.006 0.073,0.007 0.027,0.002 0.05,0.003 0.07,0.003 0.089,0 0.1725,-0.0334 0.2494,-0.1001 0.077,-0.0667 0.1442,-0.17307 0.2019,-0.31899 l 0.029,-0.073 -0.7279,-1.82738 0.3258,0 0.3869,1.01465 c 0.011,0.0305 0.025,0.0713 0.042,0.12216 0.018,0.0509 0.036,0.10181 0.053,0.15271 0.018,0.0509 0.034,0.0967 0.047,0.13743 0.014,0.0407 0.022,0.0662 0.024,0.0764 0,-0.0125 0.011,-0.0368 0.024,-0.073 0.014,-0.0373 0.028,-0.0786 0.044,-0.12387 0.017,-0.0452 0.034,-0.091 0.051,-0.13743 0.017,-0.0464 0.031,-0.0865 0.042,-0.12047 l 0.3597,-1.04858 0.3224,0 -0.7058,1.83586"
           style=""
           id="path3034" />
        <path
           d="m -1371.4494,985.71014 c -0.057,0.11764 -0.1318,0.20191 -0.2257,0.25282 -0.093,0.0509 -0.2081,0.0764 -0.3461,0.0764 -0.2319,0 -0.4027,-0.078 -0.5124,-0.23415 -0.1086,-0.1561 -0.1629,-0.39251 -0.1629,-0.70923 0,-0.64023 0.2251,-0.96035 0.6753,-0.96035 0.1391,0 0.255,0.0254 0.3478,0.0764 0.093,0.0509 0.1674,0.13178 0.224,0.24263 l 0,0 c 0,-0.0113 -6e-4,-0.0288 -0,-0.0526 0,-0.0249 -6e-4,-0.0503 -0,-0.0764 0,-0.0272 0,-0.0526 0,-0.0763 0,-0.0238 0,-0.0407 0,-0.0509 l 0,-0.71093 0.3054,0 0,2.13957 c 0,0.0441 0,0.0865 0,0.12726 0,0.0407 0,0.078 0,0.11198 0,0.0339 0,0.0634 0,0.0882 0,0.0238 0,0.0407 0,0.0509 l -0.2919,0 c -0,-0.0113 -0,-0.0271 -0.01,-0.0475 -0,-0.0215 -0,-0.0458 -0.01,-0.073 -0,-0.0272 -0,-0.0554 -0,-0.0848 -0,-0.0305 -0,-0.0605 -0,-0.0899 l -0.01,0 m -0.9265,-0.62439 c 0,0.12669 0.01,0.23528 0.024,0.32577 0.016,0.0905 0.041,0.16515 0.076,0.22397 0.035,0.0577 0.08,0.1001 0.134,0.12725 0.054,0.0272 0.1205,0.0407 0.1985,0.0407 0.08,0 0.151,-0.013 0.2121,-0.039 0.062,-0.026 0.1137,-0.0679 0.1544,-0.12556 0.042,-0.0588 0.073,-0.13517 0.095,-0.22906 0.022,-0.0939 0.032,-0.2087 0.032,-0.34443 0,-0.13009 -0.011,-0.23981 -0.032,-0.32917 -0.022,-0.0905 -0.053,-0.16345 -0.095,-0.21888 -0.042,-0.0554 -0.093,-0.095 -0.1544,-0.11877 -0.06,-0.0249 -0.1295,-0.0373 -0.2087,-0.0373 -0.075,0 -0.1391,0.013 -0.1934,0.039 -0.054,0.026 -0.1,0.0679 -0.1358,0.12556 -0.036,0.0577 -0.063,0.13291 -0.081,0.22566 -0.017,0.0916 -0.025,0.20304 -0.025,0.33426"
           style=""
           id="path3036" />
        <path
           d="m -1370.2057,986.03931 c -0.1844,0 -0.323,-0.0486 -0.4157,-0.14592 -0.093,-0.0973 -0.1392,-0.23075 -0.1392,-0.40043 0,-0.12103 0.023,-0.22001 0.068,-0.29693 0.046,-0.078 0.1063,-0.13913 0.1799,-0.18324 0.075,-0.0441 0.1595,-0.0747 0.2545,-0.0916 0.095,-0.017 0.1917,-0.0266 0.2901,-0.0288 l 0.4123,-0.007 0,-0.10011 c 0,-0.0758 -0.01,-0.14026 -0.024,-0.19342 -0.016,-0.0532 -0.04,-0.0961 -0.073,-0.12895 -0.033,-0.0328 -0.074,-0.0566 -0.1239,-0.0713 -0.049,-0.0158 -0.1063,-0.0238 -0.173,-0.0238 -0.059,0 -0.112,0.005 -0.1595,0.0136 -0.048,0.008 -0.089,0.0232 -0.1239,0.0458 -0.035,0.0215 -0.063,0.0515 -0.085,0.0899 -0.021,0.0373 -0.036,0.0848 -0.042,0.14253 l -0.319,-0.0288 c 0.011,-0.0724 0.033,-0.13856 0.064,-0.19852 0.032,-0.0611 0.076,-0.11367 0.134,-0.15779 0.059,-0.0441 0.1318,-0.0781 0.2189,-0.10181 0.088,-0.0249 0.1945,-0.0373 0.319,-0.0373 0.2307,0 0.4043,0.0532 0.5209,0.15949 0.1165,0.1052 0.1747,0.2579 0.1747,0.45812 l 0,0.79067 c 0,0.0905 0.012,0.15893 0.036,0.20531 0.024,0.0452 0.069,0.0679 0.1357,0.0679 0.017,0 0.034,-0.001 0.051,-0.003 0.017,-0.002 0.033,-0.005 0.049,-0.008 l 0,0.19003 c -0.039,0.009 -0.077,0.0158 -0.1154,0.0204 -0.037,0.005 -0.078,0.007 -0.1204,0.007 -0.058,0 -0.1075,-0.007 -0.1494,-0.0221 -0.041,-0.0158 -0.074,-0.039 -0.1001,-0.0696 -0.026,-0.0317 -0.046,-0.0701 -0.059,-0.11538 -0.014,-0.0464 -0.022,-0.10011 -0.025,-0.16119 l -0.01,0 c -0.033,0.0588 -0.069,0.11199 -0.1086,0.15949 -0.038,0.0475 -0.084,0.0882 -0.1357,0.12217 -0.052,0.0328 -0.1114,0.0583 -0.1782,0.0764 -0.066,0.0181 -0.1414,0.0272 -0.2273,0.0272 m 0.07,-0.22906 c 0.097,0 0.1821,-0.0175 0.2545,-0.0526 0.074,-0.0362 0.1341,-0.082 0.1816,-0.13743 0.049,-0.0554 0.085,-0.11595 0.1086,-0.18155 0.024,-0.0656 0.036,-0.12839 0.036,-0.18834 l 0,-0.15101 -0.3342,0.007 c -0.075,0.001 -0.146,0.007 -0.2138,0.017 -0.067,0.009 -0.1256,0.0277 -0.1765,0.056 -0.051,0.0283 -0.092,0.0679 -0.1222,0.11877 -0.029,0.0509 -0.044,0.11764 -0.044,0.20021 0,0.0995 0.027,0.17646 0.08,0.23076 0.054,0.0543 0.1312,0.0814 0.2307,0.0814"
           style=""
           id="path3038" />
        <path
           d="m -1368.733,986.00537 0,-1.40828 c 0,-0.0385 -5e-4,-0.0775 -0,-0.11708 0,-0.0407 -5e-4,-0.0797 -0,-0.11707 -0,-0.0373 -0,-0.0724 -0,-0.1052 -0,-0.0328 -0,-0.0622 -0,-0.0882 l 0.2885,0 c 0,0.026 0,0.056 0,0.0899 0,0.0328 0,0.0667 0.01,0.1018 0,0.0351 0,0.069 0,0.10181 0,0.0317 0,0.0588 0,0.0814 l 0.01,0 c 0.021,-0.0701 0.044,-0.13065 0.068,-0.18155 0.025,-0.052 0.054,-0.0944 0.087,-0.12726 0.033,-0.0339 0.072,-0.0588 0.117,-0.0747 0.045,-0.017 0.1001,-0.0254 0.1646,-0.0254 0.025,0 0.049,0.002 0.071,0.007 0.023,0.003 0.04,0.007 0.053,0.0102 l 0,0.27996 c -0.02,-0.006 -0.044,-0.01 -0.071,-0.0119 -0.027,-0.003 -0.058,-0.005 -0.092,-0.005 -0.07,0 -0.1301,0.0158 -0.1799,0.0475 -0.049,0.0317 -0.089,0.0758 -0.1204,0.13234 -0.031,0.0554 -0.053,0.12217 -0.068,0.20022 -0.015,0.0769 -0.022,0.16119 -0.022,0.25281 l 0,0.95695 -0.3054,0"
           style=""
           id="path3040" />
        <path
           d="m -1366.4135,986.00537 0,-1.16395 c 0,-0.0894 -0.01,-0.16402 -0.02,-0.22397 -0.012,-0.0599 -0.033,-0.10803 -0.063,-0.14422 -0.029,-0.0373 -0.068,-0.0633 -0.1171,-0.078 -0.047,-0.0158 -0.1068,-0.0238 -0.1781,-0.0238 -0.072,0 -0.138,0.013 -0.1968,0.039 -0.058,0.0249 -0.1075,0.0616 -0.1493,0.11028 -0.041,0.0475 -0.072,0.1069 -0.095,0.17816 -0.023,0.0701 -0.034,0.15101 -0.034,0.24263 l 0,1.06385 -0.3054,0 0,-1.44391 c 0,-0.0385 -6e-4,-0.0786 -0,-0.12047 0,-0.043 -6e-4,-0.0831 -0,-0.12047 -0,-0.0385 -0,-0.0713 -0,-0.0984 -0,-0.0272 -0,-0.0447 -0,-0.0526 l 0.2885,0 c 0,0.006 0,0.0209 0,0.0458 0,0.0249 0,0.0537 0,0.0865 0,0.0317 0,0.0645 0.01,0.0984 0,0.0328 0,0.0605 0,0.0831 l 0.01,0 c 0.029,-0.0532 0.062,-0.10124 0.097,-0.14423 0.035,-0.043 0.076,-0.0792 0.1222,-0.10859 0.046,-0.0305 0.099,-0.0537 0.1595,-0.0696 0.06,-0.017 0.1295,-0.0254 0.2087,-0.0254 0.1018,0 0.1895,0.0124 0.263,0.0373 0.074,0.0249 0.134,0.0634 0.1815,0.11538 0.047,0.052 0.082,0.11934 0.1035,0.20191 0.023,0.0815 0.034,0.17873 0.034,0.29184 l 0,1.22334 -0.3071,0"
           style=""
           id="path3042" />
        <path
           d="m -1381.7978,990.38294 c -0.1844,0 -0.3229,-0.0486 -0.4157,-0.14592 -0.093,-0.0973 -0.1391,-0.23075 -0.1391,-0.40043 0,-0.12103 0.023,-0.22001 0.068,-0.29692 0.046,-0.078 0.1064,-0.13914 0.1799,-0.18325 0.075,-0.0441 0.1595,-0.0747 0.2545,-0.0916 0.095,-0.017 0.1917,-0.0266 0.2901,-0.0288 l 0.4124,-0.007 0,-0.1001 c -10e-5,-0.0758 -0.01,-0.14027 -0.024,-0.19343 -0.016,-0.0532 -0.04,-0.0961 -0.073,-0.12895 -0.033,-0.0328 -0.074,-0.0566 -0.1238,-0.0713 -0.049,-0.0158 -0.1064,-0.0237 -0.1731,-0.0237 -0.059,0 -0.112,0.005 -0.1595,0.0136 -0.047,0.008 -0.089,0.0232 -0.1238,0.0458 -0.035,0.0215 -0.063,0.0515 -0.085,0.0899 -0.022,0.0373 -0.036,0.0848 -0.042,0.14253 l -0.319,-0.0289 c 0.011,-0.0724 0.033,-0.13856 0.064,-0.19851 0.032,-0.0611 0.076,-0.11368 0.134,-0.1578 0.059,-0.0441 0.1318,-0.078 0.2189,-0.1018 0.088,-0.0249 0.1946,-0.0373 0.319,-0.0373 0.2307,0 0.4044,0.0532 0.5209,0.15949 0.1165,0.1052 0.1748,0.25791 0.1748,0.45812 l 0,0.79067 c 0,0.0905 0.012,0.15893 0.036,0.20531 0.024,0.0453 0.069,0.0679 0.1357,0.0679 0.017,0 0.034,-0.001 0.051,-0.003 0.017,-0.002 0.033,-0.005 0.049,-0.008 l 0,0.19004 c -0.038,0.009 -0.077,0.0158 -0.1153,0.0204 -0.037,0.005 -0.078,0.007 -0.1205,0.007 -0.058,0 -0.1075,-0.007 -0.1493,-0.022 -0.041,-0.0158 -0.074,-0.039 -0.1001,-0.0696 -0.026,-0.0317 -0.046,-0.0701 -0.059,-0.11538 -0.014,-0.0464 -0.022,-0.10011 -0.025,-0.16119 l -0.01,0 c -0.033,0.0588 -0.069,0.11199 -0.1086,0.1595 -0.039,0.0475 -0.084,0.0882 -0.1358,0.12216 -0.052,0.0328 -0.1114,0.0582 -0.1781,0.0763 -0.066,0.0181 -0.1414,0.0272 -0.2274,0.0272 m 0.07,-0.22906 c 0.097,0 0.1821,-0.0175 0.2545,-0.0526 0.073,-0.0362 0.134,-0.082 0.1815,-0.13743 0.049,-0.0554 0.085,-0.11595 0.1086,-0.18155 0.024,-0.0656 0.036,-0.12839 0.036,-0.18834 l 0,-0.15101 -0.3343,0.007 c -0.075,0.001 -0.1459,0.007 -0.2138,0.017 -0.067,0.009 -0.1256,0.0277 -0.1765,0.056 -0.051,0.0283 -0.092,0.0679 -0.1221,0.11877 -0.029,0.0509 -0.044,0.11764 -0.044,0.20021 0,0.0996 0.027,0.17646 0.08,0.23076 0.054,0.0543 0.1312,0.0814 0.2308,0.0814"
           style=""
           id="path3044" />
        <path
           d="m -1378.574,990.34901 -0.3546,0 -0.2936,-1.18432 c -0.01,-0.0305 -0.019,-0.0684 -0.029,-0.11368 -0.01,-0.0453 -0.018,-0.0894 -0.027,-0.13235 -0.011,-0.0498 -0.022,-0.10124 -0.032,-0.1544 -0.01,0.0509 -0.021,0.10124 -0.032,0.15101 -0.01,0.043 -0.019,0.0877 -0.031,0.13404 -0.01,0.0464 -0.02,0.0871 -0.029,0.12216 l -0.302,1.17754 -0.353,0 -0.5141,-1.83587 0.3021,0 0.3105,1.2471 c 0.01,0.026 0.016,0.0583 0.024,0.0967 0.01,0.0373 0.016,0.0741 0.024,0.11029 0.01,0.0419 0.016,0.0848 0.025,0.12895 0.01,-0.043 0.019,-0.0848 0.029,-0.12556 0.01,-0.0351 0.018,-0.0707 0.027,-0.10689 0.01,-0.0362 0.017,-0.0662 0.024,-0.0899 l 0.3325,-1.26067 0.3275,0 0.3207,1.26067 c 0.01,0.0294 0.016,0.0628 0.025,0.10011 0.01,0.0373 0.018,0.0724 0.025,0.1052 0.01,0.0385 0.018,0.0775 0.027,0.11707 0.01,-0.043 0.018,-0.0848 0.027,-0.12556 0.01,-0.0351 0.016,-0.0713 0.024,-0.10859 0.01,-0.0385 0.018,-0.0724 0.026,-0.1018 l 0.3241,-1.2471 0.2986,0 -0.526,1.83587"
           style=""
           id="path3046" />
        <path
           d="m -1377.5865,989.49555 c 0,0.0961 0.01,0.18494 0.029,0.26639 0.02,0.0803 0.051,0.14988 0.092,0.20869 0.042,0.0577 0.095,0.10294 0.1594,0.13574 0.064,0.0317 0.142,0.0475 0.2325,0.0475 0.1323,0 0.2381,-0.0266 0.3173,-0.0797 0.08,-0.0532 0.1346,-0.12047 0.1629,-0.20192 l 0.2681,0.0764 c -0.019,0.0509 -0.046,0.10237 -0.082,0.1544 -0.034,0.0509 -0.08,0.0973 -0.1374,0.13913 -0.058,0.0407 -0.1301,0.0747 -0.2172,0.10181 -0.086,0.026 -0.19,0.039 -0.3122,0.039 -0.2715,0 -0.4785,-0.0809 -0.621,-0.24263 -0.1414,-0.16176 -0.2121,-0.40213 -0.2121,-0.72111 0,-0.17194 0.022,-0.31729 0.065,-0.43606 0.043,-0.1199 0.1018,-0.21718 0.1764,-0.29184 0.075,-0.0746 0.1618,-0.12838 0.2613,-0.16119 0.1,-0.0339 0.2059,-0.0509 0.319,-0.0509 0.1539,0 0.2822,0.0249 0.3852,0.0747 0.104,0.0498 0.1872,0.11878 0.2494,0.20701 0.063,0.0871 0.108,0.19003 0.134,0.3088 0.027,0.11877 0.041,0.24716 0.041,0.38516 l 0,0.0407 -1.3099,0 m 0.9943,-0.23415 c -0.017,-0.19342 -0.066,-0.33425 -0.1476,-0.42248 -0.082,-0.0894 -0.1986,-0.13404 -0.3513,-0.13405 -0.051,10e-6 -0.1046,0.008 -0.1612,0.0254 -0.055,0.0158 -0.1069,0.0447 -0.1544,0.0865 -0.047,0.0418 -0.088,0.099 -0.1204,0.17137 -0.033,0.0713 -0.052,0.16232 -0.056,0.27317 l 0.9909,0"
           style=""
           id="path3048" />
        <path
           d="m -1374.5086,989.84168 c 0,0.086 -0.017,0.16289 -0.051,0.23076 -0.033,0.0667 -0.081,0.12329 -0.1443,0.16967 -0.063,0.0453 -0.1414,0.0803 -0.2341,0.1052 -0.092,0.0238 -0.1968,0.0356 -0.3156,0.0356 -0.1063,0 -0.2025,-0.008 -0.2885,-0.0254 -0.085,-0.0158 -0.1594,-0.0418 -0.2239,-0.078 -0.064,-0.0362 -0.1188,-0.0837 -0.1629,-0.14253 -0.043,-0.0599 -0.075,-0.13291 -0.095,-0.21887 l 0.2698,-0.0526 c 0.026,0.0984 0.08,0.1708 0.1611,0.21718 0.082,0.0453 0.1946,0.0679 0.3394,0.0679 0.066,0 0.1256,-0.005 0.1798,-0.0136 0.055,-0.009 0.103,-0.0243 0.1426,-0.0458 0.04,-0.0226 0.07,-0.052 0.092,-0.0882 0.023,-0.0373 0.034,-0.0831 0.034,-0.13743 0,-0.0554 -0.013,-0.10067 -0.039,-0.13574 -0.026,-0.0362 -0.062,-0.0662 -0.1086,-0.0899 -0.046,-0.0237 -0.1029,-0.0441 -0.1697,-0.0611 -0.066,-0.0181 -0.138,-0.0379 -0.2171,-0.0594 -0.074,-0.0192 -0.1465,-0.0407 -0.2189,-0.0645 -0.072,-0.0238 -0.138,-0.0549 -0.1968,-0.0933 -0.058,-0.0396 -0.1047,-0.0882 -0.1409,-0.14592 -0.036,-0.0577 -0.054,-0.13008 -0.054,-0.21718 0,-0.16741 0.059,-0.29467 0.1782,-0.38177 0.1199,-0.0882 0.2941,-0.13234 0.5226,-0.13234 0.2025,0 0.3631,0.0356 0.4819,0.10689 0.1199,0.0713 0.1956,0.18551 0.2273,0.34274 l -0.2748,0.0339 c -0.01,-0.0475 -0.029,-0.0871 -0.056,-0.11877 -0.027,-0.0328 -0.06,-0.0588 -0.099,-0.0781 -0.038,-0.0204 -0.082,-0.0345 -0.1306,-0.0424 -0.048,-0.009 -0.097,-0.0136 -0.1493,-0.0136 -0.138,10e-6 -0.2398,0.0209 -0.3054,0.0628 -0.066,0.0419 -0.098,0.1052 -0.098,0.19004 0,0.0498 0.012,0.0911 0.036,0.12386 0.025,0.0317 0.059,0.0588 0.1018,0.0814 0.044,0.0215 0.097,0.0407 0.1578,0.0577 0.061,0.0158 0.1284,0.0328 0.2019,0.0509 0.049,0.0125 0.098,0.026 0.1493,0.0407 0.051,0.0136 0.1001,0.0305 0.1476,0.0509 0.049,0.0192 0.094,0.0424 0.1358,0.0696 0.043,0.026 0.08,0.0577 0.112,0.095 0.032,0.0373 0.057,0.0809 0.075,0.13065 0.019,0.0498 0.029,0.10746 0.029,0.17306"
           style=""
           id="path3050" />
        <path
           d="m -1372.5964,989.42938 c 0,0.32125 -0.071,0.56048 -0.2121,0.71771 -0.1414,0.15724 -0.3467,0.23585 -0.6159,0.23585 -0.1279,0 -0.2421,-0.0192 -0.3428,-0.0577 -0.1006,-0.0385 -0.186,-0.0973 -0.2562,-0.17646 -0.069,-0.0792 -0.1221,-0.17815 -0.1595,-0.29693 -0.036,-0.1199 -0.054,-0.26073 -0.054,-0.42248 0,-0.63345 0.2743,-0.95017 0.823,-0.95017 0.1425,0 0.2652,0.0198 0.3681,0.0594 0.1041,0.0396 0.1889,0.099 0.2546,0.17816 0.067,0.0792 0.1159,0.17816 0.1476,0.29693 0.032,0.11877 0.048,0.25734 0.048,0.4157 m -0.3207,0 c 0,-0.14253 -0.011,-0.26017 -0.034,-0.35292 -0.022,-0.0928 -0.054,-0.16685 -0.097,-0.22227 -0.042,-0.0554 -0.093,-0.0939 -0.1544,-0.11538 -0.061,-0.0226 -0.13,-0.0339 -0.207,-0.0339 -0.078,10e-6 -0.1487,0.0119 -0.2121,0.0356 -0.062,0.0226 -0.1153,0.0622 -0.1594,0.11878 -0.044,0.0554 -0.078,0.12951 -0.1018,0.22227 -0.023,0.0928 -0.034,0.2087 -0.034,0.34783 0,0.14252 0.013,0.26073 0.037,0.35461 0.025,0.0928 0.059,0.16685 0.1018,0.22228 0.044,0.0554 0.096,0.0945 0.1545,0.11707 0.06,0.0226 0.1249,0.0339 0.1951,0.0339 0.078,0 0.1487,-0.0108 0.2121,-0.0322 0.063,-0.0226 0.117,-0.0616 0.1612,-0.11708 0.044,-0.0554 0.078,-0.13008 0.1018,-0.22397 0.024,-0.0939 0.036,-0.21209 0.036,-0.35461"
           style=""
           id="path3052" />
        <path
           d="m -1371.1457,990.34901 0,-1.16396 c 0,-0.0894 -0.01,-0.16402 -0.017,-0.22397 -0.011,-0.06 -0.03,-0.10802 -0.058,-0.14422 -0.026,-0.0373 -0.061,-0.0634 -0.1035,-0.0781 -0.043,-0.0158 -0.096,-0.0237 -0.1578,-0.0238 -0.064,10e-6 -0.1227,0.013 -0.1747,0.039 -0.052,0.0249 -0.097,0.0616 -0.1341,0.11029 -0.036,0.0475 -0.064,0.10689 -0.085,0.17815 -0.019,0.0701 -0.029,0.15101 -0.029,0.24264 l 0,1.06385 -0.3037,0 0,-1.44392 c 0,-0.0385 -5e-4,-0.0786 -0,-0.12047 0,-0.043 -5e-4,-0.0831 -0,-0.12047 -0,-0.0385 -0,-0.0713 -0,-0.0984 -0,-0.0271 -0,-0.0447 -0,-0.0526 l 0.2885,0 c 0,0.006 0,0.0209 0,0.0458 0,0.0249 0,0.0537 0,0.0865 0,0.0317 0,0.0645 0.01,0.0984 0,0.0328 0,0.0605 0,0.0831 l 0.01,0 c 0.027,-0.0532 0.057,-0.10124 0.088,-0.14422 0.032,-0.043 0.068,-0.0792 0.1103,-0.10859 0.043,-0.0305 0.092,-0.0537 0.1459,-0.0696 0.055,-0.017 0.1193,-0.0254 0.1917,-0.0254 0.1392,0 0.2489,0.0277 0.3292,0.0831 0.081,0.0554 0.138,0.14366 0.1697,0.26469 l 0.01,0 c 0.027,-0.0532 0.058,-0.10124 0.092,-0.14422 0.034,-0.043 0.073,-0.0792 0.1187,-0.10859 0.045,-0.0305 0.096,-0.0537 0.1527,-0.0696 0.057,-0.017 0.1211,-0.0254 0.1935,-0.0254 0.093,0 0.1725,0.0124 0.2392,0.0373 0.068,0.0249 0.1233,0.0633 0.1663,0.11537 0.043,0.052 0.075,0.11934 0.095,0.20191 0.02,0.0815 0.031,0.17873 0.031,0.29184 l 0,1.22335 -0.3021,0 0,-1.16396 c 0,-0.0894 -0.01,-0.16402 -0.017,-0.22397 -0.011,-0.06 -0.031,-0.10802 -0.058,-0.14422 -0.026,-0.0373 -0.06,-0.0634 -0.1035,-0.0781 -0.043,-0.0158 -0.096,-0.0237 -0.1578,-0.0238 -0.064,10e-6 -0.1227,0.0124 -0.1748,0.0373 -0.052,0.0238 -0.097,0.0594 -0.134,0.1069 -0.036,0.0475 -0.064,0.10689 -0.085,0.17815 -0.019,0.0713 -0.029,0.15384 -0.029,0.24773 l 0,1.06385 -0.302,0"
           style=""
           id="path3054" />
        <path
           d="m -1369.0825,989.49555 c 0,0.0961 0.01,0.18494 0.029,0.26639 0.02,0.0803 0.051,0.14988 0.092,0.20869 0.042,0.0577 0.095,0.10294 0.1595,0.13574 0.064,0.0317 0.1419,0.0475 0.2324,0.0475 0.1324,0 0.2381,-0.0266 0.3173,-0.0797 0.08,-0.0532 0.1346,-0.12047 0.1629,-0.20192 l 0.2681,0.0764 c -0.019,0.0509 -0.046,0.10237 -0.082,0.1544 -0.034,0.0509 -0.08,0.0973 -0.1374,0.13913 -0.058,0.0407 -0.1301,0.0747 -0.2172,0.10181 -0.086,0.026 -0.19,0.039 -0.3122,0.039 -0.2715,0 -0.4785,-0.0809 -0.621,-0.24263 -0.1414,-0.16176 -0.2121,-0.40213 -0.2121,-0.72111 0,-0.17194 0.022,-0.31729 0.064,-0.43606 0.043,-0.1199 0.1018,-0.21718 0.1765,-0.29184 0.075,-0.0746 0.1617,-0.12838 0.2613,-0.16119 0.1,-0.0339 0.2058,-0.0509 0.3189,-0.0509 0.1539,0 0.2823,0.0249 0.3852,0.0747 0.1041,0.0498 0.1872,0.11878 0.2494,0.20701 0.063,0.0871 0.108,0.19003 0.1341,0.3088 0.027,0.11877 0.041,0.24716 0.041,0.38516 l 0,0.0407 -1.3099,0 m 0.9943,-0.23415 c -0.017,-0.19342 -0.066,-0.33425 -0.1476,-0.42248 -0.082,-0.0894 -0.1985,-0.13404 -0.3513,-0.13405 -0.051,10e-6 -0.1046,0.008 -0.1611,0.0254 -0.055,0.0158 -0.1069,0.0447 -0.1544,0.0865 -0.048,0.0418 -0.088,0.099 -0.1205,0.17137 -0.033,0.0713 -0.051,0.16232 -0.056,0.27317 l 0.9909,0"
           style=""
           id="path3056" />
        <path
           d="m -1367.0074,989.6754 -0.2511,0 -0.041,-1.71709 0.3325,0 -0.041,1.71709 m -0.2952,0.67361 0,-0.34105 0.3291,0 0,0.34105 -0.3291,0"
           style=""
           id="path3058" />
      </g>
    </g>
    <g
       transform="matrix(0.28563468,0,0,0.28563468,474.14285,634.99905)"
       id="logo"
       style="opacity:0.1;display:inline"
       inkscape:export-filename="/home/ruphy/git/kde/amarok-ui/images/logo.png"
       inkscape:export-xdpi="90"
       inkscape:export-ydpi="90"
       inkscape:label="#g8826">
      <path
         style="fill:#dddddd;fill-opacity:1;stroke:#0057ae;stroke-width:81.84814453;stroke-miterlimit:4;stroke-opacity:1;stroke-dasharray:none"
         d="m 813.31393,504.16148 c 0,213.1796 -173.01533,386.19493 -386.19493,386.19493 -213.1796,0 -386.194928,-173.01533 -386.194928,-386.19493 0,-213.1796 173.015328,-386.19493 386.194928,-386.19493 213.1796,0 386.19493,173.01533 386.19493,386.19493 z"
         id="circle22"
         inkscape:connector-curvature="0" />
      <g
         id="g7521"
         transform="matrix(1.0007211,0,0,1.0007211,0,77.042475)">
        <path
           id="path43"
           d="m 642.57609,234.13404 c -15.46661,0 -45.49938,32.25602 -56.75241,37.34876 -11.25812,5.09273 -100.36683,62.80739 -108.81016,72.99286 -8.43928,10.18445 -19.69537,14.42942 -31.88836,13.58063 -12.19198,-0.8488 -50.73999,-1.19722 -63.86989,5.59309 -13.13294,6.79032 -73.07287,62.30805 -88.08166,69.09938 -15.00676,6.78828 -34.58665,10.26853 -43.96588,11.1163 -9.37923,0.84981 -40.45221,32.17095 -48.89453,38.1145 -8.44131,5.93849 -70.15782,29.73498 -79.53604,34.8257 -9.38023,5.09375 55.15005,85.69735 66.40614,87.39493 11.25405,1.69859 -11.05655,10.02037 -32.71183,10.02037 -2.38431,0 30.9484,87.40912 144.60113,143.82527 98.25395,48.76994 177.41422,19.15347 216.13036,7.32511 27.376,-8.36331 32.3401,-12.09272 33.28106,-25.67335 0.93894,-13.57962 2.6345,-24.31104 4.51135,-39.58824 1.87686,-15.27517 8.43827,-143.4424 32.82932,-177.39195 24.38396,-33.95056 94.08903,-74.70664 118.475,-78.94857 24.38802,-4.24394 19.69942,-12.73082 19.69942,-20.36993 0,-7.6391 -3.75271,-24.6149 -10.31816,-27.16126 l 12.74501,-40.62744 c 14.44258,-8.44232 1.69758,-48.774 4.24396,-54.40254 -4.24292,-5.62755 9.00335,38.62944 -77.57218,45.19489 -105.24889,6.56344 -10.18548,9.37821 -23.76611,-2.81276 -38.19452,-12.19805 -14.43145,-20.64036 -28.85985,-25.32897"
           style="opacity:0.22000002;fill:#323232"
           inkscape:connector-curvature="0"
           sodipodi:nodetypes="cccsccccccsccccccscccccc" />
        <path
           id="path58"
           d="m 609.66271,189.23022 c -15.00372,0 -44.133,34.57552 -55.05079,40.03391 -10.91778,5.4594 -97.3515,67.32481 -105.53959,78.2436 -8.18807,10.91677 -19.10687,15.46661 -30.9332,14.55704 -11.82634,-0.90854 -49.21562,-1.28331 -61.95252,5.99522 -12.73894,7.27953 -70.879,66.79001 -85.43604,74.06954 -14.55603,7.2765 -33.54744,11.00489 -42.6461,11.91547 -9.09664,0.90854 -39.23677,34.48233 -47.42485,40.85229 -8.18808,6.36998 -72.89056,34.36788 -81.988203,39.82425 -9.098659,5.45939 66.374733,81.91426 77.292513,83.73237 10.91779,1.82216 -7.51959,43.24674 -28.52561,43.24674 -2.31341,0 18.77162,68.64357 129.01196,129.11729 95.30448,52.27956 196.42286,29.13233 233.97521,16.45517 26.55557,-8.96799 7.91765,-13.92399 8.82924,-28.48002 0.90754,-14.55806 1.67225,-33.69938 3.49239,-50.07453 1.82115,-16.37618 8.18707,-153.75955 31.84378,-190.15114 23.65369,-36.38957 91.26312,-80.07691 114.91881,-84.62573 23.65673,-4.54883 19.10588,-13.64749 19.10588,-21.83456 0,-8.18707 -3.63825,-26.38438 -10.00823,-29.11409 z"
           style="fill:#00316e;fill-opacity:1"
           inkscape:connector-curvature="0"
           sodipodi:nodetypes="ccccsccsccssccccsscc" />
        <path
           id="path60"
           d="m 428.17672,360.73231 c 0,0 -36.04418,-5.54651 -56.84155,15.25187 -20.79838,20.79737 -38.82554,66.54997 -37.43486,80.41521 1.3846,13.86526 42.98035,-47.14023 61.00244,-51.29808 18.02614,-4.16088 37.43587,-34.66566 33.27397,-44.369 z"
           style="fill:#ffffff"
           inkscape:connector-curvature="0" />
      </g>
    </g>
  </g>
</svg>
