<?xml version="1.0" encoding="UTF-8" standalone="no"?>
<!DOCTYPE svg PUBLIC "-//W3C//DTD SVG 20010904//EN"
"http://www.w3.org/TR/2001/REC-SVG-20010904/DTD/svg10.dtd">
<!-- Created with Inkscape (http://www.inkscape.org/) -->
<svg
   id="svg1671"
   sodipodi:version="0.32"
   inkscape:version="0.39"
   width="210mm"
   height="297mm"
   sodipodi:docbase="/home/kant/Desktop/win_d/travail/dessins/amarok-icon"
   sodipodi:docname="amarok_icon_2.svg"
   xmlns="http://www.w3.org/2000/svg"
   xmlns:cc="http://web.resource.org/cc/"
   xmlns:inkscape="http://www.inkscape.org/namespaces/inkscape"
   xmlns:sodipodi="http://sodipodi.sourceforge.net/DTD/sodipodi-0.dtd"
   xmlns:rdf="http://www.w3.org/1999/02/22-rdf-syntax-ns#"
   xmlns:dc="http://purl.org/dc/elements/1.1/"
   xmlns:xlink="http://www.w3.org/1999/xlink">
  <defs
     id="defs1673">
    <linearGradient
       id="linearGradient1774">
      <stop
         style="stop-color:#8797f8;stop-opacity:1.0000000;"
         offset="0.0000000"
         id="stop1775" />
      <stop
         style="stop-color:#0c1300;stop-opacity:1.0000000;"
         offset="1.0000000"
         id="stop1776" />
    </linearGradient>
    <linearGradient
       id="linearGradient1769">
      <stop
         style="stop-color:#f5f9ff;stop-opacity:0.84313726;"
         offset="0.0000000"
         id="stop1770" />
      <stop
         style="stop-color:#ffffff;stop-opacity:0.0000000;"
         offset="1.0000000"
         id="stop1771" />
    </linearGradient>
    <linearGradient
       id="linearGradient1763">
      <stop
         style="stop-color:#4e678c;stop-opacity:0.41568628;"
         offset="0.0000000"
         id="stop1764" />
      <stop
         style="stop-color:#ffffff;stop-opacity:0.0000000;"
         offset="1.0000000"
         id="stop1765" />
    </linearGradient>
    <linearGradient
       id="linearGradient1754">
      <stop
         style="stop-color:#fff9f9;stop-opacity:1.0000000;"
         offset="0.0000000"
         id="stop1755" />
      <stop
         style="stop-color:#9191ba;stop-opacity:1.0000000;"
         offset="0.075276963"
         id="stop1758" />
      <stop
         style="stop-color:#606d9d;stop-opacity:1.0000000;"
         offset="0.58740747"
         id="stop1759" />
      <stop
         style="stop-color:#8c96cd;stop-opacity:1.0000000;"
         offset="0.92746311"
         id="stop1756" />
      <stop
         style="stop-color:#edefff;stop-opacity:1.0000000;"
         offset="1.0000000"
         id="stop1757" />
    </linearGradient>
    <linearGradient
       id="linearGradient1722">
      <stop
         style="stop-color:#040910;stop-opacity:0.84313726;"
         offset="0.0000000"
         id="stop1723" />
      <stop
         style="stop-color:#070000;stop-opacity:0.0000000;"
         offset="1.0000000"
         id="stop1724" />
    </linearGradient>
    <linearGradient
       id="linearGradient1715">
      <stop
         style="stop-color:#040000;stop-opacity:0.63783783;"
         offset="0.0000000"
         id="stop1716" />
      <stop
         style="stop-color:#ebedf6;stop-opacity:0.10810811;"
         offset="1.0000000"
         id="stop1718" />
    </linearGradient>
    <linearGradient
       inkscape:collect="always"
       xlink:href="#linearGradient1538"
       id="linearGradient1623"
       x1="-0.44621515"
       y1="1.0750000"
       x2="0.42738590"
       y2="0.42500001" />
    <linearGradient
       inkscape:collect="always"
       xlink:href="#linearGradient1538"
       id="linearGradient1571"
       x1="1.1559139"
       y1="-0.059459459"
       x2="0.46473029"
       y2="0.67500001" />
    <linearGradient
       id="linearGradient1538">
      <stop
         style="stop-color:#000000;stop-opacity:1.0000000;"
         offset="0.0000000"
         id="stop1539" />
      <stop
         style="stop-color:#303a7c;stop-opacity:1.0000000;"
         offset="0.60933882"
         id="stop1612" />
      <stop
         style="stop-color:#6175f8;stop-opacity:1.0000000;"
         offset="1.0000000"
         id="stop1540" />
    </linearGradient>
    <linearGradient
       id="linearGradient1584">
      <stop
         style="stop-color:#6175f8;stop-opacity:1.0000000;"
         offset="0.0000000"
         id="stop1585" />
      <stop
         style="stop-color:#303a1f;stop-opacity:1.0000000;"
         offset="1.0000000"
         id="stop1589" />
    </linearGradient>
    <linearGradient
       inkscape:collect="always"
       xlink:href="#linearGradient1615"
       id="linearGradient1643"
       x1="0.78703701"
       y1="0.16267942"
       x2="0.28240740"
       y2="1.2583733" />
    <linearGradient
       id="linearGradient1615">
      <stop
         style="stop-color:#f5f9ff;stop-opacity:0.84313726;"
         offset="0.0000000"
         id="stop1616" />
      <stop
         style="stop-color:#ffffff;stop-opacity:0.0000000;"
         offset="1.0000000"
         id="stop1617" />
    </linearGradient>
    <radialGradient
       inkscape:collect="always"
       xlink:href="#linearGradient1615"
       id="radialGradient1620"
       cx="0.27753305"
       cy="0.71291864"
       r="0.43341163"
       fx="0.048458096"
       fy="0.90430623" />
    <linearGradient
       inkscape:collect="always"
       xlink:href="#linearGradient1722"
       id="linearGradient1721"
       x1="0.23684211"
       y1="-0.10729614"
       x2="0.23099415"
       y2="0.36480686" />
    <linearGradient
       inkscape:collect="always"
       xlink:href="#linearGradient1754"
       id="linearGradient1753"
       x1="0.40209791"
       y1="0.0085836910"
       x2="0.42805755"
       y2="0.95708156" />
    <linearGradient
       inkscape:collect="always"
       xlink:href="#linearGradient1538"
       id="linearGradient1766"
       x1="0.080769233"
       y1="0.68461537"
       x2="0.42738590"
       y2="0.42500001" />
    <linearGradient
       inkscape:collect="always"
       xlink:href="#linearGradient1538"
       id="linearGradient1767"
       x1="0.17021276"
       y1="0.78461540"
       x2="0.42738590"
       y2="0.42500001" />
    <radialGradient
       inkscape:collect="always"
       xlink:href="#linearGradient1769"
       id="radialGradient1772"
       cx="0.27753305"
       cy="0.71291864"
       r="0.43341163"
       fx="0.048458096"
       fy="0.90430623" />
    <radialGradient
       inkscape:collect="always"
       xlink:href="#linearGradient1774"
       id="radialGradient1777"
       cx="0.61722487"
       cy="0.26794258"
       r="0.57466090"
       fx="0.80861247"
       fy="0.24880382" />
  </defs>
  <sodipodi:namedview
     id="base"
     pagecolor="#ffffff"
     bordercolor="#666666"
     borderopacity="1.0"
     inkscape:pageopacity="0.0"
     inkscape:pageshadow="2"
     inkscape:zoom="0.30699633"
     inkscape:cx="125.17228"
     inkscape:cy="589.71343"
     inkscape:window-width="1264"
     inkscape:window-height="991"
     inkscape:window-x="1280"
     inkscape:window-y="0" />
  <metadata
     id="metadata1674">
    <rdf:RDF
       id="RDF1675">
      <cc:Work
         rdf:about=""
         id="Work1676">
        <dc:format
           id="format1677">image/svg+xml</dc:format>
        <dc:type
           id="type1679"
           rdf:resource="http://purl.org/dc/dcmitype/StillImage" />
      </cc:Work>
    </rdf:RDF>
  </metadata>
  <path
     style="fill:#ffffff;fill-opacity:1.0000000;fill-rule:evenodd;stroke:none;stroke-width:10.637500;stroke-linecap:square;stroke-linejoin:miter;stroke-miterlimit:4.0000000;stroke-opacity:1.0000000;"
     d="M 249.80763,592.73200 C 282.39281,402.97986 308.13689,350.31050 457.83086,353.65727 C 546.84139,353.83566 507.01945,353.76935 553.81225,354.81552 C 546.37712,380.64609 545.52919,464.60191 515.54040,522.02355 C 434.01843,639.47613 298.25080,578.75400 249.80763,592.73200 z "
     id="path1741"
     sodipodi:nodetypes="ccccc"
     inkscape:export-filename="/home/kant/Desktop/path1751.png"
     inkscape:export-xdpi="15.615582"
     inkscape:export-ydpi="15.615582"
     sodipodi:fill-cmyk="(0.0000000 0.0000000 0.0000000 0.0000000)" />
  <path
     sodipodi:type="arc"
     style="fill:none;fill-opacity:0.75000000;fill-rule:evenodd;stroke:url(#linearGradient1623);stroke-width:25.927061;stroke-linecap:butt;stroke-linejoin:miter;stroke-miterlimit:4.0000000;stroke-opacity:1.0000000;"
     id="path1742"
     sodipodi:cx="364.93021"
     sodipodi:cy="202.29794"
     sodipodi:rx="15.835236"
     sodipodi:ry="15.835236"
     d="M 374.23591,189.48551 A 15.835236,15.835236 0 1 1 349.58020,198.40795"
     transform="matrix(4.491231,0.100412,-0.100412,4.491231,-1219.590,-479.0630)"
     sodipodi:start="5.3405505"
     sodipodi:end="9.6729728"
     sodipodi:open="true"
     inkscape:export-filename="/home/kant/Desktop/path1751.png"
     inkscape:export-xdpi="15.615582"
     inkscape:export-ydpi="15.615582" />
  <path
     style="fill:none;fill-opacity:0.75000000;fill-rule:evenodd;stroke:url(#linearGradient1571);stroke-width:90.450928;stroke-linecap:butt;stroke-linejoin:miter;stroke-miterlimit:4.0000000;stroke-opacity:1.0000000;"
     d="M 470.20123,467.73741 C 469.32352,506.99550 436.74957,538.14480 397.49149,537.26709 C 358.23342,536.38938 327.08413,503.81539 327.96184,464.55731 C 328.83955,425.29922 373.14557,413.11389 412.40364,413.99160 C 438.70258,408.96908 470.47864,413.50466 470.20123,467.73741 z "
     id="path1743"
     sodipodi:nodetypes="ccccc"
     inkscape:export-filename="/home/kant/Desktop/path1751.png"
     inkscape:export-xdpi="15.615582"
     inkscape:export-ydpi="15.615582" />
  <path
     sodipodi:type="arc"
     style="fill:none;fill-opacity:0.75000000;fill-rule:evenodd;stroke:url(#linearGradient1767);stroke-width:0.74584121;stroke-linecap:butt;stroke-linejoin:miter;stroke-miterlimit:4.0000000;stroke-opacity:1.0000000;"
     id="path1744"
     sodipodi:cx="364.93021"
     sodipodi:cy="202.29794"
     sodipodi:rx="15.835236"
     sodipodi:ry="15.835236"
     d="M 373.42817,188.93608 A 15.835236,15.835236 0 1 1 355.88321,189.30154"
     transform="matrix(6.709888,0.150016,-0.150016,6.709888,-2018.677,-946.8532)"
     sodipodi:start="5.2788497"
     sodipodi:end="10.387460"
     sodipodi:open="true"
     inkscape:export-filename="/home/kant/Desktop/path1751.png"
     inkscape:export-xdpi="15.615582"
     inkscape:export-ydpi="15.615582" />
  <path
     sodipodi:type="arc"
     style="fill:none;fill-opacity:0.75000000;fill-rule:evenodd;stroke:url(#linearGradient1766);stroke-width:0.65425241;stroke-linecap:butt;stroke-linejoin:miter;stroke-miterlimit:4.0000000;stroke-opacity:1.0000000;"
     id="path1745"
     sodipodi:cx="364.93021"
     sodipodi:cy="202.29794"
     sodipodi:rx="15.835236"
     sodipodi:ry="15.835236"
     d="M 373.42817,188.93608 A 15.835236,15.835236 0 1 1 373.36407,188.89553"
     transform="matrix(5.875231,0.131355,-0.131355,5.875231,-1717.882,-770.2637)"
     sodipodi:start="5.2788497"
     sodipodi:end="11.557245"
     sodipodi:open="true"
     inkscape:export-filename="/home/kant/Desktop/path1751.png"
     inkscape:export-xdpi="15.615582"
     inkscape:export-ydpi="15.615582" />
  <path
     sodipodi:type="star"
     style="fill:none;fill-opacity:0.89930558;fill-rule:evenodd;stroke:#c2cff3;stroke-width:1.1410583;stroke-linecap:butt;stroke-linejoin:miter;stroke-miterlimit:4.0000000;stroke-opacity:1.0000000;"
     id="path1611"
     sodipodi:cx="155.74290"
     sodipodi:cy="537.29083"
     sodipodi:r1="68.811806"
     sodipodi:r2="0.66070747"
     sodipodi:arg1="-0.58513402"
     sodipodi:arg2="1.7867615"
     inkscape:rounded="0.0000000"
     d="M 213.10705,499.28531 L 155.60132,537.93619 L 219.41932,511.20676 L 155.47814,537.89617 L 223.28455,524.13061 L 155.36513,537.83289 L 224.55418,537.56020 L 155.26664,537.74877 L 223.17944,550.97944 L 155.18645,537.64706 L 219.21315,563.87263 L 155.12765,537.53165 L 212.80774,575.74430 L 155.09249,537.40700 L 204.20935,586.13823 L 155.08232,537.27787 L 193.74843,594.65497 L 155.09755,537.14925 L 181.82698,600.96725 L 155.13757,537.02607 L 168.90312,604.83247 L 155.20085,536.91306 L 155.47353,606.10211 L 155.28497,536.81457 L 142.05430,604.72737 L 155.38668,536.73438 L 129.16110,600.76108 L 155.50208,536.67558 L 117.28943,594.35567 L 155.62674,536.64042 L 106.89551,585.75728 L 155.75586,536.63025 L 98.378764,575.29636 L 155.88449,536.64547 L 92.066489,563.37490 L 156.00767,536.68550 L 88.201264,550.45105 L 156.12068,536.74878 L 86.931626,537.02146 L 156.21917,536.83290 L 88.306367,523.60222 L 156.29936,536.93461 L 92.272656,510.70903 L 156.35816,537.05001 L 98.678072,498.83736 L 156.39332,537.17467 L 107.27646,488.44344 L 156.40349,537.30379 L 117.73738,479.92669 L 156.38826,537.43242 L 129.65883,473.61442 L 156.34824,537.55560 L 142.58268,469.74919 L 156.28496,537.66861 L 156.01227,468.47955 L 156.20084,537.76710 L 169.43151,469.85429 L 156.09913,537.84728 L 182.32471,473.82058 L 155.98372,537.90609 L 194.19638,480.22600 L 155.85907,537.94125 L 204.59030,488.82438 L 155.72995,537.95141 L 213.10705,499.28531 z "
     transform="matrix(1.243856,0.111468,-0.111468,1.243856,263.1606,-219.6364)"
     inkscape:flatsided="false"
     sodipodi:sides="32" />
  <path
     sodipodi:type="star"
     style="fill:none;fill-opacity:0.89930558;fill-rule:evenodd;stroke:#c2cff3;stroke-width:1.1362520;stroke-linecap:butt;stroke-linejoin:miter;stroke-miterlimit:4.0000000;stroke-opacity:1.0000000;"
     id="path1610"
     sodipodi:cx="155.74290"
     sodipodi:cy="537.29083"
     sodipodi:r1="68.811806"
     sodipodi:r2="0.66070747"
     sodipodi:arg1="-0.58513402"
     sodipodi:arg2="1.7867615"
     inkscape:rounded="0.0000000"
     d="M 213.10705,499.28531 L 155.60132,537.93619 L 219.41932,511.20676 L 155.47814,537.89617 L 223.28455,524.13061 L 155.36513,537.83289 L 224.55418,537.56020 L 155.26664,537.74877 L 223.17944,550.97944 L 155.18645,537.64706 L 219.21315,563.87263 L 155.12765,537.53165 L 212.80774,575.74430 L 155.09249,537.40700 L 204.20935,586.13823 L 155.08232,537.27787 L 193.74843,594.65497 L 155.09755,537.14925 L 181.82698,600.96725 L 155.13757,537.02607 L 168.90312,604.83247 L 155.20085,536.91306 L 155.47353,606.10211 L 155.28497,536.81457 L 142.05430,604.72737 L 155.38668,536.73438 L 129.16110,600.76108 L 155.50208,536.67558 L 117.28943,594.35567 L 155.62674,536.64042 L 106.89551,585.75728 L 155.75586,536.63025 L 98.378764,575.29636 L 155.88449,536.64547 L 92.066489,563.37490 L 156.00767,536.68550 L 88.201264,550.45105 L 156.12068,536.74878 L 86.931626,537.02146 L 156.21917,536.83290 L 88.306367,523.60222 L 156.29936,536.93461 L 92.272656,510.70903 L 156.35816,537.05001 L 98.678072,498.83736 L 156.39332,537.17467 L 107.27646,488.44344 L 156.40349,537.30379 L 117.73738,479.92669 L 156.38826,537.43242 L 129.65883,473.61442 L 156.34824,537.55560 L 142.58268,469.74919 L 156.28496,537.66861 L 156.01227,468.47955 L 156.20084,537.76710 L 169.43151,469.85429 L 156.09913,537.84728 L 182.32471,473.82058 L 155.98372,537.90609 L 194.19638,480.22600 L 155.85907,537.94125 L 204.59030,488.82438 L 155.72995,537.95141 L 213.10705,499.28531 z "
     transform="matrix(0.968095,0.000000,0.000000,0.968095,246.2177,-54.11272)"
     inkscape:flatsided="false"
     sodipodi:sides="32" />
  <path
     style="fill:url(#linearGradient1721);fill-opacity:0.29072681;fill-rule:evenodd;stroke:none;stroke-width:1.0000000pt;stroke-linecap:butt;stroke-linejoin:miter;stroke-opacity:1.0000000;"
     d="M 239.46598,578.74556 C 266.84460,470.21766 350.23417,493.54430 407.94973,471.61606 C 466.31379,449.44142 503.47066,437.59160 547.65701,437.51140 C 551.17694,421.59960 554.46638,368.66542 557.09631,348.49802 C 515.28885,347.97432 353.86064,354.85586 333.41791,367.00316 C 291.83951,391.70946 253.95608,482.45656 239.46598,578.74556 z "
     id="path1746"
     sodipodi:nodetypes="czcczc"
     inkscape:export-filename="/home/kant/Desktop/path1751.png"
     inkscape:export-xdpi="15.615582"
     inkscape:export-ydpi="15.615582" />
  <path
     style="fill:url(#linearGradient1753);fill-opacity:1.0000000;fill-rule:evenodd;stroke:#041004;stroke-width:4.3125000;stroke-linecap:square;stroke-linejoin:bevel;stroke-miterlimit:4.0000000;stroke-opacity:1.0000000;"
     d="M 428.59516,344.39901 C 381.42955,344.21871 333.73839,359.93178 306.93504,379.20006 C 278.77293,399.44512 255.99325,468.41869 239.17100,590.37012 L 236.27505,615.62627 C 270.35786,606.97758 316.71875,614.19967 366.50733,615.90145 C 417.31358,617.62598 436.24161,612.93271 458.63340,605.52408 C 483.28434,597.36799 510.13137,571.02922 526.42797,535.18669 C 543.49521,497.64922 548.92976,455.93789 568.93985,344.37083 C 516.87459,342.13138 475.75456,344.57928 428.59516,344.39901 z M 545.09394,377.13160 C 540.40416,409.32592 531.31440,487.16025 509.14978,524.85488 C 486.98517,562.54952 478.98676,572.99454 452.37149,581.10860 C 425.75621,589.22267 385.92714,590.14875 366.04054,589.28476 C 327.70652,587.58895 282.31591,592.43840 279.39355,587.97237 C 276.47120,583.50632 278.26155,576.48602 273.65312,571.70208 C 268.52263,566.37621 265.28423,568.44523 262.02004,564.23237 C 258.75585,560.01950 280.61707,466.52298 285.31307,452.72154 C 294.70508,425.11863 302.88797,406.87566 317.11015,396.46793 C 363.61909,368.71113 394.99963,375.05557 422.42552,374.45933 C 449.87742,373.86252 534.12096,376.82931 545.09394,377.13160 z "
     id="path1747"
     sodipodi:nodetypes="czcczszczczszszssczc"
     inkscape:export-filename="/home/kant/Desktop/path1751.png"
     inkscape:export-xdpi="15.615582"
     inkscape:export-ydpi="15.615582" />
  <path
     sodipodi:type="arc"
     style="fill:url(#radialGradient1777);fill-opacity:0.89930558;fill-rule:evenodd;stroke:none;stroke-width:6.1456561;stroke-linecap:butt;stroke-linejoin:miter;stroke-miterlimit:4.0000000;stroke-opacity:1.0000000;"
     id="path1749"
     sodipodi:cx="364.93021"
     sodipodi:cy="202.29794"
     sodipodi:rx="15.835236"
     sodipodi:ry="15.835236"
     d="M 380.76544 202.29794 A 15.835236 15.835236 0 1 0 349.09497,202.29794 A 15.835236 15.835236 0 1 0 380.76544 202.29794 z"
     transform="matrix(2.198174,4.914551e-2,-4.914551e-2,2.198174,-393.1566,3.526761)"
     inkscape:export-filename="/home/kant/Desktop/path1751.png"
     inkscape:export-xdpi="15.615582"
     inkscape:export-ydpi="15.615582" />
  <path
     style="opacity:0.31052628;fill:url(#linearGradient1643);fill-opacity:0.43358395;fill-rule:evenodd;stroke:none;stroke-width:1.0000000pt;stroke-linecap:butt;stroke-linejoin:miter;stroke-opacity:1.0000000;"
     d="M 494.35100,416.51999 C 511.36484,451.61076 508.99172,489.76287 487.76050,522.47470 C 472.65627,512.67144 479.10986,503.56058 464.00564,493.75742 C 448.90140,483.95416 412.23934,473.45863 397.13509,463.65537 C 409.45388,450.79586 446.24797,443.42140 463.14637,434.17734 C 480.04479,424.93328 477.04758,413.81971 494.35100,416.51999 z "
     id="path1750"
     sodipodi:nodetypes="ccscsc"
     inkscape:export-filename="/home/kant/Desktop/path1751.png"
     inkscape:export-xdpi="15.615582"
     inkscape:export-ydpi="15.615582" />
  <path
     sodipodi:type="arc"
     style="fill:url(#radialGradient1620);fill-opacity:0.75000000;fill-rule:evenodd;stroke:none;stroke-width:1.0000000pt;stroke-linecap:butt;stroke-linejoin:miter;stroke-opacity:1.0000000;"
     id="path1751"
     sodipodi:cx="371.03458"
     sodipodi:cy="840.12433"
     sodipodi:rx="52.423267"
     sodipodi:ry="48.351555"
     d="M 399.16747,799.32502 A 52.423267,48.351555 0 1 1 398.14311,798.73928"
     sodipodi:start="5.2788497"
     sodipodi:end="11.539044"
     sodipodi:open="true"
     transform="matrix(2.318243,0.000000,0.000000,2.088060,-955.6243,-1175.186)"
     inkscape:export-filename="/home/kant/Desktop/path1751.png"
     inkscape:export-xdpi="15.615582"
     inkscape:export-ydpi="15.615582"
     sodipodi:insensitive="1" />
  <path
     sodipodi:type="arc"
     style="fill:url(#radialGradient1772);fill-opacity:0.75000000;fill-rule:evenodd;stroke:none;stroke-width:1.0000000pt;stroke-linecap:butt;stroke-linejoin:miter;stroke-opacity:1.0000000;"
     id="path1760"
     sodipodi:cx="371.03458"
     sodipodi:cy="840.12433"
     sodipodi:rx="52.423267"
     sodipodi:ry="48.351555"
     d="M 399.16747,799.32502 A 52.423267,48.351555 0 1 1 398.14311,798.73928"
     sodipodi:start="5.2788497"
     sodipodi:end="11.539044"
     transform="matrix(-0.283332,-5.726036e-2,5.157460e-2,-0.255199,318.7789,817.6521)"
     inkscape:export-filename="/home/kant/Desktop/path1751.png"
     inkscape:export-xdpi="15.615582"
     inkscape:export-ydpi="15.615582"
     sodipodi:open="true" />
</svg>
