<?xml version="1.0" encoding="UTF-8" standalone="no"?>
<svg
   xmlns:dc="http://purl.org/dc/elements/1.1/"
   xmlns:cc="http://web.resource.org/cc/"
   xmlns:rdf="http://www.w3.org/1999/02/22-rdf-syntax-ns#"
   xmlns:svg="http://www.w3.org/2000/svg"
   xmlns="http://www.w3.org/2000/svg"
   xmlns:sodipodi="http://sodipodi.sourceforge.net/DTD/sodipodi-0.dtd"
   xmlns:inkscape="http://www.inkscape.org/namespaces/inkscape"
   width="22"
   height="22"
   viewBox="0 0 854.238 854.238"
   overflow="visible"
   enable-background="new 0 0 854.238 854.238"
   xml:space="preserve"
   id="svg2"
   sodipodi:version="0.32"
   inkscape:version="0.45.1"
   sodipodi:docname="amarok_icon_small.svg"
   sodipodi:docbase="/home/hydrogen/kde/src/amarok/src/images"
   inkscape:output_extension="org.inkscape.output.svg.inkscape"
   version="1.0"
   inkscape:export-filename="/home/me/amarok22.png"
   inkscape:export-xdpi="12.643598"
   inkscape:export-ydpi="12.643598"><sodipodi:namedview
   inkscape:window-height="688"
   inkscape:window-width="1022"
   inkscape:pageshadow="2"
   inkscape:pageopacity="0.0"
   guidetolerance="10.0"
   gridtolerance="10.0"
   objecttolerance="10.0"
   borderopacity="1.0"
   bordercolor="#666666"
   pagecolor="#ffffff"
   id="base"
   inkscape:zoom="3.7930793"
   inkscape:cx="107.38014"
   inkscape:cy="19.259016"
   inkscape:window-x="0"
   inkscape:window-y="0"
   inkscape:current-layer="svg2"
   width="22px"
   height="22px" />
  <metadata
   id="metadata7">
    <rdf:RDF>
      <cc:Work
   rdf:about="">
        <dc:format>image/svg+xml</dc:format>
        <dc:type
   rdf:resource="http://purl.org/dc/dcmitype/StillImage" />
      </cc:Work>
    </rdf:RDF>
  </metadata>
  <defs
   id="defs217"><mask
     id="XMLID_26_"
     height="44.813"
     width="93.126"
     y="461.543"
     x="155.705"
     maskUnits="userSpaceOnUse">
      <g
   id="g69">
        <linearGradient
   y2="466.75449"
   x2="200.0733"
   y1="562.85791"
   x1="211.7222"
   gradientUnits="userSpaceOnUse"
   id="XMLID_1_">
          <stop
   id="stop72"
   style="stop-color:#FFFFFF"
   offset="0" />
          <stop
   id="stop74"
   style="stop-color:#000000"
   offset="1" />
        </linearGradient>
        <ellipse
   style="fill:url(#XMLID_1_)"
   id="ellipse76"
   ry="59.682999"
   rx="80.542"
   cy="495.98801"
   cx="203.617"
   sodipodi:cx="203.617"
   sodipodi:cy="495.98801"
   sodipodi:rx="80.542"
   sodipodi:ry="59.682999" /> 
      </g>
    </mask><mask
     id="XMLID_2_"
     height="127.553"
     width="156.907"
     y="425.034"
     x="101.57"
     maskUnits="userSpaceOnUse">
      <g
   id="g86">
        <linearGradient
   y2="563.47321"
   x2="186.92191"
   y1="397.62061"
   x1="206.09081"
   gradientUnits="userSpaceOnUse"
   id="XMLID_3_">
          <stop
   id="stop89"
   style="stop-color:#FFFFFF"
   offset="0" />
          <stop
   id="stop91"
   style="stop-color:#CBCBCB"
   offset="0.1111" />
          <stop
   id="stop93"
   style="stop-color:#969696"
   offset="0.2396" />
          <stop
   id="stop95"
   style="stop-color:#686868"
   offset="0.3698" />
          <stop
   id="stop97"
   style="stop-color:#424242"
   offset="0.4991" />
          <stop
   id="stop99"
   style="stop-color:#252525"
   offset="0.6273" />
          <stop
   id="stop101"
   style="stop-color:#111111"
   offset="0.7542" />
          <stop
   id="stop103"
   style="stop-color:#040404"
   offset="0.8792" />
          <stop
   id="stop105"
   style="stop-color:#000000"
   offset="1" />
        </linearGradient>
        <ellipse
   style="fill:url(#XMLID_3_)"
   id="ellipse107"
   ry="123.604"
   rx="160.94"
   cy="495.62299"
   cx="194.76401"
   sodipodi:cx="194.76401"
   sodipodi:cy="495.62299"
   sodipodi:rx="160.94"
   sodipodi:ry="123.604" /> 
      </g>
    </mask><mask
     id="XMLID_10_"
     height="527.73"
     width="447.197"
     y="217.631"
     x="191.541"
     maskUnits="userSpaceOnUse">
      <g
   id="g159">
        <radialGradient
   gradientUnits="userSpaceOnUse"
   gradientTransform="matrix(0.931,0,0,0.9299,28.7459,21.6629)"
   fy="155.23289"
   fx="657.2124"
   r="606.95343"
   cy="155.23289"
   cx="657.2124"
   id="XMLID_11_">
          <stop
   id="stop162"
   style="stop-color:#C9C9C8"
   offset="0" />
          <stop
   id="stop164"
   style="stop-color:#C4C4C4"
   offset="0.0881" />
          <stop
   id="stop166"
   style="stop-color:#B8B8B7"
   offset="0.2192" />
          <stop
   id="stop168"
   style="stop-color:#A1A0A0"
   offset="0.3769" />
          <stop
   id="stop170"
   style="stop-color:#7F7F7E"
   offset="0.5556" />
          <stop
   id="stop172"
   style="stop-color:#4F4F4E"
   offset="0.7517" />
          <stop
   id="stop174"
   style="stop-color:#121212"
   offset="0.9595" />
          <stop
   id="stop176"
   style="stop-color:#000000"
   offset="1" />
        </radialGradient>
        <circle
   style="fill:url(#XMLID_11_)"
   id="circle178"
   r="302.95401"
   cy="444.22601"
   cx="408.427"
   sodipodi:cx="408.427"
   sodipodi:cy="444.22601"
   sodipodi:rx="302.95401"
   sodipodi:ry="302.95401" /> 
      </g>
    </mask><mask
     id="XMLID_13_"
     height="187.183"
     width="252.506"
     y="279.317"
     x="243.061"
     maskUnits="userSpaceOnUse">
      <g
   style="filter:url(#Adobe_OpacityMaskFilter_4_)"
   id="g193">
        <linearGradient
   y2="417.81519"
   x2="372.38071"
   y1="266.93359"
   x1="340.0488"
   gradientUnits="userSpaceOnUse"
   id="XMLID_14_">
          <stop
   id="stop196"
   style="stop-color:#FFFFFF"
   offset="0" />
          <stop
   id="stop198"
   style="stop-color:#F8F8F8"
   offset="0.0867" />
          <stop
   id="stop200"
   style="stop-color:#E4E4E4"
   offset="0.2156" />
          <stop
   id="stop202"
   style="stop-color:#C2C2C2"
   offset="0.3708" />
          <stop
   id="stop204"
   style="stop-color:#949494"
   offset="0.5465" />
          <stop
   id="stop206"
   style="stop-color:#595959"
   offset="0.7394" />
          <stop
   id="stop208"
   style="stop-color:#151515"
   offset="0.9438" />
          <stop
   id="stop210"
   style="stop-color:#000000"
   offset="0.9944" />
        </linearGradient>
        <ellipse
   style="fill:url(#XMLID_14_)"
   id="ellipse212"
   ry="183.32201"
   rx="215.32401"
   cy="374.28201"
   cx="363.052"
   sodipodi:cx="363.052"
   sodipodi:cy="374.28201"
   sodipodi:rx="215.32401"
   sodipodi:ry="183.32201" />
      </g>
    </mask><mask
     id="XMLID_23_"
     height="587.491"
     width="576.609"
     y="97.149"
     x="122.963"
     maskUnits="userSpaceOnUse">
      <g
   style="filter:url(#Adobe_OpacityMaskFilter)"
   id="g31">
        <radialGradient
   gradientUnits="userSpaceOnUse"
   fy="-20.899401"
   fx="88.977501"
   r="673.11609"
   cy="-20.899401"
   cx="88.977501"
   id="XMLID_24_">
          <stop
   id="stop34"
   style="stop-color:#FFFFFF"
   offset="0.309" />
          <stop
   id="stop36"
   style="stop-color:#000000"
   offset="1" />
        </radialGradient>
        <ellipse
   style="fill:url(#XMLID_24_)"
   id="ellipse38"
   ry="349.10599"
   rx="512.93402"
   cy="286.172"
   cx="295.89499"
   sodipodi:cx="295.89499"
   sodipodi:cy="286.172"
   sodipodi:rx="512.93402"
   sodipodi:ry="349.10599" />
      </g>
    </mask></defs>
  
<g
   id="g8826"
   transform="translate(-9.9999999e-7,-77.04248)"><path
     id="circle22"
     d="M 813.31393,504.16148 C 813.31393,717.34108 640.2986,890.35641 427.119,890.35641 C 213.9394,890.35641 40.924072,717.34108 40.924072,504.16148 C 40.924072,290.98188 213.9394,117.96655 427.119,117.96655 C 640.2986,117.96655 813.31393,290.98188 813.31393,504.16148 z "
     style="fill:#dddddd;fill-opacity:1;stroke:#0057ae;stroke-width:81.84814453;stroke-miterlimit:4;stroke-dasharray:none;stroke-opacity:1" /><g
     transform="matrix(1.0007211,0,0,1.0007211,0,77.042475)"
     id="g7521"><path
       style="opacity:0.22000002;fill:#323232"
       d="M 642.57609,234.13404 C 627.10948,234.13404 597.07671,266.39006 585.82368,271.4828 C 574.56556,276.57553 485.45685,334.29019 477.01352,344.47566 C 468.57424,354.66011 457.31815,358.90508 445.12516,358.05629 C 432.93318,357.20749 394.38517,356.85907 381.25527,363.64938 C 368.12233,370.4397 308.1824,425.95743 293.17361,432.74876 C 278.16685,439.53704 258.58696,443.01729 249.20773,443.86506 C 239.8285,444.71487 208.75552,476.03601 200.3132,481.97956 C 191.87189,487.91805 130.15538,511.71454 120.77716,516.80526 C 111.39693,521.89901 175.92721,602.50261 187.1833,604.20019 C 198.43735,605.89878 176.12675,614.22056 154.47147,614.22056 C 152.08716,614.22056 185.41987,701.62968 299.0726,758.04583 C 397.32655,806.81577 476.48682,777.1993 515.20296,765.37094 C 542.57896,757.00763 547.54306,753.27822 548.48402,739.69759 C 549.42296,726.11797 551.11852,715.38655 552.99537,700.10935 C 554.87223,684.83418 561.43364,556.66695 585.82469,522.7174 C 610.20865,488.76684 679.91372,448.01076 704.29969,443.76883 C 728.68771,439.52489 723.99911,431.03801 723.99911,423.3989 C 723.99911,415.7598 720.2464,398.784 713.68095,396.23764 C 707.11449,393.69229 681.49481,408.98265 673.05351,410.68022 C 664.61119,412.3778 624.27951,414.92418 618.65097,406.4373 C 613.02342,397.94839 664.15237,311.37286 670.71782,301.18841 C 677.28126,291.00293 680.09603,277.4223 667.90506,262.99389 C 655.70701,248.56244 647.2647,234.13404 642.57609,234.13404 z "
       id="path43" /><path
       style="fill:#00316e;fill-opacity:1"
       d="M 609.66271,189.23022 C 594.65899,189.23022 565.52971,223.80574 554.61192,229.26413 C 543.69414,234.72353 457.26042,296.58894 449.07233,307.50773 C 440.88426,318.4245 429.96546,322.97434 418.13913,322.06477 C 406.31279,321.15623 368.92351,320.78146 356.18661,328.05999 C 343.44767,335.33952 285.30761,394.85 270.75057,402.12953 C 256.19454,409.40603 237.20313,413.13442 228.10447,414.045 C 219.00783,414.95354 188.8677,448.52733 180.67962,454.89729 C 172.49154,461.26727 107.78906,489.26517 98.691417,494.72154 C 89.592758,500.18093 165.06615,576.6358 175.98393,578.45391 C 186.90172,580.27607 168.46434,621.70065 147.45832,621.70065 C 145.14491,621.70065 166.22994,690.34422 276.47028,750.81794 C 371.77476,803.0975 472.89314,779.95027 510.44549,767.27311 C 537.00106,758.30512 518.36314,753.34912 519.27473,738.79309 C 520.18227,724.23503 520.94698,705.09371 522.76712,688.71856 C 524.58827,672.34238 530.95419,534.95901 554.6109,498.56742 C 578.26459,462.17785 645.87402,418.49051 669.52971,413.94169 C 693.18644,409.39286 688.63559,400.2942 688.63559,392.10713 C 688.63559,383.92006 684.99734,365.72275 678.62736,362.99304 C 672.25941,360.26436 647.40954,376.65471 639.22145,378.47383 C 631.03337,380.29296 591.91105,383.02367 586.45065,373.92602 C 580.99226,364.82635 630.58567,272.0257 636.95463,261.10791 C 643.32461,250.18912 646.05228,235.63107 634.22393,220.16647 C 622.40062,204.69684 614.21153,189.23022 609.66271,189.23022 z "
       id="path58" /><path
       style="fill:#ffffff"
       d="M 428.17672,360.73231 C 428.17672,360.73231 392.13254,355.1858 371.33517,375.98418 C 350.53679,396.78155 332.50963,442.53415 333.90031,456.39939 C 335.28491,470.26465 376.88066,409.25916 394.90275,405.10131 C 412.92889,400.94043 432.33862,370.43565 428.17672,360.73231 z "
       id="path60" /></g></g></svg>