<?xml version="1.0" encoding="UTF-8" standalone="no"?>
<svg
   xmlns:dc="http://purl.org/dc/elements/1.1/"
   xmlns:cc="http://web.resource.org/cc/"
   xmlns:rdf="http://www.w3.org/1999/02/22-rdf-syntax-ns#"
   xmlns:svg="http://www.w3.org/2000/svg"
   xmlns="http://www.w3.org/2000/svg"
   width="128"
   height="128"
   viewBox="0 0 854.238 854.238"
   overflow="visible"
   enable-background="new 0 0 854.238 854.238"
   xml:space="preserve"
   id="svg2">
  <metadata
     id="metadata7">
    <rdf:RDF>
      <cc:Work
         rdf:about="">
        <dc:format>image/svg+xml</dc:format>
        <dc:type
           rdf:resource="http://purl.org/dc/dcmitype/StillImage" />
      </cc:Work>
    </rdf:RDF>
  </metadata>
  <defs
   id="defs217">
    <radialGradient
       gradientUnits="userSpaceOnUse"
       fy="783.16357"
       fx="375.21439"
       r="300.5752"
       cy="783.16357"
       cx="375.21439"
       id="XMLID_25_"
       gradientTransform="matrix(1.1256295,0,0,1.1256295,-41.873391,-39.54673)">
      <stop
         id="stop46"
         style="stop-color:#D2E8EC"
         offset="0.0112" />
      <stop
         id="stop48"
         style="stop-color:#60A8CE"
         offset="0.2921" />
      <stop
         id="stop50"
         style="stop-color:#4680A8"
         offset="0.4575" />
      <stop
         id="stop52"
         style="stop-color:#2F5C84"
         offset="0.6767" />
      <stop
         id="stop54"
         style="stop-color:#234970"
         offset="0.8653" />
      <stop
         id="stop56"
         style="stop-color:#1F426A"
         offset="1" />
    </radialGradient>
    <mask
       id="XMLID_26_"
       height="44.813"
       width="93.126"
       y="461.543"
       x="155.705"
       maskUnits="userSpaceOnUse">
      <g
         id="g69">
        <linearGradient
           y2="466.75449"
           x2="200.0733"
           y1="562.85791"
           x1="211.7222"
           gradientUnits="userSpaceOnUse"
           id="XMLID_1_">
          <stop
             id="stop72"
             style="stop-color:#FFFFFF"
             offset="0" />
          <stop
             id="stop74"
             style="stop-color:#000000"
             offset="1" />
        </linearGradient>
        <ellipse
           style="fill:url(#XMLID_1_)"
           id="ellipse76"
           ry="59.682999"
           rx="80.542"
           cy="495.98801"
           cx="203.617" /> 
      </g>
    </mask>
    <mask
       id="XMLID_2_"
       height="127.553"
       width="156.907"
       y="425.034"
       x="101.57"
       maskUnits="userSpaceOnUse">
      <g
         id="g86">
        <linearGradient
           y2="563.47321"
           x2="186.92191"
           y1="397.62061"
           x1="206.09081"
           gradientUnits="userSpaceOnUse"
           id="XMLID_3_">
          <stop
             id="stop89"
             style="stop-color:#FFFFFF"
             offset="0" />
          <stop
             id="stop91"
             style="stop-color:#CBCBCB"
             offset="0.1111" />
          <stop
             id="stop93"
             style="stop-color:#969696"
             offset="0.2396" />
          <stop
             id="stop95"
             style="stop-color:#686868"
             offset="0.3698" />
          <stop
             id="stop97"
             style="stop-color:#424242"
             offset="0.4991" />
          <stop
             id="stop99"
             style="stop-color:#252525"
             offset="0.6273" />
          <stop
             id="stop101"
             style="stop-color:#111111"
             offset="0.7542" />
          <stop
             id="stop103"
             style="stop-color:#040404"
             offset="0.8792" />
          <stop
             id="stop105"
             style="stop-color:#000000"
             offset="1" />
        </linearGradient>
        <ellipse
         style="fill:url(#XMLID_3_)"
         id="ellipse107"
         ry="123.604"
         rx="160.94"
         cy="495.62299"
         cx="194.76401" /> 
      </g>
    </mask>
    <linearGradient
       gradientTransform="matrix(-1.1256295,0,0,1.1256295,1028.9091,-39.54673)"
       y2="643.30768"
       x2="480.12021"
       y1="815.45459"
       x1="429.84909"
       gradientUnits="userSpaceOnUse"
       id="XMLID_4_">
      <stop
         id="stop112"
         style="stop-color:#FFFFFF"
         offset="0" />
      <stop
         id="stop114"
         style="stop-color:#E5EAF2"
         offset="1" />
    </linearGradient>
    <linearGradient
       y2="560.35498"
       x2="278.14471"
       y1="634.63232"
       x1="220.9512"
       gradientUnits="userSpaceOnUse"
       id="XMLID_5_">
      <stop
         id="stop119"
         style="stop-color:#FFFFFF"
         offset="0" />
      <stop
         id="stop121"
         style="stop-color:#193D6B"
         offset="1" />
    </linearGradient>
    <linearGradient
       y2="565.86761"
       x2="328.18469"
       y1="684.01898"
       x1="237.20799"
       gradientUnits="userSpaceOnUse"
       id="XMLID_6_">
      <stop
         id="stop126"
         style="stop-color:#FFFFFF"
         offset="0" />
      <stop
         id="stop128"
         style="stop-color:#193D6B"
         offset="1" />
    </linearGradient>
    <linearGradient
       y2="612.60522"
       x2="335.09619"
       y1="704.23578"
       x1="264.5405"
       gradientUnits="userSpaceOnUse"
       id="XMLID_7_">
      <stop
         id="stop133"
         style="stop-color:#FFFFFF"
         offset="0" />
      <stop
         id="stop135"
         style="stop-color:#193D6B"
         offset="1" />
    </linearGradient>
    <linearGradient
       y2="626.00598"
       x2="373.12509"
       y1="713.54639"
       x1="319.186"
       gradientUnits="userSpaceOnUse"
       id="XMLID_8_">
      <stop
         id="stop140"
         style="stop-color:#FFFFFF"
         offset="0" />
      <stop
         id="stop142"
         style="stop-color:#193D6B"
         offset="1" />
    </linearGradient>
    <linearGradient
       y2="688.75092"
       x2="409.85471"
       y1="790.51508"
       x1="331.49609"
       gradientUnits="userSpaceOnUse"
       id="XMLID_9_">
      <stop
         id="stop147"
         style="stop-color:#FFFFFF"
         offset="0" />
      <stop
         id="stop149"
         style="stop-color:#193D6B"
         offset="1" />
    </linearGradient>
    <mask
       id="XMLID_10_"
       height="527.73"
       width="447.197"
       y="217.631"
       x="191.541"
       maskUnits="userSpaceOnUse">
      <g
         id="g159">
        <radialGradient
           gradientUnits="userSpaceOnUse"
           gradientTransform="matrix(0.931,0,0,0.9299,28.7459,21.6629)"
           fy="155.23289"
           fx="657.2124"
           r="606.95343"
           cy="155.23289"
           cx="657.2124"
           id="XMLID_11_">
          <stop
             id="stop162"
             style="stop-color:#C9C9C8"
             offset="0" />
          <stop
             id="stop164"
             style="stop-color:#C4C4C4"
             offset="0.0881" />
          <stop
             id="stop166"
             style="stop-color:#B8B8B7"
             offset="0.2192" />
          <stop
             id="stop168"
             style="stop-color:#A1A0A0"
             offset="0.3769" />
          <stop
             id="stop170"
             style="stop-color:#7F7F7E"
             offset="0.5556" />
          <stop
             id="stop172"
             style="stop-color:#4F4F4E"
             offset="0.7517" />
          <stop
             id="stop174"
             style="stop-color:#121212"
             offset="0.9595" />
          <stop
             id="stop176"
             style="stop-color:#000000"
             offset="1" />
        </radialGradient>
        <circle
           style="fill:url(#XMLID_11_)"
           id="circle178"
           r="302.95401"
           cy="444.22601"
           cx="408.427" /> 
      </g>
    </mask>
    <linearGradient
       y2="522.02393"
       x2="410.27759"
       y1="239.939"
       x1="517.18988"
       gradientUnits="userSpaceOnUse"
       id="XMLID_12_">
      <stop
         id="stop181"
         style="stop-color:#FFFFFF"
         offset="0" />
      <stop
         id="stop183"
         style="stop-color:#FFFFFF"
         offset="0.9944" />
    </linearGradient>
    <mask
       id="XMLID_13_"
       height="187.183"
       width="252.506"
       y="279.317"
       x="243.061"
       maskUnits="userSpaceOnUse">
      <g
         style="filter:url(#Adobe_OpacityMaskFilter_4_)"
         id="g193">
        <linearGradient
           y2="417.81519"
           x2="372.38071"
           y1="266.93359"
           x1="340.0488"
           gradientUnits="userSpaceOnUse"
           id="XMLID_14_">
          <stop
             id="stop196"
             style="stop-color:#FFFFFF"
             offset="0" />
          <stop
             id="stop198"
             style="stop-color:#F8F8F8"
             offset="0.0867" />
          <stop
             id="stop200"
             style="stop-color:#E4E4E4"
             offset="0.2156" />
          <stop
             id="stop202"
             style="stop-color:#C2C2C2"
             offset="0.3708" />
          <stop
             id="stop204"
             style="stop-color:#949494"
             offset="0.5465" />
          <stop
             id="stop206"
             style="stop-color:#595959"
             offset="0.7394" />
          <stop
             id="stop208"
             style="stop-color:#151515"
             offset="0.9438" />
          <stop
             id="stop210"
             style="stop-color:#000000"
             offset="0.9944" />
        </linearGradient>
        <ellipse
           style="fill:url(#XMLID_14_)"
           id="ellipse212"
           ry="183.32201"
           rx="215.32401"
           cy="374.28201"
           cx="363.052" />
      </g>
    </mask>
    <mask
       id="XMLID_23_"
       height="587.491"
       width="576.609"
       y="97.149"
       x="122.963"
       maskUnits="userSpaceOnUse">
      <g
         style="filter:url(#Adobe_OpacityMaskFilter)"
         id="g31">
        <radialGradient
           gradientUnits="userSpaceOnUse"
           fy="-20.899401"
           fx="88.977501"
           r="673.11609"
           cy="-20.899401"
           cx="88.977501"
           id="XMLID_24_">
          <stop
             id="stop34"
             style="stop-color:#FFFFFF"
             offset="0.309" />
          <stop
             id="stop36"
             style="stop-color:#000000"
             offset="1" />
        </radialGradient>
        <ellipse
           style="fill:url(#XMLID_24_)"
           id="ellipse38"
           ry="349.10599"
           rx="512.93402"
           cy="286.172"
           cx="295.89499" />
      </g>
    </mask>
    <radialGradient
       id="XMLID_22_"
       cx="622.72803"
       cy="621.17328"
       r="510.71881"
       fx="622.72803"
       fy="621.17328"
       gradientUnits="userSpaceOnUse">
      <stop
         offset="0"
         style="stop-color:#FFFFFF"
         id="stop14" />
      <stop
         offset="0.2814"
         style="stop-color:#E6E6E6"
         id="stop16" />
      <stop
         offset="0.7515"
         style="stop-color:#C0C0C0"
         id="stop18" />
      <stop
         offset="1"
         style="stop-color:#B2B2B2"
         id="stop20" />
    </radialGradient>
  </defs>
  <g
     id="g2544">
    <path
       id="circle22"
       d="M 783.59799,414.582 C 783.59799,617.13785 619.20484,781.53101 416.64899,781.53101 C 214.09314,781.53101 49.699982,617.13785 49.699982,414.582 C 49.699982,212.02615 214.09314,47.632996 416.64899,47.632996 C 619.20484,47.632996 783.59799,212.02615 783.59799,414.582 z "
       style="fill:url(#XMLID_22_);stroke:#2e6096;stroke-width:25"
       transform="matrix(1.1256295,0,0,1.1256295,-41.873391,-39.54673)" />
    <path
       id="ellipse40"
       d="M 699.57098,390.89499 C 699.57098,553.04278 570.4108,684.64099 411.267,684.64099 C 252.1232,684.64099 122.96301,553.04278 122.96301,390.89499 C 122.96301,228.7472 252.1232,97.148987 411.267,97.148987 C 570.4108,97.148987 699.57098,228.7472 699.57098,390.89499 z "
       mask="url(#XMLID_23_)"
       style="opacity:0.86000001;fill:#eeeeee"
       transform="matrix(1.1256295,0,0,1.1256295,-41.873391,-39.54673)" />
    <path
       id="path43"
       d="M 654.69879,222.73733 C 637.51042,222.73733 604.13438,258.58412 591.62864,264.24379 C 579.11727,269.90345 480.08889,334.04295 470.70564,345.36228 C 461.3269,356.68048 448.81777,361.398 435.26745,360.45472 C 421.71824,359.51144 378.87904,359.12422 364.2875,366.67044 C 349.69259,374.21666 283.08009,435.91467 266.40051,443.46201 C 249.72318,451.00598 227.96364,454.87365 217.54031,455.8158 C 207.11698,456.7602 172.58492,491.56804 163.2028,498.17324 C 153.8218,504.7728 85.234943,531.21834 74.81274,536.87576 C 64.388285,542.53655 136.10214,632.11302 148.61126,633.99957 C 161.11813,635.88725 136.32389,645.13542 112.25793,645.13542 C 109.6082,645.13542 146.65154,742.275 272.95618,804.97144 C 382.14786,859.1705 470.12031,826.25709 513.14637,813.11199 C 543.56989,803.81767 549.0866,799.6731 550.13231,784.58066 C 551.17577,769.48934 553.06007,757.5633 555.14586,740.58543 C 557.23165,723.60981 564.52348,581.1749 591.62977,543.44605 C 618.72817,505.71608 696.19287,460.423 723.29352,455.70886 C 750.39643,450.99248 745.18589,441.56083 745.18589,433.07133 C 745.18589,424.58183 741.01543,405.71628 733.7191,402.88645 C 726.42165,400.05774 697.94997,417.05024 688.56898,418.9368 C 679.18686,420.82335 634.36542,423.65319 628.11029,414.22154 C 621.85629,404.78764 678.67695,308.57445 685.97328,297.25625 C 693.26736,285.93692 696.39548,270.84448 682.8474,254.80989 C 669.29145,238.77192 659.90933,222.73733 654.69879,222.73733 z "
       style="opacity:0.22000002" />
    <path
       id="path58"
       d="M 618.12146,172.83479 C 601.44751,172.83479 569.07553,211.25928 556.94237,217.3253 C 544.80921,223.39244 448.75361,292.14477 439.65402,304.27905 C 430.55444,316.41109 418.42015,321.46741 405.2773,320.4566 C 392.13445,319.44691 350.58296,319.03043 336.42817,327.1192 C 322.27113,335.2091 257.65887,401.34434 241.48132,409.43423 C 225.3049,417.52076 204.19935,421.6642 194.08782,422.67614 C 183.97854,423.68583 150.48318,460.99707 141.38359,468.07615 C 132.28401,475.15524 60.378793,506.26989 50.268389,512.33366 C 40.156859,518.4008 124.03202,603.36669 136.16518,605.38719 C 148.29834,607.4122 127.8085,653.4482 104.46407,653.4482 C 101.89313,653.4482 125.32536,729.73323 247.83775,796.93894 C 353.75161,855.03831 466.12658,829.3143 507.85929,815.22592 C 537.37105,805.2596 516.65834,799.75189 517.67141,783.57547 C 518.67997,767.3968 519.52982,746.12465 521.55258,727.9266 C 523.57646,709.72742 530.65104,557.05041 556.94124,516.60767 C 583.22807,476.16718 658.36384,427.61653 684.65291,422.56133 C 710.94312,417.50612 705.88566,407.39459 705.88566,398.29613 C 705.88566,389.19767 701.8424,368.97461 694.76332,365.94104 C 687.68648,362.90859 660.07029,381.12353 650.9707,383.14516 C 641.87111,385.16679 598.39367,388.20149 592.32541,378.09108 C 586.25939,367.97843 641.37358,264.84713 648.45154,252.71396 C 655.53063,240.57968 658.56195,224.40101 645.41685,207.21489 C 632.27737,190.02316 623.17666,172.83479 618.12146,172.83479 z "
       style="fill:url(#XMLID_25_)" />
    <path
       id="path60"
       d="M 416.43229,363.42863 C 416.43229,363.42863 376.37564,357.26468 353.26309,380.37836 C 330.14941,403.49091 310.11546,454.33672 311.66095,469.74546 C 313.19968,485.15421 359.42591,417.35754 379.45423,412.73683 C 399.48706,408.11275 421.0575,374.21216 416.43229,363.42863 z "
       style="fill:#ffffff" />
    <path
       id="path78"
       d="M 248.831,463.265 C 248.831,463.265 207.687,459.392 194.951,463.265 C 182.214,467.135 157.723,489.399 155.764,498.111 C 153.804,506.82 200.828,507.789 212.583,504.884 C 224.339,501.982 245.894,473.91 248.831,463.265 z "
       mask="url(#XMLID_26_)"
       style="fill:#ffffff"
       transform="matrix(1.1256295,0,0,1.1256295,-41.873391,-39.54673)" />
    <path
       id="path109"
       d="M 239.908,433.522 C 239.908,433.522 220.505,423.559 212.566,425.22 C 204.63,426.88 113.614,491.41 104.796,496.388 C 92.582,503.288 118.414,523.269 126.32,531.124 C 130.941,535.715 155.725,555.532 162.781,552.214 C 169.837,548.891 182.578,543.109 194.927,540.617 C 207.275,538.126 260.272,507.969 258.429,494.954 C 257.228,486.467 214.249,522.438 202.756,522.853 C 179.913,523.68 141.125,517.371 136.714,507.41 C 132.304,497.445 144.887,479.514 151.709,475.033 C 196.606,445.532 239.908,433.522 239.908,433.522 z "
       mask="url(#XMLID_2_)"
       style="fill:#ffffff"
       transform="matrix(1.1256295,0,0,1.1256295,-41.873391,-39.54673)" />
    <path
       id="path116"
       d="M 517.5791,576.1107 C 517.5791,576.1107 481.73456,698.13344 480.82843,700.01887 C 475.70569,710.66507 466.25715,741.5152 469.51022,751.47814 C 473.34074,763.21508 487.69814,780.27963 494.39902,788.8119 C 501.09989,797.34755 503.97137,801.61368 502.05667,804.8161 C 500.1431,808.01626 475.25431,808.01626 475.25431,808.01626 C 475.25431,808.01626 456.11073,779.21366 452.27909,768.54606 C 448.45194,757.88073 446.53612,735.47957 450.36664,728.0144 C 454.19491,720.54585 517.5791,576.1107 517.5791,576.1107 z "
       style="opacity:0.18000004;fill:url(#XMLID_4_)" />
    <path
       id="polygon123"
       d="M 272.565,567.14 L 214.39,617.501 L 287.326,574.086 L 272.565,567.14 z "
       style="opacity:0.65;fill:url(#XMLID_5_)"
       transform="matrix(1.1256295,0,0,1.1256295,-41.873391,-39.54673)" />
    <path
       id="polygon130"
       d="M 329.873,549.776 L 230.887,678.282 L 344.633,558.457 L 329.873,549.776 z "
       style="opacity:0.65;fill:url(#XMLID_6_)"
       transform="matrix(1.1256295,0,0,1.1256295,-41.873391,-39.54673)" />
    <path
       id="polygon137"
       d="M 337.688,594.058 L 262.146,713.882 L 355.053,601.872 L 337.688,594.058 z "
       style="opacity:0.65;fill:url(#XMLID_7_)"
       transform="matrix(1.1256295,0,0,1.1256295,-41.873391,-39.54673)" />
    <path
       id="polygon144"
       d="M 381.97,588.847 L 318.584,737.327 L 402.809,593.19 L 381.97,588.847 z "
       style="opacity:0.65;fill:url(#XMLID_8_)"
       transform="matrix(1.1256295,0,0,1.1256295,-41.873391,-39.54673)" />
    <path
       id="polygon151"
       d="M 407.151,627.921 L 401.94,763.375 L 424.515,629.658 L 407.151,627.921 z "
       style="opacity:0.65;fill:url(#XMLID_9_)"
       transform="matrix(1.1256295,0,0,1.1256295,-41.873391,-39.54673)" />
    <path
       id="path185"
       d="M 566.303,218.317 C 607.373,264.655 592.756,249.235 589.541,263.89 C 586.325,278.548 512.629,401.164 528.704,407.028 C 544.779,412.89 567.565,414.686 586.053,402.96 C 604.542,391.235 633.438,382.73 638.259,393.721 C 643.083,404.713 610.113,404.175 599.664,409.305 C 589.215,414.434 525.003,467.462 508.928,487.247 C 492.851,507.035 435.463,593.164 429.836,628.34 C 424.207,663.514 418.582,703.819 418.582,722.87 C 418.582,741.923 384.824,749.254 342.222,743.389 C 299.62,737.529 232.901,685.496 198.338,645.192 C 163.776,604.887 271.922,544.985 278.354,523.733 C 284.786,502.481 384.553,419.303 412.542,403.68 C 439.074,388.87 554.529,205.029 566.303,218.317 z "
       mask="url(#XMLID_10_)"
       style="opacity:0.47999998;fill:url(#XMLID_12_)"
       transform="matrix(1.1256295,0,0,1.1256295,-41.873391,-39.54673)" />
     <path
     id="path214"
     d="M 495.251,279.317 C 495.251,279.317 427.161,328.038 418.318,330.515 C 409.476,332.993 347.575,331.341 341.385,334.644 C 335.195,337.947 270.642,408.964 256.494,411.441 C 242.346,413.918 237.924,446.949 250.304,462.639 C 262.684,478.329 307.782,441.994 311.32,428.783 C 314.858,415.571 322.816,377.585 338.733,366.85 C 354.65,356.115 396.212,343.728 405.939,345.38 C 415.666,347.031 471.376,302.439 471.376,302.439 C 471.376,302.439 498.79,285.924 495.251,279.317 z "
     mask="url(#XMLID_13_)"
     style="opacity:0.47999998;fill:#ffffff"
     transform="matrix(1.1256295,0,0,1.1256295,-41.873391,-39.54673)" />
  </g>
</svg>