<?xml version="1.0" encoding="UTF-8" standalone="no"?>
<!-- Created with Inkscape (http://www.inkscape.org/) -->
<svg
   xmlns:dc="http://purl.org/dc/elements/1.1/"
   xmlns:cc="http://web.resource.org/cc/"
   xmlns:rdf="http://www.w3.org/1999/02/22-rdf-syntax-ns#"
   xmlns:svg="http://www.w3.org/2000/svg"
   xmlns="http://www.w3.org/2000/svg"
   xmlns:xlink="http://www.w3.org/1999/xlink"
   xmlns:sodipodi="http://sodipodi.sourceforge.net/DTD/sodipodi-0.dtd"
   xmlns:inkscape="http://www.inkscape.org/namespaces/inkscape"
   width="14.999996"
   height="510"
   id="svg2"
   sodipodi:version="0.32"
   inkscape:version="0.45"
   version="1.0"
   sodipodi:docbase="/home/me"
   sodipodi:docname="menu_sidepixmap.svg"
   inkscape:export-filename="/home/me/menu_sidepixmap.png"
   inkscape:export-xdpi="102.00002"
   inkscape:export-ydpi="102.00002"
   inkscape:output_extension="org.inkscape.output.svg.inkscape"
   sodipodi:modified="true">
  <defs
     id="defs4">
    <linearGradient
       inkscape:collect="always"
       id="linearGradient2768">
      <stop
         style="stop-color:#5d5d5d;stop-opacity:1;"
         offset="0"
         id="stop2770" />
      <stop
         style="stop-color:#5d5d5d;stop-opacity:0;"
         offset="1"
         id="stop2772" />
    </linearGradient>
    <linearGradient
       inkscape:collect="always"
       xlink:href="#linearGradient2768"
       id="linearGradient5469"
       gradientUnits="userSpaceOnUse"
       gradientTransform="matrix(1.138209,0,0,0.245361,-554.5511,111.2407)"
       x1="7.7911639"
       y1="52.073078"
       x2="939.99493"
       y2="52.073078" />
    <linearGradient
       inkscape:collect="always"
       xlink:href="#linearGradient2768"
       id="linearGradient5484"
       gradientUnits="userSpaceOnUse"
       gradientTransform="matrix(1.138209,0,0,0.245361,-554.5511,111.2407)"
       x1="7.7911639"
       y1="52.073078"
       x2="939.99493"
       y2="52.073078" />
    <linearGradient
       inkscape:collect="always"
       xlink:href="#linearGradient2768"
       id="linearGradient5514"
       gradientUnits="userSpaceOnUse"
       gradientTransform="matrix(1.160973,0,0,0.245361,-9.199824,140.4916)"
       x1="7.7911639"
       y1="52.073078"
       x2="939.99493"
       y2="52.073078" />
    <linearGradient
       inkscape:collect="always"
       xlink:href="#linearGradient2768"
       id="linearGradient5527"
       gradientUnits="userSpaceOnUse"
       gradientTransform="matrix(1.160973,0,0,0.245361,-9.199824,140.4916)"
       x1="7.7911639"
       y1="52.073078"
       x2="939.99493"
       y2="52.073078" />
    <linearGradient
       inkscape:collect="always"
       xlink:href="#linearGradient2768"
       id="linearGradient5538"
       gradientUnits="userSpaceOnUse"
       gradientTransform="matrix(1.160973,0,0,0.245361,-9.199812,140.4916)"
       x1="7.7911639"
       y1="52.073078"
       x2="939.99493"
       y2="52.073078" />
    <linearGradient
       inkscape:collect="always"
       xlink:href="#linearGradient2768"
       id="linearGradient5581"
       gradientUnits="userSpaceOnUse"
       gradientTransform="matrix(1.160973,0,0,0.245361,-9.199812,140.4916)"
       x1="7.7911639"
       y1="52.073078"
       x2="939.99493"
       y2="52.073078" />
    <linearGradient
       inkscape:collect="always"
       xlink:href="#linearGradient2768"
       id="linearGradient5592"
       gradientUnits="userSpaceOnUse"
       gradientTransform="matrix(1.160973,0,0,0.245361,-9.199812,140.4916)"
       x1="7.7911639"
       y1="52.073078"
       x2="939.99493"
       y2="52.073078" />
    <linearGradient
       inkscape:collect="always"
       xlink:href="#linearGradient2768"
       id="linearGradient5616"
       gradientUnits="userSpaceOnUse"
       gradientTransform="matrix(1.160973,0,0,0.216501,-9.199812,142.9935)"
       x1="7.7911639"
       y1="52.073078"
       x2="939.99493"
       y2="52.073078" />
    <linearGradient
       inkscape:collect="always"
       xlink:href="#linearGradient2768"
       id="linearGradient5629"
       gradientUnits="userSpaceOnUse"
       gradientTransform="matrix(0,-1.160973,0.216501,0,265.22479,439.93452)"
       x1="7.7911639"
       y1="52.073078"
       x2="939.99493"
       y2="52.073078" />
    <linearGradient
       inkscape:collect="always"
       xlink:href="#linearGradient2768"
       id="linearGradient2191"
       gradientUnits="userSpaceOnUse"
       gradientTransform="matrix(1.160973,0,0,0.216501,-9.1998112,142.9935)"
       x1="7.7911639"
       y1="52.073078"
       x2="939.99493"
       y2="52.073078" />
    <linearGradient
       inkscape:collect="always"
       xlink:href="#linearGradient2768"
       id="linearGradient2209"
       gradientUnits="userSpaceOnUse"
       gradientTransform="matrix(1.160973,0,0,0.216501,-439.93452,265.22479)"
       x1="7.7911639"
       y1="52.073078"
       x2="939.99493"
       y2="52.073078" />
  </defs>
  <sodipodi:namedview
     id="base"
     pagecolor="white"
     bordercolor="#666666"
     borderopacity="1.0"
     gridtolerance="10000"
     guidetolerance="10"
     objecttolerance="10"
     inkscape:pageopacity="1"
     inkscape:pageshadow="2"
     inkscape:zoom="0.98994949"
     inkscape:cx="67.001876"
     inkscape:cy="219.7931"
     inkscape:document-units="px"
     inkscape:current-layer="g5618"
     showguides="true"
     inkscape:guide-bbox="true"
     inkscape:window-width="952"
     inkscape:window-height="748"
     inkscape:window-x="36"
     inkscape:window-y="20">
    <sodipodi:guide
       orientation="horizontal"
       position="1044.2857"
       id="guide5471" />
  </sodipodi:namedview>
  <metadata
     id="metadata7">
    <rdf:RDF>
      <cc:Work
         rdf:about="">
        <dc:format>image/svg+xml</dc:format>
        <dc:type
           rdf:resource="http://purl.org/dc/dcmitype/StillImage" />
      </cc:Work>
    </rdf:RDF>
  </metadata>
  <g
     inkscape:label="Layer 1"
     inkscape:groupmode="layer"
     id="layer1"
     transform="translate(-268.983,100.7483)">
    <g
       id="g5618"
       transform="translate(5.368042e-6,-8.7860108e-6)">
      <g
         id="g2215">
        <rect
           transform="matrix(0,-1,1,0,0,0)"
           style="fill:url(#linearGradient2209);fill-opacity:1;fill-rule:nonzero;stroke:none;stroke-width:1;stroke-linecap:round;stroke-linejoin:round;stroke-miterlimit:4;stroke-dasharray:none;stroke-dashoffset:0;stroke-opacity:1"
           id="rect1872"
           width="510"
           height="14.999996"
           x="-409.25171"
           y="268.983"
           inkscape:export-xdpi="102"
           inkscape:export-ydpi="102" />
        <path
           id="text2776"
           d="M -402.2814,278.63004 L -405.22086,278.63004 L -405.68472,279.95816 L -407.57437,279.95816 L -404.87418,272.66812 L -402.63297,272.66812 L -399.93277,279.95816 L -401.82242,279.95816 L -402.2814,278.63004 M -404.75211,277.2775 L -402.75504,277.2775 L -403.75113,274.37711 L -404.75211,277.2775 M -393.98062,275.39761 C -393.75927,275.05908 -393.49723,274.80192 -393.19449,274.62613 C -392.88851,274.4471 -392.55322,274.35758 -392.18863,274.35757 C -391.56038,274.35758 -391.08187,274.55126 -390.75308,274.93863 C -390.42432,275.326 -390.25993,275.88915 -390.25992,276.62808 L -390.25992,279.95816 L -392.01773,279.95816 L -392.01773,277.1066 C -392.01448,277.06428 -392.01286,277.02034 -392.01285,276.97476 C -392.0096,276.92919 -392.00797,276.86409 -392.00797,276.77945 C -392.00797,276.39208 -392.06494,276.11214 -392.17886,275.93961 C -392.2928,275.76383 -392.47672,275.67594 -392.73062,275.67593 C -393.06266,275.67594 -393.31982,275.81266 -393.50211,276.08609 C -393.68115,276.35953 -393.77392,276.75504 -393.78043,277.27261 L -393.78043,279.95816 L -395.53824,279.95816 L -395.53824,277.1066 C -395.53824,276.50113 -395.59033,276.11214 -395.69449,275.93961 C -395.79866,275.76383 -395.98421,275.67594 -396.25113,275.67593 C -396.58642,275.67594 -396.84521,275.81428 -397.0275,276.09097 C -397.20979,276.36441 -397.30094,276.75667 -397.30093,277.26773 L -397.30093,279.95816 L -399.05875,279.95816 L -399.05875,274.48941 L -397.30093,274.48941 L -397.30093,275.29019 C -397.08609,274.98095 -396.84032,274.7482 -396.56363,274.59195 C -396.28368,274.4357 -395.97607,274.35758 -395.64078,274.35757 C -395.26318,274.35758 -394.92952,274.44873 -394.6398,274.63101 C -394.35009,274.81331 -394.13037,275.06884 -393.98062,275.39761 M -386.16812,277.49722 C -386.53271,277.49723 -386.80777,277.55907 -386.99332,277.68277 C -387.17561,277.80647 -387.26676,277.98876 -387.26675,278.22964 C -387.26676,278.451 -387.19351,278.62515 -387.04703,278.75211 C -386.89729,278.8758 -386.69059,278.93765 -386.42691,278.93765 C -386.09814,278.93765 -385.82145,278.82047 -385.59683,278.58609 C -385.37223,278.34846 -385.25992,278.05224 -385.25992,277.69742 L -385.25992,277.49722 L -386.16812,277.49722 M -383.49722,276.83804 L -383.49722,279.95816 L -385.25992,279.95816 L -385.25992,279.14761 C -385.4943,279.47965 -385.75797,279.72216 -386.05093,279.87515 C -386.34391,280.02489 -386.70035,280.09976 -387.12027,280.09976 C -387.68668,280.09976 -388.14729,279.93537 -388.50211,279.6066 C -388.85367,279.27457 -389.02945,278.84488 -389.02945,278.31754 C -389.02945,277.67626 -388.80972,277.20588 -388.37027,276.9064 C -387.92756,276.60693 -387.2342,276.45719 -386.29019,276.45718 L -385.25992,276.45718 L -385.25992,276.32047 C -385.25992,276.04378 -385.36897,275.84195 -385.58707,275.715 C -385.80517,275.58479 -386.14534,275.51969 -386.60757,275.51968 C -386.98193,275.51969 -387.33023,275.55712 -387.6525,275.63199 C -387.97476,275.70686 -388.27424,275.81917 -388.55093,275.9689 L -388.55093,274.63589 C -388.17659,274.54475 -387.80061,274.4764 -387.423,274.43082 C -387.0454,274.38199 -386.6678,274.35758 -386.29019,274.35757 C -385.30387,274.35758 -384.59261,274.55289 -384.1564,274.94351 C -383.71696,275.33089 -383.49723,275.9624 -383.49722,276.83804 M -377.79898,275.97867 C -377.95198,275.90706 -378.10497,275.85497 -378.25797,275.82242 C -378.40771,275.78662 -378.55908,275.76871 -378.71207,275.76871 C -379.16129,275.76871 -379.50797,275.91357 -379.75211,276.20328 C -379.99299,276.48974 -380.11344,276.90152 -380.11343,277.43863 L -380.11343,279.95816 L -381.86148,279.95816 L -381.86148,274.48941 L -380.11343,274.48941 L -380.11343,275.38785 C -379.88883,275.02978 -379.63167,274.76936 -379.34195,274.6066 C -379.04898,274.44059 -378.69905,274.35758 -378.29214,274.35757 C -378.23356,274.35758 -378.17008,274.36084 -378.10172,274.36734 C -378.03336,274.3706 -377.93408,274.38037 -377.80386,274.39664 L -377.79898,275.97867 M -374.31754,275.60757 C -374.70491,275.60758 -375.00113,275.74755 -375.20621,276.0275 C -375.40803,276.30419 -375.50894,276.70458 -375.50894,277.22867 C -375.50894,277.75276 -375.40803,278.15478 -375.20621,278.43472 C -375.00113,278.71142 -374.70491,278.84976 -374.31754,278.84976 C -373.93668,278.84976 -373.64534,278.71142 -373.44351,278.43472 C -373.24169,278.15478 -373.14078,277.75276 -373.14078,277.22867 C -373.14078,276.70458 -373.24169,276.30419 -373.44351,276.0275 C -373.64534,275.74755 -373.93668,275.60758 -374.31754,275.60757 M -374.31754,274.35757 C -373.37678,274.35758 -372.64274,274.61149 -372.11539,275.11929 C -371.58479,275.62711 -371.31949,276.33023 -371.31949,277.22867 C -371.31949,278.12711 -371.58479,278.83023 -372.11539,279.33804 C -372.64274,279.84586 -373.37678,280.09976 -374.31754,280.09976 C -375.26155,280.09976 -376.00048,279.84586 -376.53433,279.33804 C -377.06493,278.83023 -377.33023,278.12711 -377.33023,277.22867 C -377.33023,276.33023 -377.06493,275.62711 -376.53433,275.11929 C -376.00048,274.61149 -375.26155,274.35758 -374.31754,274.35757 M -370.04507,272.3605 L -368.29703,272.3605 L -368.29703,276.49625 L -366.28531,274.48941 L -364.25406,274.48941 L -366.92496,276.99918 L -364.0441,279.95816 L -366.16324,279.95816 L -368.29703,277.67789 L -368.29703,279.95816 L -370.04507,279.95816 L -370.04507,272.3605"
           style="font-size:10px;font-style:normal;font-weight:bold;fill:#ffffff;fill-opacity:1;stroke:none;stroke-width:1px;stroke-linecap:butt;stroke-linejoin:miter;stroke-opacity:1;font-family:DejaVu Sans"
           transform="matrix(0,-1,1,0,0,0)" />
        <path
           id="text2780"
           d="M -359.3642,279.43231 L -355.92181,279.43231 L -355.92181,280.26239 L -360.55072,280.26239 L -360.55072,279.43231 C -360.17637,279.04494 -359.66693,278.52574 -359.0224,277.87469 C -358.37462,277.2204 -357.96772,276.79885 -357.8017,276.61005 C -357.48595,276.25523 -357.26622,275.95575 -357.14252,275.71161 C -357.01557,275.46422 -356.95209,275.22171 -356.95209,274.98407 C -356.95209,274.59671 -357.08881,274.28095 -357.36224,274.0368 C -357.63243,273.79267 -357.98562,273.6706 -358.42181,273.67059 C -358.73106,273.6706 -359.05821,273.72431 -359.40326,273.83173 C -359.74506,273.93915 -360.11127,274.10191 -360.50189,274.32001 L -360.50189,273.32391 C -360.10476,273.16442 -359.73366,273.04397 -359.38861,272.96259 C -359.04356,272.88121 -358.72781,272.84052 -358.44135,272.84052 C -357.68614,272.84052 -357.08393,273.02932 -356.6347,273.40692 C -356.18549,273.78453 -355.96088,274.28909 -355.96088,274.92059 C -355.96088,275.22008 -356.01785,275.50491 -356.13177,275.77509 C -356.24246,276.04202 -356.44591,276.35777 -356.74213,276.72235 C -356.82351,276.81676 -357.0823,277.09019 -357.51849,277.54266 C -357.95469,277.99188 -358.56993,278.62177 -359.3642,279.43231 M -353.84662,279.02216 L -352.81635,279.02216 L -352.81635,280.26239 L -353.84662,280.26239 L -353.84662,279.02216 M -348.55365,273.62177 C -349.06147,273.62177 -349.44395,273.87242 -349.70111,274.37372 C -349.95502,274.87177 -350.08197,275.6221 -350.08197,276.62469 C -350.08197,277.62405 -349.95502,278.37437 -349.70111,278.87567 C -349.44395,279.37372 -349.06147,279.62274 -348.55365,279.62274 C -348.04259,279.62274 -347.6601,279.37372 -347.40619,278.87567 C -347.14903,278.37437 -347.02045,277.62405 -347.02045,276.62469 C -347.02045,275.6221 -347.14903,274.87177 -347.40619,274.37372 C -347.6601,273.87242 -348.04259,273.62177 -348.55365,273.62177 M -348.55365,272.84052 C -347.7366,272.84052 -347.11322,273.16442 -346.68353,273.81219 C -346.2506,274.45673 -346.03412,275.39423 -346.03412,276.62469 C -346.03412,277.85191 -346.2506,278.78941 -346.68353,279.43719 C -347.11322,280.08173 -347.7366,280.40399 -348.55365,280.40399 C -349.37071,280.40399 -349.99571,280.08173 -350.42865,279.43719 C -350.85834,278.78941 -351.07318,277.85191 -351.07318,276.62469 C -351.07318,275.39423 -350.85834,274.45673 -350.42865,273.81219 C -349.99571,273.16442 -349.37071,272.84052 -348.55365,272.84052"
           style="font-size:10px;font-style:normal;font-variant:normal;font-weight:normal;font-stretch:normal;text-align:start;line-height:100%;writing-mode:lr-tb;text-anchor:start;fill:#d8d8d8;fill-opacity:1;stroke:none;stroke-width:1px;stroke-linecap:butt;stroke-linejoin:miter;stroke-opacity:1;font-family:Kabel"
           transform="matrix(0,-1,1,0,0,0)" />
        <path
           id="text2784"
           d="M -341.87909,275.77905 L -338.1994,275.77905 L -338.1994,277.48413 L -341.87909,277.48413 L -341.87909,275.77905"
           style="font-style:normal;font-weight:bold;fill:#d8d8d8;fill-opacity:1;stroke:none;stroke-width:1px;stroke-linecap:butt;stroke-linejoin:miter;stroke-opacity:1;font-family:DejaVu Sans"
           transform="matrix(0,-1,1,0,0,0)" />
        <path
           id="text2788"
           d="M -331.18909,275.99185 C -331.63831,275.99186 -332.00615,276.20019 -332.2926,276.61685 C -332.57581,277.03027 -332.71741,277.569 -332.71741,278.23306 C -332.71741,278.53254 -332.63766,278.76855 -332.47815,278.94107 C -332.31539,279.11034 -332.09078,279.19498 -331.80432,279.19498 C -331.36487,279.19498 -331.00192,278.99153 -330.71545,278.58463 C -330.429,278.17447 -330.28577,277.65038 -330.28577,277.01236 C -330.28577,276.68033 -330.3639,276.42805 -330.52014,276.25552 C -330.67314,276.07975 -330.89612,275.99186 -331.18909,275.99185 M -333.02502,279.53189 L -333.18616,280.32291 L -334.93909,280.32291 L -333.46448,272.72525 L -331.70667,272.72525 L -332.27795,275.65494 C -332.01103,275.33593 -331.73108,275.10156 -331.43811,274.95181 C -331.14515,274.79882 -330.82451,274.72233 -330.4762,274.72232 C -329.86097,274.72233 -329.37431,274.91764 -329.01624,275.30826 C -328.65817,275.69889 -328.47913,276.23111 -328.47913,276.90494 C -328.47913,277.32486 -328.54261,277.73339 -328.66956,278.13052 C -328.79326,278.52766 -328.9723,278.88899 -329.20667,279.21451 C -329.50289,279.62467 -329.83818,279.93554 -330.21252,280.14713 C -330.58362,280.35871 -330.98239,280.46451 -331.40881,280.46451 C -331.78317,280.46451 -332.10218,280.38964 -332.36584,280.2399 C -332.62626,280.0869 -332.84599,279.8509 -333.02502,279.53189 M -322.93713,276.34341 C -323.05758,276.27506 -323.19104,276.22298 -323.33752,276.18716 C -323.48401,276.15136 -323.64189,276.13346 -323.81116,276.13345 C -324.25712,276.13346 -324.62822,276.27669 -324.92444,276.56314 C -325.21741,276.8496 -325.41598,277.26301 -325.52014,277.80338 L -326.01819,280.32291 L -327.77112,280.32291 L -326.70667,274.85416 L -324.94885,274.85416 L -325.13928,275.79166 C -324.90817,275.44661 -324.62008,275.18294 -324.27502,275.00064 C -323.92672,274.8151 -323.54098,274.72233 -323.1178,274.72232 C -323.05595,274.72233 -322.98597,274.72558 -322.90784,274.73209 C -322.82972,274.7386 -322.73694,274.74837 -322.62952,274.76138 L -322.93713,276.34341 M -320.14905,279.18521 C -319.8984,279.18521 -319.67705,279.11034 -319.48499,278.9606 C -319.28968,278.81086 -319.12692,278.59114 -318.9967,278.30142 C -318.90556,278.09635 -318.82255,277.8636 -318.74768,277.60318 C -318.67282,277.33951 -318.60283,277.02864 -318.53772,276.67056 C -318.48239,276.38085 -318.44007,276.11393 -318.41077,275.86978 C -318.38147,275.62565 -318.36683,275.41731 -318.36682,275.24478 C -318.36683,274.8802 -318.43193,274.61328 -318.56213,274.444 C -318.69235,274.27148 -318.89417,274.18522 -319.1676,274.18521 C -319.42151,274.18522 -319.64449,274.25846 -319.83655,274.40494 C -320.02861,274.54817 -320.18811,274.7679 -320.31506,275.06412 C -320.41272,275.27571 -320.50224,275.5166 -320.58362,275.78677 C -320.66175,276.05696 -320.7301,276.35156 -320.7887,276.67056 C -320.84404,276.96353 -320.88635,277.23534 -320.91565,277.48599 C -320.94495,277.73665 -320.9596,277.94823 -320.95959,278.12076 C -320.9596,278.48209 -320.89287,278.75064 -320.7594,278.92642 C -320.62594,279.09895 -320.42249,279.18521 -320.14905,279.18521 M -316.53577,275.5231 C -316.53577,276.17089 -316.62529,276.80077 -316.80432,277.41275 C -316.98336,278.02473 -317.23401,278.56184 -317.55627,279.02408 C -317.88506,279.49934 -318.28219,279.85904 -318.74768,280.10318 C -319.21318,280.34407 -319.73238,280.46451 -320.3053,280.46451 C -321.10283,280.46451 -321.7148,280.23827 -322.14124,279.7858 C -322.56441,279.33332 -322.776,278.68228 -322.776,277.83267 C -322.776,277.19465 -322.68811,276.56966 -322.51233,275.95767 C -322.33329,275.34244 -322.08427,274.80696 -321.76526,274.35123 C -321.42997,273.87272 -321.03121,273.51139 -320.56897,273.26724 C -320.10673,273.02311 -319.5859,272.90104 -319.00647,272.90103 C -318.21546,272.90104 -317.60674,273.1289 -317.1803,273.58463 C -316.75062,274.03711 -316.53577,274.68326 -316.53577,275.5231 M -314.40198,272.72525 L -312.64417,272.72525 L -313.44495,276.84146 L -311.08655,274.85416 L -309.026,274.85416 L -312.20471,277.38345 L -309.89514,280.32291 L -311.89221,280.32291 L -313.66467,277.96451 L -314.12366,280.32291 L -315.87659,280.32291 L -314.40198,272.72525 M -303.59143,277.79361 L -303.65002,278.07193 L -307.74182,278.07193 C -307.74182,278.09146 -307.74345,278.12076 -307.7467,278.15982 C -307.74996,278.19563 -307.75159,278.2233 -307.75159,278.24283 C -307.75159,278.59765 -307.64579,278.86295 -307.4342,279.03873 C -307.21936,279.21451 -306.89873,279.3024 -306.47229,279.3024 C -306.10446,279.3024 -305.71709,279.24706 -305.31018,279.13638 C -304.90003,279.02571 -304.47034,278.86132 -304.02112,278.64322 L -304.28967,280.00064 C -304.71611,280.15689 -305.14091,280.27245 -305.56409,280.34732 C -305.98401,280.42545 -306.41207,280.46451 -306.84827,280.46451 C -307.70113,280.46451 -308.36031,280.26757 -308.82581,279.87369 C -309.28805,279.47981 -309.51917,278.92317 -309.51917,278.20377 C -309.51917,277.7871 -309.44592,277.38346 -309.29944,276.99283 C -309.1497,276.59895 -308.93323,276.23925 -308.65002,275.91373 C -308.31474,275.52311 -307.91435,275.22688 -307.44885,275.02505 C -306.98011,274.82324 -306.4609,274.72233 -305.89124,274.72232 C -305.15231,274.72233 -304.56637,274.91927 -304.13342,275.31314 C -303.69723,275.70703 -303.47913,276.23762 -303.47913,276.90494 C -303.47913,277.03515 -303.4889,277.1735 -303.50842,277.31998 C -303.52471,277.46321 -303.55237,277.62109 -303.59143,277.79361 M -305.24182,276.99283 C -305.23206,276.95051 -305.22555,276.9082 -305.22229,276.86588 C -305.21578,276.82031 -305.21253,276.77636 -305.21252,276.73404 C -305.21253,276.47363 -305.29065,276.26692 -305.4469,276.11392 C -305.60315,275.96093 -305.81474,275.88443 -306.08167,275.88443 C -306.42347,275.88443 -306.71481,275.97884 -306.95569,276.16763 C -307.19332,276.35318 -307.37561,276.62825 -307.50256,276.99283 L -305.24182,276.99283 M -296.65295,276.99283 L -297.30237,280.32291 L -299.0553,280.32291 L -298.50354,277.47134 C -298.46448,277.2858 -298.43519,277.12955 -298.41565,277.00259 C -298.39287,276.87239 -298.38147,276.76985 -298.38147,276.69498 C -298.38147,276.48665 -298.44007,276.32551 -298.55725,276.21158 C -298.67119,276.09765 -298.83395,276.04068 -299.04553,276.04068 C -299.40686,276.04068 -299.71774,276.18229 -299.97815,276.46548 C -300.23531,276.74544 -300.41435,277.13443 -300.51526,277.63248 L -301.0426,280.32291 L -302.79553,280.32291 L -301.73108,274.85416 L -299.97327,274.85416 L -300.1344,275.65494 C -299.81214,275.33919 -299.48824,275.10481 -299.16272,274.95181 C -298.8372,274.79882 -298.49703,274.72233 -298.14221,274.72232 C -297.63766,274.72233 -297.24866,274.85416 -296.97522,275.11783 C -296.70179,275.38151 -296.56507,275.7526 -296.56506,276.23111 C -296.56507,276.33528 -296.57321,276.45084 -296.58948,276.57779 C -296.6025,276.70475 -296.62366,276.84309 -296.65295,276.99283 M -286.22815,275.76236 C -285.95797,275.42708 -285.65198,275.16992 -285.31018,274.99088 C -284.96514,274.81184 -284.60706,274.72233 -284.23596,274.72232 C -283.74769,274.72233 -283.36358,274.85742 -283.08362,275.12759 C -282.80042,275.39453 -282.65882,275.76236 -282.65881,276.23111 C -282.65882,276.32877 -282.66696,276.44107 -282.68323,276.56802 C -282.69626,276.69173 -282.71742,276.83333 -282.7467,276.99283 L -283.39612,280.32291 L -285.15881,280.32291 L -284.60706,277.47134 L -284.59241,277.3981 C -284.50778,276.99446 -284.46546,276.73567 -284.46545,276.62173 C -284.46546,276.4427 -284.51755,276.3011 -284.6217,276.19693 C -284.72262,276.09277 -284.86097,276.04068 -285.03674,276.04068 C -285.37204,276.04068 -285.65687,276.17903 -285.89124,276.45572 C -286.12236,276.72916 -286.28838,277.12141 -286.38928,277.63248 L -286.91663,280.32291 L -288.67932,280.32291 L -288.1178,277.47134 C -288.06897,277.22721 -288.03479,277.04329 -288.01526,276.91959 C -287.99573,276.79264 -287.98597,276.69335 -287.98596,276.62173 C -287.98597,276.43945 -288.03642,276.29785 -288.13733,276.19693 C -288.23824,276.09277 -288.37822,276.04068 -288.55725,276.04068 C -288.87952,276.04068 -289.16272,276.18391 -289.40686,276.47037 C -289.64775,276.75357 -289.81539,277.14094 -289.90979,277.63248 L -290.43713,280.32291 L -292.19006,280.32291 L -291.12561,274.85416 L -289.3678,274.85416 L -289.52893,275.65494 C -289.2555,275.3457 -288.96416,275.11295 -288.65491,274.9567 C -288.34567,274.80045 -288.0234,274.72233 -287.68811,274.72232 C -287.31051,274.72233 -286.98662,274.81998 -286.71643,275.01529 C -286.44625,275.20735 -286.28349,275.45637 -286.22815,275.76236 M -278.31799,275.97232 C -278.77047,275.97232 -279.14319,276.1774 -279.43616,276.58755 C -279.72913,276.99771 -279.87561,277.52017 -279.87561,278.15494 C -279.87561,278.49999 -279.79749,278.76366 -279.64124,278.94595 C -279.48173,279.12499 -279.25061,279.21451 -278.94788,279.21451 C -278.49541,279.21451 -278.12268,279.00943 -277.82971,278.59927 C -277.53675,278.18586 -277.39026,277.66015 -277.39026,277.02213 C -277.39026,276.68033 -277.47002,276.41992 -277.62952,276.24088 C -277.78577,276.06184 -278.01526,275.97232 -278.31799,275.97232 M -278.17639,274.72232 C -277.36259,274.72233 -276.72295,274.92903 -276.25745,275.34244 C -275.79196,275.75585 -275.55921,276.319 -275.5592,277.03189 C -275.55921,277.44531 -275.63245,277.84732 -275.77893,278.23795 C -275.92542,278.62532 -276.13864,278.98013 -276.41858,279.3024 C -276.75062,279.68651 -277.14287,279.97623 -277.59534,280.17154 C -278.04781,280.36685 -278.55237,280.46451 -279.10901,280.46451 C -279.91305,280.46451 -280.54781,280.2578 -281.01331,279.84439 C -281.47555,279.43098 -281.70667,278.86783 -281.70667,278.15494 C -281.70667,277.74478 -281.6318,277.34439 -281.48206,276.95377 C -281.33232,276.55989 -281.11747,276.20019 -280.83752,275.87466 C -280.51201,275.49706 -280.12464,275.21061 -279.67542,275.01529 C -279.22294,274.81998 -278.72327,274.72233 -278.17639,274.72232 M -272.1217,279.19498 C -271.67249,279.19498 -271.30791,278.98827 -271.02795,278.57486 C -270.74476,278.16145 -270.60315,277.62109 -270.60315,276.95377 C -270.60315,276.65104 -270.68291,276.41503 -270.84241,276.24576 C -270.99866,276.07649 -271.21839,275.99186 -271.50159,275.99185 C -271.9443,275.99186 -272.30888,276.19693 -272.59534,276.60709 C -272.8818,277.01399 -273.02503,277.53645 -273.02502,278.17447 C -273.02503,278.5065 -272.94853,278.76041 -272.79553,278.93619 C -272.63928,279.10872 -272.41468,279.19498 -272.1217,279.19498 M -270.28088,275.65494 L -269.71448,272.72525 L -267.95178,272.72525 L -269.43127,280.32291 L -271.19397,280.32291 L -271.03284,279.53189 C -271.29977,279.8509 -271.57972,280.0869 -271.87268,280.2399 C -272.16565,280.38964 -272.48629,280.46451 -272.83459,280.46451 C -273.44983,280.46451 -273.93648,280.2692 -274.29456,279.87857 C -274.65263,279.48795 -274.83167,278.95572 -274.83167,278.28189 C -274.83167,277.86197 -274.76982,277.45344 -274.64612,277.0563 C -274.51917,276.65917 -274.3385,276.29785 -274.10413,275.97232 C -273.8079,275.56217 -273.47424,275.2513 -273.10315,275.0397 C -272.7288,274.82812 -272.32841,274.72233 -271.90198,274.72232 C -271.52763,274.72233 -271.21025,274.79882 -270.94983,274.95181 C -270.68616,275.10156 -270.46318,275.33593 -270.28088,275.65494 M -261.73596,277.79361 L -261.79456,278.07193 L -265.88635,278.07193 C -265.88635,278.09146 -265.88798,278.12076 -265.89124,278.15982 C -265.89449,278.19563 -265.89612,278.2233 -265.89612,278.24283 C -265.89612,278.59765 -265.79033,278.86295 -265.57874,279.03873 C -265.36389,279.21451 -265.04326,279.3024 -264.61682,279.3024 C -264.24899,279.3024 -263.86162,279.24706 -263.45471,279.13638 C -263.04456,279.02571 -262.61487,278.86132 -262.16565,278.64322 L -262.4342,280.00064 C -262.86064,280.15689 -263.28545,280.27245 -263.70862,280.34732 C -264.12854,280.42545 -264.5566,280.46451 -264.9928,280.46451 C -265.84566,280.46451 -266.50484,280.26757 -266.97034,279.87369 C -267.43258,279.47981 -267.6637,278.92317 -267.6637,278.20377 C -267.6637,277.7871 -267.59045,277.38346 -267.44397,276.99283 C -267.29423,276.59895 -267.07776,276.23925 -266.79456,275.91373 C -266.45927,275.52311 -266.05888,275.22688 -265.59338,275.02505 C -265.12464,274.82324 -264.60543,274.72233 -264.03577,274.72232 C -263.29684,274.72233 -262.7109,274.91927 -262.27795,275.31314 C -261.84176,275.70703 -261.62366,276.23762 -261.62366,276.90494 C -261.62366,277.03515 -261.63343,277.1735 -261.65295,277.31998 C -261.66924,277.46321 -261.69691,277.62109 -261.73596,277.79361 M -263.38635,276.99283 C -263.37659,276.95051 -263.37008,276.9082 -263.36682,276.86588 C -263.36032,276.82031 -263.35706,276.77636 -263.35706,276.73404 C -263.35706,276.47363 -263.43519,276.26692 -263.59143,276.11392 C -263.74768,275.96093 -263.95927,275.88443 -264.2262,275.88443 C -264.568,275.88443 -264.85934,275.97884 -265.10022,276.16763 C -265.33785,276.35318 -265.52014,276.62825 -265.64709,276.99283 L -263.38635,276.99283"
           style="font-size:10px;font-style:oblique;font-variant:normal;font-weight:bold;font-stretch:normal;text-align:start;line-height:125%;writing-mode:lr-tb;text-anchor:start;fill:#d8d8d8;fill-opacity:1;stroke:none;stroke-width:1px;stroke-linecap:butt;stroke-linejoin:miter;stroke-opacity:1;font-family:DejaVu Sans"
           transform="matrix(0,-1,1,0,0,0)" />
      </g>
    </g>
  </g>
</svg>
