<?xml version="1.0" encoding="UTF-8" standalone="no"?>
<!-- Generator: Adobe Illustrator 12.0.0, SVG Export Plug-In . SVG Version: 6.00 Build 51448)  -->
<svg
   xmlns:dc="http://purl.org/dc/elements/1.1/"
   xmlns:cc="http://creativecommons.org/ns#"
   xmlns:rdf="http://www.w3.org/1999/02/22-rdf-syntax-ns#"
   xmlns:svg="http://www.w3.org/2000/svg"
   xmlns="http://www.w3.org/2000/svg"
   xmlns:sodipodi="http://sodipodi.sourceforge.net/DTD/sodipodi-0.dtd"
   xmlns:inkscape="http://www.inkscape.org/namespaces/inkscape"
   version="1.0"
   width="19"
   height="25"
   overflow="visible"
   xml:space="preserve"
   id="svg2"
   sodipodi:version="0.32"
   inkscape:version="0.46"
   sodipodi:docname="OsdBackground.svg"
   inkscape:output_extension="org.inkscape.output.svg.inkscape"
   sodipodi:docbase="/opt/svn/krunner-gefa/desktoptheme/dialogs"
   style="overflow:visible"><metadata
     id="metadata34"><rdf:RDF><cc:Work
         rdf:about=""><dc:format>image/svg+xml</dc:format><dc:type
           rdf:resource="http://purl.org/dc/dcmitype/StillImage" /></cc:Work></rdf:RDF></metadata><defs
     id="defs228" /><sodipodi:namedview
     inkscape:window-height="739"
     inkscape:window-width="1280"
     inkscape:pageshadow="2"
     inkscape:pageopacity="0.0"
     guidetolerance="10.0"
     gridtolerance="10.0"
     objecttolerance="10.0"
     borderopacity="1.0"
     bordercolor="#666666"
     pagecolor="#ffffff"
     id="base"
     inkscape:zoom="28.963094"
     inkscape:cx="9.3488414"
     inkscape:cy="11.49571"
     inkscape:window-x="150"
     inkscape:window-y="75"
     inkscape:current-layer="svg2"
     showgrid="true"
     borderlayer="false"><inkscape:grid
       type="xygrid"
       id="grid3217"
       visible="true"
       enabled="true" /></sodipodi:namedview><g
     style="overflow:visible"
     id="top"
     transform="matrix(0.9960096,0,0,0.7135417,-19.844377,4.2856495)"
     inkscape:label="#g2390"
     height="15">
	<rect
   style="opacity:0.6;fill:#000069;fill-opacity:1;stroke:none"
   x="28.959936"
   y="1.0010523"
   width="1.0040061"
   height="14.014727"
   id="rect2392" />
	
	
</g><g
     style="overflow:visible"
     id="bottomright"
     transform="matrix(1.438681,0,0,1.2487001,-47.272838,-109.90429)"
     inkscape:label="#g2404">
	<path
   style="opacity:0.6;fill:#000069;fill-opacity:1;stroke:none"
   d="M 39.809266,100.82824 L 47.841316,100.82824 C 47.841316,105.22824 44.209266,108.83661 39.809266,108.83661 L 39.809266,100.82824 z"
   id="path2406"
   sodipodi:nodetypes="cccc" />
	
</g><g
     style="overflow:visible"
     id="bottom"
     inkscape:label="#g2472"
     transform="matrix(0.9960096,0,0,1.2486995,-248.83072,-120.25044)"><rect
       style="opacity:0.6;fill:#000069;fill-opacity:1;stroke:none"
       x="258.86368"
       y="109.11384"
       width="1.0038017"
       height="8.00846"
       id="rect2412" /></g><g
     style="overflow:visible"
     id="right"
     transform="matrix(6.9815339e-2,0,0,4.8333165e-2,-18.889107,19.634231)"
     inkscape:label="#g3336"><rect
       transform="matrix(0,-1,1,0,0,0)"
       id="rect2431"
       height="165.59985"
       width="20.689629"
       y="413.79309"
       x="75.192436"
       style="opacity:0.6;fill:#000069;fill-opacity:1;stroke:none" /></g><g
     style="overflow:visible"
     inkscape:label="#g2374"
     transform="matrix(1.2468726,0,0,-1.248701,-1.9290778,28.701443)"
     id="bottomleft">
	<path
   id="path3275"
   d="M 8.7651919,10.171771 L 0.73314234,10.171771 C 0.73314234,5.7717714 4.3651919,2.1634025 8.7651919,2.1634025 L 8.7651919,10.171771 z"
   style="opacity:0.6;fill:#000069;fill-opacity:1;stroke:none"
   sodipodi:nodetypes="cccc" />
	
	
</g><g
     style="overflow:visible"
     id="left"
     transform="matrix(6.0416657e-2,0,0,4.8333165e-2,-2.2450107,19.750017)"
     inkscape:label="#g3340"><rect
       style="opacity:0.6;fill:#000069;fill-opacity:1;stroke:none"
       x="77.586212"
       y="20.607077"
       width="20.689655"
       height="165.51724"
       id="rect3334"
       transform="matrix(0,-1,1,0,0,0)" /></g><path
     style="opacity:0.6;fill:#000069;fill-opacity:1;stroke:none"
     d="M 9,15 L 10,15 L 10,16 L 9,16 L 9,15 z"
     id="center" /><g
     style="overflow:visible"
     inkscape:label="#g2374"
     transform="matrix(1.2450123,0,0,1.2486898,-1.9127712,2.2985813)"
     id="topleft">
	<path
   id="path2409"
   d="M 8.7651919,10.171771 L 0.73314234,10.171771 C 0.73314234,5.7717714 4.3651919,2.1634025 8.7651919,2.1634025 L 8.7651919,10.171771 z"
   style="opacity:0.6;fill:#000069;fill-opacity:1;stroke:none"
   sodipodi:nodetypes="cccc" />
	
	
</g><g
     style="overflow:visible"
     id="topright"
     transform="matrix(1.4386807,0,0,-1.2486888,-47.27282,140.90305)"
     inkscape:label="#g2404">
	<path
   style="opacity:0.6;fill:#000069;fill-opacity:1;stroke:none"
   d="M 39.809266,100.82824 L 47.841316,100.82824 C 47.841316,105.22824 44.209266,108.83661 39.809266,108.83661 L 39.809266,100.82824 z"
   id="path2415"
   sodipodi:nodetypes="cccc" />
	
</g></svg>