<?xml version="1.0" encoding="UTF-8" standalone="no"?>
<!-- Created with Inkscape (http://www.inkscape.org/) -->
<svg
   xmlns:dc="http://purl.org/dc/elements/1.1/"
   xmlns:cc="http://web.resource.org/cc/"
   xmlns:rdf="http://www.w3.org/1999/02/22-rdf-syntax-ns#"
   xmlns:svg="http://www.w3.org/2000/svg"
   xmlns="http://www.w3.org/2000/svg"
   xmlns:xlink="http://www.w3.org/1999/xlink"
   xmlns:sodipodi="http://sodipodi.sourceforge.net/DTD/sodipodi-0.dtd"
   xmlns:inkscape="http://www.inkscape.org/namespaces/inkscape"
   width="630.04346"
   height="322.79584"
   id="svg2465"
   sodipodi:version="0.32"
   inkscape:version="0.45.1"
   sodipodi:docbase="/home/amarok-dev/amarok/src/images"
   sodipodi:docname="playlist_items.svg"
   inkscape:output_extension="org.inkscape.output.svg.inkscape"
   version="1.0">
  <defs
     id="defs2467">
    <linearGradient
       inkscape:collect="always"
       id="linearGradient3447">
      <stop
         style="stop-color:#2e3436;stop-opacity:1;"
         offset="0"
         id="stop3449" />
      <stop
         style="stop-color:#2e3436;stop-opacity:0;"
         offset="1"
         id="stop3451" />
    </linearGradient>
    <linearGradient
       inkscape:collect="always"
       id="linearGradient3431">
      <stop
         style="stop-color:#babdb6;stop-opacity:1;"
         offset="0"
         id="stop3433" />
      <stop
         style="stop-color:#babdb6;stop-opacity:0;"
         offset="1"
         id="stop3435" />
    </linearGradient>
    <linearGradient
       id="linearGradient3450">
      <stop
         id="stop3452"
         offset="0"
         style="stop-color:#fdfdfd;stop-opacity:1" />
      <stop
         id="stop3454"
         offset="1"
         style="stop-color:#fdfdfd;stop-opacity:0" />
    </linearGradient>
    <linearGradient
       inkscape:collect="always"
       xlink:href="#linearGradient3450"
       id="linearGradient8725"
       gradientUnits="userSpaceOnUse"
       x1="585.35638"
       y1="414.90317"
       x2="585.9071"
       y2="479.95697"
       gradientTransform="translate(-455,-144.06354)" />
    <linearGradient
       inkscape:collect="always"
       xlink:href="#linearGradient3450"
       id="linearGradient8731"
       gradientUnits="userSpaceOnUse"
       x1="585.35638"
       y1="414.90317"
       x2="585.9071"
       y2="479.95697"
       gradientTransform="translate(-455,-144.06354)" />
    <linearGradient
       inkscape:collect="always"
       xlink:href="#linearGradient3450"
       id="linearGradient8734"
       gradientUnits="userSpaceOnUse"
       x1="585.35638"
       y1="414.90317"
       x2="585.9071"
       y2="479.95697"
       gradientTransform="translate(-455,-144.06354)" />
    <linearGradient
       inkscape:collect="always"
       xlink:href="#linearGradient3450"
       id="linearGradient8737"
       gradientUnits="userSpaceOnUse"
       x1="585.35638"
       y1="414.90317"
       x2="585.9071"
       y2="479.95697"
       gradientTransform="translate(-455,-144.06354)" />
    <linearGradient
       inkscape:collect="always"
       xlink:href="#linearGradient3450"
       id="linearGradient8780"
       gradientUnits="userSpaceOnUse"
       gradientTransform="matrix(0.9945584,0,0,1,-332.35712,0.3957932)"
       x1="585.35638"
       y1="414.90317"
       x2="585.9071"
       y2="479.95697" />
    <linearGradient
       inkscape:collect="always"
       xlink:href="#linearGradient3447"
       id="linearGradient8786"
       gradientUnits="userSpaceOnUse"
       gradientTransform="matrix(1,0,0,-1.0207337,-90.4375,723.06663)"
       x1="375"
       y1="97.781242"
       x2="375"
       y2="117.375" />
    <linearGradient
       inkscape:collect="always"
       xlink:href="#linearGradient3450"
       id="linearGradient9758"
       gradientUnits="userSpaceOnUse"
       x1="585.35638"
       y1="414.90317"
       x2="585.9071"
       y2="479.95697" />
    <linearGradient
       inkscape:collect="always"
       xlink:href="#linearGradient3450"
       id="linearGradient9764"
       gradientUnits="userSpaceOnUse"
       x1="585.35638"
       y1="414.90317"
       x2="585.9071"
       y2="479.95697" />
    <linearGradient
       inkscape:collect="always"
       xlink:href="#linearGradient3450"
       id="linearGradient9767"
       gradientUnits="userSpaceOnUse"
       x1="585.35638"
       y1="414.90317"
       x2="585.9071"
       y2="479.95697" />
    <linearGradient
       inkscape:collect="always"
       xlink:href="#linearGradient3450"
       id="linearGradient9770"
       gradientUnits="userSpaceOnUse"
       x1="585.35638"
       y1="414.90317"
       x2="585.9071"
       y2="479.95697" />
    <linearGradient
       inkscape:collect="always"
       xlink:href="#linearGradient3447"
       id="linearGradient9828"
       gradientUnits="userSpaceOnUse"
       gradientTransform="matrix(1,0,0,-1.0207337,-149.5625,724.96664)"
       x1="375"
       y1="97.781242"
       x2="375"
       y2="117.375" />
    <linearGradient
       inkscape:collect="always"
       xlink:href="#linearGradient3447"
       id="linearGradient4743"
       gradientUnits="userSpaceOnUse"
       gradientTransform="matrix(1,0,0,-1.0207337,-199.5625,724.96664)"
       x1="375"
       y1="97.781242"
       x2="375"
       y2="117.375" />
    <linearGradient
       inkscape:collect="always"
       xlink:href="#linearGradient3431"
       id="linearGradient12719"
       gradientUnits="userSpaceOnUse"
       gradientTransform="matrix(0.9989818,0,0,1.0000288,0.4624542,218.13756)"
       x1="572.50568"
       y1="688.66901"
       x2="572.83734"
       y2="644.01746" />
    <linearGradient
       inkscape:collect="always"
       xlink:href="#linearGradient3447"
       id="linearGradient12721"
       gradientUnits="userSpaceOnUse"
       gradientTransform="matrix(0.9989818,0,0,1.0000288,0.4624542,218.13756)"
       x1="558.79785"
       y1="632.93634"
       x2="560.77557"
       y2="695.11353" />
  </defs>
  <sodipodi:namedview
     id="base"
     pagecolor="#ffffff"
     bordercolor="#666666"
     borderopacity="1.0"
     gridtolerance="10000"
     guidetolerance="10"
     objecttolerance="10"
     inkscape:pageopacity="0.0"
     inkscape:pageshadow="2"
     inkscape:zoom="2.8284272"
     inkscape:cx="338.84682"
     inkscape:cy="249.32712"
     inkscape:document-units="px"
     inkscape:current-layer="track"
     showgrid="true"
     inkscape:window-width="1670"
     inkscape:window-height="972"
     inkscape:window-x="0"
     inkscape:window-y="0"
     inkscape:showpageshadow="false"
     showguides="true"
     inkscape:guide-bbox="true" />
  <metadata
     id="metadata2470">
    <rdf:RDF>
      <cc:Work
         rdf:about="">
        <dc:format>image/svg+xml</dc:format>
        <dc:type
           rdf:resource="http://purl.org/dc/dcmitype/StillImage" />
      </cc:Work>
    </rdf:RDF>
  </metadata>
  <g
     inkscape:label="Layer 1"
     inkscape:groupmode="layer"
     id="layer1"
     transform="translate(-95,-432.36218)">
    <rect
       y="705.15802"
       x="95"
       height="30"
       width="320"
       id="rect4703"
       style="fill:#000000;fill-opacity:1;fill-rule:nonzero;stroke:#ffffff;stroke-width:0;stroke-linecap:square;stroke-linejoin:miter;stroke-miterlimit:4;stroke-dasharray:none;stroke-opacity:1" />
    <g
       inkscape:label="#324"
       id="g8774"
       transform="translate(5,162.79584)">
      <path
         clip-rule="evenodd"
         d="M 95.5,443.36218 C 95.5,433.48218 96.13,432.86218 106.07,432.86218 L 378.93,432.86218 C 388.87,432.86218 389.5,433.48218 389.5,443.36218 L 389.5,492.86218 L 95.5,492.86218 L 95.5,443.36218 z "
         id="path8776"
         style="fill:#9fa19d;fill-opacity:1;fill-rule:evenodd;stroke:#2e3436;stroke-opacity:1" />
      <path
         style="fill:url(#linearGradient8780);fill-opacity:1;fill-rule:evenodd;stroke:none;stroke-opacity:1"
         id="path8778"
         d="M 95.8,443.75802 C 95.8,433.87802 96.426576,433.25802 106.3124,433.25802 L 377.6876,433.25802 C 387.57336,433.25802 388.2,433.87802 388.2,443.75802 L 388.2,493.25802 L 95.8,493.25802 L 95.8,443.75802 z "
         clip-rule="evenodd" />
    </g>
    <g
       id="tail">
      <path
         id="path4208"
         d="M 430.54193,552.71524 L 430.54193,572.40274 L 724.54193,572.40274 L 724.54193,552.71524 L 430.54193,552.71524 z "
         style="fill:#e8e8e8;fill-opacity:1;fill-rule:evenodd;stroke:#2e3436;stroke-linecap:round;stroke-linejoin:round;stroke-opacity:1" />
      <path
         id="path4210"
         d="M 431.69251,552.86902 L 723.3919,552.86902"
         style="fill:none;fill-opacity:1;fill-rule:evenodd;stroke:#e8e8e8;stroke-width:1.30400872;stroke-linecap:square;stroke-linejoin:miter;stroke-miterlimit:0;stroke-dasharray:none;stroke-opacity:1" />
      <path
         id="path4212"
         d="M 430.54193,552.71524 L 430.54193,570.81048"
         style="fill:#2e609c;fill-opacity:1;fill-rule:evenodd;stroke:#2e3436;stroke-width:1;stroke-linecap:square;stroke-linejoin:miter;stroke-miterlimit:4;stroke-dasharray:none;stroke-opacity:1" />
      <path
         id="path4214"
         d="M 724.54193,552.71524 L 724.54193,570.81048"
         style="fill:#2e609c;fill-opacity:1;fill-rule:evenodd;stroke:#2e3436;stroke-width:1;stroke-linecap:square;stroke-linejoin:miter;stroke-miterlimit:4;stroke-dasharray:none;stroke-opacity:1" />
    </g>
    <g
       id="body">
      <path
         id="path4218"
         d="M 430.52097,517.71562 L 430.52097,537.40313 L 724.52096,537.40313 L 724.52096,517.71562 L 430.52097,517.71562 z "
         style="fill:#e8e8e8;fill-opacity:1;fill-rule:evenodd;stroke:#2e3436;stroke-linecap:round;stroke-linejoin:round;stroke-opacity:1" />
      <path
         id="path4222"
         d="M 430.52097,517.73622 L 430.52097,537.38127"
         style="fill:none;fill-rule:evenodd;stroke:#2e3436;stroke-width:1.04194379;stroke-linecap:square;stroke-linejoin:miter;stroke-miterlimit:4;stroke-dasharray:none;stroke-opacity:1" />
      <path
         id="path4224"
         d="M 724.52096,517.73633 L 724.52096,537.38116"
         style="fill:none;fill-rule:evenodd;stroke:#2e3436;stroke-width:1.0419383;stroke-linecap:square;stroke-linejoin:miter;stroke-miterlimit:4;stroke-dasharray:none;stroke-opacity:1" />
      <path
         id="path4226"
         d="M 431.6946,537.25352 L 723.34731,537.25352"
         style="fill:none;fill-rule:evenodd;stroke:#e8e8e8;stroke-width:1.30390441;stroke-linecap:square;stroke-linejoin:miter;stroke-miterlimit:0;stroke-dasharray:none;stroke-opacity:1" />
      <path
         id="path4220"
         d="M 431.69055,517.86401 L 723.38993,517.86401"
         style="fill:none;fill-rule:evenodd;stroke:#e8e8e8;stroke-width:1.30400872;stroke-linecap:square;stroke-linejoin:miter;stroke-miterlimit:0;stroke-dasharray:none;stroke-opacity:1" />
    </g>
    <g
       id="expand_button">
      <path
         style="opacity:0.4;fill:url(#linearGradient8786);fill-opacity:1;fill-rule:evenodd;stroke:none;stroke-width:0.84579986;stroke-miterlimit:4;stroke-dasharray:none;stroke-dashoffset:0;stroke-opacity:1"
         d="M 279.0625,623.25802 C 276.797,623.25802 275,621.52713 275,619.36647 L 275,603.25801 L 294.125,603.25801 L 294.125,619.36647 C 294.125,621.52713 292.32801,623.25802 290.0625,623.25802 L 279.0625,623.25802 z "
         id="path27266" />
      <g
         transform="matrix(0.8598046,0,0,0.9999998,112.89373,362.79402)"
         id="g27268">
        <path
           style="fill:none;fill-rule:evenodd;stroke:#ffffff;stroke-width:1.21765792;stroke-linecap:round;stroke-linejoin:round;stroke-miterlimit:4;stroke-dasharray:none;stroke-opacity:1"
           d="M 194.9626,251.29873 L 200.16904,255.0705 L 205.37549,251.29873 L 205.37549,251.29873 L 205.37549,251.29873"
           id="path27270" />
        <path
           style="fill:none;fill-rule:evenodd;stroke:#ffffff;stroke-width:1.21765792;stroke-linecap:round;stroke-linejoin:round;stroke-miterlimit:4;stroke-dasharray:none;stroke-opacity:1"
           d="M 194.9626,247.97286 L 200.16904,251.74463 L 205.37549,247.97286 L 205.37549,247.97286 L 205.37549,247.97286"
           id="path27272" />
      </g>
    </g>
    <path
       id="path7526"
       d="M 430.50154,490.01815 L 430.50154,508.72156"
       style="fill:url(#linearGradient9770);fill-opacity:1;fill-rule:evenodd;stroke:none;stroke-width:1;stroke-linecap:square;stroke-linejoin:miter;stroke-miterlimit:4;stroke-dasharray:none;stroke-opacity:1" />
    <path
       id="path7528"
       d="M 431.00126,508.61218 L 723.99873,508.61218"
       style="fill:url(#linearGradient9767);fill-opacity:1;fill-rule:evenodd;stroke:none;stroke-width:1.20500803;stroke-linecap:butt;stroke-linejoin:miter;stroke-miterlimit:0;stroke-dasharray:none;stroke-opacity:1" />
    <path
       id="path7530"
       d="M 724.50154,490.01736 L 724.50154,508.72077"
       style="fill:url(#linearGradient9764);fill-opacity:1;fill-rule:evenodd;stroke:none;stroke-width:1;stroke-linecap:square;stroke-linejoin:miter;stroke-miterlimit:0;stroke-dasharray:none;stroke-opacity:1" />
    <path
       style="fill:url(#linearGradient9758);fill-opacity:1;fill-rule:evenodd;stroke:none;stroke-width:1.30378532;stroke-linecap:square;stroke-linejoin:miter;stroke-miterlimit:0;stroke-dasharray:none;stroke-opacity:1"
       d="M 431.75032,508.51418 L 723.34975,508.51418"
       id="path7534" />
    <path
       style="fill:url(#linearGradient8737);fill-opacity:1;fill-rule:evenodd;stroke:none;stroke-width:1;stroke-linecap:square;stroke-linejoin:miter;stroke-miterlimit:4;stroke-dasharray:none;stroke-opacity:1"
       d="M -24.49846,345.95461 L -24.49846,364.65802"
       id="path8702" />
    <path
       style="fill:url(#linearGradient8734);fill-opacity:1;fill-rule:evenodd;stroke:none;stroke-width:1.20500803;stroke-linecap:butt;stroke-linejoin:miter;stroke-miterlimit:0;stroke-dasharray:none;stroke-opacity:1"
       d="M -23.99874,364.54864 L 268.99873,364.54864"
       id="path8704" />
    <path
       style="fill:url(#linearGradient8731);fill-opacity:1;fill-rule:evenodd;stroke:none;stroke-width:1;stroke-linecap:square;stroke-linejoin:miter;stroke-miterlimit:0;stroke-dasharray:none;stroke-opacity:1"
       d="M 269.50154,345.95382 L 269.50154,364.65723"
       id="path8706" />
    <path
       id="path8710"
       d="M -23.24968,364.45064 L 268.34975,364.45064"
       style="fill:url(#linearGradient8725);fill-opacity:1;fill-rule:evenodd;stroke:none;stroke-width:1.30378532;stroke-linecap:square;stroke-linejoin:miter;stroke-miterlimit:0;stroke-dasharray:none;stroke-opacity:1" />
    <g
       id="collapse_button">
      <path
         id="path9814"
         d="M 219.9375,625.15803 C 217.672,625.15803 215.875,623.42714 215.875,621.26648 L 215.875,605.15802 L 235,605.15802 L 235,621.26648 C 235,623.42714 233.20301,625.15803 230.9375,625.15803 L 219.9375,625.15803 z "
         style="opacity:0.4;fill:url(#linearGradient9828);fill-opacity:1;fill-rule:evenodd;stroke:none;stroke-width:0.84579986;stroke-miterlimit:4;stroke-dasharray:none;stroke-dashoffset:0;stroke-opacity:1" />
      <g
         id="g9816"
         transform="matrix(0.8598046,0,0,-0.9999998,53.76873,867.73729)">
        <path
           id="path9818"
           d="M 194.9626,251.29873 L 200.16904,255.0705 L 205.37549,251.29873 L 205.37549,251.29873 L 205.37549,251.29873"
           style="fill:none;fill-rule:evenodd;stroke:#ffffff;stroke-width:1.21765792;stroke-linecap:round;stroke-linejoin:round;stroke-miterlimit:4;stroke-dasharray:none;stroke-opacity:1" />
        <path
           id="path9820"
           d="M 194.9626,247.97286 L 200.16904,251.74463 L 205.37549,247.97286 L 205.37549,247.97286 L 205.37549,247.97286"
           style="fill:none;fill-rule:evenodd;stroke:#ffffff;stroke-width:1.21765792;stroke-linecap:round;stroke-linejoin:round;stroke-miterlimit:4;stroke-dasharray:none;stroke-opacity:1" />
      </g>
    </g>
    <g
       id="collapse_button_grayed_out">
      <path
         style="opacity:0.4;fill:url(#linearGradient4743);fill-opacity:1;fill-rule:evenodd;stroke:none;stroke-width:0.84579986;stroke-miterlimit:4;stroke-dasharray:none;stroke-dashoffset:0;stroke-opacity:1"
         d="M 169.9375,625.15803 C 167.672,625.15803 165.875,623.42714 165.875,621.26648 L 165.875,605.15802 L 185,605.15802 L 185,621.26648 C 185,623.42714 183.20301,625.15803 180.9375,625.15803 L 169.9375,625.15803 z "
         id="path4711" />
      <g
         style="stroke:#888a85;stroke-opacity:1;fill:none"
         transform="matrix(0.8598046,0,0,-0.9999998,3.76873,867.73729)"
         id="g4713">
        <path
           style="fill:none;fill-rule:evenodd;stroke:#888a85;stroke-width:1.21765792;stroke-linecap:round;stroke-linejoin:round;stroke-miterlimit:4;stroke-dasharray:none;stroke-opacity:1"
           d="M 194.9626,251.29873 L 200.16904,255.0705 L 205.37549,251.29873 L 205.37549,251.29873 L 205.37549,251.29873"
           id="path4715" />
        <path
           style="fill:none;fill-rule:evenodd;stroke:#888a85;stroke-width:1.21765792;stroke-linecap:round;stroke-linejoin:round;stroke-miterlimit:4;stroke-dasharray:none;stroke-opacity:1"
           d="M 194.9626,247.97286 L 200.16904,251.74463 L 205.37549,247.97286 L 205.37549,247.97286 L 205.37549,247.97286"
           id="path4717" />
      </g>
    </g>
    <g
       id="active_overlay"
       transform="translate(-1021.7521,580.75701)"
       inkscape:export-filename="/home/lee/Work/amarok/amarok1-3-1.png"
       inkscape:export-xdpi="89.999985"
       inkscape:export-ydpi="89.999985">
      <path
         d="M 1137.4365,136.4931 C 1137.4365,134.58639 1138.99,133.03533 1140.8998,133.03533 L 1414.0046,133.03533 C 1415.9144,133.03533 1417.4679,134.58639 1417.4679,136.4931 L 1417.4679,143.40868 C 1417.4679,145.31539 1415.9144,146.86645 1414.0046,146.86645 L 1140.8998,146.86645 C 1138.99,146.86645 1137.4365,145.31539 1137.4365,143.40868 L 1137.4365,136.4931 z "
         style="fill:#444444;fill-opacity:1;fill-rule:evenodd;stroke:none;stroke-opacity:1"
         id="path6373" />
      <path
         style="fill:#ffffff;fill-opacity:1;fill-rule:evenodd;stroke:none;stroke-opacity:1;opacity:0.27868852"
         d="M 1140.9016,133.03704 C 1138.9919,133.03704 1137.433,134.59909 1137.4329,136.50579 L 1137.4329,141.16204 C 1137.5675,141.15409 1137.7021,141.16204 1137.8392,141.16204 L 1417.4642,141.16204 L 1417.4642,136.50579 C 1417.4642,134.59908 1415.9052,133.03704 1413.9954,133.03704 L 1140.9016,133.03704 z "
         id="path6375" />
    </g>
    <path
       id="body_background"
       d="M 96.00001,535.15802 L 96.00001,554.84553 L 390,554.84553 L 390,535.15802 L 96.00001,535.15802 z "
       style="opacity:0.15;fill:#000000;fill-opacity:1;fill-rule:evenodd;stroke:none;stroke-linecap:round;stroke-linejoin:round;stroke-opacity:1" />
    <g
       id="selection_right"
       transform="matrix(0.9999961,0,0,1,2.8224977e-3,-134.99997)">
      <path
         style="fill:#888a85;fill-opacity:1;fill-rule:evenodd;stroke:none;stroke-width:0.71766621;stroke-linecap:round;stroke-linejoin:round;stroke-opacity:1"
         d="M 574.99942,869.81167 L 574.99942,889.78039 L 725.00058,889.78039 L 725.00058,869.81167 L 574.99942,869.81167 z "
         id="path12539" />
      <path
         style="fill:#888a85;fill-opacity:1;fill-rule:evenodd;stroke:#888a85;stroke-width:0.9391855;stroke-linecap:square;stroke-linejoin:miter;stroke-miterlimit:0;stroke-dasharray:none;stroke-opacity:1"
         d="M 575.51086,869.92367 L 724.03121,869.92367"
         id="path12541" />
      <path
         id="path12543"
         d="M 575.51086,889.6884 L 724.03121,889.6884"
         style="fill:#888a85;fill-opacity:1;fill-rule:evenodd;stroke:#888a85;stroke-width:0.9391855;stroke-linecap:square;stroke-linejoin:miter;stroke-miterlimit:0;stroke-dasharray:none;stroke-opacity:1" />
      <path
         id="path12553"
         d="M 723.99817,869.4586 L 723.99817,890.15744 L 725.00058,890.15744 L 725.00058,869.4586 L 723.99817,869.4586 z "
         style="fill:#2e3436;fill-opacity:1;fill-rule:evenodd;stroke:none;stroke-width:0.71766621;stroke-linecap:round;stroke-linejoin:round;stroke-opacity:1" />
    </g>
    <g
       id="selection_left"
       transform="matrix(-0.999992,0,0,1,1154.9942,-159.29606)">
      <path
         id="path12563"
         d="M 574.99942,869.81167 L 574.99942,889.78039 L 725.00058,889.78039 L 725.00058,869.81167 L 574.99942,869.81167 z "
         style="fill:#888a85;fill-opacity:1;fill-rule:evenodd;stroke:none;stroke-width:0.71766621;stroke-linecap:round;stroke-linejoin:round;stroke-opacity:1" />
      <path
         id="path12565"
         d="M 575.51086,869.92367 L 724.03121,869.92367"
         style="fill:#888a85;fill-opacity:1;fill-rule:evenodd;stroke:#888a85;stroke-width:0.9391855;stroke-linecap:square;stroke-linejoin:miter;stroke-miterlimit:0;stroke-dasharray:none;stroke-opacity:1" />
      <path
         style="fill:#888a85;fill-opacity:1;fill-rule:evenodd;stroke:#888a85;stroke-width:0.9391855;stroke-linecap:square;stroke-linejoin:miter;stroke-miterlimit:0;stroke-dasharray:none;stroke-opacity:1"
         d="M 575.51086,889.6884 L 724.03121,889.6884"
         id="path12567" />
      <path
         style="fill:#2e3436;fill-opacity:1;fill-rule:evenodd;stroke:none;stroke-width:0.71766621;stroke-linecap:round;stroke-linejoin:round;stroke-opacity:1"
         d="M 723.99817,869.4586 L 723.99817,890.15744 L 725.00058,890.15744 L 725.00058,869.4586 L 723.99817,869.4586 z "
         id="path12569" />
    </g>
    <g
       id="head"
       transform="translate(-330.00001,47.90016)">
      <path
         style="fill:#666765;fill-opacity:1;fill-rule:evenodd;stroke:#2e3436;stroke-opacity:1"
         id="path12573"
         d="M 760.48366,396.15802 C 760.48366,386.27802 761.11366,385.65802 771.05366,385.65802 L 1043.9137,385.65802 C 1053.8537,385.65802 1054.4837,386.27802 1054.4837,396.15802 L 1054.4837,445.65802 L 760.48366,445.65802 L 760.48366,396.15802 z "
         clip-rule="evenodd" />
      <path
         style="fill:none;fill-opacity:0;fill-rule:evenodd;stroke:#2e3436;stroke-width:0.75921756;stroke-linecap:square;stroke-linejoin:miter;stroke-miterlimit:4;stroke-dasharray:none;stroke-opacity:1"
         d="M 760.35001,442.15547 L 760.35001,452.92642"
         id="path12575" />
      <path
         style="fill:none;fill-rule:evenodd;stroke:#444444;stroke-width:0.91486323;stroke-linecap:butt;stroke-linejoin:miter;stroke-miterlimit:0;stroke-dasharray:none;stroke-opacity:1"
         d="M 760.85019,452.86343 L 1054.1171,452.86343"
         id="path12577" />
      <path
         style="fill:none;fill-opacity:0;fill-rule:evenodd;stroke:#2e3436;stroke-width:0.75921756;stroke-linecap:square;stroke-linejoin:miter;stroke-miterlimit:0;stroke-dasharray:none;stroke-opacity:1"
         d="M 1054.6204,442.15502 L 1054.6204,452.92597"
         id="path12579" />
      <path
         style="fill:#e8e8e8;fill-opacity:1;fill-rule:evenodd;stroke:#2e3436;stroke-width:0.97001058;stroke-linecap:round;stroke-linejoin:miter;stroke-opacity:1"
         d="M 770.96761,439.74045 C 761.08646,439.74045 760.46638,440.32376 760.46638,449.61896 L 760.46638,457.46885 L 1054.5009,457.46885 L 1054.5009,449.61896 C 1054.5009,440.32376 1053.8809,439.74045 1043.9997,439.74045 L 770.96761,439.74045 z "
         id="path12581" />
      <path
         id="path12583"
         d="M 761.60361,457.32298 L 1053.3612,457.32298"
         style="fill:none;fill-opacity:1;fill-rule:evenodd;stroke:#e8e8e8;stroke-width:1.29975498;stroke-linecap:square;stroke-linejoin:miter;stroke-miterlimit:0;stroke-dasharray:none;stroke-opacity:1" />
      <path
         style="fill:#ffffff;fill-opacity:1;stroke:none;stroke-width:1.05136228;stroke-linecap:round;stroke-linejoin:round;stroke-miterlimit:4;stroke-dashoffset:1.08779998;stroke-opacity:1;opacity:0.21"
         d="M 767.7992,387.05785 C 764.58728,387.05785 762,389.11885 762,391.65535 L 762,412.20054 C 857.60672,419.77154 954.83237,418.54524 1053,412.20054 L 1053,391.65535 C 1053,389.11885 1050.4123,387.05785 1047.2005,387.05785 L 767.7992,387.05785 z "
         id="path28191"
         inkscape:export-filename="/home/lee/Work/amarok/amarok1-3-1.png"
         inkscape:export-xdpi="89.999985"
         inkscape:export-ydpi="89.999985" />
    </g>
    <g
       id="track"
       transform="translate(-634.98365,7.7999974)"
       inkscape:label="#track">
      <path
         clip-rule="evenodd"
         d="M 730.48365,436.15802 C 730.48365,426.27802 731.11365,425.65802 741.05365,425.65802 L 1013.9137,425.65802 C 1023.8537,425.65802 1024.4837,426.27802 1024.4837,436.15802 L 1024.4837,485.65802 L 730.48365,485.65802 L 730.48365,436.15802 z "
         id="path12609"
         style="fill:#666765;fill-opacity:1;fill-rule:evenodd;stroke:#2e3436;stroke-opacity:1" />
      <path
         inkscape:export-ydpi="89.999985"
         inkscape:export-xdpi="89.999985"
         inkscape:export-filename="/home/lee/Work/amarok/amarok1-3-1.png"
         id="path12621"
         d="M 737.79919,427.05785 C 734.58727,427.05785 731.99999,429.11885 731.99999,431.65535 L 731.99999,452.20054 C 827.60671,459.77154 924.83236,458.54524 1023,452.20054 L 1023,431.65535 C 1023,429.11885 1020.4123,427.05785 1017.2005,427.05785 L 737.79919,427.05785 z "
         style="fill:#ffffff;fill-opacity:1;stroke:none;stroke-width:1.05136228;stroke-linecap:round;stroke-linejoin:round;stroke-miterlimit:4;stroke-dashoffset:1.08779998;stroke-opacity:1;opacity:0.21" />
    </g>
    <g
       id="collapsed_head"
       transform="translate(1.733551e-6,-230)">
      <g
         id="g12692"
         transform="translate(-300.14165,390)"
         inkscape:label="#track">
        <path
           clip-rule="evenodd"
           d="M 730.48365,436.15802 C 730.48365,426.27802 731.11365,425.65802 741.05365,425.65802 L 1013.9137,425.65802 C 1023.8537,425.65802 1024.4837,426.27802 1024.4837,436.15802 L 1024.4837,485.65802 L 730.48365,485.65802 L 730.48365,436.15802 z "
           id="path12694"
           style="fill:#666765;fill-opacity:1;fill-rule:evenodd;stroke:#2e3436;stroke-opacity:1" />
        <path
           inkscape:export-ydpi="89.999985"
           inkscape:export-xdpi="89.999985"
           inkscape:export-filename="/home/lee/Work/amarok/amarok1-3-1.png"
           id="path12696"
           d="M 737.79919,427.05785 C 734.58727,427.05785 731.99999,429.11885 731.99999,431.65535 L 731.99999,452.20054 C 827.60671,459.77154 924.83236,458.54524 1023,452.20054 L 1023,431.65535 C 1023,429.11885 1020.4123,427.05785 1017.2005,427.05785 L 737.79919,427.05785 z "
           style="fill:#ffffff;fill-opacity:1;stroke:none;stroke-width:1.05136228;stroke-linecap:round;stroke-linejoin:round;stroke-miterlimit:4;stroke-dashoffset:1.08779998;stroke-opacity:1;opacity:0.21" />
      </g>
      <path
         clip-rule="evenodd"
         d="M 430.36446,899.40101 C 430.36446,904.32829 430.99433,904.6375 440.93215,904.6375 L 713.73231,904.6375 C 723.67013,904.6375 724.3,904.32829 724.3,899.40101 L 724.3,874.71472 L 430.36446,874.71472 L 430.36446,899.40101 z "
         id="path12638"
         style="fill:#666765;fill-opacity:1;fill-rule:evenodd;stroke:#2e3436;stroke-width:1;stroke-miterlimit:4;stroke-dasharray:none;stroke-opacity:1" />
      <path
         style="fill:none;fill-opacity:0;fill-rule:evenodd;stroke:#2e3436;stroke-width:1;stroke-linecap:square;stroke-linejoin:miter;stroke-miterlimit:0;stroke-dasharray:none;stroke-opacity:1"
         d="M 724.34347,874.7132 L 724.34347,893.41661"
         id="path12640" />
      <path
         style="fill:none;fill-opacity:0;fill-rule:evenodd;stroke:#2e3436;stroke-width:1.01024258;stroke-linecap:square;stroke-linejoin:miter;stroke-miterlimit:4;stroke-dasharray:none;stroke-opacity:1"
         d="M 430.53986,874.67046 L 430.53986,893.75898"
         id="path12642" />
      <path
         style="fill:url(#linearGradient12719);fill-opacity:1;fill-rule:evenodd;stroke:url(#linearGradient12721);stroke-width:1.48901653;stroke-linecap:round;stroke-linejoin:round;stroke-opacity:1"
         d="M 430.77451,874.95923 C 430.78763,877.04658 430.80571,879.35099 430.80571,882.01039 L 430.80571,900.29424 L 435.17342,900.58119 L 440.88271,892.95609 L 446.59194,900.58119 L 452.30122,892.95609 L 458.01049,900.58119 L 463.75093,892.95609 L 469.46021,900.58119 L 475.13825,892.95609 L 480.84755,900.58119 L 486.55677,892.95609 L 492.26605,900.58119 L 497.97533,892.95609 L 503.71576,900.58119 L 509.42503,892.95609 L 515.13431,900.58119 L 520.84355,892.95609 L 526.5216,900.58119 L 532.23086,892.95609 L 537.94016,900.58119 L 543.68061,892.95609 L 549.38984,900.58119 L 555.09911,892.95609 L 560.8084,900.58119 L 566.51766,892.95609 L 572.22689,900.58119 L 577.93618,892.95609 L 583.64547,900.58119 L 589.35468,892.95609 L 595.06397,900.58119 L 600.77315,892.95609 L 606.48251,900.58119 L 612.19172,892.95609 L 617.93218,900.58119 L 623.64143,892.95609 L 629.35074,900.58119 L 635.02881,892.95609 L 640.73807,900.58119 L 646.44731,892.95609 L 652.18776,900.58119 L 657.89703,892.95609 L 663.60631,900.58119 L 669.31557,892.95609 L 675.02483,900.58119 L 680.73409,892.95609 L 686.41212,900.58119 L 692.15265,892.95609 L 697.86183,900.58119 L 703.57115,892.95609 L 709.28036,900.58119 L 714.98968,892.95609 L 720.69892,900.58119 L 724.25549,899.88429 L 723.9435,882.01039 C 723.9435,879.32659 723.96122,877.00575 723.97471,874.95923 L 430.77451,874.95923 z "
         id="path12644" />
    </g>
  </g>
</svg>
