<?xml version="1.0" encoding="UTF-8" standalone="no"?>
<!-- Created with Inkscape (http://www.inkscape.org/) -->
<svg
   xmlns:ns="http://creativecommons.org/ns#"
   xmlns:dc="http://purl.org/dc/elements/1.1/"
   xmlns:cc="http://web.resource.org/cc/"
   xmlns:rdf="http://www.w3.org/1999/02/22-rdf-syntax-ns#"
   xmlns:svg="http://www.w3.org/2000/svg"
   xmlns="http://www.w3.org/2000/svg"
   xmlns:xlink="http://www.w3.org/1999/xlink"
   xmlns:sodipodi="http://sodipodi.sourceforge.net/DTD/sodipodi-0.dtd"
   xmlns:inkscape="http://www.inkscape.org/namespaces/inkscape"
   width="630.04346"
   height="322.79584"
   id="svg2465"
   sodipodi:version="0.32"
   inkscape:version="0.45.1"
   sodipodi:docbase="/home/amarok-dev/amarok/src/images"
   sodipodi:docname="playlist_items.svg"
   inkscape:output_extension="org.inkscape.output.svg.inkscape"
   version="1.0">
  <defs
     id="defs2467">
    <linearGradient
       id="linearGradient10055">
      <stop
         style="stop-color:#66ffff;stop-opacity:0;"
         offset="0"
         id="stop10057" />
      <stop
         id="stop10063"
         offset="0.14285715"
         style="stop-color:#66ffff;stop-opacity:1;" />
      <stop
         style="stop-color:#66ffff;stop-opacity:0;"
         offset="1"
         id="stop10059" />
    </linearGradient>
    <linearGradient
       inkscape:collect="always"
       id="linearGradient3447">
      <stop
         style="stop-color:#2e3436;stop-opacity:1;"
         offset="0"
         id="stop3449" />
      <stop
         style="stop-color:#2e3436;stop-opacity:0;"
         offset="1"
         id="stop3451" />
    </linearGradient>
    <linearGradient
       id="linearGradient3431">
      <stop
         style="stop-color:#ffffff;stop-opacity:0.58823532;"
         offset="0"
         id="stop3433" />
      <stop
         id="stop3235"
         offset="0.25"
         style="stop-color:#ffffff;stop-opacity:0.39215687;" />
      <stop
         style="stop-color:#000000;stop-opacity:0;"
         offset="0.5"
         id="stop3237" />
      <stop
         id="stop3239"
         offset="0.75"
         style="stop-color:#000000;stop-opacity:0.39215687;" />
      <stop
         style="stop-color:#000000;stop-opacity:0.58823532;"
         offset="1"
         id="stop3435" />
    </linearGradient>
    <linearGradient
       id="linearGradient3450">
      <stop
         id="stop3452"
         offset="0"
         style="stop-color:#fdfdfd;stop-opacity:1" />
      <stop
         id="stop3454"
         offset="1"
         style="stop-color:#fdfdfd;stop-opacity:0" />
    </linearGradient>
    <linearGradient
       inkscape:collect="always"
       xlink:href="#linearGradient3450"
       id="linearGradient8725"
       gradientUnits="userSpaceOnUse"
       x1="585.35638"
       y1="414.90317"
       x2="585.9071"
       y2="479.95697"
       gradientTransform="translate(-455,-144.06354)" />
    <linearGradient
       inkscape:collect="always"
       xlink:href="#linearGradient3450"
       id="linearGradient8734"
       gradientUnits="userSpaceOnUse"
       x1="585.35638"
       y1="414.90317"
       x2="585.9071"
       y2="479.95697"
       gradientTransform="translate(-455,-144.06354)" />
    <linearGradient
       inkscape:collect="always"
       xlink:href="#linearGradient3450"
       id="linearGradient8737"
       gradientUnits="userSpaceOnUse"
       x1="585.35638"
       y1="414.90317"
       x2="585.9071"
       y2="479.95697"
       gradientTransform="translate(-455,-144.06354)" />
    <linearGradient
       inkscape:collect="always"
       xlink:href="#linearGradient3450"
       id="linearGradient8780"
       gradientUnits="userSpaceOnUse"
       gradientTransform="matrix(0.9945584,0,0,1,-332.35712,0.3957932)"
       x1="585.35638"
       y1="414.90317"
       x2="585.9071"
       y2="479.95697" />
    <linearGradient
       inkscape:collect="always"
       xlink:href="#linearGradient3447"
       id="linearGradient8786"
       gradientUnits="userSpaceOnUse"
       gradientTransform="matrix(1,0,0,-1.0207337,-90.4375,723.06663)"
       x1="375"
       y1="97.781242"
       x2="375"
       y2="117.375" />
    <linearGradient
       inkscape:collect="always"
       xlink:href="#linearGradient3447"
       id="linearGradient9828"
       gradientUnits="userSpaceOnUse"
       gradientTransform="matrix(1,0,0,-1.0207337,-149.5625,724.96664)"
       x1="375"
       y1="97.781242"
       x2="375"
       y2="117.375" />
    <linearGradient
       inkscape:collect="always"
       xlink:href="#linearGradient3447"
       id="linearGradient4743"
       gradientUnits="userSpaceOnUse"
       gradientTransform="matrix(1,0,0,-1.0207337,-199.5625,724.96664)"
       x1="375"
       y1="97.781242"
       x2="375"
       y2="117.375" />
    <linearGradient
       inkscape:collect="always"
       xlink:href="#linearGradient10055"
       id="linearGradient10061"
       x1="552.14453"
       y1="718.91876"
       x2="598.46002"
       y2="718.91876"
       gradientUnits="userSpaceOnUse"
       gradientTransform="matrix(1.2213741,0,0,1,-122.23049,0)" />
    <linearGradient
       inkscape:collect="always"
       xlink:href="#linearGradient10055"
       id="linearGradient10067"
       gradientUnits="userSpaceOnUse"
       gradientTransform="matrix(1.2213741,0,0,1,-1387.7399,0.1767786)"
       x1="552.14453"
       y1="718.91879"
       x2="598.46002"
       y2="718.91879" />
    <linearGradient
       inkscape:collect="always"
       xlink:href="#linearGradient3431"
       id="linearGradient3995"
       gradientUnits="userSpaceOnUse"
       gradientTransform="matrix(1.0000816,0,0,0.6124611,-0.1728136,242.53155)"
       x1="572.47437"
       y1="683.16846"
       x2="572.4834"
       y2="656.05829" />
    <linearGradient
       inkscape:collect="always"
       xlink:href="#linearGradient3447"
       id="linearGradient3997"
       gradientUnits="userSpaceOnUse"
       gradientTransform="matrix(1.0000816,0,0,0.6124611,-0.1728136,242.53155)"
       x1="560.92133"
       y1="659.09857"
       x2="560.86407"
       y2="681.59052" />
    <linearGradient
       inkscape:collect="always"
       xlink:href="#linearGradient3450"
       id="linearGradient2495"
       gradientUnits="userSpaceOnUse"
       x1="585.35638"
       y1="414.90317"
       x2="585.9071"
       y2="479.95697"
       gradientTransform="translate(0,-2.8412903)" />
    <linearGradient
       inkscape:collect="always"
       xlink:href="#linearGradient3450"
       id="linearGradient2501"
       gradientUnits="userSpaceOnUse"
       x1="585.35638"
       y1="414.90317"
       x2="585.9071"
       y2="479.95697"
       gradientTransform="translate(0,-3.088359)" />
  </defs>
  <sodipodi:namedview
     id="base"
     pagecolor="#ffffff"
     bordercolor="#666666"
     borderopacity="1.0"
     gridtolerance="10000"
     guidetolerance="10"
     objecttolerance="10"
     inkscape:pageopacity="0.0"
     inkscape:pageshadow="2"
     inkscape:zoom="2.0237284"
     inkscape:cx="291.60915"
     inkscape:cy="83.061932"
     inkscape:document-units="px"
     inkscape:current-layer="layer1"
     showgrid="false"
     inkscape:window-width="1680"
     inkscape:window-height="996"
     inkscape:window-x="0"
     inkscape:window-y="0"
     inkscape:showpageshadow="false"
     showguides="true"
     inkscape:guide-bbox="true">
    <inkscape:grid
       type="xygrid"
       id="grid3279" />
  </sodipodi:namedview>
  <metadata
     id="metadata2470">
    <rdf:RDF>
      <ns:Work
         rdf:about="">
        <dc:format>image/svg+xml</dc:format>
        <dc:type
           rdf:resource="http://purl.org/dc/dcmitype/StillImage" />
      </ns:Work>
      <cc:Work
         rdf:about="">
        <dc:format>image/svg+xml</dc:format>
        <dc:type
           rdf:resource="http://purl.org/dc/dcmitype/StillImage" />
      </cc:Work>
    </rdf:RDF>
  </metadata>
  <g
     inkscape:label="Layer 1"
     inkscape:groupmode="layer"
     id="layer1"
     transform="translate(-95,-432.36218)">
    <rect
       style="opacity:1;fill:#000000;fill-opacity:1;stroke:none;stroke-width:10;stroke-linejoin:miter;stroke-miterlimit:4;stroke-dasharray:none;stroke-opacity:1"
       id="rect2492"
       width="323.55176"
       height="100.6295"
       x="70.721291"
       y="1028.2606" />
    <rect
       style="opacity:1;fill:#2e3436;fill-opacity:1;stroke:none;stroke-width:5;stroke-miterlimit:4;stroke-dasharray:none;stroke-opacity:1"
       id="rect3305"
       width="305"
       height="30"
       x="422.63635"
       y="897.87384" />
    <rect
       style="opacity:1;fill:#2e3436;fill-opacity:1;stroke:none;stroke-width:5;stroke-miterlimit:4;stroke-dasharray:none;stroke-opacity:1"
       id="rect3293"
       width="305"
       height="30"
       x="443.95023"
       y="864.53717" />
    <g
       inkscape:label="#324"
       id="g8774"
       transform="translate(5,162.79584)">
      <path
         clip-rule="evenodd"
         d="M 95.5,443.36218 C 95.5,433.48218 96.13,432.86218 106.07,432.86218 L 378.93,432.86218 C 388.87,432.86218 389.5,433.48218 389.5,443.36218 L 389.5,492.86218 L 95.5,492.86218 L 95.5,443.36218 z "
         id="path8776"
         style="fill:#9fa19d;fill-opacity:1;fill-rule:evenodd;stroke:#2e3436;stroke-opacity:1" />
      <path
         style="fill:url(#linearGradient8780);fill-opacity:1;fill-rule:evenodd;stroke:none;stroke-opacity:1"
         id="path8778"
         d="M 95.8,443.75802 C 95.8,433.87802 96.426576,433.25802 106.3124,433.25802 L 377.6876,433.25802 C 387.57336,433.25802 388.2,433.87802 388.2,443.75802 L 388.2,493.25802 L 95.8,493.25802 L 95.8,443.75802 z "
         clip-rule="evenodd" />
    </g>
    <g
       id="tail">
      <path
         id="path4208"
         d="M 430.54193,552.71524 L 430.54193,572.40274 L 724.54193,572.40274 L 724.54193,552.71524 L 430.54193,552.71524 z "
         style="fill:#666765;fill-opacity:1;fill-rule:evenodd;stroke:#2e3436;stroke-linecap:round;stroke-linejoin:round;stroke-opacity:1" />
      <path
         id="path4212"
         d="M 430.54193,552.71524 L 430.54193,570.81048"
         style="fill:#2e609c;fill-opacity:1;fill-rule:evenodd;stroke:#2e3436;stroke-width:1;stroke-linecap:square;stroke-linejoin:miter;stroke-miterlimit:4;stroke-dasharray:none;stroke-opacity:1" />
      <path
         id="path4214"
         d="M 724.54193,552.71524 L 724.54193,570.81048"
         style="fill:#2e609c;fill-opacity:1;fill-rule:evenodd;stroke:#2e3436;stroke-width:1;stroke-linecap:square;stroke-linejoin:miter;stroke-miterlimit:4;stroke-dasharray:none;stroke-opacity:1" />
      <path
         id="path4210"
         d="M 431.69251,552.86902 L 723.3919,552.86902"
         style="fill:none;fill-opacity:1;fill-rule:evenodd;stroke:#666765;stroke-width:1.30400872;stroke-linecap:square;stroke-linejoin:miter;stroke-miterlimit:0;stroke-dasharray:none;stroke-opacity:1" />
    </g>
    <g
       id="body">
      <path
         id="path4218"
         d="M 430.52097,517.71562 L 430.52097,537.40313 L 724.52096,537.40313 L 724.52096,517.71562 L 430.52097,517.71562 z "
         style="fill:#666765;fill-opacity:1;fill-rule:evenodd;stroke:#66676f;stroke-linecap:round;stroke-linejoin:round;stroke-opacity:1;opacity:1" />
      <path
         id="path4222"
         d="M 430.52097,517.73622 L 430.52097,537.38127"
         style="fill:none;fill-rule:evenodd;stroke:#2e3436;stroke-width:1.04194379;stroke-linecap:square;stroke-linejoin:miter;stroke-miterlimit:4;stroke-dasharray:none;stroke-opacity:1" />
      <path
         id="path4224"
         d="M 724.52096,517.73633 L 724.52096,537.38116"
         style="fill:none;fill-rule:evenodd;stroke:#2e3436;stroke-width:1.0419383;stroke-linecap:square;stroke-linejoin:miter;stroke-miterlimit:4;stroke-dasharray:none;stroke-opacity:1" />
      <path
         id="path4220"
         d="M 431.69055,517.86401 L 723.38993,517.86401"
         style="fill:none;fill-rule:evenodd;stroke:#666765;stroke-width:1.30400872;stroke-linecap:square;stroke-linejoin:miter;stroke-miterlimit:0;stroke-dasharray:none;stroke-opacity:1" />
      <path
         id="path4226"
         d="M 431.6946,537.25352 L 723.34731,537.25352"
         style="fill:none;fill-rule:evenodd;stroke:#666765;stroke-width:1.30390441;stroke-linecap:square;stroke-linejoin:miter;stroke-miterlimit:0;stroke-dasharray:none;stroke-opacity:1" />
    </g>
    <g
       id="expand_button">
      <path
         style="opacity:0.4;fill:url(#linearGradient8786);fill-opacity:1;fill-rule:evenodd;stroke:none;stroke-width:0.84579986;stroke-miterlimit:4;stroke-dasharray:none;stroke-dashoffset:0;stroke-opacity:1"
         d="M 279.0625,623.25802 C 276.797,623.25802 275,621.52713 275,619.36647 L 275,603.25801 L 294.125,603.25801 L 294.125,619.36647 C 294.125,621.52713 292.32801,623.25802 290.0625,623.25802 L 279.0625,623.25802 z "
         id="path27266" />
      <g
         transform="matrix(0.8598046,0,0,0.9999998,112.89373,362.79402)"
         id="g27268">
        <path
           style="fill:none;fill-rule:evenodd;stroke:#ffffff;stroke-width:1.21765792;stroke-linecap:round;stroke-linejoin:round;stroke-miterlimit:4;stroke-dasharray:none;stroke-opacity:1"
           d="M 194.9626,251.29873 L 200.16904,255.0705 L 205.37549,251.29873 L 205.37549,251.29873 L 205.37549,251.29873"
           id="path27270" />
        <path
           style="fill:none;fill-rule:evenodd;stroke:#ffffff;stroke-width:1.21765792;stroke-linecap:round;stroke-linejoin:round;stroke-miterlimit:4;stroke-dasharray:none;stroke-opacity:1"
           d="M 194.9626,247.97286 L 200.16904,251.74463 L 205.37549,247.97286 L 205.37549,247.97286 L 205.37549,247.97286"
           id="path27272" />
      </g>
    </g>
    <path
       style="fill:url(#linearGradient8737);fill-opacity:1;fill-rule:evenodd;stroke:none;stroke-width:1;stroke-linecap:square;stroke-linejoin:miter;stroke-miterlimit:4;stroke-dasharray:none;stroke-opacity:1"
       d="M -24.49846,345.95461 L -24.49846,364.65802"
       id="path8702" />
    <path
       style="fill:url(#linearGradient8734);fill-opacity:1;fill-rule:evenodd;stroke:none;stroke-width:1.20500803;stroke-linecap:butt;stroke-linejoin:miter;stroke-miterlimit:0;stroke-dasharray:none;stroke-opacity:1"
       d="M -23.99874,364.54864 L 268.99873,364.54864"
       id="path8704" />
    <path
       id="path8710"
       d="M -23.24968,364.45064 L 268.34975,364.45064"
       style="fill:url(#linearGradient8725);fill-opacity:1;fill-rule:evenodd;stroke:none;stroke-width:1.30378532;stroke-linecap:square;stroke-linejoin:miter;stroke-miterlimit:0;stroke-dasharray:none;stroke-opacity:1" />
    <g
       id="collapse_button">
      <path
         id="path9814"
         d="M 219.9375,625.15803 C 217.672,625.15803 215.875,623.42714 215.875,621.26648 L 215.875,605.15802 L 235,605.15802 L 235,621.26648 C 235,623.42714 233.20301,625.15803 230.9375,625.15803 L 219.9375,625.15803 z "
         style="opacity:0.4;fill:url(#linearGradient9828);fill-opacity:1;fill-rule:evenodd;stroke:none;stroke-width:0.84579986;stroke-miterlimit:4;stroke-dasharray:none;stroke-dashoffset:0;stroke-opacity:1" />
      <g
         id="g9816"
         transform="matrix(0.8598046,0,0,-0.9999998,53.76873,867.73729)">
        <path
           id="path9818"
           d="M 194.9626,251.29873 L 200.16904,255.0705 L 205.37549,251.29873 L 205.37549,251.29873 L 205.37549,251.29873"
           style="fill:none;fill-rule:evenodd;stroke:#ffffff;stroke-width:1.21765792;stroke-linecap:round;stroke-linejoin:round;stroke-miterlimit:4;stroke-dasharray:none;stroke-opacity:1" />
        <path
           id="path9820"
           d="M 194.9626,247.97286 L 200.16904,251.74463 L 205.37549,247.97286 L 205.37549,247.97286 L 205.37549,247.97286"
           style="fill:none;fill-rule:evenodd;stroke:#ffffff;stroke-width:1.21765792;stroke-linecap:round;stroke-linejoin:round;stroke-miterlimit:4;stroke-dasharray:none;stroke-opacity:1" />
      </g>
    </g>
    <g
       id="collapse_button_grayed_out">
      <path
         style="opacity:0.4;fill:url(#linearGradient4743);fill-opacity:1;fill-rule:evenodd;stroke:none;stroke-width:0.84579986;stroke-miterlimit:4;stroke-dasharray:none;stroke-dashoffset:0;stroke-opacity:1"
         d="M 169.9375,625.15803 C 167.672,625.15803 165.875,623.42714 165.875,621.26648 L 165.875,605.15802 L 185,605.15802 L 185,621.26648 C 185,623.42714 183.20301,625.15803 180.9375,625.15803 L 169.9375,625.15803 z "
         id="path4711" />
      <g
         style="stroke:#888a85;stroke-opacity:1;fill:none"
         transform="matrix(0.8598046,0,0,-0.9999998,3.76873,867.73729)"
         id="g4713">
        <path
           style="fill:none;fill-rule:evenodd;stroke:#888a85;stroke-width:1.21765792;stroke-linecap:round;stroke-linejoin:round;stroke-miterlimit:4;stroke-dasharray:none;stroke-opacity:1"
           d="M 194.9626,251.29873 L 200.16904,255.0705 L 205.37549,251.29873 L 205.37549,251.29873 L 205.37549,251.29873"
           id="path4715" />
        <path
           style="fill:none;fill-rule:evenodd;stroke:#888a85;stroke-width:1.21765792;stroke-linecap:round;stroke-linejoin:round;stroke-miterlimit:4;stroke-dasharray:none;stroke-opacity:1"
           d="M 194.9626,247.97286 L 200.16904,251.74463 L 205.37549,247.97286 L 205.37549,247.97286 L 205.37549,247.97286"
           id="path4717" />
      </g>
    </g>
    <path
       id="body_background"
       d="M 96.00001,535.15802 L 96.00001,554.84553 L 390,554.84553 L 390,535.15802 L 96.00001,535.15802 z "
       style="opacity:0.15;fill:#000000;fill-opacity:1;fill-rule:evenodd;stroke:none;stroke-linecap:round;stroke-linejoin:round;stroke-opacity:1" />
    <g
       id="head">
      <path
         style="fill:url(#linearGradient2501);fill-opacity:1;fill-rule:evenodd;stroke:none;stroke-width:1;stroke-linecap:square;stroke-linejoin:miter;stroke-miterlimit:4;stroke-dasharray:none;stroke-opacity:1"
         d="M 430.50154,486.92979 L 430.50154,505.6332"
         id="path7526" />
      <path
         style="fill:url(#linearGradient2495);fill-opacity:1;fill-rule:evenodd;stroke:none;stroke-width:1;stroke-linecap:square;stroke-linejoin:miter;stroke-miterlimit:0;stroke-dasharray:none;stroke-opacity:1"
         d="M 724.50154,487.17607 L 724.50154,505.87948"
         id="path7530" />
      <path
         style="fill:#565755;fill-opacity:1;fill-rule:evenodd;stroke:#2e3436;stroke-opacity:1"
         id="path12573"
         d="M 430.48365,444.05818 C 430.48365,434.17818 431.11365,433.55818 441.05365,433.55818 L 713.91369,433.55818 C 723.85369,433.55818 724.48369,434.17818 724.48369,444.05818 L 724.48369,493.55818 L 430.48365,493.55818 L 430.48365,444.05818 z"
         clip-rule="evenodd" />
      <path
         style="fill:none;fill-opacity:0;fill-rule:evenodd;stroke:#2e3436;stroke-width:0.75921756;stroke-linecap:square;stroke-linejoin:miter;stroke-miterlimit:4;stroke-dasharray:none;stroke-opacity:1"
         d="M 430.35,490.05563 L 430.35,500.82658"
         id="path12575" />
      <path
         style="fill:none;fill-rule:evenodd;stroke:#444444;stroke-width:0.91486323;stroke-linecap:butt;stroke-linejoin:miter;stroke-miterlimit:0;stroke-dasharray:none;stroke-opacity:1"
         d="M 430.85018,500.76359 L 724.11709,500.76359"
         id="path12577" />
      <path
         style="fill:none;fill-opacity:0;fill-rule:evenodd;stroke:#2e3436;stroke-width:0.75921756;stroke-linecap:square;stroke-linejoin:miter;stroke-miterlimit:0;stroke-dasharray:none;stroke-opacity:1"
         d="M 724.62039,490.05518 L 724.62039,500.82613"
         id="path12579" />
      <path
         style="fill:#666765;fill-opacity:1;fill-rule:evenodd;stroke:#2e3436;stroke-width:0.97001058;stroke-linecap:round;stroke-linejoin:miter;stroke-opacity:1"
         d="M 440.9676,487.64061 C 431.08645,487.64061 430.46637,488.22392 430.46637,497.51912 L 430.46637,505.36901 L 724.50089,505.36901 L 724.50089,497.51912 C 724.50089,488.22392 723.88089,487.64061 713.99969,487.64061 L 440.9676,487.64061 z"
         id="path12581" />
      <path
         style="fill:#e8e8e8;fill-opacity:1;stroke:none;stroke-width:1.05136228;stroke-linecap:round;stroke-linejoin:round;stroke-miterlimit:4;stroke-dashoffset:1.08779998;stroke-opacity:1"
         d="M 437.79919,434.95801 C 434.58727,434.95801 431.99999,436.66809 431.99999,438.77271 L 431.99999,455.81977 C 527.60671,462.10169 624.83236,461.08418 722.99999,455.81977 L 722.99999,438.77271 C 722.99999,436.66809 720.41229,434.95801 717.20049,434.95801 L 437.79919,434.95801 z"
         id="path28191"
         inkscape:export-filename="/home/lee/Work/amarok/amarok1-3-1.png"
         inkscape:export-xdpi="89.999985"
         inkscape:export-ydpi="89.999985" />
      <path
         id="path12583"
         d="M 431.6036,505.22314 L 723.36119,505.22314"
         style="fill:none;fill-opacity:1;fill-rule:evenodd;stroke:#666765;stroke-width:1.29975498;stroke-linecap:square;stroke-linejoin:miter;stroke-miterlimit:0;stroke-dasharray:none;stroke-opacity:1" />
      <path
         style="opacity:0.3;fill:#66ffff;fill-opacity:1;stroke:none;stroke-width:1.05136228;stroke-linecap:round;stroke-linejoin:round;stroke-miterlimit:4;stroke-dashoffset:1.08779998;stroke-opacity:1"
         d="M 432.00001,455.55827 L 432.00001,456.37077 C 527.60673,462.6527 624.83238,461.63518 722.99999,456.37077 L 722.99999,455.55827 C 624.83238,460.82268 527.60673,461.8402 432.00001,455.55827 z"
         id="path4244" />
    </g>
    <path
       id="selection_left2"
       style="fill:none;fill-opacity:1;fill-rule:evenodd;stroke:#66ffff;stroke-width:3.84280562;stroke-linecap:round;stroke-linejoin:miter;stroke-miterlimit:4;stroke-dasharray:none;stroke-opacity:1"
       d="M 452.88448,709.39784 C 466.98206,721.70816 466.98206,721.70816 466.98206,721.70816 M 452.88505,734.01677 C 466.98263,721.70645 466.98263,721.70645 466.98263,721.70645"
       inkscape:label="#path4213" />
    <path
       id="selection_right2"
       style="fill:none;fill-opacity:1;fill-rule:evenodd;stroke:#66ffff;stroke-width:3.84280562;stroke-linecap:round;stroke-linejoin:miter;stroke-miterlimit:4;stroke-dasharray:none;stroke-opacity:1"
       d="M 538.19071,706.84854 C 524.09313,719.15886 524.09313,719.15886 524.09313,719.15886 M 538.19014,731.46747 C 524.09256,719.15715 524.09256,719.15715 524.09256,719.15715"
       inkscape:label="#path7127" />
    <g
       id="collapsed_head">
      <path
         style="fill:#565755;fill-opacity:1;fill-rule:evenodd;stroke:#2e3436;stroke-opacity:1"
         id="path12694"
         d="M 430.342,596.15802 C 430.342,586.27802 430.972,585.65802 440.912,585.65802 L 713.77205,585.65802 C 723.71205,585.65802 724.34205,586.27802 724.34205,596.15802 L 724.34205,645.65802 L 430.342,645.65802 L 430.342,596.15802 z"
         clip-rule="evenodd" />
      <path
         style="fill:#e8e8e8;fill-opacity:1;stroke:none;stroke-width:1.05136228;stroke-linecap:round;stroke-linejoin:round;stroke-miterlimit:4;stroke-dashoffset:1.08779998;stroke-opacity:1"
         d="M 437.65754,587.05785 C 434.44562,587.05785 431.85834,588.92687 431.85834,591.2271 L 431.85834,609.85851 C 527.46506,616.72427 624.69071,615.6122 722.85835,609.85851 L 722.85835,591.2271 C 722.85835,588.92687 720.27065,587.05785 717.05885,587.05785 L 437.65754,587.05785 z"
         id="path12696"
         inkscape:export-filename="/home/lee/Work/amarok/amarok1-3-1.png"
         inkscape:export-xdpi="89.999985"
         inkscape:export-ydpi="89.999985" />
      <path
         id="path6184"
         d="M 431.858,609.65827 L 431.858,610.47077 C 527.46472,616.7527 624.69037,615.73518 722.85785,610.47077 L 722.85785,609.65827 C 624.69037,614.92268 527.46472,615.9402 431.858,609.65827 z"
         style="fill:#66ffff;fill-opacity:1;stroke:none;stroke-width:1.05136227999999998;stroke-linecap:round;stroke-linejoin:round;stroke-miterlimit:4;stroke-dashoffset:1.08779998000000000;stroke-opacity:1;opacity:0.3" />
      <path
         clip-rule="evenodd"
         d="M 430.26472,660.42372 C 430.26472,663.57908 430.89502,663.77709 440.83958,663.77709 L 713.82488,663.77709 C 723.76944,663.77709 724.39974,663.57908 724.39974,660.42372 L 724.39974,644.61498 L 430.26472,644.61498 L 430.26472,660.42372 z"
         id="path12638"
         style="fill:#666765;fill-opacity:1;fill-rule:evenodd;stroke:#2e3436;stroke-width:0.80051237;stroke-miterlimit:4;stroke-dasharray:none;stroke-opacity:1" />
      <path
         style="fill:url(#linearGradient3995);fill-opacity:1;fill-rule:evenodd;stroke:url(#linearGradient3997);stroke-width:1.16592717;stroke-linecap:round;stroke-linejoin:round;stroke-opacity:1"
         d="M 430.61296,644.79768 C 430.6261,646.07607 430.64419,647.48739 430.64419,649.11612 L 430.64419,660.31395 L 435.01672,660.48968 L 440.73229,655.81975 L 446.44781,660.48968 L 452.16337,655.81975 L 457.87893,660.48968 L 463.62569,655.81975 L 469.34126,660.48968 L 475.02554,655.81975 L 480.74113,660.48968 L 486.45663,655.81975 L 492.1722,660.48968 L 497.88777,655.81975 L 503.63452,660.48968 L 509.35007,655.81975 L 515.06563,660.48968 L 520.78117,655.81975 L 526.46546,660.48968 L 532.18101,655.81975 L 537.89659,660.48968 L 543.64336,655.81975 L 549.35888,660.48968 L 555.07444,655.81975 L 560.79001,660.48968 L 566.50555,655.81975 L 572.22106,660.48968 L 577.93665,655.81975 L 583.65222,660.48968 L 589.36772,655.81975 L 595.08329,660.48968 L 600.79875,655.81975 L 606.5144,660.48968 L 612.22989,655.81975 L 617.97667,660.48968 L 623.69221,655.81975 L 629.4078,660.48968 L 635.09213,655.81975 L 640.80767,660.48968 L 646.52319,655.81975 L 652.26996,660.48968 L 657.98551,655.81975 L 663.70109,660.48968 L 669.41664,655.81975 L 675.13218,660.48968 L 680.84772,655.81975 L 686.532,660.48968 L 692.27885,655.81975 L 697.99432,660.48968 L 703.70993,655.81975 L 709.42542,660.48968 L 715.14102,655.81975 L 720.85655,660.48968 L 724.41704,660.06288 L 724.10471,649.11612 C 724.10471,647.47245 724.12244,646.05106 724.13594,644.79768 L 430.61296,644.79768 z"
         id="path12644" />
      <path
         style="fill:none;fill-opacity:0;fill-rule:evenodd;stroke:#2e3436;stroke-width:0.70899999;stroke-linecap:square;stroke-linejoin:miter;stroke-miterlimit:0;stroke-dasharray:none;stroke-opacity:1"
         d="M 724.34347,644.31347 L 724.34347,659.75384"
         id="path12640" />
      <path
         style="fill:none;fill-opacity:0;fill-rule:evenodd;stroke:#2e3436;stroke-width:0.83200002;stroke-linecap:square;stroke-linejoin:miter;stroke-miterlimit:4;stroke-dasharray:none;stroke-opacity:1"
         d="M 430.26743,644.18646 L 430.26743,660.42083"
         id="path12642" />
    </g>
    <rect
       style="opacity:1;fill:url(#linearGradient10061);fill-opacity:1.0;fill-rule:evenodd;stroke:#000000;stroke-width:0;stroke-linecap:round;stroke-linejoin:miter;stroke-miterlimit:4;stroke-dasharray:none;stroke-opacity:1"
       id="selection_left1"
       width="56.568542"
       height="31.466251"
       x="552.14453"
       y="703.18567"
       inkscape:label="#rect8101" />
    <rect
       style="opacity:1;fill:url(#linearGradient10067);fill-opacity:1;fill-rule:evenodd;stroke:#000000;stroke-width:0;stroke-linecap:round;stroke-linejoin:miter;stroke-miterlimit:4;stroke-dasharray:none;stroke-opacity:1"
       id="selection_right1"
       width="56.568542"
       height="31.466251"
       x="-713.36487"
       y="703.36243"
       transform="scale(-1,1)"
       inkscape:label="#rect10065" />
    <path
       style="opacity:1;fill:#66ffff;fill-opacity:1;stroke:none;stroke-width:1.05136228;stroke-linecap:round;stroke-linejoin:round;stroke-miterlimit:4;stroke-dashoffset:1.08779998;stroke-opacity:1"
       d="M 154 374.65625 L 154 375.46875 C 249.60672 381.75068 346.83237 380.73316 445 375.46875 L 445 374.65625 C 346.83237 379.92066 249.60672 380.93818 154 374.65625 z "
       transform="translate(95,432.36218)"
       id="path3272" />
    <path
       style="opacity:1;fill:#66ffff;fill-opacity:1;fill-rule:evenodd;stroke:none;stroke-linecap:round;stroke-linejoin:round;stroke-opacity:1"
       d="M 425.93636,939.35933 L 425.93636,959.04683 L 572.43636,959.04683 L 572.43636,939.35933 L 425.93636,939.35933 z"
       id="selection_left_old" />
    <path
       id="selection_right_old"
       d="M 577.23636,939.35933 L 577.23636,959.04683 L 723.73636,959.04683 L 723.73636,939.35933 L 577.23636,939.35933 z"
       style="opacity:1;fill:#66ffff;fill-opacity:1;fill-rule:evenodd;stroke:none;stroke-linecap:round;stroke-linejoin:round;stroke-opacity:1"
       inkscape:label="#selection_right_old" />
    <g
       id="track"
       transform="translate(-35.98902,185.70002)">
      <path
         style="fill:#565755;fill-opacity:1;fill-rule:evenodd;stroke:#2e3436;stroke-opacity:1"
         id="path3348"
         d="M 131.48902,258.073 C 131.48902,248.193 132.11902,247.573 142.05902,247.573 L 414.91907,247.573 C 424.85907,247.573 425.48907,248.193 425.48907,258.073 L 425.48907,307.573 L 131.48902,307.573 L 131.48902,258.073 z"
         clip-rule="evenodd" />
      <path
         style="fill:#e8e8e8;fill-opacity:1;stroke:none;stroke-width:1.05136228;stroke-linecap:round;stroke-linejoin:round;stroke-miterlimit:4;stroke-dashoffset:1.08779998;stroke-opacity:1"
         d="M 138.80456,248.97283 C 135.59264,248.97283 133.00536,250.98916 133.00536,253.4707 L 133.00536,273.57063 C 228.61208,280.97755 325.83773,279.77782 424.00537,273.57063 L 424.00537,253.4707 C 424.00537,250.98916 421.41767,248.97283 418.20587,248.97283 L 138.80456,248.97283 z"
         id="path3350"
         inkscape:export-filename="/home/lee/Work/amarok/amarok1-3-1.png"
         inkscape:export-xdpi="89.999985"
         inkscape:export-ydpi="89.999985" />
      <path
         style="opacity:0.3;fill:#66ffff;fill-opacity:1;stroke:none;stroke-width:1.05136228;stroke-linecap:round;stroke-linejoin:round;stroke-miterlimit:4;stroke-dashoffset:1.08779998;stroke-opacity:1"
         d="M 133.041,273.40689 L 133.041,274.3611 C 228.64772,281.73871 325.87337,280.54372 424.04095,274.3611 L 424.04095,273.40689 C 325.87337,279.5895 228.64772,280.7845 133.041,273.40689 z"
         id="path3947" />
    </g>
    <path
       id="selection2"
       d="M 428.63637,901.97432 L 428.63637,921.66183 L 722.63636,921.66183 L 722.63636,901.97432 L 428.63637,901.97432 z"
       style="opacity:1;fill:#66ffff;fill-opacity:1;fill-rule:evenodd;stroke:none;stroke-linecap:round;stroke-linejoin:round;stroke-opacity:1" />
    <path
       style="opacity:0.5;fill:#66ffff;fill-opacity:1;fill-rule:evenodd;stroke:none;stroke-linecap:round;stroke-linejoin:round;stroke-opacity:1"
       d="M 435.77349,836.51415 L 435.77349,856.20166 L 729.77348,856.20166 L 729.77348,836.51415 L 435.77349,836.51415 z"
       id="path2488" />
    <path
       style="opacity:0.5;fill:#66ffff;fill-opacity:1;fill-rule:evenodd;stroke:none;stroke-linecap:round;stroke-linejoin:round;stroke-opacity:1"
       d="M 435.77349,836.50532 L 435.77349,846.09907 L 729.77349,846.09907 L 729.77349,836.50532 L 435.77349,836.50532 z"
       id="path2490" />
    <g
       id="selection"
       transform="translate(16.771581,-346.61268)">
      <rect
         inkscape:label="#selection"
         style="opacity:1;fill:#66ffff;fill-opacity:1;stroke:none;stroke-width:10;stroke-linejoin:miter;stroke-miterlimit:4;stroke-dasharray:none;stroke-opacity:1"
         id="selection_background"
         width="294"
         height="20"
         x="87"
         y="1046.158"
         rx="2"
         ry="2.0316944" />
      <rect
         ry="1.9295943"
         rx="1.9931628"
         y="1046.6605"
         x="87.502533"
         height="18.994926"
         width="292.99493"
         id="selection_border"
         style="opacity:0.25;fill:none;fill-opacity:1;stroke:#ffffff;stroke-width:1.0050745;stroke-linejoin:miter;stroke-miterlimit:4;stroke-dasharray:none;stroke-opacity:1" />
    </g>
    <g
       id="active_overlay"
       inkscape:label="#active_overlay"
       transform="matrix(0.9990762,0,0,1,19.346864,-259.9163)">
      <rect
         ry="2.0113773"
         rx="2.0018494"
         y="928.35828"
         x="81.728638"
         height="19.799999"
         width="294.27185"
         id="active_overlay_background"
         style="opacity:1;fill:#66ffff;fill-opacity:1;stroke:none;stroke-width:10;stroke-linejoin:miter;stroke-miterlimit:4;stroke-dasharray:none;stroke-opacity:1" />
      <g
         transform="matrix(1.000923,0,0,1.0158472,-1.5866914,57.29855)"
         id="active_overlay_gloss">
        <rect
           ry="2"
           rx="2"
           y="857.27405"
           x="83.238503"
           height="19.688"
           width="294"
           id="rect3289"
           style="opacity:0;fill:#66ffff;fill-opacity:1;stroke:none;stroke-width:10;stroke-linejoin:miter;stroke-miterlimit:4;stroke-dasharray:none;stroke-opacity:1" />
        <path
           style="opacity:0.5;fill:#ffffff;fill-opacity:1;stroke:none;stroke-width:10;stroke-linejoin:miter;stroke-miterlimit:4;stroke-dasharray:none;stroke-opacity:1"
           d="M 85.239,857.49327 C 84.131,857.49327 83.239,858.38527 83.239,859.49327 L 83.239,866.96202 L 377.239,866.96202 L 377.239,859.49327 C 377.239,858.38527 376.34698,857.49327 375.239,857.49327 L 85.239,857.49327 z "
           id="rect3284" />
      </g>
      <rect
         style="opacity:0.25;fill:none;fill-opacity:1;stroke:#ffffff;stroke-width:1.00552714;stroke-linejoin:miter;stroke-miterlimit:4;stroke-dasharray:none;stroke-opacity:1"
         id="active_overlay_border"
         width="293.26587"
         height="18.994474"
         x="82.231407"
         y="928.66132"
         rx="1.9950057"
         ry="1.9295481" />
    </g>
  </g>
</svg>
