<?xml version="1.0" encoding="UTF-8" standalone="no"?>
<!-- Created with Inkscape (http://www.inkscape.org/) -->
<svg
   xmlns:dc="http://purl.org/dc/elements/1.1/"
   xmlns:cc="http://web.resource.org/cc/"
   xmlns:rdf="http://www.w3.org/1999/02/22-rdf-syntax-ns#"
   xmlns:svg="http://www.w3.org/2000/svg"
   xmlns="http://www.w3.org/2000/svg"
   xmlns:sodipodi="http://sodipodi.sourceforge.net/DTD/sodipodi-0.dtd"
   xmlns:inkscape="http://www.inkscape.org/namespaces/inkscape"
   width="1349"
   height="90"
   id="svg8033"
   sodipodi:version="0.32"
   inkscape:version="0.45.1"
   sodipodi:docbase="/home/amarok-dev/amarok/src/images"
   sodipodi:docname="toolbar-background.svg"
   inkscape:output_extension="org.inkscape.output.svg.inkscape"
   version="1.0">
  <defs
     id="defs8035" />
  <sodipodi:namedview
     id="base"
     pagecolor="#ffffff"
     bordercolor="#666666"
     borderopacity="1.0"
     gridtolerance="10000"
     guidetolerance="10"
     objecttolerance="10"
     inkscape:pageopacity="0.0"
     inkscape:pageshadow="2"
     inkscape:zoom="1.2940408"
     inkscape:cx="526.33474"
     inkscape:cy="-4.4047081"
     inkscape:document-units="px"
     inkscape:current-layer="layer1"
     showgrid="true"
     inkscape:window-width="1680"
     inkscape:window-height="995"
     inkscape:window-x="0"
     inkscape:window-y="0" />
  <metadata
     id="metadata8038">
    <rdf:RDF>
      <cc:Work
         rdf:about="">
        <dc:format>image/svg+xml</dc:format>
        <dc:type
           rdf:resource="http://purl.org/dc/dcmitype/StillImage" />
      </cc:Work>
    </rdf:RDF>
  </metadata>
  <g
     inkscape:label="Layer 1"
     inkscape:groupmode="layer"
     id="layer1"
     transform="translate(659,-252)">
    <g
       id="toolbarbackground">
      <rect
         y="252"
         x="-659"
         height="90"
         width="1349"
         id="rect12421"
         style="opacity:1;fill:#565755;fill-opacity:1;fill-rule:evenodd;stroke:none;stroke-width:5;stroke-linecap:butt;stroke-linejoin:miter;stroke-miterlimit:4;stroke-dasharray:none;stroke-opacity:1" />
      <path
         style="opacity:1;fill:#e8e8e8;fill-opacity:1;fill-rule:evenodd;stroke:none;stroke-width:5;stroke-linecap:butt;stroke-linejoin:miter;stroke-miterlimit:4;stroke-dasharray:none;stroke-opacity:1"
         d="M -0.0061405445,0 L 0.0094409592,15.357952 C 402.21715,61.904152 946.67067,61.21258 1349,15.15625 L 1349,0 L -0.0061405445,0 z "
         transform="translate(-659,252)"
         id="rect8041"
         sodipodi:nodetypes="ccccc" />
      <path
         style="opacity:1;fill:#66ffff;fill-opacity:1;fill-rule:evenodd;stroke:none;stroke-width:5;stroke-linecap:butt;stroke-linejoin:miter;stroke-miterlimit:4;stroke-dasharray:none;stroke-opacity:1"
         d="M 0.010935492,13.400723 L -0.00056195335,15.372098 C 402.20716,61.918298 946.67067,61.21258 1349,15.15625 L 1349,13.15625 C 946.67067,59.21258 402.23422,59.94952 0.026516996,13.40332 L 0.0080334192,13.387612 L 0.010935492,13.400723 z "
         transform="translate(-659,252)"
         id="path2165"
         sodipodi:nodetypes="ccccccc" />
    </g>
    <g
       id="buttonbar"
       transform="translate(-1151.7164,-703.31621)">
      <g
         transform="matrix(0.998055,0,0,1.5195357,522.78904,-420.42228)"
         id="g10698">
        <path
           style="opacity:0.14100001;fill:#000000;fill-opacity:1;stroke:none;stroke-width:1.99059045;stroke-miterlimit:4;stroke-dasharray:none;stroke-opacity:1"
           d="M 542,164.28125 C 535.31259,165.28401 528.64123,166.22125 521.96875,167.03125 C 514.43396,167.94606 506.88922,168.72556 499.375,169.375 C 491.86078,170.02457 484.36703,170.51181 476.875,170.875 C 469.38295,171.23834 461.90572,171.50645 454.4375,171.5625 C 446.96928,171.61854 439.50529,171.52239 432.0625,171.25 C 424.61975,170.97776 417.19695,170.52783 409.78125,169.90625 C 402.36555,169.28485 394.94949,168.49186 387.5625,167.5 C 381.02913,166.62292 374.50969,165.49483 368,164.3125 L 368,170.9375 C 368,180.94512 373.51129,189.00001 380.375,189 L 529.625,189 C 536.48868,189 541.99999,180.94511 542,170.9375 L 542,164.28125 z "
           transform="matrix(1.0019488,0,0,0.6580958,164.24682,819.15713)"
           id="rect8620" />
        <path
           style="opacity:0.15;fill:#ffffff;fill-opacity:1;stroke:none;stroke-width:1.26057625;stroke-miterlimit:4;stroke-dasharray:none;stroke-opacity:1"
           d="M 380.375,138 C 379.87051,138 379.36323,138.04039 378.875,138.125 C 377.71606,138.32584 376.5984,138.74347 375.5625,139.375 C 375.55049,139.38232 375.54324,139.39887 375.53125,139.40625 C 374.7903,139.86201 374.09557,140.41462 373.4375,141.0625 C 370.47619,143.97796 368.44087,148.74018 368.0625,154.21875 C 368.03583,154.69367 368,155.17118 368,155.65625 C 367.99793,155.79315 368,155.92484 368,156.0625 L 368,164.3125 C 374.50969,165.49483 381.02913,166.62292 387.5625,167.5 C 394.94949,168.49186 402.36555,169.28485 409.78125,169.90625 C 417.19695,170.52783 424.61975,170.97776 432.0625,171.25 C 439.50529,171.52239 446.96928,171.61854 454.4375,171.5625 C 461.90572,171.50645 469.38295,171.23834 476.875,170.875 C 484.36703,170.51181 491.86078,170.02457 499.375,169.375 C 506.88922,168.72556 514.43396,167.94606 521.96875,167.03125 C 528.64123,166.22125 535.31258,165.28401 542,164.28125 L 542,156.0625 C 542,155.43702 541.97954,154.82748 541.9375,154.21875 C 541.55912,148.74018 539.52381,143.97796 536.5625,141.0625 C 535.90443,140.41462 535.2097,139.86201 534.46875,139.40625 C 534.45676,139.39887 534.44951,139.38232 534.4375,139.375 C 533.4016,138.74347 532.28394,138.32584 531.125,138.125 C 531.05318,138.11263 530.97845,138.10438 530.90625,138.09375 C 530.89612,138.09226 530.88513,138.09521 530.875,138.09375 C 530.46766,138.0352 530.04326,138.00145 529.625,138 L 380.375,138 z "
           id="path12847"
           transform="matrix(1.0019488,0,0,0.6580958,164.24682,819.15713)" />
        <path
           style="opacity:0.30100002;fill:#000000;fill-opacity:1;stroke:none;stroke-width:1.99059045;stroke-miterlimit:4;stroke-dasharray:none;stroke-opacity:1"
           d="M 543.6723,908.65815 C 536.63714,908.65815 530.96006,914.36793 530.96007,921.47045 L 530.96007,932.04111 C 530.96007,939.14363 536.63714,944.85341 543.6723,944.85341 L 696.59474,944.85341 C 703.6299,944.85341 709.30696,939.14362 709.30696,932.04111 L 709.30696,921.47045 C 709.30696,914.36793 703.62988,908.65815 696.59474,908.65815 L 543.6723,908.65815 z M 545.36309,909.97434 L 694.90395,909.97434 C 701.78101,909.97434 707.30306,915.27522 707.30306,921.86119 L 707.30306,931.65037 C 707.30305,938.23634 701.78101,943.53722 694.90395,943.53722 L 545.36309,943.53722 C 538.48601,943.53722 532.96397,938.23634 532.96397,931.65037 L 532.96397,921.86119 C 532.96397,915.27522 538.48602,909.97434 545.36309,909.97434 z "
           id="path17705" />
      </g>
    </g>
  </g>
</svg>
