<?xml version="1.0" encoding="UTF-8" standalone="no"?>
<!-- Created with Inkscape (http://www.inkscape.org/) -->
<svg
   xmlns:dc="http://purl.org/dc/elements/1.1/"
   xmlns:cc="http://web.resource.org/cc/"
   xmlns:rdf="http://www.w3.org/1999/02/22-rdf-syntax-ns#"
   xmlns:svg="http://www.w3.org/2000/svg"
   xmlns="http://www.w3.org/2000/svg"
   xmlns:sodipodi="http://sodipodi.sourceforge.net/DTD/sodipodi-0.dtd"
   xmlns:inkscape="http://www.inkscape.org/namespaces/inkscape"
   width="1349"
   height="90"
   id="svg8033"
   sodipodi:version="0.32"
   inkscape:version="0.45.1"
   sodipodi:docbase="/home/amarok-dev/amarok/src/images"
   sodipodi:docname="toolbar-background.svg"
   inkscape:output_extension="org.inkscape.output.svg.inkscape"
   version="1.0">
  <defs
     id="defs8035" />
  <sodipodi:namedview
     id="base"
     pagecolor="#ffffff"
     bordercolor="#666666"
     borderopacity="1.0"
     gridtolerance="10000"
     guidetolerance="10"
     objecttolerance="10"
     inkscape:pageopacity="0.0"
     inkscape:pageshadow="2"
     inkscape:zoom="5.176163"
     inkscape:cx="429.06469"
     inkscape:cy="36.970674"
     inkscape:document-units="px"
     inkscape:current-layer="toolbarbackground"
     showgrid="true"
     inkscape:window-width="1680"
     inkscape:window-height="995"
     inkscape:window-x="0"
     inkscape:window-y="0" />
  <metadata
     id="metadata8038">
    <rdf:RDF>
      <cc:Work
         rdf:about="">
        <dc:format>image/svg+xml</dc:format>
        <dc:type
           rdf:resource="http://purl.org/dc/dcmitype/StillImage" />
      </cc:Work>
    </rdf:RDF>
  </metadata>
  <g
     inkscape:label="Layer 1"
     inkscape:groupmode="layer"
     id="layer1"
     transform="translate(659,-252)">
    <g
       id="toolbarbackground">
      <rect
         y="252"
         x="-659"
         height="90"
         width="1349"
         id="rect12421"
         style="opacity:1;fill:#565755;fill-opacity:1;fill-rule:evenodd;stroke:none;stroke-width:5;stroke-linecap:butt;stroke-linejoin:miter;stroke-miterlimit:4;stroke-dasharray:none;stroke-opacity:1" />
      <path
         id="rect8041"
         d="M -659,252 L -658.49575,282.27689 C -256.28804,328.82309 287.67067,328.09121 690,282.03488 L 690,252 L -659,252 z "
         style="opacity:1;fill:#e8e8e8;fill-opacity:1;fill-rule:evenodd;stroke:none;stroke-width:5;stroke-linecap:butt;stroke-linejoin:miter;stroke-miterlimit:4;stroke-dasharray:none;stroke-opacity:1" />
    </g>
    <g
       id="buttonbar"
       transform="translate(-1150.7164,-697.31622)">
      <path
         id="rect7773"
         d="M 1065.284,960.23984 C 1058.2549,960.23984 1052.6141,969.2636 1052.6141,980.48781 L 1052.6141,997.19009 C 1052.6141,1008.4141 1058.2549,1017.4381 1065.284,1017.4381 L 1218.1229,1017.4381 C 1225.152,1017.4381 1230.7927,1008.4141 1230.7928,997.19009 L 1230.7928,980.48781 C 1230.7928,969.2636 1225.152,960.23984 1218.1229,960.23984 L 1065.284,960.23984 z M 1066.5171,961.73263 L 1217.5989,961.73263 C 1224.5491,961.73263 1230.1453,970.32379 1230.1453,980.95432 L 1230.1453,996.72345 C 1230.1454,1007.354 1224.5491,1015.9452 1217.5989,1015.9452 L 1066.5171,1015.9452 C 1059.5669,1015.9452 1053.9705,1007.354 1053.9705,996.72345 L 1053.9705,980.95432 C 1053.9705,970.32379 1059.5669,961.73263 1066.5171,961.73263 z "
         style="fill:none;fill-opacity:1;stroke:#d1d1d1;stroke-width:1.84724271;stroke-miterlimit:4;stroke-dasharray:none;stroke-opacity:1" />
      <g
         transform="matrix(0.998055,0,0,1.5195357,522.78904,-420.42228)"
         id="g10698">
        <rect
           style="opacity:0.5;fill:#bbbbbb;fill-opacity:1;stroke:#b1b1b1;stroke-width:1.26057625;stroke-miterlimit:4;stroke-dasharray:none;stroke-opacity:1"
           id="rect8620"
           width="176.3812"
           height="34.866421"
           x="532.09991"
           y="909.87012"
           rx="12.558887"
           ry="12.349752" />
        <path
           style="opacity:0.4;fill:#ffffff;fill-opacity:1;stroke:none;stroke-width:1.26057625;stroke-miterlimit:4;stroke-dasharray:none;stroke-opacity:1"
           d="M 531.55423,927.92249 C 538.19403,928.74939 544.85457,929.52779 551.5185,930.14119 C 559.05314,930.83489 566.59124,931.39409 574.15515,931.82869 C 581.71907,932.26339 589.29461,932.57579 596.88613,932.76619 C 604.47765,932.95669 612.09395,933.02419 619.71143,932.98499 C 627.3289,932.94579 634.95783,932.77029 642.59961,932.51619 C 650.24138,932.26219 657.88626,931.90799 665.55066,931.45369 C 673.21505,930.99949 680.91066,930.46849 688.59604,929.82869 C 695.4019,929.26219 702.21082,928.59249 709.0319,927.89119 L 709.0319,921.85999 C 709.0319,915.01819 703.39297,909.51619 696.3931,909.51619 L 544.19303,909.51619 C 537.19314,909.51619 531.55423,915.01819 531.55423,921.85999 L 531.55423,927.92249 z "
           id="rect4794" />
      </g>
    </g>
  </g>
</svg>
