<?xml version="1.0" encoding="UTF-8" standalone="no"?>
<!-- Created with Inkscape (http://www.inkscape.org/) -->
<svg
   xmlns:dc="http://purl.org/dc/elements/1.1/"
   xmlns:cc="http://web.resource.org/cc/"
   xmlns:rdf="http://www.w3.org/1999/02/22-rdf-syntax-ns#"
   xmlns:svg="http://www.w3.org/2000/svg"
   xmlns="http://www.w3.org/2000/svg"
   xmlns:sodipodi="http://sodipodi.sourceforge.net/DTD/sodipodi-0.dtd"
   xmlns:inkscape="http://www.inkscape.org/namespaces/inkscape"
   width="1200"
   height="80.000061"
   id="svg9402"
   sodipodi:version="0.32"
   inkscape:version="0.45.1"
   sodipodi:docbase="/home/amarok-dev/amarok/src/images"
   sodipodi:docname="toolbar-background.svg"
   inkscape:output_extension="org.inkscape.output.svg.inkscape"
   version="1.0">
  <defs
     id="defs9404" />
  <sodipodi:namedview
     id="base"
     pagecolor="#ffffff"
     bordercolor="#666666"
     borderopacity="1.0"
     gridtolerance="10000"
     guidetolerance="10"
     objecttolerance="10"
     inkscape:pageopacity="0.0"
     inkscape:pageshadow="2"
     inkscape:zoom="0.9899495"
     inkscape:cx="520.70483"
     inkscape:cy="137.05599"
     inkscape:document-units="px"
     inkscape:current-layer="layer1"
     inkscape:window-width="1670"
     inkscape:window-height="972"
     inkscape:window-x="0"
     inkscape:window-y="15"
     inkscape:showpageshadow="false"
     showguides="true"
     inkscape:guide-bbox="true"
     showgrid="true" />
  <metadata
     id="metadata9407">
    <rdf:RDF>
      <cc:Work
         rdf:about="">
        <dc:format>image/svg+xml</dc:format>
        <dc:type
           rdf:resource="http://purl.org/dc/dcmitype/StillImage" />
      </cc:Work>
    </rdf:RDF>
  </metadata>
  <g
     inkscape:label="Layer 1"
     inkscape:groupmode="layer"
     id="layer1"
     transform="translate(-518.55852,-948.3617)">
    <g
       id="toolbarbackground">
      <g
         style="opacity:1"
         transform="matrix(0.9976247,0,0,1,4.0820951,-102.85711)"
         id="g4477">
        <rect
           id="rect3334"
           x="515.70135"
           y="-1131.2189"
           width="1202.8572"
           height="79.999977"
           transform="scale(1,-1)"
           style="opacity:0.9;fill:#2e3436;fill-opacity:1;fill-rule:evenodd;stroke:none;stroke-width:0.02646151;stroke-miterlimit:4;stroke-dasharray:none;stroke-dashoffset:0;stroke-opacity:1" />
        <rect
           id="rect3349"
           x="515.70135"
           y="1051.2189"
           width="1202.8572"
           height="79.999977"
           style="opacity:0.9;fill:#666765;fill-opacity:1;fill-rule:evenodd;stroke:none;stroke-width:0.02646151;stroke-miterlimit:4;stroke-dasharray:none;stroke-dashoffset:0;stroke-opacity:1" />
        <g
           id="g33430"
           transform="matrix(0.9875101,0,0,0.1328596,515.70137,1051.5031)"
           style="opacity:0.9">
          <path
             style="opacity:0.1;fill:#565656"
             d="M 772.78642,300.4984 L 772.78642,1.060781 L 730.80662,1.060781 C 692.95482,1.060781 688.79902,1.1494995 688.54482,1.9629665 C 688.17622,3.1426304 688.17622,597.85416 688.54482,599.03383 C 688.79902,599.84733 692.95482,599.93602 730.80662,599.93602 L 772.78642,599.93602 L 772.78642,300.4984 z M 653.61432,599.03383 C 653.98302,597.85416 653.98302,3.1426304 653.61432,1.9629665 C 653.37002,1.181103 652.06942,1.060781 643.86162,1.060781 L 634.39082,1.060781 L 634.39082,300.4984 L 634.39082,599.93602 L 643.86162,599.93602 C 652.06942,599.93602 653.37002,599.81567 653.61432,599.03383 z M 619.06512,300.4984 L 619.06512,1.060781 L 601.69922,1.060781 C 586.29222,1.060781 584.30152,1.1625499 584.05152,1.9629665 C 583.89642,2.4591656 583.76962,136.80011 583.76962,300.4984 C 583.76962,464.19669 583.89642,598.53762 584.05152,599.03383 C 584.30152,599.83426 586.29222,599.93602 601.69922,599.93602 L 619.06512,599.93602 L 619.06512,300.4984 z M 546.61642,300.4984 L 546.61642,1.060781 L 539.18572,1.060781 L 531.75512,1.060781 L 531.75512,300.4984 L 531.75512,599.93602 L 539.18572,599.93602 L 546.61642,599.93602 L 546.61642,300.4984 z M 499.24602,300.4984 L 499.24602,1.060781 L 469.72255,1.060781 C 444.75469,1.060781 440.09663,1.1865103 439.53555,1.8755758 C 438.53344,3.10631 438.53344,597.89049 439.53555,599.1212 C 440.09663,599.81031 444.75469,599.93602 469.72255,599.93602 L 499.24602,599.93602 L 499.24602,300.4984 z M 438.63991,300.4984 L 438.63991,1.060781 L 433.29918,1.060781 L 427.95836,1.060781 L 427.95836,300.4984 L 427.95836,599.93602 L 433.29918,599.93602 L 438.63991,599.93602 L 438.63991,300.4984 z M 427.14561,599.08288 C 427.60848,598.43723 427.72616,537.90271 427.72616,300.48174 C 427.72616,43.156366 427.63605,2.5796539 427.06271,1.8755758 C 426.14212,0.74493406 380.59081,0.64601712 380.16233,1.7737277 C 379.94565,2.3440847 379.8372,2.3440847 379.62047,1.7737277 C 379.42651,1.2631264 377.81189,1.060781 373.93145,1.060781 L 368.51326,1.060781 L 368.51326,300.4984 L 368.51326,599.93602 L 373.93145,599.93602 C 377.81189,599.93602 379.42651,599.73366 379.62047,599.22307 C 379.8372,598.65272 379.94565,598.65272 380.16233,599.22307 C 380.58918,600.34645 426.33766,600.2099 427.14561,599.08288 z M 367.99916,599.03383 C 368.15419,598.53762 368.28106,464.19669 368.28106,300.4984 C 368.28106,136.80011 368.15419,2.4591656 367.99916,1.9629665 C 367.75194,1.1718234 366.20856,1.060781 355.45997,1.060781 L 343.20263,1.060781 L 343.20263,300.4984 L 343.20263,599.93602 L 355.45997,599.93602 C 366.20856,599.93602 367.75194,599.82497 367.99916,599.03383 z M 299.0832,300.4984 L 299.0832,1.060781 L 257.05366,1.060781 L 215.02412,1.060781 L 215.02412,300.4984 L 215.02412,599.93602 L 257.05366,599.93602 L 299.0832,599.93602 L 299.0832,300.4984 z M 178.33531,300.4984 L 178.33531,1.060781 L 136.35547,1.060781 C 98.503779,1.060781 94.347909,1.1494995 94.093679,1.9629665 C 93.938649,2.4591656 93.811829,136.80011 93.811829,300.4984 C 93.811829,464.19669 93.938649,598.53762 94.093679,599.03383 C 94.347909,599.84733 98.503779,599.93602 136.35547,599.93602 L 178.33531,599.93602 L 178.33531,300.4984 z M 59.163199,599.03383 C 59.318229,598.53762 59.445099,464.19669 59.445099,300.4984 C 59.445099,136.80011 59.318229,2.4591656 59.163199,1.9629665 C 58.918949,1.181103 57.618239,1.060781 49.410499,1.060781 L 39.939649,1.060781 L 39.939649,300.4984 L 39.939649,599.93602 L 49.410499,599.93602 C 57.618239,599.93602 58.918949,599.81567 59.163199,599.03383 z M 24.613979,300.4984 L 24.613979,1.060781 L 12.306989,1.060781 L -6.152344e-07,1.060781 L -6.152344e-07,300.4984 L -6.152344e-07,599.93602 L 12.306989,599.93602 L 24.613979,599.93602 L 24.613979,300.4984 z M 686.63922,300.4984 C 686.63922,136.27826 686.58622,69.097286 686.52142,151.20736 C 686.45652,233.31743 686.45652,367.67937 686.52142,449.78944 C 686.58622,531.89952 686.63922,464.71855 686.63922,300.4984 z M 92.188119,300.4984 C 92.188119,136.27826 92.135109,69.097286 92.070239,151.20736 C 92.005419,233.31743 92.005419,367.67937 92.070239,449.78944 C 92.135109,531.89952 92.188119,464.71855 92.188119,300.4984 z "
             id="path3339" />
          <path
             style="opacity:0.1;fill:#d5d5d5"
             d="M 774.31747,300.56245 L 774.31747,1.1248277 L 750.73337,1.1248277 C 732.30167,1.1248277 727.09807,1.2805871 726.91457,1.8377744 C 726.72677,2.4081323 726.67247,2.4081323 726.64307,1.8377744 C 726.61437,1.2804097 722.65567,1.1248277 708.50257,1.1248277 C 692.42377,1.1248277 690.36727,1.2257358 690.11637,2.0270132 C 689.74687,3.206678 689.74687,597.9182 690.11637,599.09787 C 690.36727,599.89911 692.42037,600.00006 708.46387,600.00006 C 722.48017,600.00006 726.58137,599.8403 726.76357,599.28711 C 726.95137,598.71676 727.00567,598.71676 727.03507,599.28711 C 727.06397,599.84749 732.12627,600.00006 750.69467,600.00006 L 774.31747,600.00006 L 774.31747,300.56245 z M 654.92317,300.56245 L 654.92317,1.1248277 L 645.66347,1.1248277 C 637.64927,1.1248277 636.36577,1.2461767 636.12127,2.0270132 C 635.75187,3.206678 635.75187,597.9182 636.12127,599.09787 C 636.36577,599.87869 637.64927,600.00006 645.66347,600.00006 L 654.92317,600.00006 L 654.92317,300.56245 z M 620.19557,599.09787 C 620.56497,597.9182 620.56497,3.206678 620.19557,2.0270132 C 619.94497,1.2268992 617.97017,1.1248277 602.74027,1.1248277 L 585.56745,1.1248277 L 585.56745,300.56245 L 585.56745,600.00006 L 602.74027,600.00006 C 617.97017,600.00006 619.94497,599.89797 620.19557,599.09787 z M 547.63121,300.56245 L 547.63121,1.1248277 L 540.53273,1.1248277 L 533.43427,1.1248277 L 533.43427,300.56245 L 533.43427,600.00006 L 540.53273,600.00006 L 547.63121,600.00006 L 547.63121,300.56245 z M 500.15276,300.56245 L 500.15276,1.1248277 L 470.52852,1.1248277 C 443.94455,1.1248277 440.87531,1.2174143 440.6218,2.0270132 C 440.46639,2.5232133 440.33923,136.86417 440.33923,300.56245 C 440.33923,464.26074 440.46639,598.60166 440.6218,599.09787 C 440.87531,599.9075 443.94455,600.00006 470.52852,600.00006 L 500.15276,600.00006 L 500.15276,300.56245 z M 427.95438,599.09787 C 428.10975,598.60166 428.23691,464.26074 428.23691,300.56245 C 428.23691,136.86417 428.10975,2.5232133 427.95438,2.0270132 C 427.70199,1.2210589 425.20011,1.1248277 404.49766,1.1248277 C 383.79528,1.1248277 381.29339,1.2210589 381.041,2.0270132 C 380.88563,2.5232133 380.75847,136.86417 380.75847,300.56245 C 380.75847,464.26074 380.88563,598.60166 381.041,599.09787 C 381.29339,599.90385 383.79528,600.00006 404.49766,600.00006 C 425.20011,600.00006 427.70199,599.90385 427.95438,599.09787 z M 368.37357,599.09787 C 368.52899,598.60166 368.65616,464.26074 368.65616,300.56245 C 368.65616,136.86417 368.52899,2.5232133 368.37357,2.0270132 C 368.12601,1.2364814 366.59946,1.1248277 356.03848,1.1248277 L 343.98597,1.1248277 L 343.98597,300.56245 L 343.98597,600.00006 L 356.03848,600.00006 C 366.59946,600.00006 368.12601,599.88839 368.37357,599.09787 z M 299.5331,300.56245 L 299.5331,1.1248277 L 280.60381,1.1248277 C 265.89587,1.1248277 261.6221,1.2838209 261.4397,1.8377744 C 261.25189,2.4081323 261.19752,2.4081323 261.16815,1.8377744 C 261.11612,0.82790548 252.46274,0.82790548 252.13022,1.8377744 C 251.94237,2.4081323 251.88805,2.4081323 251.85868,1.8377744 C 251.82994,1.2805811 247.91781,1.1248277 233.95094,1.1248277 C 218.08433,1.1248277 216.04824,1.2260154 215.79742,2.0270132 C 215.642,2.5232133 215.51489,136.86417 215.51489,300.56245 C 215.51489,464.26074 215.642,598.60166 215.79742,599.09787 C 216.04824,599.89883 218.08087,600.00006 233.91218,600.00006 C 247.74236,600.00006 251.79702,599.84007 251.97908,599.28711 C 252.16694,598.71676 252.2212,598.71676 252.25067,599.28711 C 252.27728,599.80381 253.49397,600.00006 256.67063,600.00006 C 259.74163,600.00006 261.12409,599.78663 261.28861,599.28711 C 261.47641,598.71676 261.53077,598.71676 261.56015,599.28711 C 261.58889,599.84509 265.72042,600.00006 280.56501,600.00006 L 299.5331,600.00006 L 299.5331,300.56245 z M 178.50965,300.56245 L 178.50965,1.1248277 L 154.92552,1.1248277 C 136.49385,1.1248277 131.29025,1.2805871 131.10672,1.8377744 C 130.91892,2.4081323 130.8646,2.4081323 130.83517,1.8377744 C 130.80644,1.2804097 126.84777,1.1248277 112.69474,1.1248277 C 96.61587,1.1248277 94.55941,1.2257358 94.30844,2.0270132 C 94.15307,2.5232133 94.02596,136.86417 94.02596,300.56245 C 94.02596,464.26074 94.15307,598.60166 94.30844,599.09787 C 94.55941,599.89911 96.61252,600.00006 112.65594,600.00006 C 126.67232,600.00006 130.77352,599.8403 130.95568,599.28711 C 131.14349,598.71676 131.1978,598.71676 131.22722,599.28711 C 131.25601,599.84749 136.3184,600.00006 154.88682,600.00006 L 178.50965,600.00006 L 178.50965,300.56245 z M 59.1153,300.56245 L 59.1153,1.1248277 L 49.85563,1.1248277 C 41.84138,1.1248277 40.55788,1.2461767 40.31337,2.0270132 C 40.158,2.5232133 40.03084,136.86417 40.03084,300.56245 C 40.03084,464.26074 40.158,598.60166 40.31337,599.09787 C 40.55788,599.87869 41.84138,600.00006 49.85563,600.00006 L 59.1153,600.00006 L 59.1153,300.56245 z M 24.38763,599.09787 C 24.54305,598.60166 24.67016,464.26074 24.67016,300.56245 C 24.67016,136.86417 24.54305,2.5232133 24.38763,2.0270132 C 24.14006,1.2364814 22.61351,1.1248277 12.05254,1.1248277 L 0,1.1248277 L 0,300.56245 L 0,600.00006 L 12.05254,600.00006 C 22.61351,600.00006 24.14006,599.88839 24.38763,599.09787 z "
             id="path3341" />
          <path
             style="opacity:0.1;fill:#898989"
             d="M 779.45325,300.5145 C 779.45325,135.8238 779.38295,1.3335327 779.29695,1.6472301 C 779.09345,2.3900747 777.81225,2.3900747 777.81225,1.6472301 C 777.81225,0.73547948 741.85575,0.87687672 741.55295,1.7898189 C 741.36375,2.3601768 741.30905,2.3601768 741.27945,1.7898189 C 741.25275,1.2756079 740.06625,1.0768721 737.02285,1.0768721 L 732.80325,1.0768721 L 732.80325,300.5145 L 732.80325,599.95211 L 736.98385,599.95211 C 739.88955,599.95211 741.23645,599.73469 741.40075,599.23916 C 741.58995,598.66881 741.64465,598.66881 741.67425,599.23916 C 741.72175,600.15322 777.81225,600.29558 777.81225,599.38175 C 777.81225,599.06806 778.11115,598.8114 778.47645,598.8114 C 778.84185,598.8114 779.21105,599.06806 779.29695,599.38175 C 779.38295,599.69545 779.45325,465.20519 779.45325,300.5145 z M 732.04985,599.04992 C 732.42195,597.87025 732.42195,3.1587225 732.04985,1.9790577 C 731.79705,1.1777803 729.72575,1.0768721 713.53045,1.0768721 L 695.29575,1.0768721 L 695.29575,300.5145 L 695.29575,599.95211 L 713.53045,599.95211 C 729.72575,599.95211 731.79705,599.85122 732.04985,599.04992 z M 659.19475,300.5145 L 659.19475,1.0768721 L 650.05225,1.0768721 L 640.90975,1.0768721 L 640.90975,300.5145 L 640.90975,599.95211 L 650.05225,599.95211 L 659.19475,599.95211 L 659.19475,300.5145 z M 624.50035,300.5145 L 624.50035,1.0768721 L 607.43765,1.0768721 C 592.31125,1.0768721 590.34275,1.1792514 590.09045,1.9790577 C 589.93385,2.4752578 589.80585,136.81621 589.80585,300.5145 C 589.80585,464.21278 589.93385,598.55371 590.09045,599.04992 C 590.34275,599.84973 592.31125,599.95211 607.43765,599.95211 L 624.50035,599.95211 L 624.50035,300.5145 z M 494.51325,599.05751 C 494.98058,598.44488 495.09935,537.94089 495.09935,300.49783 C 495.09935,36.554869 495.01936,2.6092234 494.39604,1.8509323 C 493.85068,1.1874306 493.68445,1.1645645 493.65574,1.7490782 C 493.62753,2.3240499 493.56273,2.3337122 493.38228,1.7898189 C 493.07517,0.86391247 491.82846,0.86391247 491.78041,1.7898189 C 491.75077,2.3601768 491.69611,2.3601768 491.5069,1.7898189 C 491.18794,0.82819639 487.14187,0.82819639 487.09196,1.7898189 C 487.06233,2.3601768 487.00762,2.3601768 486.81846,1.7898189 C 486.49479,0.81403462 479.62748,0.78680538 479.62748,1.7613009 C 479.62748,2.293638 479.50244,2.293638 479.06484,1.7613009 C 478.64771,1.2538371 474.0542,1.0768721 461.29894,1.0768721 C 446.04425,1.0768721 444.06342,1.179063 443.81107,1.9790577 C 443.43896,3.1587225 443.43896,597.87025 443.81107,599.04992 C 444.06342,599.8499 446.04425,599.95211 461.29894,599.95211 C 474.0542,599.95211 478.64771,599.77513 479.06484,599.26768 C 479.50244,598.73537 479.62748,598.73537 479.62748,599.26768 C 479.62748,599.76349 481.24237,599.95211 485.48804,599.95211 C 489.86007,599.95211 491.35041,599.77102 491.35575,599.23916 C 491.36054,598.76388 491.51444,598.8114 491.81744,599.38175 C 492.22139,600.14221 492.27346,600.14221 492.28629,599.38175 C 492.29902,598.6213 492.35109,598.6213 492.75513,599.38175 C 493.15908,600.14221 493.21119,600.14221 493.22392,599.38175 C 493.23362,598.80592 493.35093,598.73868 493.58275,599.17603 C 493.83344,599.64902 494.08672,599.61674 494.51325,599.05751 z M 431.05195,599.04992 C 431.20845,598.55371 431.33653,464.21278 431.33653,300.5145 C 431.33653,136.81621 431.20845,2.4752578 431.05195,1.9790577 C 430.7977,1.1730633 428.27332,1.0768721 407.37535,1.0768721 L 383.98328,1.0768721 L 383.98328,300.5145 L 383.98328,599.95211 L 407.37535,599.95211 C 428.27332,599.95211 430.7977,599.8559 431.05195,599.04992 z M 371.03989,599.04992 C 371.19643,598.55371 371.32452,464.21278 371.32452,300.5145 C 371.32452,136.81621 371.19643,2.4752578 371.03989,1.9790577 C 370.79077,1.1892955 369.27805,1.0768721 358.90013,1.0768721 C 348.52222,1.0768721 347.00944,1.1892955 346.76033,1.9790577 C 346.60384,2.4752578 346.47576,136.81621 346.47576,300.5145 C 346.47576,464.21278 346.60384,598.55371 346.76033,599.04992 C 347.00944,599.83969 348.52222,599.95211 358.90013,599.95211 C 369.27805,599.95211 370.79077,599.83969 371.03989,599.04992 z M 280.25154,599.09898 C 280.71882,598.45333 280.8376,537.91881 280.8376,300.49783 C 280.8376,43.172458 280.74659,2.595745 280.16779,1.891668 C 279.64124,1.2510703 277.83698,1.0768721 271.72858,1.0768721 L 263.9592,1.0768721 L 263.9592,300.5145 L 263.9592,599.95211 L 271.81235,599.93043 C 277.99088,599.91333 279.79044,599.73607 280.25154,599.09898 z M 253.64461,300.5145 L 253.64461,1.0768721 L 235.59414,1.0768721 L 217.54363,1.0768721 L 217.54363,300.5145 L 217.54363,599.95211 L 235.59414,599.95211 L 253.64461,599.95211 L 253.64461,300.5145 z M 179.33283,300.5145 C 179.33283,135.8238 179.2625,1.3335327 179.17653,1.6472301 C 178.97297,2.3900747 177.69188,2.3900747 177.69188,1.6472301 C 177.69188,0.73547948 141.73539,0.87687672 141.43259,1.7898189 C 141.24342,2.3601768 141.18871,2.3601768 141.15903,1.7898189 C 141.13238,1.2756079 139.94582,1.0768721 136.90249,1.0768721 L 132.68284,1.0768721 L 132.68284,300.5145 L 132.68284,599.95211 L 136.8634,599.95211 C 139.7691,599.95211 141.11602,599.73469 141.2804,599.23916 C 141.46957,598.66881 141.52427,598.66881 141.55391,599.23916 C 141.60138,600.15322 177.69188,600.29558 177.69188,599.38175 C 177.69188,599.06806 177.99081,598.8114 178.35606,598.8114 C 178.72136,598.8114 179.09063,599.06806 179.17653,599.38175 C 179.2625,599.69545 179.33283,465.20519 179.33283,300.5145 z M 131.92947,599.04992 C 132.08596,598.55371 132.214,464.21278 132.214,300.5145 C 132.214,136.81621 132.08596,2.4752578 131.92947,1.9790577 C 131.67667,1.1777803 129.60533,1.0768721 113.41006,1.0768721 L 95.17532,1.0768721 L 95.17532,300.5145 L 95.17532,599.95211 L 113.41006,599.95211 C 129.60533,599.95211 131.67667,599.85122 131.92947,599.04992 z M 59.07434,300.5145 L 59.07434,1.0768721 L 49.93187,1.0768721 L 40.78945,1.0768721 L 40.78945,300.5145 L 40.78945,599.95211 L 49.93187,599.95211 L 59.07434,599.95211 L 59.07434,300.5145 z M 24.37988,300.5145 L 24.37988,1.0768721 L 12.18994,1.0768721 L 1.2490009e-15,1.0768721 L 1.2490009e-15,300.5145 L 1.2490009e-15,599.95211 L 12.18994,599.95211 L 24.37988,599.95211 L 24.37988,300.5145 z "
             id="path3343" />
          <path
             style="opacity:0.1;fill:#d5d5d5"
             d="M 530.1879,300.56245 L 530.1879,1.124823 L 517.273,1.124823 L 504.3582,1.124823 L 504.3582,300.56245 L 504.3582,600.00006 L 517.273,600.00006 L 530.1879,600.00006 L 530.1879,300.56245 z M 452.6989,300.56245 L 452.6989,1.124823 L 440.8036,1.124823 C 431.5283,1.124823 428.9025,1.2818541 428.8816,1.8377698 C 428.8601,2.4081267 428.8204,2.4081267 428.6833,1.8377698 C 428.5891,1.4456495 428.4099,1.124823 428.2853,1.124823 C 428.1607,1.124823 428.0587,135.87175 428.0587,300.56245 C 428.0587,465.25314 428.1607,600.00006 428.2853,600.00006 C 428.4099,600.00006 428.5891,599.67924 428.6833,599.28711 C 428.8204,598.71676 428.8601,598.71676 428.8816,599.28711 C 428.9025,599.84304 431.5283,600.00006 440.8036,600.00006 L 452.6989,600.00006 L 452.6989,300.56245 z M 341.22348,300.56245 L 341.22348,1.124823 L 331.53738,1.124823 L 321.85123,1.124823 L 321.85123,300.56245 L 321.85123,600.00006 L 331.53738,600.00006 L 341.22348,600.00006 L 341.22348,300.56245 z M 312.33503,300.56245 L 312.33503,1.124823 L 295.51176,1.124823 L 278.68853,1.124823 L 278.68853,300.56245 L 278.68853,600.00006 L 295.51176,600.00006 L 312.33503,600.00006 L 312.33503,300.56245 z M 268.83243,300.56245 L 268.83243,1.124823 L 260.16592,1.124823 L 251.4994,1.124823 L 251.4994,300.56245 L 251.4994,600.00006 L 260.16592,600.00006 L 268.83243,600.00006 L 268.83243,300.56245 z M 178.42862,300.56245 L 178.42862,1.124823 L 169.10525,1.124823 L 159.78187,1.124823 L 159.53871,2.4081267 C 159.22042,4.0877095 159.2199,597.04048 159.53821,598.71676 L 159.78187,600.00006 L 169.10525,600.00006 L 178.42862,600.00006 L 178.42862,300.56245 z M 159.3962,599.4297 C 159.3962,599.11601 159.24328,598.85935 159.05636,598.85935 C 158.86941,598.85935 158.71649,599.11601 158.71649,599.4297 C 158.71649,599.7434 158.86941,600.00006 159.05636,600.00006 C 159.24328,600.00006 159.3962,599.7434 159.3962,599.4297 z M 158.37666,599.4297 C 158.37666,599.11601 158.22368,598.85935 158.03676,598.85935 C 157.84982,598.85935 157.69689,599.11601 157.69689,599.4297 C 157.69689,599.7434 157.84982,600.00006 158.03676,600.00006 C 158.22368,600.00006 158.37666,599.7434 158.37666,599.4297 z M 95.16194,300.56245 L 95.16194,1.124823 L 82.24705,1.124823 L 69.33228,1.124823 L 69.33228,300.56245 L 69.33228,600.00006 L 82.24705,600.00006 L 95.16194,600.00006 L 95.16194,300.56245 z M 17.67295,300.56245 L 17.67295,1.124823 L 8.83647,1.124823 L 0,1.124823 L 0,300.56245 L 0,600.00006 L 8.83647,600.00006 L 17.67295,600.00006 L 17.67295,300.56245 z M 159.3962,1.69518 C 159.3962,1.3814836 159.24328,1.124823 159.05636,1.124823 C 158.86941,1.124823 158.71649,1.3814836 158.71649,1.69518 C 158.71649,2.0088765 158.86941,2.265538 159.05636,2.265538 C 159.24328,2.265538 159.3962,2.0088765 159.3962,1.69518 z M 158.37666,1.69518 C 158.37666,1.3814836 158.22368,1.124823 158.03676,1.124823 C 157.84982,1.124823 157.69689,1.3814836 157.69689,1.69518 C 157.69689,2.0088765 157.84982,2.265538 158.03676,2.265538 C 158.22368,2.265538 158.37666,2.0088765 158.37666,1.69518 z "
             id="path3345" />
          <path
             style="opacity:0.1;fill:#eeeeee"
             d="M 777.11409,300.00007 L 777.11409,6.4330537e-05 L 758.18429,6.4330537e-05 L 739.25459,6.4330537e-05 L 739.25459,300.00007 L 739.25459,600.00006 L 758.18429,600.00006 L 777.11409,600.00006 L 777.11409,300.00007 z M 663.53589,300.00007 L 663.53589,6.4330537e-05 L 646.10059,6.4330537e-05 C 632.50539,6.4330537e-05 628.65659,0.15739005 628.62609,0.71435007 C 628.59459,1.2857786 628.53649,1.2857786 628.33539,0.71435007 C 628.19729,0.32149292 627.93469,6.4330537e-05 627.75209,6.4330537e-05 C 627.56939,6.4330537e-05 627.41999,135.00007 627.41999,300.00007 C 627.41999,465.00007 627.56939,600.00006 627.75209,600.00006 C 627.93469,600.00006 628.19729,599.67863 628.33539,599.28577 C 628.53649,598.71435 628.59459,598.71435 628.62609,599.28577 C 628.65659,599.84275 632.50539,600.00006 646.10059,600.00006 L 663.53589,600.00006 L 663.53589,300.00007 z M 500.14259,300.00007 L 500.14259,6.4330537e-05 L 485.94539,6.4330537e-05 L 471.74809,6.4330537e-05 L 471.74809,300.00007 L 471.74809,600.00006 L 485.94539,600.00006 L 500.14259,600.00006 L 500.14259,300.00007 z M 457.79989,300.00007 L 457.79989,6.4330537e-05 L 433.14139,6.4330537e-05 L 408.48309,6.4330537e-05 L 408.48309,300.00007 L 408.48309,600.00006 L 433.14139,600.00006 L 457.79989,600.00006 L 457.79989,300.00007 z M 394.03669,300.00007 L 394.03669,6.4330537e-05 L 381.33389,6.4330537e-05 L 368.63099,6.4330537e-05 L 368.63099,300.00007 L 368.63099,600.00006 L 381.33389,600.00006 L 394.03669,600.00006 L 394.03669,300.00007 z M 261.52881,300.00007 L 261.52881,6.4330537e-05 L 247.86323,6.4330537e-05 L 234.1976,6.4330537e-05 L 233.84121,1.2857786 C 233.3747,2.9685157 233.37393,597.03492 233.8405,598.71435 L 234.1976,600.00006 L 247.86323,600.00006 L 261.52881,600.00006 L 261.52881,300.00007 z M 233.63232,599.42863 C 233.63232,599.11435 233.4082,598.85721 233.13422,598.85721 C 232.86021,598.85721 232.63607,599.11435 232.63607,599.42863 C 232.63607,599.74292 232.86021,600.00006 233.13422,600.00006 C 233.4082,600.00006 233.63232,599.74292 233.63232,599.42863 z M 232.13797,599.42863 C 232.13797,599.11435 231.91373,598.85721 231.63978,598.85721 C 231.36577,598.85721 231.14161,599.11435 231.14161,599.42863 C 231.14161,599.74292 231.36577,600.00006 231.63978,600.00006 C 231.91373,600.00006 232.13797,599.74292 232.13797,599.42863 z M 139.48205,300.00007 L 139.48205,6.4330537e-05 L 120.55226,6.4330537e-05 L 101.62267,6.4330537e-05 L 101.62267,300.00007 L 101.62267,600.00006 L 120.55226,600.00006 L 139.48205,600.00006 L 139.48205,300.00007 z M 25.90385,300.00007 L 25.90385,6.4330537e-05 L 12.95193,6.4330537e-05 L 0,6.4330537e-05 L 0,300.00007 L 0,600.00006 L 12.95193,600.00006 L 25.90385,600.00006 L 25.90385,300.00007 z M 233.63232,0.57149286 C 233.63232,0.25720708 233.4082,6.4330537e-05 233.13422,6.4330537e-05 C 232.86021,6.4330537e-05 232.63607,0.25720708 232.63607,0.57149286 C 232.63607,0.88577863 232.86021,1.1429215 233.13422,1.1429215 C 233.4082,1.1429215 233.63232,0.88577863 233.63232,0.57149286 z M 232.13797,0.57149286 C 232.13797,0.25720708 231.91373,6.4330537e-05 231.63978,6.4330537e-05 C 231.36577,6.4330537e-05 231.14161,0.25720708 231.14161,0.57149286 C 231.14161,0.88577863 231.36577,1.1429215 231.63978,1.1429215 C 231.91373,1.1429215 232.13797,0.88577863 232.13797,0.57149286 z "
             id="path3347" />
        </g>
        <g
           style="opacity:0.9"
           transform="matrix(-0.6404539,0,0,0.1328596,1715.7014,1051.2188)"
           id="g3355">
          <path
             id="path3357"
             d="M 715.00188,599.02321 C 715.45638,597.44622 715.28868,2.5583944 714.83358,1.6205219 C 714.56528,1.0675825 714.41608,106.72342 714.41178,300.34519 C 714.40818,465.11431 714.48098,599.92539 714.57358,599.92539 C 714.66618,599.92539 714.85888,599.51942 715.00188,599.02321 z M 712.86048,599.02321 C 713.20038,597.84354 713.20038,3.1320143 712.86048,1.9523494 C 712.62598,1.1388834 708.79328,1.0501639 673.88508,1.0501639 C 643.21628,1.0501639 635.16268,1.1983434 635.13588,1.7631106 C 635.10878,2.3334686 635.05878,2.3334686 634.88598,1.7631106 C 634.57078,0.72284783 603.06268,0.72284783 603.01338,1.7631106 C 602.98628,2.3334686 602.93628,2.3334686 602.76348,1.7631106 C 602.45078,0.73114627 585.07368,0.73114627 585.02478,1.7631106 C 584.99768,2.3334686 584.94768,2.3334686 584.77488,1.7631106 C 584.65608,1.3709903 584.18948,1.0501639 583.73798,1.0501639 C 582.92998,1.0501639 582.91698,5.7700769 582.91698,300.48778 C 582.91698,599.54513 582.91808,599.92539 583.77358,599.92539 C 584.24478,599.92539 584.64538,599.60457 584.66408,599.21244 C 584.69108,598.6421 584.74108,598.6421 584.91388,599.21244 C 585.07678,599.75012 587.27958,599.92539 593.87438,599.92539 C 600.56638,599.92539 602.62678,599.75805 602.65268,599.21244 C 602.67968,598.6421 602.72968,598.6421 602.90248,599.21244 C 603.06988,599.76473 606.68158,599.92539 618.92998,599.92539 C 631.27548,599.92539 634.74878,599.76911 634.77518,599.21244 C 634.80228,598.6421 634.85218,598.6421 635.02498,599.21244 C 635.19558,599.77539 643.37778,599.92539 673.92078,599.92539 C 708.79648,599.92539 712.62598,599.83665 712.86048,599.02321 z M 571.09298,599.02321 C 571.43288,597.84354 571.43288,3.1320143 571.09298,1.9523494 C 570.86228,1.1519328 569.02638,1.0501639 554.81749,1.0501639 C 542.30873,1.0501639 538.79467,1.2062711 538.76824,1.7631106 C 538.74122,2.3334686 538.69122,2.3334686 538.51841,1.7631106 C 538.18231,0.65386281 520.97825,0.74920925 520.1404,1.8649597 C 519.2162,3.0956939 519.2162,597.87986 520.1404,599.11058 C 520.98022,600.22894 538.35478,600.32578 538.40759,599.21244 C 538.43467,598.6421 538.48461,598.6421 538.65743,599.21244 C 538.82481,599.76496 542.47014,599.92539 554.85321,599.92539 C 569.02958,599.92539 570.86228,599.82359 571.09298,599.02321 z M 504.27805,599.02321 C 504.61795,597.84354 504.61795,3.1320143 504.27805,1.9523494 C 504.05608,1.1820421 503.02304,1.0501639 497.2111,1.0501639 L 490.40412,1.0501639 L 490.40412,300.48778 L 490.40412,599.92539 L 497.2111,599.92539 C 503.02304,599.92539 504.05608,599.79353 504.27805,599.02321 z M 460.5914,599.02321 C 460.73438,598.52699 460.85137,464.18607 460.85137,300.48778 C 460.85137,136.7895 460.73438,2.4485495 460.5914,1.9523494 C 460.35812,1.1427165 457.52771,1.0501639 433.00172,1.0501639 C 411.55672,1.0501639 405.61821,1.2036816 405.42217,1.7631106 C 405.22228,2.3334686 405.12234,2.3334686 404.9225,1.7631106 C 404.5659,0.74556458 394.47923,0.74556458 394.43101,1.7631106 C 394.40394,2.3334686 394.35394,2.3334686 394.18112,1.7631106 C 393.86513,0.7201211 350.79381,0.7201211 350.74431,1.7631106 C 350.71729,2.3334686 350.66734,2.3334686 350.49447,1.7631106 C 350.18545,0.74326074 339.65686,0.74326074 339.60854,1.7631106 C 339.58147,2.3334686 339.53147,2.3334686 339.35866,1.7631106 C 339.1935,1.2181119 336.48823,1.0501639 327.8742,1.0501639 C 317.99393,1.0501639 316.57372,1.1613095 316.34577,1.9523494 C 316.00587,3.1320143 316.00587,597.84354 316.34577,599.02321 C 316.57377,599.81435 317.9971,599.92539 327.90987,599.92539 C 336.64964,599.92539 339.22171,599.76364 339.24784,599.21244 C 339.27487,598.6421 339.32486,598.6421 339.49768,599.21244 C 339.65419,599.72908 341.17806,599.92539 345.03177,599.92539 C 348.98266,599.92539 350.35856,599.74209 350.38366,599.21244 C 350.41073,598.6421 350.46068,598.6421 350.6335,599.21244 C 350.80231,599.76958 355.56901,599.92539 372.443,599.92539 C 389.41423,599.92539 394.04373,599.77277 394.07031,599.21244 C 394.09738,598.6421 394.14733,598.6421 394.32015,599.21244 C 394.47587,599.72645 395.95058,599.92539 399.6044,599.92539 C 403.24019,599.92539 404.74321,599.72389 404.9225,599.21244 C 405.12234,598.6421 405.22228,598.6421 405.42217,599.21244 C 405.61821,599.77186 411.55672,599.92539 433.00172,599.92539 C 457.52771,599.92539 460.35812,599.83283 460.5914,599.02321 z M 275.82557,300.48778 L 275.82557,1.0501639 L 237.1102,1.0501639 C 202.2019,1.0501639 198.36924,1.1388834 198.13482,1.9523494 C 197.99184,2.4485495 197.87485,136.7895 197.87485,300.48778 C 197.87485,464.18607 197.99184,598.52699 198.13482,599.02321 C 198.36924,599.83671 202.2019,599.92539 237.1102,599.92539 L 275.82557,599.92539 L 275.82557,300.48778 z M 197.2324,300.48778 C 197.2324,23.117388 197.18053,1.0501639 196.52874,1.0501639 C 196.14166,1.0501639 195.70799,1.4561503 195.56502,1.9523494 C 195.42204,2.4485495 195.30505,136.7895 195.30505,300.48778 C 195.30505,464.18607 195.42204,598.52699 195.56502,599.02321 C 195.70799,599.51942 196.14166,599.92539 196.52874,599.92539 C 197.18053,599.92539 197.2324,577.85816 197.2324,300.48778 z M 166.77724,599.02321 C 167.23166,597.44622 167.06403,2.5583944 166.60892,1.6205219 C 166.34061,1.0675825 166.19141,106.72342 166.18716,300.34519 C 166.18355,465.11431 166.25642,599.92539 166.34895,599.92539 C 166.44149,599.92539 166.63426,599.51942 166.77724,599.02321 z M 164.63572,599.02321 C 164.77875,598.52699 164.89569,464.18607 164.89569,300.48778 C 164.89569,136.7895 164.77875,2.4485495 164.63572,1.9523494 C 164.40135,1.1388834 160.56863,1.0501639 125.66039,1.0501639 C 94.9917,1.0501639 86.93795,1.1983434 86.91123,1.7631106 C 86.88415,2.3334686 86.83416,2.3334686 86.66139,1.7631106 C 86.34614,0.72284783 54.83798,0.72284783 54.78868,1.7631106 C 54.7616,2.3334686 54.71161,2.3334686 54.53879,1.7631106 C 54.22611,0.73114627 36.84899,0.73114627 36.80008,1.7631106 C 36.773,2.3334686 36.72301,2.3334686 36.55019,1.7631106 C 36.43137,1.3709903 35.96475,1.0501639 35.5133,1.0501639 C 34.7053,1.0501639 34.69235,5.7700769 34.69235,300.48778 C 34.69235,599.54513 34.69339,599.92539 35.54897,599.92539 C 36.02009,599.92539 36.42075,599.60457 36.43933,599.21244 C 36.4664,598.6421 36.5164,598.6421 36.68921,599.21244 C 36.85215,599.75012 39.05488,599.92539 45.64967,599.92539 C 52.34175,599.92539 54.40209,599.75805 54.42793,599.21244 C 54.45505,598.6421 54.505,598.6421 54.67786,599.21244 C 54.8452,599.76473 58.45693,599.92539 70.70527,599.92539 C 83.05085,599.92539 86.5241,599.76911 86.55053,599.21244 C 86.57755,598.6421 86.62755,598.6421 86.80036,599.21244 C 86.97101,599.77539 95.1531,599.92539 125.69606,599.92539 C 160.5718,599.92539 164.40135,599.83665 164.63572,599.02321 z M 22.86824,599.02321 C 23.01126,598.52699 23.12825,464.18607 23.12825,300.48778 C 23.12825,136.7895 23.01126,2.4485495 22.86824,1.9523494 C 22.64029,1.1612073 21.21696,1.0501639 11.30414,1.0501639 L 8.4932061e-15,1.0501639 L 8.4932061e-15,300.48778 L 8.4932061e-15,599.92539 L 11.30414,599.92539 C 21.21696,599.92539 22.64029,599.81435 22.86824,599.02321 z "
             style="opacity:0.1;fill:#eeeeee" />
          <path
             id="path3359"
             d="M 772.78642,300.4984 L 772.78642,1.060781 L 730.80662,1.060781 C 692.95482,1.060781 688.79902,1.1494995 688.54482,1.9629665 C 688.17622,3.1426304 688.17622,597.85416 688.54482,599.03383 C 688.79902,599.84733 692.95482,599.93602 730.80662,599.93602 L 772.78642,599.93602 L 772.78642,300.4984 z M 653.61432,599.03383 C 653.98302,597.85416 653.98302,3.1426304 653.61432,1.9629665 C 653.37002,1.181103 652.06942,1.060781 643.86162,1.060781 L 634.39082,1.060781 L 634.39082,300.4984 L 634.39082,599.93602 L 643.86162,599.93602 C 652.06942,599.93602 653.37002,599.81567 653.61432,599.03383 z M 619.06512,300.4984 L 619.06512,1.060781 L 601.69922,1.060781 C 586.29222,1.060781 584.30152,1.1625499 584.05152,1.9629665 C 583.89642,2.4591656 583.76962,136.80011 583.76962,300.4984 C 583.76962,464.19669 583.89642,598.53762 584.05152,599.03383 C 584.30152,599.83426 586.29222,599.93602 601.69922,599.93602 L 619.06512,599.93602 L 619.06512,300.4984 z M 546.61642,300.4984 L 546.61642,1.060781 L 539.18572,1.060781 L 531.75512,1.060781 L 531.75512,300.4984 L 531.75512,599.93602 L 539.18572,599.93602 L 546.61642,599.93602 L 546.61642,300.4984 z M 499.24602,300.4984 L 499.24602,1.060781 L 469.72255,1.060781 C 444.75469,1.060781 440.09663,1.1865103 439.53555,1.8755758 C 438.53344,3.10631 438.53344,597.89049 439.53555,599.1212 C 440.09663,599.81031 444.75469,599.93602 469.72255,599.93602 L 499.24602,599.93602 L 499.24602,300.4984 z M 438.63991,300.4984 L 438.63991,1.060781 L 433.29918,1.060781 L 427.95836,1.060781 L 427.95836,300.4984 L 427.95836,599.93602 L 433.29918,599.93602 L 438.63991,599.93602 L 438.63991,300.4984 z M 427.14561,599.08288 C 427.60848,598.43723 427.72616,537.90271 427.72616,300.48174 C 427.72616,43.156366 427.63605,2.5796539 427.06271,1.8755758 C 426.14212,0.74493406 380.59081,0.64601712 380.16233,1.7737277 C 379.94565,2.3440847 379.8372,2.3440847 379.62047,1.7737277 C 379.42651,1.2631264 377.81189,1.060781 373.93145,1.060781 L 368.51326,1.060781 L 368.51326,300.4984 L 368.51326,599.93602 L 373.93145,599.93602 C 377.81189,599.93602 379.42651,599.73366 379.62047,599.22307 C 379.8372,598.65272 379.94565,598.65272 380.16233,599.22307 C 380.58918,600.34645 426.33766,600.2099 427.14561,599.08288 z M 367.99916,599.03383 C 368.15419,598.53762 368.28106,464.19669 368.28106,300.4984 C 368.28106,136.80011 368.15419,2.4591656 367.99916,1.9629665 C 367.75194,1.1718234 366.20856,1.060781 355.45997,1.060781 L 343.20263,1.060781 L 343.20263,300.4984 L 343.20263,599.93602 L 355.45997,599.93602 C 366.20856,599.93602 367.75194,599.82497 367.99916,599.03383 z M 299.0832,300.4984 L 299.0832,1.060781 L 257.05366,1.060781 L 215.02412,1.060781 L 215.02412,300.4984 L 215.02412,599.93602 L 257.05366,599.93602 L 299.0832,599.93602 L 299.0832,300.4984 z M 178.33531,300.4984 L 178.33531,1.060781 L 136.35547,1.060781 C 98.503779,1.060781 94.347909,1.1494995 94.093679,1.9629665 C 93.938649,2.4591656 93.811829,136.80011 93.811829,300.4984 C 93.811829,464.19669 93.938649,598.53762 94.093679,599.03383 C 94.347909,599.84733 98.503779,599.93602 136.35547,599.93602 L 178.33531,599.93602 L 178.33531,300.4984 z M 59.163199,599.03383 C 59.318229,598.53762 59.445099,464.19669 59.445099,300.4984 C 59.445099,136.80011 59.318229,2.4591656 59.163199,1.9629665 C 58.918949,1.181103 57.618239,1.060781 49.410499,1.060781 L 39.939649,1.060781 L 39.939649,300.4984 L 39.939649,599.93602 L 49.410499,599.93602 C 57.618239,599.93602 58.918949,599.81567 59.163199,599.03383 z M 24.613979,300.4984 L 24.613979,1.060781 L 12.306989,1.060781 L -6.152344e-07,1.060781 L -6.152344e-07,300.4984 L -6.152344e-07,599.93602 L 12.306989,599.93602 L 24.613979,599.93602 L 24.613979,300.4984 z M 686.63922,300.4984 C 686.63922,136.27826 686.58622,69.097286 686.52142,151.20736 C 686.45652,233.31743 686.45652,367.67937 686.52142,449.78944 C 686.58622,531.89952 686.63922,464.71855 686.63922,300.4984 z M 92.188119,300.4984 C 92.188119,136.27826 92.135109,69.097286 92.070239,151.20736 C 92.005419,233.31743 92.005419,367.67937 92.070239,449.78944 C 92.135109,531.89952 92.188119,464.71855 92.188119,300.4984 z "
             style="opacity:0.1;fill:#565656" />
          <path
             id="path3361"
             d="M 774.31747,300.56245 L 774.31747,1.1248277 L 750.73337,1.1248277 C 732.30167,1.1248277 727.09807,1.2805871 726.91457,1.8377744 C 726.72677,2.4081323 726.67247,2.4081323 726.64307,1.8377744 C 726.61437,1.2804097 722.65567,1.1248277 708.50257,1.1248277 C 692.42377,1.1248277 690.36727,1.2257358 690.11637,2.0270132 C 689.74687,3.206678 689.74687,597.9182 690.11637,599.09787 C 690.36727,599.89911 692.42037,600.00006 708.46387,600.00006 C 722.48017,600.00006 726.58137,599.8403 726.76357,599.28711 C 726.95137,598.71676 727.00567,598.71676 727.03507,599.28711 C 727.06397,599.84749 732.12627,600.00006 750.69467,600.00006 L 774.31747,600.00006 L 774.31747,300.56245 z M 654.92317,300.56245 L 654.92317,1.1248277 L 645.66347,1.1248277 C 637.64927,1.1248277 636.36577,1.2461767 636.12127,2.0270132 C 635.75187,3.206678 635.75187,597.9182 636.12127,599.09787 C 636.36577,599.87869 637.64927,600.00006 645.66347,600.00006 L 654.92317,600.00006 L 654.92317,300.56245 z M 620.19557,599.09787 C 620.56497,597.9182 620.56497,3.206678 620.19557,2.0270132 C 619.94497,1.2268992 617.97017,1.1248277 602.74027,1.1248277 L 585.56745,1.1248277 L 585.56745,300.56245 L 585.56745,600.00006 L 602.74027,600.00006 C 617.97017,600.00006 619.94497,599.89797 620.19557,599.09787 z M 547.63121,300.56245 L 547.63121,1.1248277 L 540.53273,1.1248277 L 533.43427,1.1248277 L 533.43427,300.56245 L 533.43427,600.00006 L 540.53273,600.00006 L 547.63121,600.00006 L 547.63121,300.56245 z M 500.15276,300.56245 L 500.15276,1.1248277 L 470.52852,1.1248277 C 443.94455,1.1248277 440.87531,1.2174143 440.6218,2.0270132 C 440.46639,2.5232133 440.33923,136.86417 440.33923,300.56245 C 440.33923,464.26074 440.46639,598.60166 440.6218,599.09787 C 440.87531,599.9075 443.94455,600.00006 470.52852,600.00006 L 500.15276,600.00006 L 500.15276,300.56245 z M 427.95438,599.09787 C 428.10975,598.60166 428.23691,464.26074 428.23691,300.56245 C 428.23691,136.86417 428.10975,2.5232133 427.95438,2.0270132 C 427.70199,1.2210589 425.20011,1.1248277 404.49766,1.1248277 C 383.79528,1.1248277 381.29339,1.2210589 381.041,2.0270132 C 380.88563,2.5232133 380.75847,136.86417 380.75847,300.56245 C 380.75847,464.26074 380.88563,598.60166 381.041,599.09787 C 381.29339,599.90385 383.79528,600.00006 404.49766,600.00006 C 425.20011,600.00006 427.70199,599.90385 427.95438,599.09787 z M 368.37357,599.09787 C 368.52899,598.60166 368.65616,464.26074 368.65616,300.56245 C 368.65616,136.86417 368.52899,2.5232133 368.37357,2.0270132 C 368.12601,1.2364814 366.59946,1.1248277 356.03848,1.1248277 L 343.98597,1.1248277 L 343.98597,300.56245 L 343.98597,600.00006 L 356.03848,600.00006 C 366.59946,600.00006 368.12601,599.88839 368.37357,599.09787 z M 299.5331,300.56245 L 299.5331,1.1248277 L 280.60381,1.1248277 C 265.89587,1.1248277 261.6221,1.2838209 261.4397,1.8377744 C 261.25189,2.4081323 261.19752,2.4081323 261.16815,1.8377744 C 261.11612,0.82790548 252.46274,0.82790548 252.13022,1.8377744 C 251.94237,2.4081323 251.88805,2.4081323 251.85868,1.8377744 C 251.82994,1.2805811 247.91781,1.1248277 233.95094,1.1248277 C 218.08433,1.1248277 216.04824,1.2260154 215.79742,2.0270132 C 215.642,2.5232133 215.51489,136.86417 215.51489,300.56245 C 215.51489,464.26074 215.642,598.60166 215.79742,599.09787 C 216.04824,599.89883 218.08087,600.00006 233.91218,600.00006 C 247.74236,600.00006 251.79702,599.84007 251.97908,599.28711 C 252.16694,598.71676 252.2212,598.71676 252.25067,599.28711 C 252.27728,599.80381 253.49397,600.00006 256.67063,600.00006 C 259.74163,600.00006 261.12409,599.78663 261.28861,599.28711 C 261.47641,598.71676 261.53077,598.71676 261.56015,599.28711 C 261.58889,599.84509 265.72042,600.00006 280.56501,600.00006 L 299.5331,600.00006 L 299.5331,300.56245 z M 178.50965,300.56245 L 178.50965,1.1248277 L 154.92552,1.1248277 C 136.49385,1.1248277 131.29025,1.2805871 131.10672,1.8377744 C 130.91892,2.4081323 130.8646,2.4081323 130.83517,1.8377744 C 130.80644,1.2804097 126.84777,1.1248277 112.69474,1.1248277 C 96.61587,1.1248277 94.55941,1.2257358 94.30844,2.0270132 C 94.15307,2.5232133 94.02596,136.86417 94.02596,300.56245 C 94.02596,464.26074 94.15307,598.60166 94.30844,599.09787 C 94.55941,599.89911 96.61252,600.00006 112.65594,600.00006 C 126.67232,600.00006 130.77352,599.8403 130.95568,599.28711 C 131.14349,598.71676 131.1978,598.71676 131.22722,599.28711 C 131.25601,599.84749 136.3184,600.00006 154.88682,600.00006 L 178.50965,600.00006 L 178.50965,300.56245 z M 59.1153,300.56245 L 59.1153,1.1248277 L 49.85563,1.1248277 C 41.84138,1.1248277 40.55788,1.2461767 40.31337,2.0270132 C 40.158,2.5232133 40.03084,136.86417 40.03084,300.56245 C 40.03084,464.26074 40.158,598.60166 40.31337,599.09787 C 40.55788,599.87869 41.84138,600.00006 49.85563,600.00006 L 59.1153,600.00006 L 59.1153,300.56245 z M 24.38763,599.09787 C 24.54305,598.60166 24.67016,464.26074 24.67016,300.56245 C 24.67016,136.86417 24.54305,2.5232133 24.38763,2.0270132 C 24.14006,1.2364814 22.61351,1.1248277 12.05254,1.1248277 L 0,1.1248277 L 0,300.56245 L 0,600.00006 L 12.05254,600.00006 C 22.61351,600.00006 24.14006,599.88839 24.38763,599.09787 z "
             style="opacity:0.1;fill:#d5d5d5" />
          <path
             id="path3363"
             d="M 779.45325,300.5145 C 779.45325,135.8238 779.38295,1.3335327 779.29695,1.6472301 C 779.09345,2.3900747 777.81225,2.3900747 777.81225,1.6472301 C 777.81225,0.73547948 741.85575,0.87687672 741.55295,1.7898189 C 741.36375,2.3601768 741.30905,2.3601768 741.27945,1.7898189 C 741.25275,1.2756079 740.06625,1.0768721 737.02285,1.0768721 L 732.80325,1.0768721 L 732.80325,300.5145 L 732.80325,599.95211 L 736.98385,599.95211 C 739.88955,599.95211 741.23645,599.73469 741.40075,599.23916 C 741.58995,598.66881 741.64465,598.66881 741.67425,599.23916 C 741.72175,600.15322 777.81225,600.29558 777.81225,599.38175 C 777.81225,599.06806 778.11115,598.8114 778.47645,598.8114 C 778.84185,598.8114 779.21105,599.06806 779.29695,599.38175 C 779.38295,599.69545 779.45325,465.20519 779.45325,300.5145 z M 732.04985,599.04992 C 732.42195,597.87025 732.42195,3.1587225 732.04985,1.9790577 C 731.79705,1.1777803 729.72575,1.0768721 713.53045,1.0768721 L 695.29575,1.0768721 L 695.29575,300.5145 L 695.29575,599.95211 L 713.53045,599.95211 C 729.72575,599.95211 731.79705,599.85122 732.04985,599.04992 z M 659.19475,300.5145 L 659.19475,1.0768721 L 650.05225,1.0768721 L 640.90975,1.0768721 L 640.90975,300.5145 L 640.90975,599.95211 L 650.05225,599.95211 L 659.19475,599.95211 L 659.19475,300.5145 z M 624.50035,300.5145 L 624.50035,1.0768721 L 607.43765,1.0768721 C 592.31125,1.0768721 590.34275,1.1792514 590.09045,1.9790577 C 589.93385,2.4752578 589.80585,136.81621 589.80585,300.5145 C 589.80585,464.21278 589.93385,598.55371 590.09045,599.04992 C 590.34275,599.84973 592.31125,599.95211 607.43765,599.95211 L 624.50035,599.95211 L 624.50035,300.5145 z M 494.51325,599.05751 C 494.98058,598.44488 495.09935,537.94089 495.09935,300.49783 C 495.09935,36.554869 495.01936,2.6092234 494.39604,1.8509323 C 493.85068,1.1874306 493.68445,1.1645645 493.65574,1.7490782 C 493.62753,2.3240499 493.56273,2.3337122 493.38228,1.7898189 C 493.07517,0.86391247 491.82846,0.86391247 491.78041,1.7898189 C 491.75077,2.3601768 491.69611,2.3601768 491.5069,1.7898189 C 491.18794,0.82819639 487.14187,0.82819639 487.09196,1.7898189 C 487.06233,2.3601768 487.00762,2.3601768 486.81846,1.7898189 C 486.49479,0.81403462 479.62748,0.78680538 479.62748,1.7613009 C 479.62748,2.293638 479.50244,2.293638 479.06484,1.7613009 C 478.64771,1.2538371 474.0542,1.0768721 461.29894,1.0768721 C 446.04425,1.0768721 444.06342,1.179063 443.81107,1.9790577 C 443.43896,3.1587225 443.43896,597.87025 443.81107,599.04992 C 444.06342,599.8499 446.04425,599.95211 461.29894,599.95211 C 474.0542,599.95211 478.64771,599.77513 479.06484,599.26768 C 479.50244,598.73537 479.62748,598.73537 479.62748,599.26768 C 479.62748,599.76349 481.24237,599.95211 485.48804,599.95211 C 489.86007,599.95211 491.35041,599.77102 491.35575,599.23916 C 491.36054,598.76388 491.51444,598.8114 491.81744,599.38175 C 492.22139,600.14221 492.27346,600.14221 492.28629,599.38175 C 492.29902,598.6213 492.35109,598.6213 492.75513,599.38175 C 493.15908,600.14221 493.21119,600.14221 493.22392,599.38175 C 493.23362,598.80592 493.35093,598.73868 493.58275,599.17603 C 493.83344,599.64902 494.08672,599.61674 494.51325,599.05751 z M 431.05195,599.04992 C 431.20845,598.55371 431.33653,464.21278 431.33653,300.5145 C 431.33653,136.81621 431.20845,2.4752578 431.05195,1.9790577 C 430.7977,1.1730633 428.27332,1.0768721 407.37535,1.0768721 L 383.98328,1.0768721 L 383.98328,300.5145 L 383.98328,599.95211 L 407.37535,599.95211 C 428.27332,599.95211 430.7977,599.8559 431.05195,599.04992 z M 371.03989,599.04992 C 371.19643,598.55371 371.32452,464.21278 371.32452,300.5145 C 371.32452,136.81621 371.19643,2.4752578 371.03989,1.9790577 C 370.79077,1.1892955 369.27805,1.0768721 358.90013,1.0768721 C 348.52222,1.0768721 347.00944,1.1892955 346.76033,1.9790577 C 346.60384,2.4752578 346.47576,136.81621 346.47576,300.5145 C 346.47576,464.21278 346.60384,598.55371 346.76033,599.04992 C 347.00944,599.83969 348.52222,599.95211 358.90013,599.95211 C 369.27805,599.95211 370.79077,599.83969 371.03989,599.04992 z M 280.25154,599.09898 C 280.71882,598.45333 280.8376,537.91881 280.8376,300.49783 C 280.8376,43.172458 280.74659,2.595745 280.16779,1.891668 C 279.64124,1.2510703 277.83698,1.0768721 271.72858,1.0768721 L 263.9592,1.0768721 L 263.9592,300.5145 L 263.9592,599.95211 L 271.81235,599.93043 C 277.99088,599.91333 279.79044,599.73607 280.25154,599.09898 z M 253.64461,300.5145 L 253.64461,1.0768721 L 235.59414,1.0768721 L 217.54363,1.0768721 L 217.54363,300.5145 L 217.54363,599.95211 L 235.59414,599.95211 L 253.64461,599.95211 L 253.64461,300.5145 z M 179.33283,300.5145 C 179.33283,135.8238 179.2625,1.3335327 179.17653,1.6472301 C 178.97297,2.3900747 177.69188,2.3900747 177.69188,1.6472301 C 177.69188,0.73547948 141.73539,0.87687672 141.43259,1.7898189 C 141.24342,2.3601768 141.18871,2.3601768 141.15903,1.7898189 C 141.13238,1.2756079 139.94582,1.0768721 136.90249,1.0768721 L 132.68284,1.0768721 L 132.68284,300.5145 L 132.68284,599.95211 L 136.8634,599.95211 C 139.7691,599.95211 141.11602,599.73469 141.2804,599.23916 C 141.46957,598.66881 141.52427,598.66881 141.55391,599.23916 C 141.60138,600.15322 177.69188,600.29558 177.69188,599.38175 C 177.69188,599.06806 177.99081,598.8114 178.35606,598.8114 C 178.72136,598.8114 179.09063,599.06806 179.17653,599.38175 C 179.2625,599.69545 179.33283,465.20519 179.33283,300.5145 z M 131.92947,599.04992 C 132.08596,598.55371 132.214,464.21278 132.214,300.5145 C 132.214,136.81621 132.08596,2.4752578 131.92947,1.9790577 C 131.67667,1.1777803 129.60533,1.0768721 113.41006,1.0768721 L 95.17532,1.0768721 L 95.17532,300.5145 L 95.17532,599.95211 L 113.41006,599.95211 C 129.60533,599.95211 131.67667,599.85122 131.92947,599.04992 z M 59.07434,300.5145 L 59.07434,1.0768721 L 49.93187,1.0768721 L 40.78945,1.0768721 L 40.78945,300.5145 L 40.78945,599.95211 L 49.93187,599.95211 L 59.07434,599.95211 L 59.07434,300.5145 z M 24.37988,300.5145 L 24.37988,1.0768721 L 12.18994,1.0768721 L 1.2490009e-15,1.0768721 L 1.2490009e-15,300.5145 L 1.2490009e-15,599.95211 L 12.18994,599.95211 L 24.37988,599.95211 L 24.37988,300.5145 z "
             style="opacity:0.1;fill:#898989" />
          <path
             id="path3365"
             d="M 530.1879,300.56245 L 530.1879,1.124823 L 517.273,1.124823 L 504.3582,1.124823 L 504.3582,300.56245 L 504.3582,600.00006 L 517.273,600.00006 L 530.1879,600.00006 L 530.1879,300.56245 z M 452.6989,300.56245 L 452.6989,1.124823 L 440.8036,1.124823 C 431.5283,1.124823 428.9025,1.2818541 428.8816,1.8377698 C 428.8601,2.4081267 428.8204,2.4081267 428.6833,1.8377698 C 428.5891,1.4456495 428.4099,1.124823 428.2853,1.124823 C 428.1607,1.124823 428.0587,135.87175 428.0587,300.56245 C 428.0587,465.25314 428.1607,600.00006 428.2853,600.00006 C 428.4099,600.00006 428.5891,599.67924 428.6833,599.28711 C 428.8204,598.71676 428.8601,598.71676 428.8816,599.28711 C 428.9025,599.84304 431.5283,600.00006 440.8036,600.00006 L 452.6989,600.00006 L 452.6989,300.56245 z M 341.22348,300.56245 L 341.22348,1.124823 L 331.53738,1.124823 L 321.85123,1.124823 L 321.85123,300.56245 L 321.85123,600.00006 L 331.53738,600.00006 L 341.22348,600.00006 L 341.22348,300.56245 z M 312.33503,300.56245 L 312.33503,1.124823 L 295.51176,1.124823 L 278.68853,1.124823 L 278.68853,300.56245 L 278.68853,600.00006 L 295.51176,600.00006 L 312.33503,600.00006 L 312.33503,300.56245 z M 268.83243,300.56245 L 268.83243,1.124823 L 260.16592,1.124823 L 251.4994,1.124823 L 251.4994,300.56245 L 251.4994,600.00006 L 260.16592,600.00006 L 268.83243,600.00006 L 268.83243,300.56245 z M 178.42862,300.56245 L 178.42862,1.124823 L 169.10525,1.124823 L 159.78187,1.124823 L 159.53871,2.4081267 C 159.22042,4.0877095 159.2199,597.04048 159.53821,598.71676 L 159.78187,600.00006 L 169.10525,600.00006 L 178.42862,600.00006 L 178.42862,300.56245 z M 159.3962,599.4297 C 159.3962,599.11601 159.24328,598.85935 159.05636,598.85935 C 158.86941,598.85935 158.71649,599.11601 158.71649,599.4297 C 158.71649,599.7434 158.86941,600.00006 159.05636,600.00006 C 159.24328,600.00006 159.3962,599.7434 159.3962,599.4297 z M 158.37666,599.4297 C 158.37666,599.11601 158.22368,598.85935 158.03676,598.85935 C 157.84982,598.85935 157.69689,599.11601 157.69689,599.4297 C 157.69689,599.7434 157.84982,600.00006 158.03676,600.00006 C 158.22368,600.00006 158.37666,599.7434 158.37666,599.4297 z M 95.16194,300.56245 L 95.16194,1.124823 L 82.24705,1.124823 L 69.33228,1.124823 L 69.33228,300.56245 L 69.33228,600.00006 L 82.24705,600.00006 L 95.16194,600.00006 L 95.16194,300.56245 z M 17.67295,300.56245 L 17.67295,1.124823 L 8.83647,1.124823 L 0,1.124823 L 0,300.56245 L 0,600.00006 L 8.83647,600.00006 L 17.67295,600.00006 L 17.67295,300.56245 z M 159.3962,1.69518 C 159.3962,1.3814836 159.24328,1.124823 159.05636,1.124823 C 158.86941,1.124823 158.71649,1.3814836 158.71649,1.69518 C 158.71649,2.0088765 158.86941,2.265538 159.05636,2.265538 C 159.24328,2.265538 159.3962,2.0088765 159.3962,1.69518 z M 158.37666,1.69518 C 158.37666,1.3814836 158.22368,1.124823 158.03676,1.124823 C 157.84982,1.124823 157.69689,1.3814836 157.69689,1.69518 C 157.69689,2.0088765 157.84982,2.265538 158.03676,2.265538 C 158.22368,2.265538 158.37666,2.0088765 158.37666,1.69518 z "
             style="opacity:0.1;fill:#d5d5d5" />
          <path
             id="path3367"
             d="M 777.11409,300.00007 L 777.11409,6.4330537e-05 L 758.18429,6.4330537e-05 L 739.25459,6.4330537e-05 L 739.25459,300.00007 L 739.25459,600.00006 L 758.18429,600.00006 L 777.11409,600.00006 L 777.11409,300.00007 z M 663.53589,300.00007 L 663.53589,6.4330537e-05 L 646.10059,6.4330537e-05 C 632.50539,6.4330537e-05 628.65659,0.15739005 628.62609,0.71435007 C 628.59459,1.2857786 628.53649,1.2857786 628.33539,0.71435007 C 628.19729,0.32149292 627.93469,6.4330537e-05 627.75209,6.4330537e-05 C 627.56939,6.4330537e-05 627.41999,135.00007 627.41999,300.00007 C 627.41999,465.00007 627.56939,600.00006 627.75209,600.00006 C 627.93469,600.00006 628.19729,599.67863 628.33539,599.28577 C 628.53649,598.71435 628.59459,598.71435 628.62609,599.28577 C 628.65659,599.84275 632.50539,600.00006 646.10059,600.00006 L 663.53589,600.00006 L 663.53589,300.00007 z M 500.14259,300.00007 L 500.14259,6.4330537e-05 L 485.94539,6.4330537e-05 L 471.74809,6.4330537e-05 L 471.74809,300.00007 L 471.74809,600.00006 L 485.94539,600.00006 L 500.14259,600.00006 L 500.14259,300.00007 z M 457.79989,300.00007 L 457.79989,6.4330537e-05 L 433.14139,6.4330537e-05 L 408.48309,6.4330537e-05 L 408.48309,300.00007 L 408.48309,600.00006 L 433.14139,600.00006 L 457.79989,600.00006 L 457.79989,300.00007 z M 394.03669,300.00007 L 394.03669,6.4330537e-05 L 381.33389,6.4330537e-05 L 368.63099,6.4330537e-05 L 368.63099,300.00007 L 368.63099,600.00006 L 381.33389,600.00006 L 394.03669,600.00006 L 394.03669,300.00007 z M 261.52881,300.00007 L 261.52881,6.4330537e-05 L 247.86323,6.4330537e-05 L 234.1976,6.4330537e-05 L 233.84121,1.2857786 C 233.3747,2.9685157 233.37393,597.03492 233.8405,598.71435 L 234.1976,600.00006 L 247.86323,600.00006 L 261.52881,600.00006 L 261.52881,300.00007 z M 233.63232,599.42863 C 233.63232,599.11435 233.4082,598.85721 233.13422,598.85721 C 232.86021,598.85721 232.63607,599.11435 232.63607,599.42863 C 232.63607,599.74292 232.86021,600.00006 233.13422,600.00006 C 233.4082,600.00006 233.63232,599.74292 233.63232,599.42863 z M 232.13797,599.42863 C 232.13797,599.11435 231.91373,598.85721 231.63978,598.85721 C 231.36577,598.85721 231.14161,599.11435 231.14161,599.42863 C 231.14161,599.74292 231.36577,600.00006 231.63978,600.00006 C 231.91373,600.00006 232.13797,599.74292 232.13797,599.42863 z M 139.48205,300.00007 L 139.48205,6.4330537e-05 L 120.55226,6.4330537e-05 L 101.62267,6.4330537e-05 L 101.62267,300.00007 L 101.62267,600.00006 L 120.55226,600.00006 L 139.48205,600.00006 L 139.48205,300.00007 z M 25.90385,300.00007 L 25.90385,6.4330537e-05 L 12.95193,6.4330537e-05 L 0,6.4330537e-05 L 0,300.00007 L 0,600.00006 L 12.95193,600.00006 L 25.90385,600.00006 L 25.90385,300.00007 z M 233.63232,0.57149286 C 233.63232,0.25720708 233.4082,6.4330537e-05 233.13422,6.4330537e-05 C 232.86021,6.4330537e-05 232.63607,0.25720708 232.63607,0.57149286 C 232.63607,0.88577863 232.86021,1.1429215 233.13422,1.1429215 C 233.4082,1.1429215 233.63232,0.88577863 233.63232,0.57149286 z M 232.13797,0.57149286 C 232.13797,0.25720708 231.91373,6.4330537e-05 231.63978,6.4330537e-05 C 231.36577,6.4330537e-05 231.14161,0.25720708 231.14161,0.57149286 C 231.14161,0.88577863 231.36577,1.1429215 231.63978,1.1429215 C 231.91373,1.1429215 232.13797,0.88577863 232.13797,0.57149286 z "
             style="opacity:0.1;fill:#eeeeee" />
        </g>
      </g>
      <rect
         id="rect4455"
         x="518.55853"
         y="948.36176"
         width="1200"
         height="80"
         style="opacity:0.8;fill:#666765;fill-opacity:1;fill-rule:evenodd;stroke:none;stroke-width:0.02646151;stroke-miterlimit:4;stroke-dasharray:none;stroke-dashoffset:0;stroke-opacity:1" />
    </g>
    <g
       id="buttonbar"
       transform="translate(-12.249274,-0.9544573)">
      <path
         id="rect7773"
         d="M 1065.284,960.23984 C 1058.2549,960.23984 1052.6141,969.2636 1052.6141,980.48781 L 1052.6141,997.19009 C 1052.6141,1008.4141 1058.2549,1017.4381 1065.284,1017.4381 L 1218.1229,1017.4381 C 1225.152,1017.4381 1230.7927,1008.4141 1230.7928,997.19009 L 1230.7928,980.48781 C 1230.7928,969.2636 1225.152,960.23984 1218.1229,960.23984 L 1065.284,960.23984 z M 1066.5171,961.73263 L 1217.5989,961.73263 C 1224.5491,961.73263 1230.1453,970.32379 1230.1453,980.95432 L 1230.1453,996.72345 C 1230.1454,1007.354 1224.5491,1015.9452 1217.5989,1015.9452 L 1066.5171,1015.9452 C 1059.5669,1015.9452 1053.9705,1007.354 1053.9705,996.72345 L 1053.9705,980.95432 C 1053.9705,970.32379 1059.5669,961.73263 1066.5171,961.73263 z "
         style="fill:none;fill-opacity:1;stroke:#d1d1d1;stroke-width:1.84724271;stroke-miterlimit:4;stroke-dasharray:none;stroke-opacity:1" />
      <g
         transform="matrix(0.998055,0,0,1.5195357,522.78904,-420.42228)"
         id="g10698">
        <rect
           style="opacity:0.5;fill:#bbbbbb;fill-opacity:1;stroke:#b1b1b1;stroke-width:1.26057625;stroke-miterlimit:4;stroke-dasharray:none;stroke-opacity:1"
           id="rect8620"
           width="176.3812"
           height="34.866421"
           x="532.09991"
           y="909.87012"
           rx="12.558887"
           ry="12.349752" />
        <path
           style="opacity:0.4;fill:#ffffff;fill-opacity:1;stroke:none;stroke-width:1.26057625;stroke-miterlimit:4;stroke-dasharray:none;stroke-opacity:1"
           d="M 531.55423,927.92249 C 538.19403,928.74939 544.85457,929.52779 551.5185,930.14119 C 559.05314,930.83489 566.59124,931.39409 574.15515,931.82869 C 581.71907,932.26339 589.29461,932.57579 596.88613,932.76619 C 604.47765,932.95669 612.09395,933.02419 619.71143,932.98499 C 627.3289,932.94579 634.95783,932.77029 642.59961,932.51619 C 650.24138,932.26219 657.88626,931.90799 665.55066,931.45369 C 673.21505,930.99949 680.91066,930.46849 688.59604,929.82869 C 695.4019,929.26219 702.21082,928.59249 709.0319,927.89119 L 709.0319,921.85999 C 709.0319,915.01819 703.39297,909.51619 696.3931,909.51619 L 544.19303,909.51619 C 537.19314,909.51619 531.55423,915.01819 531.55423,921.85999 L 531.55423,927.92249 z "
           id="rect4794" />
      </g>
    </g>
  </g>
</svg>
