<?xml version="1.0" encoding="UTF-8" standalone="no"?>
<!-- Created with Inkscape (http://www.inkscape.org/) -->
<svg
   xmlns:a="http://ns.adobe.com/AdobeSVGViewerExtensions/3.0/"
   xmlns:i="http://ns.adobe.com/AdobeIllustrator/10.0/"
   xmlns:dc="http://purl.org/dc/elements/1.1/"
   xmlns:cc="http://web.resource.org/cc/"
   xmlns:rdf="http://www.w3.org/1999/02/22-rdf-syntax-ns#"
   xmlns:svg="http://www.w3.org/2000/svg"
   xmlns="http://www.w3.org/2000/svg"
   xmlns:xlink="http://www.w3.org/1999/xlink"
   xmlns:sodipodi="http://sodipodi.sourceforge.net/DTD/sodipodi-0.dtd"
   xmlns:inkscape="http://www.inkscape.org/namespaces/inkscape"
   id="svg11068"
   sodipodi:version="0.32"
   inkscape:version="0.45"
   width="800"
   height="600.00006"
   version="1.0"
   sodipodi:docbase="/home/beast"
   sodipodi:docname="amarokwallpaper-compressed.svg.svgz"
   inkscape:output_extension="org.inkscape.output.svgz.inkscape"
   sodipodi:modified="true">
  <metadata
     id="metadata11073">
    <rdf:RDF>
      <cc:Work
         rdf:about="">
        <dc:format>image/svg+xml</dc:format>
        <dc:type
           rdf:resource="http://purl.org/dc/dcmitype/StillImage" />
      </cc:Work>
    </rdf:RDF>
  </metadata>
  <defs
     id="defs11071">
    <linearGradient
       inkscape:collect="always"
       xlink:href="#XMLID_22_"
       id="linearGradient31622"
       gradientUnits="userSpaceOnUse"
       x1="411.267"
       y1="79.224213"
       x2="411.267"
       y2="822.43915" />
    <linearGradient
       y2="612.60522"
       x2="335.09619"
       y1="704.23578"
       x1="264.5405"
       gradientUnits="userSpaceOnUse"
       id="linearGradient7409">
      <stop
         id="stop7411"
         style="stop-color:#FFFFFF"
         offset="0" />
      <stop
         id="stop7413"
         style="stop-color:#193D6B"
         offset="1" />
      <a:midPointStop
         style="stop-color:#FFFFFF"
         offset="0" />
      <a:midPointStop
         style="stop-color:#FFFFFF"
         offset="0.5" />
      <a:midPointStop
         style="stop-color:#193D6B"
         offset="1" />
    </linearGradient>
    <linearGradient
       id="linearGradient3093"
       gradientUnits="userSpaceOnUse"
       x1="517.18988"
       y1="239.939"
       x2="410.27759"
       y2="522.02393">
      <stop
         offset="0"
         style="stop-color:#FFFFFF"
         id="stop3095" />
      <stop
         offset="0.9944"
         style="stop-color:#FFFFFF"
         id="stop3097" />
      <a:midPointStop
         offset="0"
         style="stop-color:#FFFFFF" />
      <a:midPointStop
         offset="0.6215"
         style="stop-color:#FFFFFF" />
      <a:midPointStop
         offset="0.9944"
         style="stop-color:#FFFFFF" />
    </linearGradient>
    <linearGradient
       inkscape:collect="always"
       xlink:href="#linearGradient3093"
       id="linearGradient31640"
       gradientUnits="userSpaceOnUse"
       x1="219.39252"
       y1="410.16937"
       x2="214.25508"
       y2="525.04938" />
    <linearGradient
       id="linearGradient3023"
       gradientUnits="userSpaceOnUse"
       x1="220.9512"
       y1="634.63232"
       x2="278.14471"
       y2="560.35498">
      <stop
         offset="0"
         style="stop-color:#FFFFFF"
         id="stop3025" />
      <stop
         offset="1"
         style="stop-color:#193D6B"
         id="stop3027" />
      <a:midPointStop
         offset="0"
         style="stop-color:#FFFFFF" />
      <a:midPointStop
         offset="0.5"
         style="stop-color:#FFFFFF" />
      <a:midPointStop
         offset="1"
         style="stop-color:#193D6B" />
    </linearGradient>
    <linearGradient
       inkscape:collect="always"
       xlink:href="#linearGradient3023"
       id="linearGradient31642"
       gradientUnits="userSpaceOnUse"
       x1="313.34982"
       y1="611.44519"
       x2="130.14824"
       y2="410.02045" />
    <linearGradient
       inkscape:collect="always"
       id="linearGradient7893">
      <stop
         style="stop-color:#00316e;stop-opacity:1;"
         offset="0"
         id="stop7895" />
      <stop
         style="stop-color:#00316e;stop-opacity:0;"
         offset="1"
         id="stop7897" />
    </linearGradient>
    <mask
       maskUnits="userSpaceOnUse"
       x="243.061"
       y="279.317"
       width="252.506"
       height="187.183"
       id="XMLID_13_"
       i:invertMask="false"
       i:clipMask="true">
      <g
         id="g6864">
        <linearGradient
           id="XMLID_14_"
           gradientUnits="userSpaceOnUse"
           x1="340.0488"
           y1="266.93359"
           x2="372.38071"
           y2="417.81519">
          <stop
             offset="0"
             style="stop-color:#FFFFFF"
             id="stop6867" />
          <stop
             offset="0.0867"
             style="stop-color:#F8F8F8"
             id="stop6869" />
          <stop
             offset="0.2156"
             style="stop-color:#E4E4E4"
             id="stop6871" />
          <stop
             offset="0.3708"
             style="stop-color:#C2C2C2"
             id="stop6873" />
          <stop
             offset="0.5465"
             style="stop-color:#949494"
             id="stop6875" />
          <stop
             offset="0.7394"
             style="stop-color:#595959"
             id="stop6877" />
          <stop
             offset="0.9438"
             style="stop-color:#151515"
             id="stop6879" />
          <stop
             offset="0.9944"
             style="stop-color:#000000"
             id="stop6881" />
          <a:midPointStop
             offset="0"
             style="stop-color:#FFFFFF" />
          <a:midPointStop
             offset="0.6215"
             style="stop-color:#FFFFFF" />
          <a:midPointStop
             offset="0.9944"
             style="stop-color:#000000" />
        </linearGradient>
        <ellipse
           style="fill:url(#XMLID_14_)"
           sodipodi:ry="183.32201"
           sodipodi:rx="215.32401"
           sodipodi:cy="374.28201"
           sodipodi:cx="363.052"
           i:knockout="Off"
           cx="363.052"
           cy="374.28201"
           rx="215.32401"
           ry="183.32201"
           id="ellipse6883" />
      </g>
    </mask>
    <mask
       maskUnits="userSpaceOnUse"
       x="191.541"
       y="217.631"
       width="447.197"
       height="527.73"
       id="XMLID_10_"
       i:invertMask="false"
       i:clipMask="true">
      <g
         id="g6830">
        <radialGradient
           id="XMLID_11_"
           cx="657.2124"
           cy="155.23289"
           r="606.95343"
           fx="657.2124"
           fy="155.23289"
           gradientTransform="matrix(0.931,0,0,0.9299,28.7459,21.6629)"
           gradientUnits="userSpaceOnUse">
          <stop
             offset="0"
             style="stop-color:#C9C9C8"
             id="stop6833" />
          <stop
             offset="0.0881"
             style="stop-color:#C4C4C4"
             id="stop6835" />
          <stop
             offset="0.2192"
             style="stop-color:#B8B8B7"
             id="stop6837" />
          <stop
             offset="0.3769"
             style="stop-color:#A1A0A0"
             id="stop6839" />
          <stop
             offset="0.5556"
             style="stop-color:#7F7F7E"
             id="stop6841" />
          <stop
             offset="0.7517"
             style="stop-color:#4F4F4E"
             id="stop6843" />
          <stop
             offset="0.9595"
             style="stop-color:#121212"
             id="stop6845" />
          <stop
             offset="1"
             style="stop-color:#000000"
             id="stop6847" />
          <a:midPointStop
             offset="0"
             style="stop-color:#C9C9C8" />
          <a:midPointStop
             offset="0.6215"
             style="stop-color:#C9C9C8" />
          <a:midPointStop
             offset="1"
             style="stop-color:#000000" />
        </radialGradient>
        <circle
           style="fill:url(#XMLID_11_)"
           sodipodi:ry="302.95401"
           sodipodi:rx="302.95401"
           sodipodi:cy="444.22601"
           sodipodi:cx="408.427"
           i:knockout="Off"
           cx="408.427"
           cy="444.22601"
           r="302.95401"
           id="circle6849" />
      </g>
    </mask>
    <linearGradient
       id="XMLID_12_"
       gradientUnits="userSpaceOnUse"
       x1="517.18988"
       y1="239.939"
       x2="410.27759"
       y2="522.02393">
      <stop
         offset="0"
         style="stop-color:#FFFFFF"
         id="stop6852" />
      <stop
         offset="0.9944"
         style="stop-color:#FFFFFF"
         id="stop6854" />
      <a:midPointStop
         offset="0"
         style="stop-color:#FFFFFF" />
      <a:midPointStop
         offset="0.6215"
         style="stop-color:#FFFFFF" />
      <a:midPointStop
         offset="0.9944"
         style="stop-color:#FFFFFF" />
    </linearGradient>
    <linearGradient
       inkscape:collect="always"
       xlink:href="#XMLID_12_"
       id="linearGradient9758"
       gradientUnits="userSpaceOnUse"
       gradientTransform="matrix(3.12237,0,0,3.12237,-1084.425,-172.2462)"
       x1="517.18988"
       y1="239.939"
       x2="410.27759"
       y2="522.02393" />
    <linearGradient
       id="XMLID_9_"
       gradientUnits="userSpaceOnUse"
       x1="331.49609"
       y1="790.51508"
       x2="409.85471"
       y2="688.75092">
      <stop
         offset="0"
         style="stop-color:#FFFFFF"
         id="stop6818" />
      <stop
         offset="1"
         style="stop-color:#193D6B"
         id="stop6820" />
      <a:midPointStop
         offset="0"
         style="stop-color:#FFFFFF" />
      <a:midPointStop
         offset="0.5"
         style="stop-color:#FFFFFF" />
      <a:midPointStop
         offset="1"
         style="stop-color:#193D6B" />
    </linearGradient>
    <linearGradient
       id="XMLID_8_"
       gradientUnits="userSpaceOnUse"
       x1="319.186"
       y1="713.54639"
       x2="373.12509"
       y2="626.00598">
      <stop
         offset="0"
         style="stop-color:#FFFFFF"
         id="stop6811" />
      <stop
         offset="1"
         style="stop-color:#193D6B"
         id="stop6813" />
      <a:midPointStop
         offset="0"
         style="stop-color:#FFFFFF" />
      <a:midPointStop
         offset="0.5"
         style="stop-color:#FFFFFF" />
      <a:midPointStop
         offset="1"
         style="stop-color:#193D6B" />
    </linearGradient>
    <linearGradient
       id="XMLID_7_"
       gradientUnits="userSpaceOnUse"
       x1="264.5405"
       y1="704.23578"
       x2="335.09619"
       y2="612.60522">
      <stop
         offset="0"
         style="stop-color:#FFFFFF"
         id="stop6804" />
      <stop
         offset="1"
         style="stop-color:#193D6B"
         id="stop6806" />
      <a:midPointStop
         offset="0"
         style="stop-color:#FFFFFF" />
      <a:midPointStop
         offset="0.5"
         style="stop-color:#FFFFFF" />
      <a:midPointStop
         offset="1"
         style="stop-color:#193D6B" />
    </linearGradient>
    <linearGradient
       id="XMLID_6_"
       gradientUnits="userSpaceOnUse"
       x1="237.20799"
       y1="684.01898"
       x2="328.18469"
       y2="565.86761">
      <stop
         offset="0"
         style="stop-color:#FFFFFF"
         id="stop6797" />
      <stop
         offset="1"
         style="stop-color:#193D6B"
         id="stop6799" />
      <a:midPointStop
         offset="0"
         style="stop-color:#FFFFFF" />
      <a:midPointStop
         offset="0.5"
         style="stop-color:#FFFFFF" />
      <a:midPointStop
         offset="1"
         style="stop-color:#193D6B" />
    </linearGradient>
    <linearGradient
       id="XMLID_5_"
       gradientUnits="userSpaceOnUse"
       x1="220.9512"
       y1="634.63232"
       x2="278.14471"
       y2="560.35498">
      <stop
         offset="0"
         style="stop-color:#FFFFFF"
         id="stop6790" />
      <stop
         offset="1"
         style="stop-color:#193D6B"
         id="stop6792" />
      <a:midPointStop
         offset="0"
         style="stop-color:#FFFFFF" />
      <a:midPointStop
         offset="0.5"
         style="stop-color:#FFFFFF" />
      <a:midPointStop
         offset="1"
         style="stop-color:#193D6B" />
    </linearGradient>
    <linearGradient
       id="XMLID_4_"
       gradientUnits="userSpaceOnUse"
       x1="429.84909"
       y1="815.45459"
       x2="480.12021"
       y2="643.30768"
       gradientTransform="matrix(-1,0,0,1,951.2744,0)">
      <stop
         offset="0"
         style="stop-color:#FFFFFF"
         id="stop6783" />
      <stop
         offset="1"
         style="stop-color:#E5EAF2"
         id="stop6785" />
      <a:midPointStop
         offset="0"
         style="stop-color:#FFFFFF" />
      <a:midPointStop
         offset="0.5"
         style="stop-color:#FFFFFF" />
      <a:midPointStop
         offset="1"
         style="stop-color:#E5EAF2" />
    </linearGradient>
    <mask
       maskUnits="userSpaceOnUse"
       x="101.57"
       y="425.034"
       width="156.907"
       height="127.553"
       id="XMLID_2_"
       i:invertMask="false"
       i:clipMask="true">
      <g
         id="g6757">
        <linearGradient
           id="XMLID_3_"
           gradientUnits="userSpaceOnUse"
           x1="206.09081"
           y1="397.62061"
           x2="186.92191"
           y2="563.47321">
          <stop
             offset="0"
             style="stop-color:#FFFFFF"
             id="stop6760" />
          <stop
             offset="0.1111"
             style="stop-color:#CBCBCB"
             id="stop6762" />
          <stop
             offset="0.2396"
             style="stop-color:#969696"
             id="stop6764" />
          <stop
             offset="0.3698"
             style="stop-color:#686868"
             id="stop6766" />
          <stop
             offset="0.4991"
             style="stop-color:#424242"
             id="stop6768" />
          <stop
             offset="0.6273"
             style="stop-color:#252525"
             id="stop6770" />
          <stop
             offset="0.7542"
             style="stop-color:#111111"
             id="stop6772" />
          <stop
             offset="0.8792"
             style="stop-color:#040404"
             id="stop6774" />
          <stop
             offset="1"
             style="stop-color:#000000"
             id="stop6776" />
          <a:midPointStop
             offset="0"
             style="stop-color:#FFFFFF" />
          <a:midPointStop
             offset="0.2994"
             style="stop-color:#FFFFFF" />
          <a:midPointStop
             offset="1"
             style="stop-color:#000000" />
        </linearGradient>
        <ellipse
           style="fill:url(#XMLID_3_)"
           sodipodi:ry="123.604"
           sodipodi:rx="160.94"
           sodipodi:cy="495.62299"
           sodipodi:cx="194.76401"
           i:knockout="Off"
           cx="194.76401"
           cy="495.62299"
           rx="160.94"
           ry="123.604"
           id="ellipse6778" />
      </g>
    </mask>
    <mask
       maskUnits="userSpaceOnUse"
       x="155.705"
       y="461.543"
       width="93.126"
       height="44.813"
       id="XMLID_26_"
       i:invertMask="false"
       i:clipMask="true">
      <g
         id="g6740">
        <linearGradient
           id="XMLID_1_"
           gradientUnits="userSpaceOnUse"
           x1="211.7222"
           y1="562.85791"
           x2="200.0733"
           y2="466.75449">
          <stop
             offset="0"
             style="stop-color:#FFFFFF"
             id="stop6743" />
          <stop
             offset="1"
             style="stop-color:#000000"
             id="stop6745" />
          <a:midPointStop
             offset="0"
             style="stop-color:#FFFFFF" />
          <a:midPointStop
             offset="0.5"
             style="stop-color:#FFFFFF" />
          <a:midPointStop
             offset="1"
             style="stop-color:#000000" />
        </linearGradient>
        <ellipse
           style="fill:url(#XMLID_1_)"
           sodipodi:ry="59.682999"
           sodipodi:rx="80.542"
           sodipodi:cy="495.98801"
           sodipodi:cx="203.617"
           i:knockout="Off"
           cx="203.617"
           cy="495.98801"
           rx="80.542"
           ry="59.682999"
           id="ellipse6747" />
      </g>
    </mask>
    <radialGradient
       id="XMLID_25_"
       cx="375.21439"
       cy="783.16357"
       r="300.5752"
       fx="375.21439"
       fy="783.16357"
       gradientUnits="userSpaceOnUse">
      <stop
         offset="0.0112"
         style="stop-color:#D2E8EC"
         id="stop6717" />
      <stop
         offset="0.2921"
         style="stop-color:#60A8CE"
         id="stop6719" />
      <stop
         offset="0.4575"
         style="stop-color:#4680A8"
         id="stop6721" />
      <stop
         offset="0.6767"
         style="stop-color:#2F5C84"
         id="stop6723" />
      <stop
         offset="0.8653"
         style="stop-color:#234970"
         id="stop6725" />
      <stop
         offset="1"
         style="stop-color:#1F426A"
         id="stop6727" />
      <a:midPointStop
         offset="0.0112"
         style="stop-color:#D2E8EC" />
      <a:midPointStop
         offset="0.5"
         style="stop-color:#D2E8EC" />
      <a:midPointStop
         offset="0.2921"
         style="stop-color:#60A8CE" />
      <a:midPointStop
         offset="0.3651"
         style="stop-color:#60A8CE" />
      <a:midPointStop
         offset="1"
         style="stop-color:#1F426A" />
    </radialGradient>
    <mask
       maskUnits="userSpaceOnUse"
       x="122.963"
       y="97.149"
       width="576.609"
       height="587.491"
       id="XMLID_23_"
       i:invertMask="false"
       i:clipMask="true">
      <g
         id="g6702">
        <radialGradient
           id="XMLID_24_"
           cx="88.977501"
           cy="-20.899401"
           r="673.11609"
           fx="88.977501"
           fy="-20.899401"
           gradientUnits="userSpaceOnUse">
          <stop
             offset="0.309"
             style="stop-color:#FFFFFF"
             id="stop6705" />
          <stop
             offset="1"
             style="stop-color:#000000"
             id="stop6707" />
          <a:midPointStop
             offset="0.309"
             style="stop-color:#FFFFFF" />
          <a:midPointStop
             offset="0.5"
             style="stop-color:#FFFFFF" />
          <a:midPointStop
             offset="1"
             style="stop-color:#000000" />
        </radialGradient>
        <ellipse
           style="fill:url(#XMLID_24_)"
           sodipodi:ry="349.10599"
           sodipodi:rx="512.93402"
           sodipodi:cy="286.172"
           sodipodi:cx="295.89499"
           i:knockout="Off"
           cx="295.89499"
           cy="286.172"
           rx="512.93402"
           ry="349.10599"
           id="ellipse6709" />
      </g>
    </mask>
    <radialGradient
       id="XMLID_22_"
       cx="622.72803"
       cy="621.17328"
       r="510.71881"
       fx="622.72803"
       fy="621.17328"
       gradientUnits="userSpaceOnUse">
      <stop
         offset="0"
         style="stop-color:#FFFFFF"
         id="stop6685" />
      <stop
         offset="0.2814"
         style="stop-color:#E6E6E6"
         id="stop6687" />
      <stop
         offset="0.7515"
         style="stop-color:#C0C0C0"
         id="stop6689" />
      <stop
         offset="1"
         style="stop-color:#B2B2B2"
         id="stop6691" />
      <a:midPointStop
         offset="0"
         style="stop-color:#FFFFFF" />
      <a:midPointStop
         offset="0.4359"
         style="stop-color:#FFFFFF" />
      <a:midPointStop
         offset="1"
         style="stop-color:#B2B2B2" />
    </radialGradient>
    <radialGradient
       inkscape:collect="always"
       xlink:href="#XMLID_22_"
       id="radialGradient11890"
       gradientUnits="userSpaceOnUse"
       gradientTransform="matrix(3.12237,0,0,3.12237,-1084.425,-172.2462)"
       cx="622.72803"
       cy="621.17328"
       fx="622.72803"
       fy="621.17328"
       r="510.71881" />
    <radialGradient
       inkscape:collect="always"
       xlink:href="#XMLID_25_"
       id="radialGradient11892"
       gradientUnits="userSpaceOnUse"
       gradientTransform="matrix(3.12237,0,0,3.12237,-1084.425,-172.2462)"
       cx="375.21439"
       cy="783.16357"
       fx="375.21439"
       fy="783.16357"
       r="300.5752" />
    <linearGradient
       inkscape:collect="always"
       xlink:href="#XMLID_4_"
       id="linearGradient11894"
       gradientUnits="userSpaceOnUse"
       gradientTransform="matrix(-3.12237,0,0,3.12237,1885.808,-172.2462)"
       x1="429.84909"
       y1="815.45459"
       x2="480.12021"
       y2="643.30768" />
    <linearGradient
       inkscape:collect="always"
       xlink:href="#XMLID_5_"
       id="linearGradient11896"
       gradientUnits="userSpaceOnUse"
       gradientTransform="matrix(3.12237,0,0,3.12237,-1084.425,-172.2462)"
       x1="220.9512"
       y1="634.63232"
       x2="278.14471"
       y2="560.35498" />
    <linearGradient
       inkscape:collect="always"
       xlink:href="#XMLID_6_"
       id="linearGradient11898"
       gradientUnits="userSpaceOnUse"
       gradientTransform="matrix(3.12237,0,0,3.12237,-1084.425,-172.2462)"
       x1="237.20799"
       y1="684.01898"
       x2="328.18469"
       y2="565.86761" />
    <linearGradient
       inkscape:collect="always"
       xlink:href="#XMLID_7_"
       id="linearGradient11900"
       gradientUnits="userSpaceOnUse"
       gradientTransform="matrix(3.12237,0,0,3.12237,-1084.425,-172.2462)"
       x1="264.5405"
       y1="704.23578"
       x2="335.09619"
       y2="612.60522" />
    <linearGradient
       inkscape:collect="always"
       xlink:href="#XMLID_8_"
       id="linearGradient11902"
       gradientUnits="userSpaceOnUse"
       gradientTransform="matrix(3.12237,0,0,3.12237,-1084.425,-172.2462)"
       x1="319.186"
       y1="713.54639"
       x2="373.12509"
       y2="626.00598" />
    <linearGradient
       inkscape:collect="always"
       xlink:href="#XMLID_9_"
       id="linearGradient11904"
       gradientUnits="userSpaceOnUse"
       gradientTransform="matrix(3.12237,0,0,3.12237,-1084.425,-172.2462)"
       x1="331.49609"
       y1="790.51508"
       x2="409.85471"
       y2="688.75092" />
    <linearGradient
       inkscape:collect="always"
       xlink:href="#XMLID_12_"
       id="linearGradient11906"
       gradientUnits="userSpaceOnUse"
       gradientTransform="matrix(3.12237,0,0,3.12237,-1084.425,-172.2462)"
       x1="517.18988"
       y1="239.939"
       x2="410.27759"
       y2="522.02393" />
    <radialGradient
       inkscape:collect="always"
       xlink:href="#XMLID_22_"
       id="radialGradient19158"
       gradientUnits="userSpaceOnUse"
       gradientTransform="matrix(3.12237,0,0,3.12237,-1084.425,-172.2462)"
       cx="622.72803"
       cy="621.17328"
       fx="622.72803"
       fy="621.17328"
       r="510.71881" />
    <radialGradient
       inkscape:collect="always"
       xlink:href="#XMLID_25_"
       id="radialGradient19160"
       gradientUnits="userSpaceOnUse"
       gradientTransform="matrix(3.12237,0,0,3.12237,-1084.425,-172.2462)"
       cx="375.21439"
       cy="783.16357"
       fx="375.21439"
       fy="783.16357"
       r="300.5752" />
    <linearGradient
       inkscape:collect="always"
       xlink:href="#XMLID_4_"
       id="linearGradient19162"
       gradientUnits="userSpaceOnUse"
       gradientTransform="matrix(-3.12237,0,0,3.12237,1885.808,-172.2462)"
       x1="429.84909"
       y1="815.45459"
       x2="480.12021"
       y2="643.30768" />
    <linearGradient
       inkscape:collect="always"
       xlink:href="#XMLID_5_"
       id="linearGradient19164"
       gradientUnits="userSpaceOnUse"
       gradientTransform="matrix(3.12237,0,0,3.12237,-1084.425,-172.2462)"
       x1="220.9512"
       y1="634.63232"
       x2="278.14471"
       y2="560.35498" />
    <linearGradient
       inkscape:collect="always"
       xlink:href="#XMLID_6_"
       id="linearGradient19166"
       gradientUnits="userSpaceOnUse"
       gradientTransform="matrix(3.12237,0,0,3.12237,-1084.425,-172.2462)"
       x1="237.20799"
       y1="684.01898"
       x2="328.18469"
       y2="565.86761" />
    <linearGradient
       inkscape:collect="always"
       xlink:href="#XMLID_7_"
       id="linearGradient19168"
       gradientUnits="userSpaceOnUse"
       gradientTransform="matrix(3.12237,0,0,3.12237,-1084.425,-172.2462)"
       x1="264.5405"
       y1="704.23578"
       x2="335.09619"
       y2="612.60522" />
    <linearGradient
       inkscape:collect="always"
       xlink:href="#XMLID_8_"
       id="linearGradient19170"
       gradientUnits="userSpaceOnUse"
       gradientTransform="matrix(3.12237,0,0,3.12237,-1084.425,-172.2462)"
       x1="319.186"
       y1="713.54639"
       x2="373.12509"
       y2="626.00598" />
    <linearGradient
       inkscape:collect="always"
       xlink:href="#XMLID_9_"
       id="linearGradient19172"
       gradientUnits="userSpaceOnUse"
       gradientTransform="matrix(3.12237,0,0,3.12237,-1084.425,-172.2462)"
       x1="331.49609"
       y1="790.51508"
       x2="409.85471"
       y2="688.75092" />
    <linearGradient
       inkscape:collect="always"
       xlink:href="#XMLID_12_"
       id="linearGradient19174"
       gradientUnits="userSpaceOnUse"
       gradientTransform="matrix(3.12237,0,0,3.12237,-1084.425,-172.2462)"
       x1="517.18988"
       y1="239.939"
       x2="410.27759"
       y2="522.02393" />
    <linearGradient
       inkscape:collect="always"
       xlink:href="#XMLID_12_"
       id="linearGradient4255"
       gradientUnits="userSpaceOnUse"
       gradientTransform="matrix(3.12237,0,0,3.12237,-1084.425,-172.2462)"
       x1="517.18988"
       y1="239.939"
       x2="410.27759"
       y2="522.02393" />
    <radialGradient
       inkscape:collect="always"
       xlink:href="#XMLID_22_"
       id="radialGradient5833"
       gradientUnits="userSpaceOnUse"
       gradientTransform="matrix(3.12237,0,0,3.12237,-1084.425,-172.2462)"
       cx="622.72803"
       cy="621.17328"
       fx="622.72803"
       fy="621.17328"
       r="510.71881" />
    <radialGradient
       inkscape:collect="always"
       xlink:href="#XMLID_25_"
       id="radialGradient5835"
       gradientUnits="userSpaceOnUse"
       gradientTransform="matrix(3.12237,0,0,3.12237,-1084.425,-172.2462)"
       cx="375.21439"
       cy="783.16357"
       fx="375.21439"
       fy="783.16357"
       r="300.5752" />
    <linearGradient
       inkscape:collect="always"
       xlink:href="#XMLID_4_"
       id="linearGradient5837"
       gradientUnits="userSpaceOnUse"
       gradientTransform="matrix(-3.12237,0,0,3.12237,1885.808,-172.2462)"
       x1="429.84909"
       y1="815.45459"
       x2="480.12021"
       y2="643.30768" />
    <linearGradient
       inkscape:collect="always"
       xlink:href="#XMLID_5_"
       id="linearGradient5839"
       gradientUnits="userSpaceOnUse"
       gradientTransform="matrix(3.12237,0,0,3.12237,-1084.425,-172.2462)"
       x1="220.9512"
       y1="634.63232"
       x2="278.14471"
       y2="560.35498" />
    <linearGradient
       inkscape:collect="always"
       xlink:href="#XMLID_6_"
       id="linearGradient5841"
       gradientUnits="userSpaceOnUse"
       gradientTransform="matrix(3.12237,0,0,3.12237,-1084.425,-172.2462)"
       x1="237.20799"
       y1="684.01898"
       x2="328.18469"
       y2="565.86761" />
    <linearGradient
       inkscape:collect="always"
       xlink:href="#XMLID_7_"
       id="linearGradient5843"
       gradientUnits="userSpaceOnUse"
       gradientTransform="matrix(3.12237,0,0,3.12237,-1084.425,-172.2462)"
       x1="264.5405"
       y1="704.23578"
       x2="335.09619"
       y2="612.60522" />
    <linearGradient
       inkscape:collect="always"
       xlink:href="#XMLID_8_"
       id="linearGradient5845"
       gradientUnits="userSpaceOnUse"
       gradientTransform="matrix(3.12237,0,0,3.12237,-1084.425,-172.2462)"
       x1="319.186"
       y1="713.54639"
       x2="373.12509"
       y2="626.00598" />
    <linearGradient
       inkscape:collect="always"
       xlink:href="#XMLID_9_"
       id="linearGradient5847"
       gradientUnits="userSpaceOnUse"
       gradientTransform="matrix(3.12237,0,0,3.12237,-1084.425,-172.2462)"
       x1="331.49609"
       y1="790.51508"
       x2="409.85471"
       y2="688.75092" />
    <linearGradient
       inkscape:collect="always"
       xlink:href="#XMLID_12_"
       id="linearGradient5849"
       gradientUnits="userSpaceOnUse"
       gradientTransform="matrix(3.12237,0,0,3.12237,-1084.425,-172.2462)"
       x1="517.18988"
       y1="239.939"
       x2="410.27759"
       y2="522.02393" />
    <linearGradient
       inkscape:collect="always"
       xlink:href="#linearGradient7893"
       id="linearGradient7899"
       x1="400"
       y1="607.21405"
       x2="400"
       y2="-364.45578"
       gradientUnits="userSpaceOnUse"
       gradientTransform="matrix(0.9999988,0,0,0.9999857,-9.4682437e-8,8.2687408e-3)" />
    <linearGradient
       inkscape:collect="always"
       xlink:href="#linearGradient7893"
       id="linearGradient8462"
       gradientUnits="userSpaceOnUse"
       gradientTransform="matrix(0.9999988,0,0,0.9999857,-9.4682437e-8,-599.9999)"
       x1="400"
       y1="671.19128"
       x2="400"
       y2="-179.2585" />
    <linearGradient
       inkscape:collect="always"
       xlink:href="#XMLID_22_"
       id="linearGradient12355"
       gradientUnits="userSpaceOnUse"
       x1="411.267"
       y1="79.224213"
       x2="411.267"
       y2="822.43915" />
    <linearGradient
       inkscape:collect="always"
       xlink:href="#linearGradient3093"
       id="linearGradient12375"
       gradientUnits="userSpaceOnUse"
       x1="219.39252"
       y1="410.16937"
       x2="214.25508"
       y2="525.04938" />
    <linearGradient
       inkscape:collect="always"
       xlink:href="#linearGradient3023"
       id="linearGradient12377"
       gradientUnits="userSpaceOnUse"
       x1="313.34982"
       y1="611.44519"
       x2="130.14824"
       y2="410.02045" />
  </defs>
  <sodipodi:namedview
     inkscape:window-height="991"
     inkscape:window-width="1668"
     inkscape:pageshadow="2"
     inkscape:pageopacity="0.0"
     guidetolerance="10.0"
     gridtolerance="10.0"
     objecttolerance="10.0"
     borderopacity="1.0"
     bordercolor="#666666"
     pagecolor="#ffffff"
     id="base"
     inkscape:zoom="0.89095456"
     inkscape:cx="600.20231"
     inkscape:cy="262.74624"
     inkscape:window-x="0"
     inkscape:window-y="30"
     inkscape:current-layer="svg11068" />
  <rect
     transform="scale(1,-1)"
     y="-599.93726"
     x="0.062499836"
     height="599.86639"
     width="799.87402"
     id="rect8464"
     style="opacity:1;fill:#00316e;fill-opacity:1;fill-rule:evenodd;stroke:#000000;stroke-width:0.02646151;stroke-miterlimit:4;stroke-dasharray:none;stroke-dashoffset:0;stroke-opacity:1" />
  <g
     id="g6863"
     style="opacity:0.5">
    <rect
       y="0.06260661"
       x="0.062502906"
       height="599.87494"
       width="799.875"
       id="rect2462"
       style="fill:#121638;fill-opacity:1;fill-rule:evenodd;stroke:#000000;stroke-width:0.02646171;stroke-miterlimit:4;stroke-dasharray:none;stroke-dashoffset:0;stroke-opacity:1" />
    <path
       style="fill:#b3ccd9"
       d="M 796.54223,598.17243 C 796.9967,596.59876 796.82902,2.9614681 796.37391,2.0255668 C 796.1056,1.4737905 795.9564,106.90752 795.95215,300.12228 C 795.94854,464.54503 796.02132,599.07272 796.11395,599.07272 C 796.20648,599.07272 796.39926,598.6676 796.54223,598.17243 z M 794.40077,598.17243 C 794.74067,596.99524 794.74067,3.5338821 794.40077,2.3566974 C 794.16629,1.544941 790.33363,1.4564084 755.42538,1.4564084 C 724.75665,1.4564084 716.703,1.6042757 716.67622,2.1678564 C 716.64915,2.7370148 716.59915,2.7370148 716.42634,2.1678564 C 716.11114,1.1297797 684.60298,1.1297797 684.55367,2.1678564 C 684.5266,2.7370148 684.47665,2.7370148 684.30379,2.1678564 C 683.99111,1.138061 666.61398,1.138061 666.56507,2.1678564 C 666.538,2.7370148 666.488,2.7370148 666.31519,2.1678564 C 666.19637,1.77656 665.7298,1.4564084 665.27829,1.4564084 C 664.47029,1.4564084 664.45735,6.166399 664.45735,300.26457 C 664.45735,598.69326 664.45843,599.07272 665.31396,599.07272 C 665.78508,599.07272 666.18575,598.75257 666.20437,598.36127 C 666.2314,597.79212 666.28139,597.79212 666.45421,598.36127 C 666.61714,598.89782 668.81987,599.07272 675.41472,599.07272 C 682.10674,599.07272 684.16713,598.90573 684.19297,598.36127 C 684.22005,597.79212 684.26999,597.79212 684.44286,598.36127 C 684.61019,598.91239 688.22192,599.07272 700.47032,599.07272 C 712.81584,599.07272 716.28914,598.91677 716.31552,598.36127 C 716.3426,597.79212 716.39254,597.79212 716.56536,598.36127 C 716.73595,598.92303 724.9181,599.07272 755.4611,599.07272 C 790.33679,599.07272 794.16629,598.98416 794.40077,598.17243 z M 652.63328,598.17243 C 652.97323,596.99524 652.97323,3.5338821 652.63328,2.3566974 C 652.40262,1.5579633 650.56676,1.4564084 636.35782,1.4564084 C 623.84906,1.4564084 620.335,1.612187 620.30857,2.1678564 C 620.28155,2.7370148 620.23155,2.7370148 620.05874,2.1678564 C 619.72264,1.06094 602.51858,1.1560862 601.68073,2.269491 C 600.75653,3.4976381 600.75653,597.03149 601.68073,598.25962 C 602.52055,599.37563 619.89511,599.47227 619.94792,598.36127 C 619.975,597.79212 620.02494,597.79212 620.19776,598.36127 C 620.36514,598.91262 624.01047,599.07272 636.39354,599.07272 C 650.56987,599.07272 652.40262,598.97113 652.63328,598.17243 z M 585.81838,598.17243 C 586.15828,596.99524 586.15828,3.5338821 585.81838,2.3566974 C 585.59641,1.5880092 584.56337,1.4564084 578.75143,1.4564084 L 571.94445,1.4564084 L 571.94445,300.26457 L 571.94445,599.07272 L 578.75143,599.07272 C 584.56337,599.07272 585.59641,598.94113 585.81838,598.17243 z M 542.13173,598.17243 C 542.27471,597.67726 542.3917,463.61874 542.3917,300.26457 C 542.3917,136.9104 542.27471,2.8518539 542.13173,2.3566974 C 541.89845,1.5487657 539.06804,1.4564084 514.54205,1.4564084 C 493.09705,1.4564084 487.15854,1.609603 486.9625,2.1678564 C 486.76261,2.7370148 486.66267,2.7370148 486.46283,2.1678564 C 486.10623,1.1524493 476.01956,1.1524493 475.97134,2.1678564 C 475.94427,2.7370148 475.89427,2.7370148 475.72145,2.1678564 C 475.40546,1.1270592 432.33414,1.1270592 432.28464,2.1678564 C 432.25762,2.7370148 432.20767,2.7370148 432.0348,2.1678564 C 431.72578,1.1501499 421.19719,1.1501499 421.14887,2.1678564 C 421.1218,2.7370148 421.0718,2.7370148 420.89899,2.1678564 C 420.73383,1.6240027 418.02856,1.4564084 409.41453,1.4564084 C 399.53426,1.4564084 398.11405,1.5673203 397.8861,2.3566974 C 397.5462,3.5338821 397.5462,596.99524 397.8861,598.17243 C 398.1141,598.96191 399.53743,599.07272 409.4502,599.07272 C 418.18997,599.07272 420.76204,598.91131 420.78817,598.36127 C 420.8152,597.79212 420.86519,597.79212 421.03801,598.36127 C 421.19452,598.87682 422.71839,599.07272 426.5721,599.07272 C 430.52299,599.07272 431.89889,598.8898 431.92399,598.36127 C 431.95106,597.79212 432.00101,597.79212 432.17383,598.36127 C 432.34264,598.91723 437.10934,599.07272 453.98333,599.07272 C 470.95456,599.07272 475.58406,598.92042 475.61064,598.36127 C 475.63771,597.79212 475.68766,597.79212 475.86048,598.36127 C 476.0162,598.8742 477.49091,599.07272 481.14473,599.07272 C 484.78052,599.07272 486.28354,598.87164 486.46283,598.36127 C 486.66267,597.79212 486.76261,597.79212 486.9625,598.36127 C 487.15854,598.91951 493.09705,599.07272 514.54205,599.07272 C 539.06804,599.07272 541.89845,598.98035 542.13173,598.17243 z M 357.3659,300.26457 L 357.3659,1.4564084 L 318.65053,1.4564084 C 283.74223,1.4564084 279.90957,1.544941 279.67515,2.3566974 C 279.53217,2.8518539 279.41518,136.9104 279.41518,300.26457 C 279.41518,463.61874 279.53217,597.67726 279.67515,598.17243 C 279.90957,598.98422 283.74223,599.07272 318.65053,599.07272 L 357.3659,599.07272 L 357.3659,300.26457 z M 278.77273,300.26457 C 278.77273,23.477244 278.72086,1.4564084 278.06907,1.4564084 C 277.68199,1.4564084 277.24832,1.861541 277.10535,2.3566974 C 276.96237,2.8518539 276.84538,136.9104 276.84538,300.26457 C 276.84538,463.61874 276.96237,597.67726 277.10535,598.17243 C 277.24832,598.6676 277.68199,599.07272 278.06907,599.07272 C 278.72086,599.07272 278.77273,577.05188 278.77273,300.26457 z M 248.31757,598.17243 C 248.77199,596.59876 248.60436,2.9614681 248.14925,2.0255668 C 247.88094,1.4737905 247.73174,106.90752 247.72749,300.12228 C 247.72388,464.54503 247.79675,599.07272 247.88928,599.07272 C 247.98182,599.07272 248.17459,598.6676 248.31757,598.17243 z M 246.17605,598.17243 C 246.31908,597.67726 246.43602,463.61874 246.43602,300.26457 C 246.43602,136.9104 246.31908,2.8518539 246.17605,2.3566974 C 245.94168,1.544941 242.10896,1.4564084 207.20072,1.4564084 C 176.53203,1.4564084 168.47828,1.6042757 168.45156,2.1678564 C 168.42448,2.7370148 168.37449,2.7370148 168.20172,2.1678564 C 167.88647,1.1297797 136.37831,1.1297797 136.32901,2.1678564 C 136.30193,2.7370148 136.25194,2.7370148 136.07912,2.1678564 C 135.76644,1.138061 118.38932,1.138061 118.34041,2.1678564 C 118.31333,2.7370148 118.26334,2.7370148 118.09052,2.1678564 C 117.9717,1.77656 117.50508,1.4564084 117.05363,1.4564084 C 116.24563,1.4564084 116.23268,6.166399 116.23268,300.26457 C 116.23268,598.69326 116.23372,599.07272 117.0893,599.07272 C 117.56042,599.07272 117.96108,598.75257 117.97966,598.36127 C 118.00673,597.79212 118.05673,597.79212 118.22954,598.36127 C 118.39248,598.89782 120.59521,599.07272 127.19,599.07272 C 133.88208,599.07272 135.94242,598.90573 135.96826,598.36127 C 135.99538,597.79212 136.04533,597.79212 136.21819,598.36127 C 136.38553,598.91239 139.99726,599.07272 152.2456,599.07272 C 164.59118,599.07272 168.06443,598.91677 168.09086,598.36127 C 168.11788,597.79212 168.16788,597.79212 168.34069,598.36127 C 168.51134,598.92303 176.69343,599.07272 207.23639,599.07272 C 242.11213,599.07272 245.94168,598.98416 246.17605,598.17243 z M 104.40857,598.17243 C 104.55159,597.67726 104.66858,463.61874 104.66858,300.26457 C 104.66858,136.9104 104.55159,2.8518539 104.40857,2.3566974 C 104.18062,1.5672178 102.75729,1.4564084 92.844469,1.4564084 L 81.540333,1.4564084 L 81.540333,300.26457 L 81.540333,599.07272 L 92.844469,599.07272 C 102.75729,599.07272 104.18062,598.96191 104.40857,598.17243 z "
       id="path2452" />
    <path
       style="fill:#a3bbcf"
       d="M 793.94407,300.26457 L 793.94407,1.4564084 L 751.96424,1.4564084 C 714.1125,1.4564084 709.95663,1.544941 709.7025,2.3566974 C 709.33384,3.5338821 709.33384,596.99524 709.7025,598.17243 C 709.95663,598.98422 714.1125,599.07272 751.96424,599.07272 L 793.94407,599.07272 L 793.94407,300.26457 z M 674.77197,598.17243 C 675.14062,596.99524 675.14062,3.5338821 674.77197,2.3566974 C 674.52767,1.576478 673.22701,1.4564084 665.01927,1.4564084 L 655.54847,1.4564084 L 655.54847,300.26457 L 655.54847,599.07272 L 665.01927,599.07272 C 673.22701,599.07272 674.52767,598.95263 674.77197,598.17243 z M 640.22274,300.26457 L 640.22274,1.4564084 L 622.85688,1.4564084 C 607.44989,1.4564084 605.4592,1.5579633 605.20912,2.3566974 C 605.05409,2.8518539 604.92722,136.9104 604.92722,300.26457 C 604.92722,463.61874 605.05409,597.67726 605.20912,598.17243 C 605.4592,598.97118 607.44989,599.07272 622.85688,599.07272 L 640.22274,599.07272 L 640.22274,300.26457 z M 567.77401,300.26457 L 567.77401,1.4564084 L 560.34339,1.4564084 L 552.91273,1.4564084 L 552.91273,300.26457 L 552.91273,599.07272 L 560.34339,599.07272 L 567.77401,599.07272 L 567.77401,300.26457 z M 520.40369,300.26457 L 520.40369,1.4564084 L 490.88019,1.4564084 C 465.91233,1.4564084 461.25427,1.5818736 460.69319,2.269491 C 459.69108,3.4976381 459.69108,597.03149 460.69319,598.25962 C 461.25427,598.94728 465.91233,599.07272 490.88019,599.07272 L 520.40369,599.07272 L 520.40369,300.26457 z M 459.79755,300.26457 L 459.79755,1.4564084 L 454.45682,1.4564084 L 449.116,1.4564084 L 449.116,300.26457 L 449.116,599.07272 L 454.45682,599.07272 L 459.79755,599.07272 L 459.79755,300.26457 z M 448.30325,598.22138 C 448.76612,597.57709 448.8838,537.16982 448.8838,300.24794 C 448.8838,43.463503 448.79369,2.9720886 448.22035,2.269491 C 447.29976,1.1412255 401.74845,1.0425164 401.31997,2.1678564 C 401.10329,2.7370148 400.99484,2.7370148 400.77811,2.1678564 C 400.58415,1.6583287 398.96953,1.4564084 395.08909,1.4564084 L 389.6709,1.4564084 L 389.6709,300.26457 L 389.6709,599.07272 L 395.08909,599.07272 C 398.96953,599.07272 400.58415,598.87079 400.77811,598.36127 C 400.99484,597.79212 401.10329,597.79212 401.31997,598.36127 C 401.74682,599.48229 447.4953,599.34603 448.30325,598.22138 z M 389.1568,598.17243 C 389.31183,597.67726 389.4387,463.61874 389.4387,300.26457 C 389.4387,136.9104 389.31183,2.8518539 389.1568,2.3566974 C 388.90958,1.5672178 387.3662,1.4564084 376.61761,1.4564084 L 364.36027,1.4564084 L 364.36027,300.26457 L 364.36027,599.07272 L 376.61761,599.07272 C 387.3662,599.07272 388.90958,598.96191 389.1568,598.17243 z M 320.24084,300.26457 L 320.24084,1.4564084 L 278.2113,1.4564084 L 236.18176,1.4564084 L 236.18176,300.26457 L 236.18176,599.07272 L 278.2113,599.07272 L 320.24084,599.07272 L 320.24084,300.26457 z M 199.49295,300.26457 L 199.49295,1.4564084 L 157.51311,1.4564084 C 119.66142,1.4564084 115.50555,1.544941 115.25132,2.3566974 C 115.09629,2.8518539 114.96947,136.9104 114.96947,300.26457 C 114.96947,463.61874 115.09629,597.67726 115.25132,598.17243 C 115.50555,598.98422 119.66142,599.07272 157.51311,599.07272 L 199.49295,599.07272 L 199.49295,300.26457 z M 80.320844,598.17243 C 80.475874,597.67726 80.602744,463.61874 80.602744,300.26457 C 80.602744,136.9104 80.475874,2.8518539 80.320844,2.3566974 C 80.076591,1.576478 78.775881,1.4564084 70.568143,1.4564084 L 61.097291,1.4564084 L 61.097291,300.26457 L 61.097291,599.07272 L 70.568143,599.07272 C 78.775881,599.07272 80.076591,598.95263 80.320844,598.17243 z M 45.771618,300.26457 L 45.771618,1.4564084 L 33.464629,1.4564084 L 21.157641,1.4564084 L 21.157641,300.26457 L 21.157641,599.07272 L 33.464629,599.07272 L 45.771618,599.07272 L 45.771618,300.26457 z M 707.79688,300.26457 C 707.79688,136.38964 707.74387,69.349891 707.67901,151.28736 C 707.61419,233.22482 707.61419,367.30431 707.67901,449.24178 C 707.74387,531.17925 707.79688,464.1395 707.79688,300.26457 z M 113.34576,300.26457 C 113.34576,136.38964 113.29275,69.349891 113.22788,151.28736 C 113.16306,233.22482 113.16306,367.30431 113.22788,449.24178 C 113.29275,531.17925 113.34576,464.1395 113.34576,300.26457 z "
       id="path2450" />
    <path
       style="fill:#879eb7"
       d="M 781.35969,300.26457 L 781.35969,1.4564084 L 757.77561,1.4564084 C 739.34389,1.4564084 734.14029,1.6118398 733.95676,2.1678564 C 733.76896,2.7370148 733.71469,2.7370148 733.68527,2.1678564 C 733.65653,1.6116634 729.69787,1.4564084 715.54478,1.4564084 C 699.46597,1.4564084 697.40946,1.5571039 697.15854,2.3566974 C 696.78905,3.5338821 696.78905,596.99524 697.15854,598.17243 C 697.40946,598.97198 699.46256,599.07272 715.50603,599.07272 C 729.52241,599.07272 733.62356,598.9133 733.80573,598.36127 C 733.99352,597.79212 734.04785,597.79212 734.07727,598.36127 C 734.10615,598.92047 739.16844,599.07272 757.73686,599.07272 L 781.35969,599.07272 L 781.35969,300.26457 z M 661.96539,300.26457 L 661.96539,1.4564084 L 652.70567,1.4564084 C 644.69142,1.4564084 643.40797,1.5775025 643.16346,2.3566974 C 642.79403,3.5338821 642.79403,596.99524 643.16346,598.17243 C 643.40797,598.95161 644.69142,599.07272 652.70567,599.07272 L 661.96539,599.07272 L 661.96539,300.26457 z M 627.23772,598.17243 C 627.60716,596.99524 627.60716,3.5338821 627.23772,2.3566974 C 626.98714,1.558265 625.01233,1.4564084 609.78242,1.4564084 L 592.60965,1.4564084 L 592.60965,300.26457 L 592.60965,599.07272 L 609.78242,599.07272 C 625.01233,599.07272 626.98714,598.97084 627.23772,598.17243 z M 554.67341,300.26457 L 554.67341,1.4564084 L 547.57493,1.4564084 L 540.47647,1.4564084 L 540.47647,300.26457 L 540.47647,599.07272 L 547.57493,599.07272 L 554.67341,599.07272 L 554.67341,300.26457 z M 507.19496,300.26457 L 507.19496,1.4564084 L 477.57072,1.4564084 C 450.98675,1.4564084 447.91751,1.5487998 447.664,2.3566974 C 447.50859,2.8518539 447.38143,136.9104 447.38143,300.26457 C 447.38143,463.61874 447.50859,597.67726 447.664,598.17243 C 447.91751,598.98035 450.98675,599.07272 477.57072,599.07272 L 507.19496,599.07272 L 507.19496,300.26457 z M 434.99658,598.17243 C 435.15195,597.67726 435.27911,463.61874 435.27911,300.26457 C 435.27911,136.9104 435.15195,2.8518539 434.99658,2.3566974 C 434.74419,1.5524368 432.24231,1.4564084 411.53986,1.4564084 C 390.83748,1.4564084 388.33559,1.5524368 388.0832,2.3566974 C 387.92783,2.8518539 387.80067,136.9104 387.80067,300.26457 C 387.80067,463.61874 387.92783,597.67726 388.0832,598.17243 C 388.33559,598.97671 390.83748,599.07272 411.53986,599.07272 C 432.24231,599.07272 434.74419,598.97671 434.99658,598.17243 z M 375.41577,598.17243 C 375.57119,597.67726 375.69836,463.61874 375.69836,300.26457 C 375.69836,136.9104 375.57119,2.8518539 375.41577,2.3566974 C 375.16821,1.5678268 373.64166,1.4564084 363.08068,1.4564084 L 351.02817,1.4564084 L 351.02817,300.26457 L 351.02817,599.07272 L 363.08068,599.07272 C 373.64166,599.07272 375.16821,598.96128 375.41577,598.17243 z M 306.5753,300.26457 L 306.5753,1.4564084 L 287.64601,1.4564084 C 272.93807,1.4564084 268.6643,1.615067 268.4819,2.1678564 C 268.29409,2.7370148 268.23972,2.7370148 268.21035,2.1678564 C 268.15832,1.1601102 259.50494,1.1601102 259.17242,2.1678564 C 258.98457,2.7370148 258.93025,2.7370148 258.90088,2.1678564 C 258.87214,1.6118341 254.96001,1.4564084 240.99314,1.4564084 C 225.12653,1.4564084 223.09044,1.5573828 222.83962,2.3566974 C 222.6842,2.8518539 222.55709,136.9104 222.55709,300.26457 C 222.55709,463.61874 222.6842,597.67726 222.83962,598.17243 C 223.09044,598.9717 225.12307,599.07272 240.95438,599.07272 C 254.78456,599.07272 258.83922,598.91307 259.02128,598.36127 C 259.20914,597.79212 259.2634,597.79212 259.29287,598.36127 C 259.31948,598.87688 260.53617,599.07272 263.71283,599.07272 C 266.78383,599.07272 268.16629,598.85974 268.33081,598.36127 C 268.51861,597.79212 268.57297,597.79212 268.60235,598.36127 C 268.63109,598.91808 272.76262,599.07272 287.60721,599.07272 L 306.5753,599.07272 L 306.5753,300.26457 z M 185.55185,300.26457 L 185.55185,1.4564084 L 161.96772,1.4564084 C 143.53605,1.4564084 138.33245,1.6118398 138.14892,2.1678564 C 137.96112,2.7370148 137.9068,2.7370148 137.87737,2.1678564 C 137.84864,1.6116634 133.88997,1.4564084 119.73694,1.4564084 C 103.65807,1.4564084 101.60161,1.5571039 101.35064,2.3566974 C 101.19527,2.8518539 101.06816,136.9104 101.06816,300.26457 C 101.06816,463.61874 101.19527,597.67726 101.35064,598.17243 C 101.60161,598.97198 103.65472,599.07272 119.69814,599.07272 C 133.71452,599.07272 137.81572,598.9133 137.99788,598.36127 C 138.18569,597.79212 138.24,597.79212 138.26942,598.36127 C 138.29821,598.92047 143.3606,599.07272 161.92902,599.07272 L 185.55185,599.07272 L 185.55185,300.26457 z M 66.1575,300.26457 L 66.1575,1.4564084 L 56.897825,1.4564084 C 48.883579,1.4564084 47.600074,1.5775025 47.355569,2.3566974 C 47.2002,2.8518539 47.073037,136.9104 47.073037,300.26457 C 47.073037,463.61874 47.2002,597.67726 47.355569,598.17243 C 47.600074,598.95161 48.883579,599.07272 56.897825,599.07272 L 66.1575,599.07272 L 66.1575,300.26457 z M 31.42983,598.17243 C 31.585247,597.67726 31.712362,463.61874 31.712362,300.26457 C 31.712362,136.9104 31.585247,2.8518539 31.42983,2.3566974 C 31.182261,1.5678268 29.655711,1.4564084 19.094743,1.4564084 L 7.042203,1.4564084 L 7.042203,300.26457 L 7.042203,599.07272 L 19.094743,599.07272 C 29.655711,599.07272 31.182261,598.96128 31.42983,598.17243 z "
       id="path2448" />
    <path
       style="fill:#778eaa"
       d="M 786.49544,300.26457 C 786.49544,135.92008 786.42511,1.7125296 786.33914,2.0255668 C 786.13563,2.76685 784.85449,2.76685 784.85449,2.0255668 C 784.85449,1.1157329 748.89799,1.256833 748.59519,2.1678564 C 748.40598,2.7370148 748.35127,2.7370148 748.32168,2.1678564 C 748.29494,1.6547259 747.10848,1.4564084 744.06505,1.4564084 L 739.84545,1.4564084 L 739.84545,300.26457 L 739.84545,599.07272 L 744.02601,599.07272 C 746.93175,599.07272 748.27863,598.85576 748.44296,598.36127 C 748.63217,597.79212 748.68688,597.79212 748.71646,598.36127 C 748.76398,599.27341 784.85449,599.41547 784.85449,598.50356 C 784.85449,598.19053 785.15337,597.93441 785.51867,597.93441 C 785.88401,597.93441 786.25323,598.19053 786.33914,598.50356 C 786.42511,598.8166 786.49544,464.60906 786.49544,300.26457 z M 739.09203,598.17243 C 739.46413,596.99524 739.46413,3.5338821 739.09203,2.3566974 C 738.83928,1.5571039 736.76794,1.4564084 720.57266,1.4564084 L 702.33798,1.4564084 L 702.33798,300.26457 L 702.33798,599.07272 L 720.57266,599.07272 C 736.76794,599.07272 738.83928,598.97204 739.09203,598.17243 z M 666.23694,300.26457 L 666.23694,1.4564084 L 657.09447,1.4564084 L 647.952,1.4564084 L 647.952,300.26457 L 647.952,599.07272 L 657.09447,599.07272 L 666.23694,599.07272 L 666.23694,300.26457 z M 631.54254,300.26457 L 631.54254,1.4564084 L 614.47987,1.4564084 C 599.35345,1.4564084 597.38491,1.5585723 597.13261,2.3566974 C 596.97607,2.8518539 596.84803,136.9104 596.84803,300.26457 C 596.84803,463.61874 596.97607,597.67726 597.13261,598.17243 C 597.38491,598.97056 599.35345,599.07272 614.47987,599.07272 L 631.54254,599.07272 L 631.54254,300.26457 z M 501.55546,598.18 C 502.02279,597.56866 502.14156,537.19186 502.14156,300.24794 C 502.14156,36.859825 502.06157,2.9855378 501.43825,2.2288417 C 500.89289,1.566734 500.72666,1.5439165 500.69795,2.1272014 C 500.66974,2.7009643 500.60494,2.7106058 500.42449,2.1678564 C 500.11738,1.243896 498.87067,1.243896 498.82262,2.1678564 C 498.79298,2.7370148 498.73832,2.7370148 498.54911,2.1678564 C 498.23015,1.2082553 494.18408,1.2082553 494.13417,2.1678564 C 494.10454,2.7370148 494.04983,2.7370148 493.86067,2.1678564 C 493.537,1.1941231 486.66969,1.1669515 486.66969,2.1393984 C 486.66969,2.6706167 486.54465,2.6706167 486.10705,2.1393984 C 485.68992,1.6330011 481.09641,1.4564084 468.34115,1.4564084 C 453.08646,1.4564084 451.10563,1.5583845 450.85328,2.3566974 C 450.48117,3.5338821 450.48117,596.99524 450.85328,598.17243 C 451.10563,598.97073 453.08646,599.07272 468.34115,599.07272 C 481.09641,599.07272 485.68992,598.89611 486.10705,598.38973 C 486.54465,597.85854 486.66969,597.85854 486.66969,598.38973 C 486.66969,598.8845 488.28458,599.07272 492.53025,599.07272 C 496.90228,599.07272 498.39262,598.89201 498.39796,598.36127 C 498.40275,597.88699 498.55665,597.93441 498.85965,598.50356 C 499.2636,599.26242 499.31567,599.26242 499.3285,598.50356 C 499.34123,597.74471 499.3933,597.74471 499.79734,598.50356 C 500.20129,599.26242 500.2534,599.26242 500.26613,598.50356 C 500.27583,597.92894 500.39314,597.86184 500.62496,598.29827 C 500.87565,598.77027 501.12893,598.73806 501.55546,598.18 z M 438.09416,598.17243 C 438.25066,597.67726 438.37874,463.61874 438.37874,300.26457 C 438.37874,136.9104 438.25066,2.8518539 438.09416,2.3566974 C 437.83991,1.5523969 435.31553,1.4564084 414.41756,1.4564084 L 391.02549,1.4564084 L 391.02549,300.26457 L 391.02549,599.07272 L 414.41756,599.07272 C 435.31553,599.07272 437.83991,598.97671 438.09416,598.17243 z M 378.0821,598.17243 C 378.23864,597.67726 378.36673,463.61874 378.36673,300.26457 C 378.36673,136.9104 378.23864,2.8518539 378.0821,2.3566974 C 377.83298,1.5685952 376.32026,1.4564084 365.94234,1.4564084 C 355.56443,1.4564084 354.05165,1.5685952 353.80254,2.3566974 C 353.64605,2.8518539 353.51797,136.9104 353.51797,300.26457 C 353.51797,463.61874 353.64605,597.67726 353.80254,598.17243 C 354.05165,598.96054 355.56443,599.07272 365.94234,599.07272 C 376.32026,599.07272 377.83298,598.96054 378.0821,598.17243 z M 287.29375,598.22138 C 287.76103,597.57709 287.87981,537.16982 287.87981,300.24794 C 287.87981,43.463503 287.7888,2.9720886 287.21,2.269491 C 286.68345,1.6302407 284.87919,1.4564084 278.77079,1.4564084 L 271.00141,1.4564084 L 271.00141,300.26457 L 271.00141,599.07272 L 278.85456,599.05109 C 285.03309,599.03402 286.83265,598.85713 287.29375,598.22138 z M 260.68682,300.26457 L 260.68682,1.4564084 L 242.63635,1.4564084 L 224.58584,1.4564084 L 224.58584,300.26457 L 224.58584,599.07272 L 242.63635,599.07272 L 260.68682,599.07272 L 260.68682,300.26457 z M 186.37504,300.26457 C 186.37504,135.92008 186.30471,1.7125296 186.21874,2.0255668 C 186.01518,2.76685 184.73409,2.76685 184.73409,2.0255668 C 184.73409,1.1157329 148.7776,1.256833 148.4748,2.1678564 C 148.28563,2.7370148 148.23092,2.7370148 148.20124,2.1678564 C 148.17459,1.6547259 146.98803,1.4564084 143.9447,1.4564084 L 139.72505,1.4564084 L 139.72505,300.26457 L 139.72505,599.07272 L 143.90561,599.07272 C 146.81131,599.07272 148.15823,598.85576 148.32261,598.36127 C 148.51178,597.79212 148.56648,597.79212 148.59612,598.36127 C 148.64359,599.27341 184.73409,599.41547 184.73409,598.50356 C 184.73409,598.19053 185.03302,597.93441 185.39827,597.93441 C 185.76357,597.93441 186.13284,598.19053 186.21874,598.50356 C 186.30471,598.8166 186.37504,464.60906 186.37504,300.26457 z M 138.97168,598.17243 C 139.12817,597.67726 139.25621,463.61874 139.25621,300.26457 C 139.25621,136.9104 139.12817,2.8518539 138.97168,2.3566974 C 138.71888,1.5571039 136.64754,1.4564084 120.45227,1.4564084 L 102.21753,1.4564084 L 102.21753,300.26457 L 102.21753,599.07272 L 120.45227,599.07272 C 136.64754,599.07272 138.71888,598.97204 138.97168,598.17243 z M 66.116543,300.26457 L 66.116543,1.4564084 L 56.974074,1.4564084 L 47.831652,1.4564084 L 47.831652,300.26457 L 47.831652,599.07272 L 56.974074,599.07272 L 66.116543,599.07272 L 66.116543,300.26457 z M 31.42209,300.26457 L 31.42209,1.4564084 L 19.232144,1.4564084 L 7.042203,1.4564084 L 7.042203,300.26457 L 7.042203,599.07272 L 19.232144,599.07272 L 31.42209,599.07272 L 31.42209,300.26457 z "
       id="path2446" />
    <path
       style="fill:#394861"
       d="M 600.74956,300.26457 L 600.74956,1.4564084 L 587.8347,1.4564084 L 574.91988,1.4564084 L 574.91988,300.26457 L 574.91988,599.07272 L 587.8347,599.07272 L 600.74956,599.07272 L 600.74956,300.26457 z M 523.26056,300.26457 L 523.26056,1.4564084 L 511.3653,1.4564084 C 502.08998,1.4564084 499.46414,1.6131091 499.44325,2.1678564 C 499.42178,2.7370148 499.38211,2.7370148 499.24499,2.1678564 C 499.15073,1.77656 498.9716,1.4564084 498.84699,1.4564084 C 498.72236,1.4564084 498.62041,135.92008 498.62041,300.26457 C 498.62041,464.60906 498.72236,599.07272 498.84699,599.07272 C 498.9716,599.07272 499.15073,598.75257 499.24499,598.36127 C 499.38211,597.79212 499.42178,597.79212 499.44325,598.36127 C 499.46414,598.91603 502.08998,599.07272 511.3653,599.07272 L 523.26056,599.07272 L 523.26056,300.26457 z M 411.78515,300.26457 L 411.78515,1.4564084 L 402.09905,1.4564084 L 392.4129,1.4564084 L 392.4129,300.26457 L 392.4129,599.07272 L 402.09905,599.07272 L 411.78515,599.07272 L 411.78515,300.26457 z M 382.8967,300.26457 L 382.8967,1.4564084 L 366.07343,1.4564084 L 349.2502,1.4564084 L 349.2502,300.26457 L 349.2502,599.07272 L 366.07343,599.07272 L 382.8967,599.07272 L 382.8967,300.26457 z M 339.3941,300.26457 L 339.3941,1.4564084 L 330.72759,1.4564084 L 322.06107,1.4564084 L 322.06107,300.26457 L 322.06107,599.07272 L 330.72759,599.07272 L 339.3941,599.07272 L 339.3941,300.26457 z M 248.99029,300.26457 L 248.99029,1.4564084 L 239.66692,1.4564084 L 230.34354,1.4564084 L 230.10038,2.7370148 C 229.78209,4.4130667 229.78157,596.11936 230.09988,597.79212 L 230.34354,599.07272 L 239.66692,599.07272 L 248.99029,599.07272 L 248.99029,300.26457 z M 229.95787,598.50356 C 229.95787,598.19053 229.80495,597.93441 229.61803,597.93441 C 229.43108,597.93441 229.27816,598.19053 229.27816,598.50356 C 229.27816,598.8166 229.43108,599.07272 229.61803,599.07272 C 229.80495,599.07272 229.95787,598.8166 229.95787,598.50356 z M 228.93833,598.50356 C 228.93833,598.19053 228.78535,597.93441 228.59843,597.93441 C 228.41149,597.93441 228.25856,598.19053 228.25856,598.50356 C 228.25856,598.8166 228.41149,599.07272 228.59843,599.07272 C 228.78535,599.07272 228.93833,598.8166 228.93833,598.50356 z M 165.72361,300.26457 L 165.72361,1.4564084 L 152.80872,1.4564084 L 139.89395,1.4564084 L 139.89395,300.26457 L 139.89395,599.07272 L 152.80872,599.07272 L 165.72361,599.07272 L 165.72361,300.26457 z M 88.234619,300.26457 L 88.234619,1.4564084 L 79.398145,1.4564084 L 70.561671,1.4564084 L 70.561671,300.26457 L 70.561671,599.07272 L 79.398145,599.07272 L 88.234619,599.07272 L 88.234619,300.26457 z M 229.95787,2.0255668 C 229.95787,1.7125296 229.80495,1.4564084 229.61803,1.4564084 C 229.43108,1.4564084 229.27816,1.7125296 229.27816,2.0255668 C 229.27816,2.3386039 229.43108,2.5947252 229.61803,2.5947252 C 229.80495,2.5947252 229.95787,2.3386039 229.95787,2.0255668 z M 228.93833,2.0255668 C 228.93833,1.7125296 228.78535,1.4564084 228.59843,1.4564084 C 228.41149,1.4564084 228.25856,1.7125296 228.25856,2.0255668 C 228.25856,2.3386039 228.41149,2.5947252 228.59843,2.5947252 C 228.78535,2.5947252 228.93833,2.3386039 228.93833,2.0255668 z "
       id="path2442" />
    <path
       id="path6861"
       d="M 788.18898,300.26457 L 788.18898,1.4564084 L 769.25923,1.4564084 L 750.32954,1.4564084 L 750.32954,300.26457 L 750.32954,599.07272 L 769.25923,599.07272 L 788.18898,599.07272 L 788.18898,300.26457 z M 674.61079,300.26457 L 674.61079,1.4564084 L 657.17547,1.4564084 C 643.58033,1.4564084 639.73155,1.6131091 639.70096,2.1678564 C 639.66949,2.7370148 639.61136,2.7370148 639.41033,2.1678564 C 639.27221,1.77656 639.00962,1.4564084 638.827,1.4564084 C 638.64432,1.4564084 638.49489,135.92008 638.49489,300.26457 C 638.49489,464.60906 638.64432,599.07272 638.827,599.07272 C 639.00962,599.07272 639.27221,598.75257 639.41033,598.36127 C 639.61136,597.79212 639.66949,597.79212 639.70096,598.36127 C 639.73155,598.91603 643.58033,599.07272 657.17547,599.07272 L 674.61079,599.07272 L 674.61079,300.26457 z M 511.21755,300.26457 L 511.21755,1.4564084 L 497.02031,1.4564084 L 482.82297,1.4564084 L 482.82297,300.26457 L 482.82297,599.07272 L 497.02031,599.07272 L 511.21755,599.07272 L 511.21755,300.26457 z M 468.87479,300.26457 L 468.87479,1.4564084 L 444.21635,1.4564084 L 419.55798,1.4564084 L 419.55798,300.26457 L 419.55798,599.07272 L 444.21635,599.07272 L 468.87479,599.07272 L 468.87479,300.26457 z M 405.11156,300.26457 L 405.11156,1.4564084 L 392.40877,1.4564084 L 379.70595,1.4564084 L 379.70595,300.26457 L 379.70595,599.07272 L 392.40877,599.07272 L 405.11156,599.07272 L 405.11156,300.26457 z M 272.60372,300.26457 L 272.60372,1.4564084 L 258.93814,1.4564084 L 245.27251,1.4564084 L 244.91612,2.7370148 C 244.44961,4.4130667 244.44884,596.11936 244.91541,597.79212 L 245.27251,599.07272 L 258.93814,599.07272 L 272.60372,599.07272 L 272.60372,300.26457 z M 244.70723,598.50356 C 244.70723,598.19053 244.48311,597.93441 244.20913,597.93441 C 243.93512,597.93441 243.71098,598.19053 243.71098,598.50356 C 243.71098,598.8166 243.93512,599.07272 244.20913,599.07272 C 244.48311,599.07272 244.70723,598.8166 244.70723,598.50356 z M 243.21288,598.50356 C 243.21288,598.19053 242.98864,597.93441 242.71469,597.93441 C 242.44068,597.93441 242.21652,598.19053 242.21652,598.50356 C 242.21652,598.8166 242.44068,599.07272 242.71469,599.07272 C 242.98864,599.07272 243.21288,598.8166 243.21288,598.50356 z M 150.55696,300.26457 L 150.55696,1.4564084 L 131.62717,1.4564084 L 112.69758,1.4564084 L 112.69758,300.26457 L 112.69758,599.07272 L 131.62717,599.07272 L 150.55696,599.07272 L 150.55696,300.26457 z M 36.978768,300.26457 L 36.978768,1.4564084 L 24.026841,1.4564084 L 11.074914,1.4564084 L 11.074914,300.26457 L 11.074914,599.07272 L 24.026841,599.07272 L 36.978768,599.07272 L 36.978768,300.26457 z M 244.70723,2.0255668 C 244.70723,1.7125296 244.48311,1.4564084 244.20913,1.4564084 C 243.93512,1.4564084 243.71098,1.7125296 243.71098,2.0255668 C 243.71098,2.3386039 243.93512,2.5947252 244.20913,2.5947252 C 244.48311,2.5947252 244.70723,2.3386039 244.70723,2.0255668 z M 243.21288,2.0255668 C 243.21288,1.7125296 242.98864,1.4564084 242.71469,1.4564084 C 242.44068,1.4564084 242.21652,1.7125296 242.21652,2.0255668 C 242.21652,2.3386039 242.44068,2.5947252 242.71469,2.5947252 C 242.98864,2.5947252 243.21288,2.3386039 243.21288,2.0255668 z "
       style="fill:#394861" />
  </g>
  <rect
     y="0.070889197"
     x="0.062499836"
     height="599.86639"
     width="799.87402"
     id="rect3440"
     style="opacity:1;fill:url(#linearGradient7899);fill-opacity:1;fill-rule:evenodd;stroke:#000000;stroke-width:0.02646151;stroke-miterlimit:4;stroke-dasharray:none;stroke-dashoffset:0;stroke-opacity:1" />
  <rect
     style="opacity:1;fill:url(#linearGradient8462);fill-opacity:1;fill-rule:evenodd;stroke:#000000;stroke-width:0.02646151;stroke-miterlimit:4;stroke-dasharray:none;stroke-dashoffset:0;stroke-opacity:1"
     id="rect8460"
     width="799.87402"
     height="599.86639"
     x="0.062499836"
     y="-599.93726"
     transform="scale(1,-1)" />
</svg>
