<?xml version="1.0" encoding="UTF-8" standalone="no"?>
<!-- Created with Inkscape (http://www.inkscape.org/) -->

<svg
   xmlns:dc="http://purl.org/dc/elements/1.1/"
   xmlns:cc="http://creativecommons.org/ns#"
   xmlns:rdf="http://www.w3.org/1999/02/22-rdf-syntax-ns#"
   xmlns:svg="http://www.w3.org/2000/svg"
   xmlns="http://www.w3.org/2000/svg"
   xmlns:xlink="http://www.w3.org/1999/xlink"
   xmlns:sodipodi="http://sodipodi.sourceforge.net/DTD/sodipodi-0.dtd"
   xmlns:inkscape="http://www.inkscape.org/namespaces/inkscape"
   version="1.0"
   width="128"
   height="48"
   id="svg1936"
   inkscape:version="0.48.2 r9819"
   sodipodi:docname="card.svg">
  <metadata
     id="metadata21">
    <rdf:RDF>
      <cc:Work
         rdf:about="">
        <dc:format>image/svg+xml</dc:format>
        <dc:type
           rdf:resource="http://purl.org/dc/dcmitype/StillImage" />
        <dc:title />
      </cc:Work>
    </rdf:RDF>
  </metadata>
  <sodipodi:namedview
     pagecolor="#ffffff"
     bordercolor="#666666"
     borderopacity="1"
     objecttolerance="10"
     gridtolerance="10"
     guidetolerance="10"
     inkscape:pageopacity="0"
     inkscape:pageshadow="2"
     inkscape:window-width="1440"
     inkscape:window-height="844"
     id="namedview19"
     showgrid="true"
     inkscape:zoom="5.6568542"
     inkscape:cx="99.082568"
     inkscape:cy="15.108781"
     inkscape:window-x="0"
     inkscape:window-y="-3"
     inkscape:window-maximized="1"
     inkscape:current-layer="g3986"
     showguides="true"
     inkscape:guide-bbox="true"
     borderlayer="true">
    <inkscape:grid
       type="xygrid"
       id="grid3871"
       empspacing="5"
       visible="true"
       enabled="true"
       snapvisiblegridlinesonly="true" />
    <sodipodi:guide
       orientation="1,0"
       position="18,18"
       id="guide3012" />
  </sodipodi:namedview>
  <defs
     id="defs1938">
    <linearGradient
       inkscape:collect="always"
       id="linearGradient4505">
      <stop
         style="stop-color:#2b2b2b;stop-opacity:0.502"
         offset="0"
         id="stop4507" />
      <stop
         style="stop-color:#2b2b2b;stop-opacity:1"
         offset="1"
         id="stop4509" />
    </linearGradient>
    <linearGradient
       inkscape:collect="always"
       xlink:href="#linearGradient4505"
       id="linearGradient4511"
       x1="173"
       y1="-18.000006"
       x2="153"
       y2="-18.000006"
       gradientUnits="userSpaceOnUse"
       spreadMethod="reflect"
       gradientTransform="matrix(0.60427691,0,0,0.75000002,-168.40659,827.2075)" />
    <linearGradient
       inkscape:collect="always"
       xlink:href="#linearGradient4505"
       id="linearGradient4521"
       gradientUnits="userSpaceOnUse"
       gradientTransform="matrix(0.60427691,0,0,0.75000002,-172.15659,829.4575)"
       spreadMethod="reflect"
       x1="173"
       y1="-18.000006"
       x2="153"
       y2="-18.000006" />
    <linearGradient
       inkscape:collect="always"
       xlink:href="#linearGradient4505"
       id="linearGradient4525"
       gradientUnits="userSpaceOnUse"
       gradientTransform="matrix(0.60427691,0,0,0.75000002,-55.156588,881.9575)"
       spreadMethod="pad"
       x1="158.1073"
       y1="-10.000005"
       x2="160.58961"
       y2="-11.000005" />
    <linearGradient
       inkscape:collect="always"
       xlink:href="#linearGradient4505"
       id="linearGradient4010"
       gradientUnits="userSpaceOnUse"
       gradientTransform="matrix(0.40285128,0,0,0.50000003,-169.55973,831.2075)"
       spreadMethod="reflect"
       x1="173"
       y1="-18.000006"
       x2="153"
       y2="-18.000006" />
    <linearGradient
       inkscape:collect="always"
       xlink:href="#linearGradient4505"
       id="linearGradient4012"
       gradientUnits="userSpaceOnUse"
       gradientTransform="matrix(0.40285128,0,0,0.50000003,-172.05973,832.7075)"
       spreadMethod="reflect"
       x1="173"
       y1="-18.000006"
       x2="153"
       y2="-18.000006" />
    <linearGradient
       inkscape:collect="always"
       xlink:href="#linearGradient4505"
       id="linearGradient4040"
       gradientUnits="userSpaceOnUse"
       gradientTransform="matrix(0.60427691,0,0,0.75000002,-168.40659,827.2075)"
       spreadMethod="reflect"
       x1="173"
       y1="-18.000006"
       x2="153"
       y2="-18.000006" />
    <linearGradient
       inkscape:collect="always"
       xlink:href="#linearGradient4505"
       id="linearGradient4042"
       gradientUnits="userSpaceOnUse"
       gradientTransform="matrix(0.60427691,0,0,0.75000002,-172.15659,829.4575)"
       spreadMethod="reflect"
       x1="173"
       y1="-18.000006"
       x2="153"
       y2="-18.000006" />
  </defs>
  <g
     transform="translate(151.616,-2895.1819)"
     id="layer1">
    <text
       xml:space="preserve"
       style="font-size:40px;font-style:normal;font-variant:normal;font-weight:normal;font-stretch:normal;line-height:125%;letter-spacing:0px;word-spacing:0px;fill:#000000;fill-opacity:1;stroke:none;font-family:Catull;-inkscape-font-specification:Catull"
       x="-144.616"
       y="3001.1819"
       id="text3940"
       sodipodi:linespacing="125%"><tspan
         sodipodi:role="line"
         id="tspan3942"
         x="-144.616"
         y="3001.1819"
         style="font-style:normal;font-variant:normal;font-weight:normal;font-stretch:normal;font-family:OfficinaSansBold;-inkscape-font-specification:OfficinaSansBold" /></text>
    <g
       inkscape:export-filename="/home/fabi/48.png"
       transform="matrix(1.3333333,0,0,1.3333333,50.538662,1825.2386)"
       inkscape:export-ydpi="90"
       inkscape:export-xdpi="90"
       id="g3838">
      <g
         id="g4016"
         transform="translate(-9.7500008,-1.4582313e-5)">
        <rect
           y="802.45752"
           x="-81.865997"
           height="36"
           width="36"
           id="rect4014"
           style="fill:#fcff00;fill-opacity:0;stroke:none" />
        <path
           sodipodi:nodetypes="ccccccccccccccccccccccccccccccccccc"
           inkscape:connector-curvature="0"
           id="rect4490"
           d="m -77.365999,813.7075 0,0.75 24.75,0 0,-0.75 z m 1.5,2.25 0,0.75 22.5,0 0,-0.75 z m 0.75,2.25 0,0.75 21,0 0,-0.75 z m 1.5,2.25 0,0.75 18.75,0 0,-0.75 z m 1.5,2.25 0,0.75 16.5,0 0,-0.75 z m 1.5,2.25 0,0.75 14.25,0 0,-0.75 z m 0.75,2.25 0,0.75 12.75,0 0,-0.75 z"
           style="fill:url(#linearGradient4040);fill-opacity:1;stroke:none" />
        <path
           sodipodi:nodetypes="ssssszzzzz"
           inkscape:connector-curvature="0"
           id="path4471"
           d="m -67.615998,830.9575 c -1.24266,0 -2.25,1.00736 -2.25,2.25 0,1.24265 1.00734,2.25 2.25,2.25 1.242645,0 2.25,-1.00735 2.25,-2.25 0,-1.24264 -1.007355,-2.25 -2.25,-2.25 z m 0,1.125 c 0.62109,0 1.125,0.49218 1.125,1.125 0,0.63282 -0.515625,1.125 -1.125,1.125 -0.609375,0 -1.113285,-0.52329 -1.125,-1.125 -0.0117,-0.60171 0.50391,-1.125 1.125,-1.125 z"
           style="fill:#1f1c1b;fill-opacity:1;stroke:none" />
        <path
           style="fill:#1f1c1b;fill-opacity:1;stroke:none"
           d="m -57.865998,830.9575 c -1.24266,0 -2.25,1.00736 -2.25,2.25 0,1.24265 1.00734,2.25 2.25,2.25 1.242645,0 2.25,-1.00735 2.25,-2.25 0,-1.24264 -1.007355,-2.25 -2.25,-2.25 z m 0,1.125 c 0.62109,0 1.125,0.49218 1.125,1.125 0,0.63282 -0.515625,1.125 -1.125,1.125 -0.609375,0 -1.113285,-0.52329 -1.125,-1.125 -0.0117,-0.60171 0.50391,-1.125 1.125,-1.125 z"
           id="path4473"
           inkscape:connector-curvature="0"
           sodipodi:nodetypes="ssssszzzzz" />
        <path
           style="fill:#1f1c1b;fill-opacity:1;stroke:none"
           d="m -72.115998,833.9575 c -1.24266,0 -2.25,1.00736 -2.25,2.25 0,1.24265 1.00734,2.25 2.25,2.25 1.242645,0 2.25,-1.00735 2.25,-2.25 0,-1.24264 -1.007355,-2.25 -2.25,-2.25 z m 0,1.125 c 0.62109,0 1.125,0.49218 1.125,1.125 0,0.63282 -0.515625,1.125 -1.125,1.125 -0.609375,0 -1.113285,-0.52329 -1.125,-1.125 -0.0117,-0.60171 0.50391,-1.125 1.125,-1.125 z"
           id="path4426"
           inkscape:connector-curvature="0"
           sodipodi:nodetypes="ssssszzzzz" />
        <path
           sodipodi:nodetypes="ssssszzzzz"
           inkscape:connector-curvature="0"
           id="path4458"
           d="m -62.365998,833.9575 c -1.24266,0 -2.25,1.00736 -2.25,2.25 0,1.24265 1.00734,2.25 2.25,2.25 1.242645,0 2.25,-1.00735 2.25,-2.25 0,-1.24264 -1.007355,-2.25 -2.25,-2.25 z m 0,1.125 c 0.62109,0 1.125,0.49218 1.125,1.125 0,0.63282 -0.515625,1.125 -1.125,1.125 -0.609375,0 -1.113285,-0.52329 -1.125,-1.125 -0.0117,-0.60171 0.50391,-1.125 1.125,-1.125 z"
           style="fill:#1f1c1b;fill-opacity:1;stroke:none" />
        <path
           sodipodi:nodetypes="cccccccccccccc"
           inkscape:connector-curvature="0"
           id="path4460"
           d="m -76.615998,813.7075 -1.5,0 c 0,0 7.602195,13.773 8.25,15 0.518009,0.75303 0.75,1.5 1.5,1.5 l 10.5,0 c 0.75,0 1.10985,-0.45805 1.5,-1.5 l 4.5,-15 5.25,0 0,-1.5 -5.25,0 c -0.47025,10e-6 -1.151971,0.3464 -1.5,1.5 -1.72377,5.70353 -2.792566,9.25839 -4.5,15 l -10.5,0 z"
           style="fill:#2b2b2b;fill-opacity:1;stroke:none" />
        <path
           sodipodi:nodetypes="cccccccc"
           inkscape:connector-curvature="0"
           id="rect4466"
           d="m -68.365998,828.7075 10.5,0 1.5,0 c -0.205195,0.44317 -0.361517,1.03653 -0.85366,1.32598 l -3.86601,2.29143 -0.53033,-1.36741 -10.5,0 z"
           style="fill:#000000;fill-opacity:1;stroke:none" />
        <path
           inkscape:connector-curvature="0"
           id="path4477"
           d="m -45.865998,812.9575 c 0,0.41421 -0.33579,0.75 -0.75,0.75 -0.41421,0 -0.75,-0.33579 -0.75,-0.75 0,-0.41422 0.33579,-0.75 0.75,-0.75 0.41421,0 0.75,0.33578 0.75,0.75 z"
           style="fill:#000000;fill-opacity:1;stroke:none" />
        <path
           inkscape:connector-curvature="0"
           id="path4523"
           d="m -77.365998,813.7075 c -0.06314,0 -0.111855,0.0193 -0.164062,0.0469 -0.03341,0.0176 -0.06727,0.0438 -0.09375,0.0703 l -3.492188,2.13281 0,0.75 3.84375,-2.27344 c 0.158063,-0.0441 0.28125,-0.17944 0.28125,-0.35156 0,-0.20711 -0.167895,-0.375 -0.375,-0.375 z m 1.5,2.25 c -0.05809,0 -0.114982,-1.4e-4 -0.164062,0.0234 l -3.585938,2.22656 0,0.75 3.867188,-2.27344 c 0.14628,-0.0511 0.257812,-0.18783 0.257812,-0.35156 0,-0.20711 -0.167895,-0.375 -0.375,-0.375 z m 1.125,2.25 c -0.07451,0 -0.129135,0.0329 -0.1875,0.0703 l -0.02344,-0.0234 -3.164063,2.20312 0,0.75 3.5625,-2.32031 c 0.103875,-0.0667 0.1875,-0.17209 0.1875,-0.30469 0,-0.20711 -0.167895,-0.375 -0.375,-0.375 z m 1.125,2.25 c -0.103552,0 -0.189952,0.0493 -0.257812,0.11719 l -3.492188,2.13281 0,0.75 3.914063,-2.29687 c 0.119032,-0.0629 0.210937,-0.18416 0.210937,-0.32813 0,-0.20711 -0.167895,-0.375 -0.375,-0.375 z m 1.5,2.25 c -0.08082,0 -0.149707,0.0268 -0.210937,0.0703 l 0,-0.0234 -3.539063,2.20312 0,0.75 3.820313,-2.27344 c 0.169897,-0.0357 0.304687,-0.17104 0.304687,-0.35156 0,-0.20711 -0.167895,-0.375 -0.375,-0.375 z m 1.101563,2.25 c -0.05178,0 -0.09576,0.004 -0.140625,0.0234 l -3.960938,2.22656 0,0.75 4.265625,-2.29687 c 0.119033,-0.0629 0.210938,-0.18416 0.210938,-0.32813 0,-0.20711 -0.167895,-0.375 -0.375,-0.375 z m 1.148437,2.25 c -0.103552,0 -0.189952,0.0493 -0.257812,0.11719 l -3.492188,2.13281 0,0.75 3.914063,-2.29687 c 0.119032,-0.0629 0.210937,-0.18416 0.210937,-0.32813 0,-0.20711 -0.167895,-0.375 -0.375,-0.375 z"
           style="fill:#434343;fill-opacity:1;stroke:none" />
        <path
           style="fill:#252525;fill-opacity:1;stroke:none"
           d="m -56.365998,815.9575 0,0.75 3.928157,-2.30386 -0.385318,-0.62985 z m -0.75,2.25 0,0.75 3.890868,-2.29143 -0.298311,-0.67542 z m -0.75,2.25 0,0.75 3.824577,-2.26657 -0.240306,-0.692 z m -0.75,2.25 0,0.75 3.832863,-2.27486 -0.20716,-0.70857 z m -0.75,2.25 0,0.75 3.924014,-2.29144 -0.290025,-0.70856 z m -0.75,2.25 0,0.75 3.899154,-2.29143 -0.281738,-0.67542 z m -0.75,2.25 0,0.75 3.915727,-2.308 -0.306597,-0.67543 z"
           id="path5393"
           inkscape:connector-curvature="0"
           sodipodi:nodetypes="ccccccccccccccccccccccccccccccccccc" />
        <path
           sodipodi:nodetypes="ccccc"
           inkscape:connector-curvature="0"
           id="rect4479"
           d="m -50.912901,814.68123 3.834013,-2.30967 0.957921,1.14844 -3.892284,2.34991 z"
           style="fill:#000000;fill-opacity:1;stroke:none" />
        <path
           sodipodi:nodetypes="sssss"
           inkscape:connector-curvature="0"
           id="path4475"
           d="m -49.615998,815.2075 c 0,0.41421 -0.33579,0.75 -0.75,0.75 -0.41421,0 -0.75,-0.33579 -0.75,-0.75 0,-0.41422 0.33579,-0.75 0.75,-0.75 0.41421,0 0.75,0.33578 0.75,0.75 z"
           style="fill:#000000;fill-opacity:1;stroke:none" />
        <path
           transform="matrix(0.74595881,0,0,0.75000002,-267.48275,774.7075)"
           d="m 284.52209,64.5 c 0,0.276142 -0.22507,0.5 -0.50271,0.5 -0.27764,0 -0.50271,-0.223858 -0.50271,-0.5 0,-0.276142 0.22507,-0.5 0.50271,-0.5 0.27764,0 0.50271,0.223858 0.50271,0.5 z"
           sodipodi:ry="0.5"
           sodipodi:rx="0.50270873"
           sodipodi:cy="64.5"
           sodipodi:cx="284.01938"
           id="path5395"
           style="fill:#252525;fill-opacity:1;stroke:none"
           sodipodi:type="arc" />
        <path
           sodipodi:type="arc"
           style="fill:#252525;fill-opacity:1;stroke:none"
           id="path5397"
           sodipodi:cx="284.01938"
           sodipodi:cy="64.5"
           sodipodi:rx="0.50270873"
           sodipodi:ry="0.5"
           d="m 284.52209,64.5 c 0,0.276142 -0.22507,0.5 -0.50271,0.5 -0.27764,0 -0.50271,-0.223858 -0.50271,-0.5 0,-0.276142 0.22507,-0.5 0.50271,-0.5 0.27764,0 0.50271,0.223858 0.50271,0.5 z"
           transform="matrix(0.74595881,0,0,0.75000002,-266.73275,772.4575)" />
        <path
           transform="matrix(0.74595881,0,0,0.75000002,-265.98275,770.2075)"
           d="m 284.52209,64.5 c 0,0.276142 -0.22507,0.5 -0.50271,0.5 -0.27764,0 -0.50271,-0.223858 -0.50271,-0.5 0,-0.276142 0.22507,-0.5 0.50271,-0.5 0.27764,0 0.50271,0.223858 0.50271,0.5 z"
           sodipodi:ry="0.5"
           sodipodi:rx="0.50270873"
           sodipodi:cy="64.5"
           sodipodi:cx="284.01938"
           id="path5399"
           style="fill:#252525;fill-opacity:1;stroke:none"
           sodipodi:type="arc" />
        <path
           sodipodi:type="arc"
           style="fill:#252525;fill-opacity:1;stroke:none"
           id="path5401"
           sodipodi:cx="284.01938"
           sodipodi:cy="64.5"
           sodipodi:rx="0.50270873"
           sodipodi:ry="0.5"
           d="m 284.52209,64.5 c 0,0.276142 -0.22507,0.5 -0.50271,0.5 -0.27764,0 -0.50271,-0.223858 -0.50271,-0.5 0,-0.276142 0.22507,-0.5 0.50271,-0.5 0.27764,0 0.50271,0.223858 0.50271,0.5 z"
           transform="matrix(0.74595881,0,0,0.75000002,-265.23275,767.9575)" />
        <path
           sodipodi:type="arc"
           style="fill:#252525;fill-opacity:1;stroke:none"
           id="path5403"
           sodipodi:cx="284.01938"
           sodipodi:cy="64.5"
           sodipodi:rx="0.50270873"
           sodipodi:ry="0.5"
           d="m 284.52209,64.5 c 0,0.276142 -0.22507,0.5 -0.50271,0.5 -0.27764,0 -0.50271,-0.223858 -0.50271,-0.5 0,-0.276142 0.22507,-0.5 0.50271,-0.5 0.27764,0 0.50271,0.223858 0.50271,0.5 z"
           transform="matrix(0.74595881,0,0,0.75000002,-268.23275,776.9575)" />
        <path
           transform="matrix(0.74595881,0,0,0.75000002,-268.98275,779.2075)"
           d="m 284.52209,64.5 c 0,0.276142 -0.22507,0.5 -0.50271,0.5 -0.27764,0 -0.50271,-0.223858 -0.50271,-0.5 0,-0.276142 0.22507,-0.5 0.50271,-0.5 0.27764,0 0.50271,0.223858 0.50271,0.5 z"
           sodipodi:ry="0.5"
           sodipodi:rx="0.50270873"
           sodipodi:cy="64.5"
           sodipodi:cx="284.01938"
           id="path5405"
           style="fill:#252525;fill-opacity:1;stroke:none"
           sodipodi:type="arc" />
        <path
           transform="matrix(0.74595881,0,0,0.75000002,-264.48275,765.7075)"
           d="m 284.52209,64.5 c 0,0.276142 -0.22507,0.5 -0.50271,0.5 -0.27764,0 -0.50271,-0.223858 -0.50271,-0.5 0,-0.276142 0.22507,-0.5 0.50271,-0.5 0.27764,0 0.50271,0.223858 0.50271,0.5 z"
           sodipodi:ry="0.5"
           sodipodi:rx="0.50270873"
           sodipodi:cy="64.5"
           sodipodi:cx="284.01938"
           id="path5407"
           style="fill:#252525;fill-opacity:1;stroke:none"
           sodipodi:type="arc" />
        <path
           style="fill:url(#linearGradient4042);fill-opacity:1;stroke:none"
           d="m -81.115999,815.9575 0,0.75 24.75,0 0,-0.75 z m 1.5,2.25 0,0.75 22.5,0 0,-0.75 z m 0.75,2.25 0,0.75 21,0 0,-0.75 z m 1.5,2.25 0,0.75 18.75,0 0,-0.75 z m 1.5,2.25 0,0.75 16.5,0 0,-0.75 z m 1.5,2.25 0,0.75 14.25,0 0,-0.75 z m 0.75,2.25 0,0.75 12.75,0 0,-0.75 z"
           id="path4519"
           inkscape:connector-curvature="0"
           sodipodi:nodetypes="ccccccccccccccccccccccccccccccccccc" />
        <path
           style="fill:#1f1c1b;fill-opacity:1;stroke:none"
           d="m -80.365998,815.9575 -1.5,0 c 0,0 7.602195,13.773 8.25,15 0.518009,0.75303 0.75,1.5 1.5,1.5 l 10.5,0 c 0.75,0 1.10985,-0.45805 1.5,-1.5 l 4.5,-15 5.25,0 c 0.981317,0.002 0.959381,-1.50239 0,-1.5 l -5.25,0 c -0.47025,10e-6 -1.151971,0.3464 -1.5,1.5 -1.72377,5.70353 -2.792566,9.25839 -4.5,15 l -10.5,0 z"
           id="path4513"
           inkscape:connector-curvature="0"
           sodipodi:nodetypes="cccccccccccccc" />
      </g>
      <g
         id="g3986"
         transform="translate(-5.9999994,-2.3569813e-5)">
        <rect
           y="814.45752"
           x="-111.866"
           height="24"
           width="24"
           id="rect3216"
           style="fill:#fcff00;fill-opacity:0;stroke:none" />
        <path
           style="fill:url(#linearGradient4010);fill-opacity:1;stroke:none"
           d="m -108.866,822.2075 0,0.5 16.500002,0 0,-0.5 z m 1,1.5 0,0.5 15.000002,0 0,-0.5 z m 0.5,1.5 0,0.5 14.000002,0 0,-0.5 z m 1,1.5 0,0.5 12.500002,0 0,-0.5 z m 1,1.5 0,0.5 11.000002,0 0,-0.5 z m 1,1.5 0,0.5 9.500002,0 0,-0.5 z m 0.5,1.5 0,0.5 8.500002,0 0,-0.5 z"
           id="path3113"
           inkscape:connector-curvature="0"
           sodipodi:nodetypes="ccccccccccccccccccccccccccccccccccc" />
        <path
           style="fill:#1f1c1b;fill-opacity:1;stroke:none"
           d="m -102.116,833.9575 c -0.82844,0 -1.5,0.67157 -1.5,1.5 0,0.82843 0.67156,1.5 1.5,1.5 0.82843,0 1.5,-0.67157 1.5,-1.5 0,-0.82843 -0.67157,-1.5 -1.5,-1.5 z m 0,0.75 c 0.41406,0 0.75,0.32812 0.75,0.75 0,0.42188 -0.34375,0.75 -0.75,0.75 -0.40625,0 -0.74219,-0.34886 -0.75,-0.75 -0.008,-0.40114 0.33594,-0.75 0.75,-0.75 z"
           id="path3115"
           inkscape:connector-curvature="0"
           sodipodi:nodetypes="ssssszzzzz" />
        <path
           sodipodi:nodetypes="ssssszzzzz"
           inkscape:connector-curvature="0"
           id="path3117"
           d="m -95.365999,833.9575 c -0.82844,0 -1.5,0.67157 -1.5,1.5 0,0.82843 0.67156,1.5 1.5,1.5 0.82843,0 1.5,-0.67157 1.5,-1.5 0,-0.82843 -0.67157,-1.5 -1.5,-1.5 z m 0,0.75 c 0.41406,0 0.75,0.32812 0.75,0.75 0,0.42188 -0.34375,0.75 -0.75,0.75 -0.40625,0 -0.74219,-0.34886 -0.75,-0.75 -0.0078,-0.40114 0.33594,-0.75 0.75,-0.75 z"
           style="fill:#1f1c1b;fill-opacity:1;stroke:none" />
        <path
           sodipodi:nodetypes="ssssszzzzz"
           inkscape:connector-curvature="0"
           id="path3119"
           d="m -105.116,835.4575 c -0.82844,0 -1.5,0.67157 -1.5,1.5 0,0.82843 0.67156,1.5 1.5,1.5 0.82843,0 1.5,-0.67157 1.5,-1.5 0,-0.82843 -0.67157,-1.5 -1.5,-1.5 z m 0,0.75 c 0.41406,0 0.75,0.32812 0.75,0.75 0,0.42188 -0.34375,0.75 -0.75,0.75 -0.40625,0 -0.74219,-0.34886 -0.75,-0.75 -0.008,-0.40114 0.33594,-0.75 0.75,-0.75 z"
           style="fill:#1f1c1b;fill-opacity:1;stroke:none" />
        <path
           style="fill:#1f1c1b;fill-opacity:1;stroke:none"
           d="m -98.365999,835.4575 c -0.82844,0 -1.500002,0.67157 -1.500002,1.5 0,0.82843 0.671562,1.5 1.500002,1.5 0.82843,0 1.5,-0.67157 1.5,-1.5 0,-0.82843 -0.67157,-1.5 -1.5,-1.5 z m -10e-7,0.75002 c 0.41406,0 0.750001,0.3281 0.750001,0.74998 0,0.42188 -0.34375,0.75 -0.75,0.75 -0.40625,0 -0.74219,-0.34886 -0.75,-0.75 -0.0078,-0.40114 0.335939,-0.74998 0.749999,-0.74998 z"
           id="path3121"
           inkscape:connector-curvature="0"
           sodipodi:nodetypes="ssssszzzzz" />
        <path
           style="fill:#2b2b2b;fill-opacity:1;stroke:none"
           d="m -108.366,822.2075 -1,0 c 0,0 5.06813,9.182 5.5,10 0.34534,0.50202 0.5,1 1,1 l 7.000002,0 c 0.5,0 0.7399,-0.30537 1,-1 l 3.000001,-10 3.5,0 0,-1 -3.5,0 c -0.313501,10e-6 -0.767981,0.23093 -1.000001,1 -1.14918,3.80235 -1.86171,6.17226 -3,10 l -7.000002,0 z"
           id="path3123"
           inkscape:connector-curvature="0"
           sodipodi:nodetypes="cccccccccccccc" />
        <path
           style="fill:#000000;fill-opacity:1;stroke:none"
           d="m -102.866,832.2075 7.000002,0 1,0 c -0.136796,0.29545 -0.241011,0.69102 -0.569106,0.88399 l -2.57734,1.52762 -0.353554,-0.91161 -7.000002,0 z"
           id="path3125"
           inkscape:connector-curvature="0"
           sodipodi:nodetypes="cccccccc" />
        <path
           style="fill:#000000;fill-opacity:1;stroke:none"
           d="m -87.865997,821.7075 c 0,0.27614 -0.22386,0.5 -0.5,0.5 -0.27614,0 -0.5,-0.22386 -0.5,-0.5 0,-0.27615 0.22386,-0.5 0.5,-0.5 0.27614,0 0.5,0.22385 0.5,0.5 z"
           id="path3127"
           inkscape:connector-curvature="0" />
        <path
           style="fill:#434343;fill-opacity:1;stroke:none"
           d="m -108.866,822.2075 c -0.0421,0 -0.0746,0.0129 -0.10937,0.0313 -0.0223,0.0117 -0.0448,0.0292 -0.0625,0.0469 l -2.32813,1.42188 0,0.5 2.5625,-1.51563 c 0.10538,-0.0294 0.1875,-0.11963 0.1875,-0.23437 0,-0.13808 -0.11193,-0.25 -0.25,-0.25 z m 1,1.5 c -0.0387,0 -0.0767,-9e-5 -0.10937,0.0156 l -2.39063,1.48437 0,0.5 2.57813,-1.51562 c 0.0975,-0.0341 0.17187,-0.12522 0.17187,-0.23438 0,-0.13807 -0.11193,-0.25 -0.25,-0.25 z m 0.75,1.5 c -0.0497,0 -0.0861,0.0219 -0.125,0.0469 l -0.0156,-0.0156 -2.10937,1.46874 0,0.5 2.375,-1.54687 c 0.0692,-0.0445 0.125,-0.11473 0.125,-0.20313 0,-0.13807 -0.11193,-0.25 -0.25,-0.25 z m 0.75,1.5 c -0.069,0 -0.12663,0.0329 -0.17187,0.0781 l -2.32813,1.42187 0,0.5 2.60938,-1.53125 c 0.0794,-0.0419 0.14062,-0.12277 0.14062,-0.21875 0,-0.13807 -0.11193,-0.25 -0.25,-0.25 z m 1,1.5 c -0.0539,0 -0.0998,0.0179 -0.14062,0.0469 l 0,-0.0156 -2.35938,1.46874 0,0.5 2.54688,-1.51562 c 0.11326,-0.0238 0.20312,-0.11403 0.20312,-0.23438 0,-0.13807 -0.11193,-0.25 -0.25,-0.25 z m 0.73438,1.5 c -0.0345,0 -0.0638,0.003 -0.0937,0.0156 l -2.64063,1.48437 0,0.5 2.84375,-1.53124 c 0.0794,-0.0419 0.14063,-0.12278 0.14063,-0.21876 0,-0.13807 -0.11193,-0.25 -0.25,-0.25 z m 0.76562,1.5 c -0.069,0 -0.12663,0.0329 -0.17187,0.0781 l -2.32813,1.42187 0,0.5 2.60938,-1.53125 c 0.0794,-0.0419 0.14062,-0.12277 0.14062,-0.21875 0,-0.13807 -0.11193,-0.25 -0.25,-0.25 z"
           id="path3129"
           inkscape:connector-curvature="0" />
        <path
           sodipodi:nodetypes="ccccccccccccccccccccccccccccccccccc"
           inkscape:connector-curvature="0"
           id="path3131"
           d="m -94.865998,823.7075 0,0.5 2.618772,-1.53591 -0.256879,-0.4199 z m -0.5,1.5 0,0.5 2.593912,-1.52762 -0.198874,-0.45028 z m -0.5,1.5 0,0.5 2.549718,-1.51105 -0.160204,-0.46133 z m -0.5,1.5 0,0.5 2.555242,-1.51657 -0.138106,-0.47238 z m -0.5,1.5 0,0.5 2.61601,-1.52763 -0.19335,-0.47237 z m -0.5,1.5 0,0.5 2.599436,-1.52762 -0.187825,-0.45028 z m -0.5,1.5 0,0.5 2.610485,-1.53867 -0.204398,-0.45028 z"
           style="fill:#252525;fill-opacity:1;stroke:none" />
        <path
           style="fill:#000000;fill-opacity:1;stroke:none"
           d="m -91.230599,822.85665 2.556008,-1.53978 0.638614,0.76563 -2.594856,1.56661 z"
           id="path3133"
           inkscape:connector-curvature="0"
           sodipodi:nodetypes="ccccc" />
        <path
           style="fill:#000000;fill-opacity:1;stroke:none"
           d="m -90.365997,823.2075 c 0,0.27614 -0.22386,0.5 -0.5,0.5 -0.27614,0 -0.5,-0.22386 -0.5,-0.5 0,-0.27615 0.22386,-0.5 0.5,-0.5 0.27614,0 0.5,0.22385 0.5,0.5 z"
           id="path3135"
           inkscape:connector-curvature="0"
           sodipodi:nodetypes="sssss" />
        <path
           sodipodi:type="arc"
           style="fill:#252525;fill-opacity:1;stroke:none"
           id="path3137"
           sodipodi:cx="284.01938"
           sodipodi:cy="64.5"
           sodipodi:rx="0.50270873"
           sodipodi:ry="0.5"
           d="m 284.52209,64.5 c 0,0.276142 -0.22507,0.5 -0.50271,0.5 -0.27764,0 -0.50271,-0.223858 -0.50271,-0.5 0,-0.276142 0.22507,-0.5 0.50271,-0.5 0.27764,0 0.50271,0.223858 0.50271,0.5 z"
           transform="matrix(0.49730589,0,0,0.50000003,-235.6105,796.2075)" />
        <path
           transform="matrix(0.49730589,0,0,0.50000003,-235.1105,794.7075)"
           d="m 284.52209,64.5 c 0,0.276142 -0.22507,0.5 -0.50271,0.5 -0.27764,0 -0.50271,-0.223858 -0.50271,-0.5 0,-0.276142 0.22507,-0.5 0.50271,-0.5 0.27764,0 0.50271,0.223858 0.50271,0.5 z"
           sodipodi:ry="0.5"
           sodipodi:rx="0.50270873"
           sodipodi:cy="64.5"
           sodipodi:cx="284.01938"
           id="path3139"
           style="fill:#252525;fill-opacity:1;stroke:none"
           sodipodi:type="arc" />
        <path
           sodipodi:type="arc"
           style="fill:#252525;fill-opacity:1;stroke:none"
           id="path3141"
           sodipodi:cx="284.01938"
           sodipodi:cy="64.5"
           sodipodi:rx="0.50270873"
           sodipodi:ry="0.5"
           d="m 284.52209,64.5 c 0,0.276142 -0.22507,0.5 -0.50271,0.5 -0.27764,0 -0.50271,-0.223858 -0.50271,-0.5 0,-0.276142 0.22507,-0.5 0.50271,-0.5 0.27764,0 0.50271,0.223858 0.50271,0.5 z"
           transform="matrix(0.49730589,0,0,0.50000003,-234.6105,793.2075)" />
        <path
           transform="matrix(0.49730589,0,0,0.50000003,-234.1105,791.7075)"
           d="m 284.52209,64.5 c 0,0.276142 -0.22507,0.5 -0.50271,0.5 -0.27764,0 -0.50271,-0.223858 -0.50271,-0.5 0,-0.276142 0.22507,-0.5 0.50271,-0.5 0.27764,0 0.50271,0.223858 0.50271,0.5 z"
           sodipodi:ry="0.5"
           sodipodi:rx="0.50270873"
           sodipodi:cy="64.5"
           sodipodi:cx="284.01938"
           id="path3143"
           style="fill:#252525;fill-opacity:1;stroke:none"
           sodipodi:type="arc" />
        <path
           transform="matrix(0.49730589,0,0,0.50000003,-236.1105,797.7075)"
           d="m 284.52209,64.5 c 0,0.276142 -0.22507,0.5 -0.50271,0.5 -0.27764,0 -0.50271,-0.223858 -0.50271,-0.5 0,-0.276142 0.22507,-0.5 0.50271,-0.5 0.27764,0 0.50271,0.223858 0.50271,0.5 z"
           sodipodi:ry="0.5"
           sodipodi:rx="0.50270873"
           sodipodi:cy="64.5"
           sodipodi:cx="284.01938"
           id="path3145"
           style="fill:#252525;fill-opacity:1;stroke:none"
           sodipodi:type="arc" />
        <path
           sodipodi:type="arc"
           style="fill:#252525;fill-opacity:1;stroke:none"
           id="path3147"
           sodipodi:cx="284.01938"
           sodipodi:cy="64.5"
           sodipodi:rx="0.50270873"
           sodipodi:ry="0.5"
           d="m 284.52209,64.5 c 0,0.276142 -0.22507,0.5 -0.50271,0.5 -0.27764,0 -0.50271,-0.223858 -0.50271,-0.5 0,-0.276142 0.22507,-0.5 0.50271,-0.5 0.27764,0 0.50271,0.223858 0.50271,0.5 z"
           transform="matrix(0.49730589,0,0,0.50000003,-236.6105,799.2075)" />
        <path
           sodipodi:type="arc"
           style="fill:#252525;fill-opacity:1;stroke:none"
           id="path3149"
           sodipodi:cx="284.01938"
           sodipodi:cy="64.5"
           sodipodi:rx="0.50270873"
           sodipodi:ry="0.5"
           d="m 284.52209,64.5 c 0,0.276142 -0.22507,0.5 -0.50271,0.5 -0.27764,0 -0.50271,-0.223858 -0.50271,-0.5 0,-0.276142 0.22507,-0.5 0.50271,-0.5 0.27764,0 0.50271,0.223858 0.50271,0.5 z"
           transform="matrix(0.49730589,0,0,0.50000003,-233.6105,790.2075)" />
        <path
           sodipodi:nodetypes="ccccccccccccccccccccccccccccccccccc"
           inkscape:connector-curvature="0"
           id="path3151"
           d="m -111.366,823.7075 0,0.5 16.500002,0 0,-0.5 z m 1,1.5 0,0.5 15.000002,0 0,-0.5 z m 0.5,1.5 0,0.5 14.000002,0 0,-0.5 z m 1,1.5 0,0.5 12.500002,0 0,-0.5 z m 1,1.5 0,0.5 11.000002,0 0,-0.5 z m 1,1.5 0,0.5 9.500002,0 0,-0.5 z m 0.5,1.5 0,0.5 8.500002,0 0,-0.5 z"
           style="fill:url(#linearGradient4012);fill-opacity:1;stroke:none" />
        <path
           sodipodi:nodetypes="cccccccccccccc"
           inkscape:connector-curvature="0"
           id="path3153"
           d="m -110.866,823.7075 -1,0 c 0,0 5.06813,9.182 5.5,10 0.34534,0.50202 0.5,1 1,1 l 7.000002,0 c 0.5,0 0.7399,-0.30537 1,-1 l 3,-10 3.500001,0 c 0.654211,10e-4 0.639587,-1.00159 0,-1 l -3.500001,0 c -0.3135,10e-6 -0.76798,0.23093 -1,1 -1.14918,3.80235 -1.86171,6.17226 -3,10 l -7.000002,0 z"
           style="fill:#1f1c1b;fill-opacity:1;stroke:none" />
      </g>
      <g
         id="g3163">
        <path
           sodipodi:nodetypes="cccczccccccccccc"
           inkscape:connector-curvature="0"
           id="path4076"
           d="m -150.491,831.3325 -0.375,-0.375 -0.41602,0.375 2.09766,4.7461 c 0,0 0.28427,0.32809 0.35447,0.41016 0.0702,0.082 0.16699,0.0937 0.16699,0.0937 l 6.0469,4e-5 c 0.41649,-1.49822 1.19632,-4.12471 1.60549,-5.62495 l 1.39451,-5e-5 0,-0.75 -0.375,-0.375 -1.5,0.375 c -0.011,0.0336 -0.48825,1.18754 -0.50385,1.21884 l -1.19534,4.40621 -5.14456,-5e-5 z"
           style="fill:#e9e9e9;fill-opacity:1;stroke:none" />
        <path
           style="fill:#1f1c1b;fill-opacity:1;stroke:none"
           d="m -150.866,830.9575 -0.75,0 2.36719,4.99219 c 0,0 0.0206,0.082 0.0908,0.16407 0.0702,0.082 0.16699,0.0937 0.16699,0.0937 l 6.00002,4e-5 0.10547,-0.37499 1.59667,-5.25 1.29786,-10e-6 0,-0.75 -1.875,0 c -0.011,0.0336 -0.0166,0.0625 -0.0322,0.0938 l -1.66699,5.53125 -5.09768,-5e-5 z"
           id="path4082"
           inkscape:connector-curvature="0"
           sodipodi:nodetypes="ccczccccccccccc" />
        <path
           style="fill:#1f1c1b;fill-opacity:1;stroke:none"
           d="m -147.491,837.70751 c 0,0.41421 -0.33578,0.75 -0.75,0.75 -0.41421,0 -0.74999,-0.33579 -0.74999,-0.75 0,-0.41422 0.33578,-0.75 0.74999,-0.75 0.41422,0 0.75,0.33578 0.75,0.75 z"
           id="path4084"
           inkscape:connector-curvature="0" />
        <path
           style="fill:#1f1c1b;fill-opacity:1;stroke:none"
           d="m -142.991,837.7075 c 0,0.41421 -0.33578,0.75 -0.75,0.75 -0.41421,0 -0.75,-0.33579 -0.75,-0.75 0,-0.41422 0.33579,-0.75 0.75,-0.75 0.41422,0 0.75,0.33578 0.75,0.75 z"
           id="path4086"
           inkscape:connector-curvature="0" />
        <path
           style="fill:#1f1c1b;fill-opacity:1;stroke:none"
           d="m -146.741,834.33251 c 0,0.2071 -0.16789,0.375 -0.375,0.375 -0.20711,0 -0.375,-0.1679 -0.375,-0.375 0,-0.20711 0.16789,-0.37501 0.375,-0.37501 0.20711,0 0.375,0.1679 0.375,0.37501 z"
           id="path4088"
           inkscape:connector-curvature="0" />
        <path
           style="fill:#1f1c1b;fill-opacity:1;stroke:none"
           d="m -143.741,834.33251 c 0,0.2071 -0.16789,0.375 -0.375,0.375 -0.20711,0 -0.375,-0.1679 -0.375,-0.375 0,-0.20711 0.16789,-0.37501 0.375,-0.37501 0.20711,0 0.375,0.1679 0.375,0.37501 z"
           id="path4090"
           inkscape:connector-curvature="0" />
        <path
           style="fill:#1f1c1b;fill-opacity:1;stroke:none"
           d="m -146.741,832.83251 c 0,0.2071 -0.16789,0.375 -0.375,0.375 -0.20711,0 -0.375,-0.1679 -0.375,-0.375 0,-0.20711 0.16789,-0.37501 0.375,-0.37501 0.20711,0 0.375,0.1679 0.375,0.37501 z"
           id="path4092"
           inkscape:connector-curvature="0" />
        <path
           style="fill:#1f1c1b;fill-opacity:1;stroke:none"
           d="m -143.741,832.83251 c 0,0.2071 -0.16789,0.375 -0.375,0.375 -0.20711,0 -0.375,-0.1679 -0.375,-0.375 0,-0.20711 0.16789,-0.37501 0.375,-0.37501 0.20711,0 0.375,0.1679 0.375,0.37501 z"
           id="path4094"
           inkscape:connector-curvature="0" />
        <path
           style="fill:#1f1c1b;fill-opacity:1;stroke:none"
           d="m -142.241,832.83251 c 0,0.2071 -0.16789,0.375 -0.375,0.375 -0.20711,0 -0.375,-0.1679 -0.375,-0.375 0,-0.20711 0.16789,-0.37501 0.375,-0.37501 0.20711,0 0.375,0.1679 0.375,0.37501 z"
           id="path4096"
           inkscape:connector-curvature="0" />
        <path
           style="fill:#1f1c1b;fill-opacity:1;stroke:none"
           d="m -142.241,831.33251 c 0,0.2071 -0.16789,0.375 -0.375,0.375 -0.20711,0 -0.375,-0.1679 -0.375,-0.375 0,-0.20711 0.16789,-0.37501 0.375,-0.37501 0.20711,0 0.375,0.1679 0.375,0.37501 z"
           id="path4098"
           inkscape:connector-curvature="0" />
        <path
           style="fill:#1f1c1b;fill-opacity:1;stroke:none"
           d="m -148.241,831.33251 c 0,0.2071 -0.16789,0.375 -0.375,0.375 -0.20711,0 -0.375,-0.1679 -0.375,-0.375 0,-0.20711 0.16789,-0.37501 0.375,-0.37501 0.20711,0 0.375,0.1679 0.375,0.37501 z"
           id="path4100"
           inkscape:connector-curvature="0" />
        <path
           style="fill:#1f1c1b;fill-opacity:1;stroke:none"
           d="m -148.241,834.33251 c 0,0.2071 -0.16789,0.375 -0.375,0.375 -0.20711,0 -0.375,-0.1679 -0.375,-0.375 0,-0.20711 0.16789,-0.37501 0.375,-0.37501 0.20711,0 0.375,0.1679 0.375,0.37501 z"
           id="path4102"
           inkscape:connector-curvature="0" />
        <path
           style="fill:#1f1c1b;fill-opacity:1;stroke:none"
           d="m -148.241,832.83251 c 0,0.2071 -0.16789,0.375 -0.375,0.375 -0.20711,0 -0.375,-0.1679 -0.375,-0.375 0,-0.20711 0.16789,-0.37501 0.375,-0.37501 0.20711,0 0.375,0.1679 0.375,0.37501 z"
           id="path4104"
           inkscape:connector-curvature="0" />
        <path
           style="fill:#1f1c1b;fill-opacity:1;stroke:none"
           d="m -145.241,834.33251 c 0,0.2071 -0.16789,0.375 -0.375,0.375 -0.20711,0 -0.375,-0.1679 -0.375,-0.375 0,-0.20711 0.16789,-0.37501 0.375,-0.37501 0.20711,0 0.375,0.1679 0.375,0.37501 z"
           id="path4106"
           inkscape:connector-curvature="0" />
        <path
           style="fill:#1f1c1b;fill-opacity:1;stroke:none"
           d="m -149.741,831.33251 c 0,0.2071 -0.16789,0.375 -0.375,0.375 -0.20711,0 -0.375,-0.1679 -0.375,-0.375 0,-0.20711 0.16789,-0.37501 0.375,-0.37501 0.20711,0 0.375,0.1679 0.375,0.37501 z"
           id="path4108"
           inkscape:connector-curvature="0" />
        <path
           style="fill:#1f1c1b;fill-opacity:1;stroke:none"
           d="m -149.741,832.83251 c 0,0.2071 -0.16789,0.375 -0.375,0.375 -0.20711,0 -0.375,-0.1679 -0.375,-0.375 0,-0.20711 0.16789,-0.37501 0.375,-0.37501 0.20711,0 0.375,0.1679 0.375,0.37501 z"
           id="path4110"
           inkscape:connector-curvature="0" />
        <path
           inkscape:connector-curvature="0"
           id="path4116"
           d="m -147.11599,831.70749 c -0.20709,0 -0.375,-0.16789 -0.375,-0.375 0,-0.2071 0.16791,-0.375 0.375,-0.375 0.20709,0 0.375,0.1679 0.375,0.375 0,0.20711 -0.16791,0.375 -0.375,0.375 z"
           style="fill:#1f1c1b;fill-opacity:1;stroke:none" />
        <path
           inkscape:connector-curvature="0"
           id="path4118"
           d="m -145.61599,833.2075 c -0.20709,0 -0.375,-0.1679 -0.375,-0.375 0,-0.20709 0.16791,-0.375 0.375,-0.375 0.20709,0 0.375,0.16791 0.375,0.375 0,0.2071 -0.16791,0.375 -0.375,0.375 z"
           style="fill:#1f1c1b;fill-opacity:1;stroke:none" />
        <path
           inkscape:connector-curvature="0"
           id="path4120"
           d="m -145.61599,831.7075 c -0.2071,0 -0.375,-0.1679 -0.375,-0.375 0,-0.2071 0.1679,-0.375 0.375,-0.375 0.20709,0 0.375,0.1679 0.375,0.375 0,0.2071 -0.16791,0.375 -0.375,0.375 z"
           style="fill:#1f1c1b;fill-opacity:1;stroke:none" />
        <path
           style="fill:#1f1c1b;fill-opacity:1;stroke:none"
           d="m -144.116,831.7075 c -0.2071,0 -0.375,-0.1679 -0.375,-0.375 0,-0.2071 0.1679,-0.375 0.375,-0.375 0.20709,0 0.375,0.1679 0.375,0.375 0,0.2071 -0.16791,0.375 -0.375,0.375 z"
           id="path4124"
           inkscape:connector-curvature="0" />
        <rect
           y="826.45752"
           x="-151.616"
           height="12"
           width="12"
           id="rect3161"
           style="fill:#fcff00;fill-opacity:0;stroke:none" />
      </g>
      <g
         id="g3188"
         transform="translate(3.0000002,-2.3569813e-5)">
        <path
           style="fill:#e9e9e9;fill-opacity:1;stroke:none"
           d="m -138.491,828.3325 -0.375,-0.375 -0.375,0.375 c 0,0 3.46659,6.21652 3.75,6.75 0.22663,0.32741 0.27508,0.75 0.75,0.75 l 6,0 c 0.56455,0 0.57931,-0.29698 0.75,-0.75 l 2.25,-6.75 2.25,0 0,-0.75 -0.375,-0.375 -1.875,0.375 c -0.51026,0 -0.75,0.24843 -0.75,0.75 -0.75415,2.47979 -1.503,4.25365 -2.25,6.75 l -6,0 z"
           id="path4264"
           inkscape:connector-curvature="0"
           sodipodi:nodetypes="cccccccccccccccc" />
        <path
           sodipodi:nodetypes="cccccccccccccc"
           inkscape:connector-curvature="0"
           id="path3336"
           d="m -138.866,827.9575 -0.75,0 c 0,0 3.46659,6.21652 3.75,6.75 0.22663,0.32741 0.27508,0.75 0.75,0.75 l 6,0 c 0.56455,0 0.57931,-0.29698 0.75,-0.75 l 2.25,-6.75 2.25,0 0,-0.75 -2.25,0 c -0.51026,0 -0.75,0.24843 -0.75,0.75 -0.75415,2.47979 -1.503,4.25365 -2.25,6.75 l -6,0 z"
           style="fill:#1f1c1b;fill-opacity:1;stroke:none" />
        <path
           sodipodi:nodetypes="sssssccccc"
           inkscape:connector-curvature="0"
           id="path3338"
           d="m -134.741,836.2075 c -0.62132,0 -1.125,0.50367 -1.125,1.125 0,0.62132 0.50368,1.125 1.125,1.125 0.62133,0 1.125,-0.50368 1.125,-1.125 0,-0.62133 -0.50367,-1.125 -1.125,-1.125 z m 0.375,0.75 0,0.75 -0.75,0 0,-0.75 z"
           style="fill:#1f1c1b;fill-opacity:1;stroke:none" />
        <path
           transform="matrix(0.37500235,0,0,0.3243265,-145.24105,827.20749)"
           d="M 23,3.46875 C 23,4.1073292 22.552285,4.625 22,4.625 c -0.552285,0 -1,-0.5176708 -1,-1.15625 0,-0.6385792 0.447715,-1.15625 1,-1.15625 0.552285,0 1,0.5176708 1,1.15625 z"
           sodipodi:ry="1.15625"
           sodipodi:rx="1"
           sodipodi:cy="3.46875"
           sodipodi:cx="22"
           id="path4214"
           style="fill:#1f1c1b;fill-opacity:1;stroke:none"
           sodipodi:type="arc" />
        <path
           sodipodi:type="arc"
           style="fill:#1f1c1b;fill-opacity:1;stroke:none"
           id="path4216"
           sodipodi:cx="22"
           sodipodi:cy="3.46875"
           sodipodi:rx="1"
           sodipodi:ry="1.15625"
           d="M 23,3.46875 C 23,4.1073292 22.552285,4.625 22,4.625 c -0.552285,0 -1,-0.5176708 -1,-1.15625 0,-0.6385792 0.447715,-1.15625 1,-1.15625 0.552285,0 1,0.5176708 1,1.15625 z"
           transform="matrix(0.37500235,0,0,0.3243265,-142.99105,827.20749)" />
        <path
           transform="matrix(0.37500235,0,0,0.3243265,-140.74105,827.20749)"
           d="M 23,3.46875 C 23,4.1073292 22.552285,4.625 22,4.625 c -0.552285,0 -1,-0.5176708 -1,-1.15625 0,-0.6385792 0.447715,-1.15625 1,-1.15625 0.552285,0 1,0.5176708 1,1.15625 z"
           sodipodi:ry="1.15625"
           sodipodi:rx="1"
           sodipodi:cy="3.46875"
           sodipodi:cx="22"
           id="path4218"
           style="fill:#1f1c1b;fill-opacity:1;stroke:none"
           sodipodi:type="arc" />
        <path
           sodipodi:type="arc"
           style="fill:#1f1c1b;fill-opacity:1;stroke:none"
           id="path4220"
           sodipodi:cx="22"
           sodipodi:cy="3.46875"
           sodipodi:rx="1"
           sodipodi:ry="1.15625"
           d="M 23,3.46875 C 23,4.1073292 22.552285,4.625 22,4.625 c -0.552285,0 -1,-0.5176708 -1,-1.15625 0,-0.6385792 0.447715,-1.15625 1,-1.15625 0.552285,0 1,0.5176708 1,1.15625 z"
           transform="matrix(0.37500235,0,0,0.3243265,-138.49105,827.20749)" />
        <path
           transform="matrix(0.37500235,0,0,0.3243265,-136.24105,827.20749)"
           d="M 23,3.46875 C 23,4.1073292 22.552285,4.625 22,4.625 c -0.552285,0 -1,-0.5176708 -1,-1.15625 0,-0.6385792 0.447715,-1.15625 1,-1.15625 0.552285,0 1,0.5176708 1,1.15625 z"
           sodipodi:ry="1.15625"
           sodipodi:rx="1"
           sodipodi:cy="3.46875"
           sodipodi:cx="22"
           id="path4222"
           style="fill:#1f1c1b;fill-opacity:1;stroke:none"
           sodipodi:type="arc" />
        <path
           sodipodi:type="arc"
           style="fill:#1f1c1b;fill-opacity:1;stroke:none"
           id="path4224"
           sodipodi:cx="22"
           sodipodi:cy="3.46875"
           sodipodi:rx="1"
           sodipodi:ry="1.15625"
           d="M 23,3.46875 C 23,4.1073292 22.552285,4.625 22,4.625 c -0.552285,0 -1,-0.5176708 -1,-1.15625 0,-0.6385792 0.447715,-1.15625 1,-1.15625 0.552285,0 1,0.5176708 1,1.15625 z"
           transform="matrix(0.37500235,0,0,0.3243265,-145.24105,828.70749)" />
        <path
           transform="matrix(0.37500235,0,0,0.3243265,-142.99105,828.70749)"
           d="M 23,3.46875 C 23,4.1073292 22.552285,4.625 22,4.625 c -0.552285,0 -1,-0.5176708 -1,-1.15625 0,-0.6385792 0.447715,-1.15625 1,-1.15625 0.552285,0 1,0.5176708 1,1.15625 z"
           sodipodi:ry="1.15625"
           sodipodi:rx="1"
           sodipodi:cy="3.46875"
           sodipodi:cx="22"
           id="path4226"
           style="fill:#1f1c1b;fill-opacity:1;stroke:none"
           sodipodi:type="arc" />
        <path
           sodipodi:type="arc"
           style="fill:#1f1c1b;fill-opacity:1;stroke:none"
           id="path4228"
           sodipodi:cx="22"
           sodipodi:cy="3.46875"
           sodipodi:rx="1"
           sodipodi:ry="1.15625"
           d="M 23,3.46875 C 23,4.1073292 22.552285,4.625 22,4.625 c -0.552285,0 -1,-0.5176708 -1,-1.15625 0,-0.6385792 0.447715,-1.15625 1,-1.15625 0.552285,0 1,0.5176708 1,1.15625 z"
           transform="matrix(0.37500235,0,0,0.3243265,-140.74105,828.70749)" />
        <path
           transform="matrix(0.37500235,0,0,0.3243265,-138.49105,828.70749)"
           d="M 23,3.46875 C 23,4.1073292 22.552285,4.625 22,4.625 c -0.552285,0 -1,-0.5176708 -1,-1.15625 0,-0.6385792 0.447715,-1.15625 1,-1.15625 0.552285,0 1,0.5176708 1,1.15625 z"
           sodipodi:ry="1.15625"
           sodipodi:rx="1"
           sodipodi:cy="3.46875"
           sodipodi:cx="22"
           id="path4230"
           style="fill:#1f1c1b;fill-opacity:1;stroke:none"
           sodipodi:type="arc" />
        <path
           sodipodi:type="arc"
           style="fill:#1f1c1b;fill-opacity:1;stroke:none"
           id="path4232"
           sodipodi:cx="22"
           sodipodi:cy="3.46875"
           sodipodi:rx="1"
           sodipodi:ry="1.15625"
           d="M 23,3.46875 C 23,4.1073292 22.552285,4.625 22,4.625 c -0.552285,0 -1,-0.5176708 -1,-1.15625 0,-0.6385792 0.447715,-1.15625 1,-1.15625 0.552285,0 1,0.5176708 1,1.15625 z"
           transform="matrix(0.37500235,0,0,0.3243265,-136.24105,828.70749)" />
        <path
           transform="matrix(0.37500235,0,0,0.3243265,-145.24105,830.20749)"
           d="M 23,3.46875 C 23,4.1073292 22.552285,4.625 22,4.625 c -0.552285,0 -1,-0.5176708 -1,-1.15625 0,-0.6385792 0.447715,-1.15625 1,-1.15625 0.552285,0 1,0.5176708 1,1.15625 z"
           sodipodi:ry="1.15625"
           sodipodi:rx="1"
           sodipodi:cy="3.46875"
           sodipodi:cx="22"
           id="path4234"
           style="fill:#1f1c1b;fill-opacity:1;stroke:none"
           sodipodi:type="arc" />
        <path
           sodipodi:type="arc"
           style="fill:#1f1c1b;fill-opacity:1;stroke:none"
           id="path4236"
           sodipodi:cx="22"
           sodipodi:cy="3.46875"
           sodipodi:rx="1"
           sodipodi:ry="1.15625"
           d="M 23,3.46875 C 23,4.1073292 22.552285,4.625 22,4.625 c -0.552285,0 -1,-0.5176708 -1,-1.15625 0,-0.6385792 0.447715,-1.15625 1,-1.15625 0.552285,0 1,0.5176708 1,1.15625 z"
           transform="matrix(0.37500235,0,0,0.3243265,-142.99105,830.20749)" />
        <path
           transform="matrix(0.37500235,0,0,0.3243265,-140.74105,830.20749)"
           d="M 23,3.46875 C 23,4.1073292 22.552285,4.625 22,4.625 c -0.552285,0 -1,-0.5176708 -1,-1.15625 0,-0.6385792 0.447715,-1.15625 1,-1.15625 0.552285,0 1,0.5176708 1,1.15625 z"
           sodipodi:ry="1.15625"
           sodipodi:rx="1"
           sodipodi:cy="3.46875"
           sodipodi:cx="22"
           id="path4238"
           style="fill:#1f1c1b;fill-opacity:1;stroke:none"
           sodipodi:type="arc" />
        <path
           sodipodi:type="arc"
           style="fill:#1f1c1b;fill-opacity:1;stroke:none"
           id="path4240"
           sodipodi:cx="22"
           sodipodi:cy="3.46875"
           sodipodi:rx="1"
           sodipodi:ry="1.15625"
           d="M 23,3.46875 C 23,4.1073292 22.552285,4.625 22,4.625 c -0.552285,0 -1,-0.5176708 -1,-1.15625 0,-0.6385792 0.447715,-1.15625 1,-1.15625 0.552285,0 1,0.5176708 1,1.15625 z"
           transform="matrix(0.37500235,0,0,0.3243265,-138.49105,830.20749)" />
        <path
           transform="matrix(0.37500235,0,0,0.3243265,-136.24105,830.20749)"
           d="M 23,3.46875 C 23,4.1073292 22.552285,4.625 22,4.625 c -0.552285,0 -1,-0.5176708 -1,-1.15625 0,-0.6385792 0.447715,-1.15625 1,-1.15625 0.552285,0 1,0.5176708 1,1.15625 z"
           sodipodi:ry="1.15625"
           sodipodi:rx="1"
           sodipodi:cy="3.46875"
           sodipodi:cx="22"
           id="path4242"
           style="fill:#1f1c1b;fill-opacity:1;stroke:none"
           sodipodi:type="arc" />
        <path
           transform="matrix(0.37500235,0,0,0.3243265,-142.99105,831.70749)"
           d="M 23,3.46875 C 23,4.1073292 22.552285,4.625 22,4.625 c -0.552285,0 -1,-0.5176708 -1,-1.15625 0,-0.6385792 0.447715,-1.15625 1,-1.15625 0.552285,0 1,0.5176708 1,1.15625 z"
           sodipodi:ry="1.15625"
           sodipodi:rx="1"
           sodipodi:cy="3.46875"
           sodipodi:cx="22"
           id="path4246"
           style="fill:#1f1c1b;fill-opacity:1;stroke:none"
           sodipodi:type="arc" />
        <path
           sodipodi:type="arc"
           style="fill:#1f1c1b;fill-opacity:1;stroke:none"
           id="path4248"
           sodipodi:cx="22"
           sodipodi:cy="3.46875"
           sodipodi:rx="1"
           sodipodi:ry="1.15625"
           d="M 23,3.46875 C 23,4.1073292 22.552285,4.625 22,4.625 c -0.552285,0 -1,-0.5176708 -1,-1.15625 0,-0.6385792 0.447715,-1.15625 1,-1.15625 0.552285,0 1,0.5176708 1,1.15625 z"
           transform="matrix(0.37500235,0,0,0.3243265,-140.74105,831.70749)" />
        <path
           transform="matrix(0.37500235,0,0,0.3243265,-138.49105,831.70749)"
           d="M 23,3.46875 C 23,4.1073292 22.552285,4.625 22,4.625 c -0.552285,0 -1,-0.5176708 -1,-1.15625 0,-0.6385792 0.447715,-1.15625 1,-1.15625 0.552285,0 1,0.5176708 1,1.15625 z"
           sodipodi:ry="1.15625"
           sodipodi:rx="1"
           sodipodi:cy="3.46875"
           sodipodi:cx="22"
           id="path4250"
           style="fill:#1f1c1b;fill-opacity:1;stroke:none"
           sodipodi:type="arc" />
        <path
           sodipodi:type="arc"
           style="fill:#1f1c1b;fill-opacity:1;stroke:none"
           id="path4256"
           sodipodi:cx="22"
           sodipodi:cy="3.46875"
           sodipodi:rx="1"
           sodipodi:ry="1.15625"
           d="M 23,3.46875 C 23,4.1073292 22.552285,4.625 22,4.625 c -0.552285,0 -1,-0.5176708 -1,-1.15625 0,-0.6385792 0.447715,-1.15625 1,-1.15625 0.552285,0 1,0.5176708 1,1.15625 z"
           transform="matrix(0.37500235,0,0,0.3243265,-142.99105,833.20749)" />
        <path
           transform="matrix(0.37500235,0,0,0.3243265,-140.74105,833.20749)"
           d="M 23,3.46875 C 23,4.1073292 22.552285,4.625 22,4.625 c -0.552285,0 -1,-0.5176708 -1,-1.15625 0,-0.6385792 0.447715,-1.15625 1,-1.15625 0.552285,0 1,0.5176708 1,1.15625 z"
           sodipodi:ry="1.15625"
           sodipodi:rx="1"
           sodipodi:cy="3.46875"
           sodipodi:cx="22"
           id="path4258"
           style="fill:#1f1c1b;fill-opacity:1;stroke:none"
           sodipodi:type="arc" />
        <path
           sodipodi:type="arc"
           style="fill:#1f1c1b;fill-opacity:1;stroke:none"
           id="path4260"
           sodipodi:cx="22"
           sodipodi:cy="3.46875"
           sodipodi:rx="1"
           sodipodi:ry="1.15625"
           d="M 23,3.46875 C 23,4.1073292 22.552285,4.625 22,4.625 c -0.552285,0 -1,-0.5176708 -1,-1.15625 0,-0.6385792 0.447715,-1.15625 1,-1.15625 0.552285,0 1,0.5176708 1,1.15625 z"
           transform="matrix(0.37500235,0,0,0.3243265,-138.49105,833.20749)" />
        <path
           style="fill:#1f1c1b;fill-opacity:1;stroke:none"
           d="m -129.491,836.20751 c -0.62132,0 -1.125,0.50367 -1.125,1.125 0,0.62132 0.50368,1.125 1.125,1.125 0.62133,0 1.125,-0.50368 1.125,-1.125 0,-0.62133 -0.50367,-1.125 -1.125,-1.125 z m 0.375,0.74999 0,0.75 -0.75,0 0,-0.75 z"
           id="path4374"
           inkscape:connector-curvature="0"
           sodipodi:nodetypes="sssssccccc" />
        <rect
           y="821.95752"
           x="-139.616"
           height="16.5"
           width="16.5"
           id="rect3186"
           style="fill:#fcff00;fill-opacity:0;stroke:none" />
      </g>
    </g>
  </g>
</svg>
